<?xml version="1.0" encoding="utf-8"?>
<!-- Generator: Adobe Illustrator 16.0.3, SVG Export Plug-In . SVG Version: 6.00 Build 0)  -->
<!DOCTYPE svg PUBLIC "-//W3C//DTD SVG 1.1//EN" "http://www.w3.org/Graphics/SVG/1.1/DTD/svg11.dtd">
<svg version="1.1" id="Layer_6" xmlns="http://www.w3.org/2000/svg" xmlns:xlink="http://www.w3.org/1999/xlink" x="0px" y="0px"
	 width="841.89px" height="1039.054px" viewBox="0 0 841.89 1039.054" enable-background="new 0 0 841.89 1039.054"
	 xml:space="preserve">
<g>
</g>
<path fill="none" stroke="#000000" stroke-width="2" stroke-miterlimit="10" stroke-dasharray="5,3" d="M488.587,685.071
	c0,0,82.496-158.992,73.496-139.493c-4.002,8.67,41.903-180.18,49.498-164.991c4.5,9-43.498-35.999-43.498-35.999s9-11.998,6-25.498
	s-38.998-50.998-38.998-50.998"/>
<path fill="none" stroke="#000000" stroke-width="2" stroke-miterlimit="10" stroke-dasharray="5,3" d="M499.087,233.594l1.5,16.499
	l4.499,19.499l1.5,10.5l9,1.5c0,0,11.999-4.5,16.499-9s7.5-9,7.5-9s10.499-4.5,14.999-12s8.999-10.5,8.999-16.499s6-4.5,4.5-17.999
	s-4.5-6-19.499-4.5s-11.999,7.5-20.999,10.5s-34.498,15-55.497,13.5s-70.497,10.5-92.995,12s-98.995,10.5-110.995,10.5s-9-3-15-10.5
	s-14.999,0-23.999-1.5s-10.5,3-23.999,6s-10.5,12-14.999,19.499s32.999,86.996,40.498,103.495s68.997,71.996,80.996,76.496
	s82.496-13.499,98.995-11.999s62.997,23.998,76.496,28.498s86.996,1.5,86.996,1.5"/>
<path fill="none" stroke="#000000" stroke-width="2" stroke-miterlimit="10" stroke-dasharray="5,3" d="M506.586,280.091
	c0,0-8.999,4.5-8.999,19.5s3,34.497,16.499,43.497s17.998,12,29.998,12s23.999-9,23.999-9"/>
<path fill="none" stroke="#000000" stroke-width="7" stroke-miterlimit="10" d="M356.594,944.559
	c0,0,199.49-281.987,215.989-305.985s104.994-176.991,106.494-230.988s-7.499-164.992-46.497-220.489S503.586,0,503.586,0"/>
<line fill="none" stroke="#000000" stroke-width="7" stroke-miterlimit="10" x1="737.574" y1="845.563" x2="521.586" y2="712.07"/>
<path fill="none" stroke="#FAA21B" stroke-width="4" stroke-miterlimit="10" d="M356.594,944.559
	c0,0,199.49-281.987,215.989-305.985s104.994-176.991,106.494-230.988s-7.499-164.992-46.497-220.489S503.586,0,503.586,0"/>
<line fill="none" stroke="#FAA21B" stroke-width="4" stroke-miterlimit="10" x1="737.574" y1="845.563" x2="521.586" y2="712.07"/>
<path fill="none" stroke="#ED1C24" stroke-width="2" stroke-miterlimit="10" d="M356.594,944.559
	c0,0,199.49-281.987,215.989-305.985s104.994-176.991,106.494-230.988s-7.499-164.992-46.497-220.489S503.586,0,503.586,0"/>
<line fill="none" stroke="#ED1C24" stroke-width="2" stroke-miterlimit="10" x1="737.574" y1="845.563" x2="521.586" y2="712.07"/>
<path fill="none" stroke="#000000" stroke-width="2" stroke-miterlimit="10" stroke-dasharray="5,3" d="M284.667,291.667
	c3.118-3.56,5.076-9.547,6.928-13.753c1.616-3.669,3.478-6.257,6.324-9.298c2.657-2.839,4.901-4.873,8.094-6.886
	c2.283-1.439,5.053-5.604,7.988-6.063"/>
<g>
	<g>
		<line fill="none" stroke="#000000" stroke-miterlimit="10" x1="465.333" y1="340.334" x2="513.344" y2="323.354"/>
		<g>
			<polygon points="520,321 511.976,328.15 512.846,323.53 509.265,320.485 			"/>
		</g>
	</g>
</g>
<g>
	<g>
		
			<line fill="none" stroke="#000000" stroke-width="3" stroke-miterlimit="10" x1="594.729" y1="106.149" x2="585.832" y2="93.267"/>
		<g>
			<polygon points="579.813,84.552 593.312,93.367 586.281,93.918 583.277,100.296 			"/>
		</g>
	</g>
</g>
<g>
	<path fill="none" d="M136.614,324.308c25.141-10.215,62.474-19.997,84.276,2.483c6.125,6.316,5.872,13.113,7.248,21.194
		c1.681,9.867,6.988,17.787,13.128,25.509c7.559,9.506,17.239,27.618,30.015,30.813"/>
	<path d="M227.629,347.106c-0.465-2.721,1.389-5.29,4.129-5.759c2.76-0.473,5.362,1.335,5.827,4.056
		c0.462,2.701-1.392,5.271-4.151,5.742C230.694,351.614,228.092,349.807,227.629,347.106z M236.364,345.612
		c-0.324-1.893-2.263-3.144-4.353-2.786c-2.07,0.354-3.503,2.182-3.179,4.074c0.32,1.873,2.278,3.121,4.349,2.767
		C235.271,349.31,236.684,347.485,236.364,345.612z"/>
	<path d="M230.451,356.768c-0.244-0.592,0.027-1.244,0.619-1.488c0.572-0.236,1.225,0.035,1.469,0.626
		c0.237,0.573-0.034,1.226-0.607,1.462C231.34,357.611,230.687,357.34,230.451,356.768z"/>
	<path d="M232.087,366.447c-0.56-0.269-1.124-0.698-1.617-1.241c-0.472-0.51-0.713-0.831-1.386-1.826l1.077-0.652
		c0.752,1.087,1,1.381,1.572,1.9c1.102,0.969,2.456,1.084,3.757,0.296c0.854-0.518,1.407-1.227,1.579-1.985
		c0.135-0.666-0.047-1.351-0.645-2.415l-0.474-0.859l5.166-3.129l2.808,4.636l-1.077,0.652l-2.062-3.403l-3.01,1.823l0.353,0.698
		c0.996,1.992,0.359,3.991-1.744,5.265C235.033,367.025,233.452,367.117,232.087,366.447z"/>
	<path d="M248.222,383.068l5.231-3.717c0.537-0.383,0.635-0.452,0.782-0.729c0.163-0.288,0.102-0.686-0.142-1.027
		c-0.486-0.685-1.469-1.065-3.386-1.347l-0.602-0.088l-4.514,3.208l-0.869-1.222l5.231-3.718c0.538-0.382,0.636-0.452,0.783-0.728
		c0.163-0.288,0.102-0.686-0.142-1.028c-0.533-0.749-1.654-1.154-3.987-1.434l-4.515,3.208l-0.868-1.223l7.382-5.246l0.869,1.222
		l-1.549,1.101c0.93,0.1,1.181,0.143,1.729,0.292c0.867,0.219,1.648,0.767,2.135,1.451c0.869,1.222,0.738,2.247-0.394,3.174
		c0.958,0.104,1.209,0.146,1.757,0.297c0.866,0.218,1.648,0.767,2.135,1.451c0.927,1.304,0.71,2.414-0.676,3.398l-5.524,3.926
		L248.222,383.068z"/>
	<path d="M251.142,387.164l7.251-5.434l0.899,1.2l-7.251,5.434L251.142,387.164z M260.593,381.031
		c-0.323-0.432-0.235-1.048,0.197-1.372c0.432-0.323,1.048-0.235,1.372,0.197c0.323,0.432,0.235,1.048-0.197,1.372
		C261.534,381.552,260.917,381.464,260.593,381.031z"/>
	<path d="M254.364,391.332l11.224-9.3l0.957,1.155l-11.224,9.299L254.364,391.332z"/>
	<path d="M261.989,393.001c-1.485,1.621-1.564,3.365-0.208,4.607c0.589,0.54,1.165,0.77,2.347,0.931l-0.354,1.274
		c-1.555-0.285-2.29-0.607-3.16-1.403c-1.857-1.702-1.813-4.265,0.117-6.373c1.944-2.122,4.48-2.375,6.382-0.633
		c1.562,1.432,1.566,3.469,0.041,5.135l-0.595,0.648L261.989,393.001z M266.12,392.339c-0.929-0.851-2.09-0.885-3.286-0.082
		l3.272,2.998C267.037,394.209,267.034,393.177,266.12,392.339z"/>
</g>
<g>
	<path fill="#ED1C24" d="M441.252,934.575c-1.381,0-2.621-0.74-2.621-2.24v-5.341h-1.381v-1.761l1.381-0.24v-2.641h3.861v2.561
		h2.221v2.081h-2.221v3.761c0,0.7,0.26,0.9,0.58,0.9c0.199,0,0.6-0.32,1.02-0.601l0.94,2.141
		C443.771,933.955,442.812,934.575,441.252,934.575z"/>
	<path fill="#ED1C24" d="M450.432,934.575c-2.78,0-5.281-1.72-5.281-5.001c0-3.221,2.501-5.001,5.281-5.001
		c2.781,0,5.281,1.78,5.281,5.001C455.713,932.955,453.213,934.575,450.432,934.575z M450.432,927.273c-0.721,0-1.2,0.841-1.2,2.301
		c0,1.48,0.479,2.301,1.2,2.301c0.74,0,1.2-0.82,1.2-2.301C451.632,928.114,451.191,927.273,450.432,927.273z"/>
	<path fill="#ED1C24" d="M409.093,943.174c-1.16-0.7-2.38-1.181-3.881-1.181c-0.74,0-1.14,0.38-1.14,0.82
		c0,0.64,2,1.561,3.201,2.021c1.62,0.62,2.98,2.12,2.92,3.7c-0.08,2.341-1.9,4.062-5.441,4.062c-2.881,0-4.081-0.7-5.721-1.7
		l1.56-3.161c1.44,1,2.741,1.48,4.001,1.48c0.64,0,1.32-0.26,1.32-0.801c0-1.1-2.94-1.92-3.641-2.3
		c-1.681-0.9-2.621-1.86-2.621-3.381c0-2.961,3.201-4.021,5.621-4.021c2.621,0,3.841,0.5,5.341,1.26L409.093,943.174z"/>
	<path fill="#ED1C24" d="M414.592,952.575c-1.38,0-2.621-0.74-2.621-2.24v-5.341h-1.38v-1.761l1.38-0.24v-2.641h3.861v2.561h2.221
		v2.081h-2.221v3.761c0,0.7,0.26,0.9,0.58,0.9c0.2,0,0.6-0.32,1.021-0.601l0.94,2.141
		C417.112,951.955,416.152,952.575,414.592,952.575z"/>
	<path fill="#ED1C24" d="M423.771,952.575c-2.78,0-5.281-1.72-5.281-5.001c0-3.221,2.5-5.001,5.281-5.001
		c2.781,0,5.281,1.78,5.281,5.001C429.053,950.955,426.553,952.575,423.771,952.575z M423.771,945.273
		c-0.72,0-1.199,0.841-1.199,2.301c0,1.48,0.479,2.301,1.199,2.301c0.74,0,1.201-0.82,1.201-2.301
		C424.973,946.114,424.532,945.273,423.771,945.273z"/>
	<path fill="#ED1C24" d="M436.393,952.596c-0.641,0-1.32-0.021-1.961-0.341v4.762h-4.001v-14.104h4.001v0.86
		c0.44-0.46,1.18-1.2,2.42-1.2c2.741,0,4.062,1.74,4.062,4.801C440.913,950.354,439.053,952.596,436.393,952.596z M435.691,945.354
		c-0.439,0-0.779,0.261-1.26,0.841v3c0,0.58,0.24,1.16,0.9,1.16c0.939,0,1.5-1.08,1.5-2.64
		C436.832,946.214,436.492,945.354,435.691,945.354z"/>
	<path fill="#ED1C24" d="M448.591,956.536c-0.319,0-0.8,0-2.08-0.04v-2.42h1.58c1.641,0,3.241-0.521,3.241-2.081
		c0-1.06-0.681-1.641-1.381-1.641h-2.18v-2.1c2.199-0.58,2.98-1.221,2.98-2.401c0-0.58-0.44-0.8-0.841-0.8
		c-0.46,0-1.521,0.58-2.06,1.12l-1.48-2.34c0.979-0.78,2.561-1.781,4.641-1.781c2,0,3.82,1.181,3.82,3.161
		c0,0.96-0.14,2.341-2.18,3.2c1.939,0.44,2.76,1.721,2.76,3.241C455.412,954.376,453.212,956.536,448.591,956.536z"/>
</g>
<g>
	<path fill="#ED1C24" d="M639.068,103.933c-1.381,0-2.621-0.74-2.621-2.24v-5.341h-1.38v-1.761l1.38-0.24V91.71h3.861v2.561h2.221
		v2.081h-2.221v3.761c0,0.7,0.26,0.9,0.58,0.9c0.2,0,0.6-0.32,1.021-0.601l0.94,2.141
		C641.589,103.312,640.629,103.933,639.068,103.933z"/>
	<path fill="#ED1C24" d="M648.248,103.933c-2.779,0-5.281-1.72-5.281-5.001c0-3.221,2.502-5.001,5.281-5.001
		c2.781,0,5.281,1.78,5.281,5.001C653.529,102.312,651.029,103.933,648.248,103.933z M648.248,96.631
		c-0.72,0-1.199,0.841-1.199,2.301c0,1.48,0.479,2.301,1.199,2.301c0.74,0,1.201-0.82,1.201-2.301
		C649.449,97.472,649.009,96.631,648.248,96.631z"/>
	<path fill="#ED1C24" d="M607.711,112.531c-1.16-0.7-2.381-1.181-3.881-1.181c-0.74,0-1.141,0.38-1.141,0.82
		c0,0.64,2,1.561,3.201,2.021c1.619,0.62,2.98,2.12,2.92,3.7c-0.08,2.341-1.9,4.062-5.441,4.062c-2.881,0-4.08-0.7-5.721-1.7
		l1.561-3.161c1.439,1,2.74,1.48,4,1.48c0.641,0,1.32-0.26,1.32-0.801c0-1.1-2.939-1.92-3.641-2.3c-1.68-0.9-2.62-1.86-2.62-3.381
		c0-2.961,3.2-4.021,5.621-4.021c2.62,0,3.841,0.5,5.341,1.26L607.711,112.531z"/>
	<path fill="#ED1C24" d="M613.209,121.933c-1.381,0-2.621-0.74-2.621-2.24v-5.341h-1.38v-1.761l1.38-0.24v-2.641h3.861v2.561h2.221
		v2.081h-2.221v3.761c0,0.7,0.26,0.9,0.58,0.9c0.2,0,0.6-0.32,1.021-0.601l0.94,2.141
		C615.729,121.312,614.77,121.933,613.209,121.933z"/>
	<path fill="#ED1C24" d="M622.389,121.933c-2.779,0-5.281-1.72-5.281-5.001c0-3.221,2.502-5.001,5.281-5.001
		c2.781,0,5.281,1.78,5.281,5.001C627.67,120.312,625.17,121.933,622.389,121.933z M622.389,114.631
		c-0.72,0-1.199,0.841-1.199,2.301c0,1.48,0.479,2.301,1.199,2.301c0.74,0,1.201-0.82,1.201-2.301
		C623.59,115.472,623.149,114.631,622.389,114.631z"/>
	<path fill="#ED1C24" d="M635.01,121.953c-0.641,0-1.32-0.021-1.961-0.341v4.762h-4.001v-14.104h4.001v0.86
		c0.439-0.46,1.18-1.2,2.42-1.2c2.741,0,4.062,1.74,4.062,4.801C639.53,119.712,637.67,121.953,635.01,121.953z M634.309,114.711
		c-0.439,0-0.779,0.261-1.26,0.841v3c0,0.58,0.24,1.16,0.9,1.16c0.939,0,1.5-1.08,1.5-2.64
		C635.449,115.571,635.109,114.711,634.309,114.711z"/>
	<path fill="#ED1C24" d="M647.769,121.593v-7.502h-2.261v-2.3h6.262v9.802H647.769z"/>
</g>
<g>
	<path d="M389.192,300.723v2.422h4.641v2.721h-4.641v5.141h-4.121v-13.204h9.782v2.92H389.192z"/>
	<path d="M402.952,311.365c-4.861,0-7.422-3.281-7.422-6.961c0-3.721,2.521-6.942,7.422-6.942c4.881,0,7.401,3.42,7.401,6.942
		C410.354,307.945,407.793,311.365,402.952,311.365z M402.952,300.703c-1.721,0-3.041,1.221-3.041,3.701
		c0,2.5,1.32,3.721,3.041,3.721c1.7,0,3.021-1.221,3.021-3.721C405.973,301.924,404.652,300.703,402.952,300.703z"/>
	<path d="M418.172,311.365c-3.82,0-6.141-1.461-6.141-5.621v-7.942h4.101v7.881c0,1.762,0.74,2.48,2.12,2.48
		c1.181,0,1.94-0.74,1.94-2.48v-7.881h4.121v7.942C424.313,309.885,421.973,311.365,418.172,311.365z"/>
	<path d="M436.232,311.125l-5.181-7.742v7.604h-3.761v-13.184h4.24l4.922,7.442v-7.442h3.761v13.323H436.232z"/>
	<path d="M449.472,300.723v10.283h-4.121v-10.283h-3.761v-2.92h11.643v2.92H449.472z"/>
	<path d="M461.533,311.006l-0.9-2.641h-3.58l-0.961,2.641h-4.101l5.161-13.204h3.521l5.161,13.204H461.533z M458.933,302.645
		l-1.141,3.48h2.101L458.933,302.645z"/>
	<path d="M467.371,311.006v-13.204h4.121v13.204H467.371z"/>
	<path d="M483.692,311.125l-5.181-7.742v7.604h-3.761v-13.184h4.24l4.921,7.442v-7.442h3.762v13.323H483.692z"/>
	<path d="M412.142,325.164c-0.34,0-0.68-0.039-1.02-0.119v3.961h-4.121v-13.203h5.521c2.821,0,5.222,1.279,5.222,4.521
		C417.743,323.943,415.042,325.164,412.142,325.164z M411.882,318.723h-0.76v3.582c0.199,0,0.8,0.039,0.8,0.039h0.08
		c0.8,0,1.54-0.641,1.54-1.98C413.542,319.104,412.742,318.723,411.882,318.723z"/>
	<path d="M427.622,329.006l-0.9-2.641h-3.58l-0.961,2.641h-4.101l5.161-13.203h3.521l5.161,13.203H427.622z M425.021,320.645
		l-1.141,3.48h2.101L425.021,320.645z"/>
	<path d="M433.46,329.006v-13.203h4.121v13.203H433.46z"/>
	<path d="M449.781,329.125l-5.181-7.742v7.604h-3.761v-13.184h4.24l4.922,7.441v-7.441h3.761v13.322H449.781z"/>
	<path d="M463.021,318.723v10.283h-4.121v-10.283h-3.761v-2.92h11.643v2.92H463.021z"/>
	<path d="M414.312,343.164c-0.34,0-0.68-0.039-1.02-0.119v3.961h-4.121v-13.203h5.521c2.821,0,5.222,1.279,5.222,4.521
		C419.913,341.943,417.212,343.164,414.312,343.164z M414.052,336.723h-0.76v3.582c0.199,0,0.8,0.039,0.8,0.039h0.08
		c0.8,0,1.54-0.641,1.54-1.98C415.712,337.104,414.912,336.723,414.052,336.723z"/>
	<path d="M428.092,347.365c-4.861,0-7.422-3.281-7.422-6.961c0-3.721,2.521-6.941,7.422-6.941c4.881,0,7.401,3.42,7.401,6.941
		C435.493,343.945,432.933,347.365,428.092,347.365z M428.092,336.703c-1.721,0-3.041,1.221-3.041,3.701
		c0,2.5,1.32,3.721,3.041,3.721c1.7,0,3.021-1.221,3.021-3.721C431.112,337.924,429.792,336.703,428.092,336.703z"/>
	<path d="M443.972,336.723v10.283h-4.121v-10.283h-3.761v-2.92h11.643v2.92H443.972z"/>
	<path d="M458.133,337.943c-1.16-0.699-2.381-1.18-3.881-1.18c-0.74,0-1.141,0.379-1.141,0.82c0,0.639,2.001,1.561,3.201,2.02
		c1.62,0.621,2.98,2.121,2.921,3.701c-0.08,2.34-1.9,4.061-5.441,4.061c-2.881,0-4.081-0.699-5.722-1.699l1.561-3.162
		c1.44,1,2.74,1.48,4.001,1.48c0.641,0,1.32-0.26,1.32-0.801c0-1.1-2.94-1.92-3.641-2.299c-1.681-0.9-2.621-1.861-2.621-3.381
		c0-2.961,3.201-4.021,5.621-4.021c2.621,0,3.841,0.5,5.342,1.26L458.133,337.943z"/>
</g>
<path fill="none" stroke="#FAA21B" stroke-width="4" stroke-miterlimit="10" d="M-174.905,53.607
	c0,0,227.272-347.354,276.798-368.385s69.93-58.346,78.02-77.341s11.534-98.372,21.031-119.403"/>
<path fill="none" stroke="#ED1C24" stroke-width="2" stroke-miterlimit="10" d="M-254.401,55.107
	c0,0,227.272-347.354,276.798-368.385s69.93-58.346,78.02-77.341s11.534-98.372,21.031-119.403"/>
<g>
	<path d="M559.131,708.146l0.906-1.438l-4.012-2.527l-2.729,4.333l3.199,2.016l0.811-1.286l0.777,0.49l-2.111,3.352l-0.777-0.49
		l0.82-1.305l-3.199-2.016l-2.942,4.672l1.271,0.801l-0.395,0.626l-4.029-2.538l0.395-0.627l1.27,0.801l6.248-9.919l-1.27-0.8
		l0.395-0.627l6.754,4.255l0.299-0.474l0.777,0.49l-1.695,2.691L559.131,708.146z"/>
	<path d="M555.301,718.238l0.395-0.626l1.286,0.811l3.839-6.093l-1.473-0.928l0.287-0.457l2.854,0.875l0.305,0.191l-4.543,7.211
		l1.287,0.811l-0.395,0.626L555.301,718.238z M563.352,709.55c-0.491-0.31-0.635-0.943-0.314-1.452
		c0.309-0.49,0.943-0.635,1.434-0.325c0.508,0.319,0.651,0.954,0.342,1.444C564.492,709.726,563.858,709.869,563.352,709.55z"/>
	<path d="M568.741,718.218c-0.136-0.534-0.278-0.836-0.447-0.942c-0.305-0.192-0.79-0.096-2.435,0.45l-2.837,4.503l1.626,1.023
		l-0.395,0.627l-4.182-2.635l0.395-0.626l1.287,0.811l3.838-6.093l-1.473-0.928l0.287-0.457l2.854,0.875l0.305,0.191l-1.193,1.896
		c2.199-0.79,2.874-0.885,3.482-0.501c0.204,0.128,0.342,0.285,0.379,0.45l0.236,0.788L568.741,718.218z"/>
	<path d="M570.57,721.805l-0.117,0.187c-1.334,2.116-1.144,4.292,0.465,5.305c0.676,0.427,1.24,0.545,2.571,0.533l-0.073,0.829
		c-1.727-0.072-2.448-0.242-3.43-0.861c-2.149-1.354-2.628-3.972-1.156-6.308c1.492-2.37,4.12-3.126,6.219-1.804
		c1.828,1.15,2.291,3.193,1.141,5.021l-0.289,0.457L570.57,721.805z M575.196,723.206c0.64-1.015,0.403-2.181-0.577-2.799
		c-1.236-0.778-2.621-0.493-3.606,0.731l3.927,2.475L575.196,723.206z"/>
	<path d="M579.127,733.248l0.395-0.627l1.287,0.811l3.124-4.959c0.565-0.896,0.46-1.743-0.284-2.213
		c-0.745-0.469-1.354-0.402-3.893,0.361l-2.772,4.401l1.27,0.8l-0.395,0.627l-3.825-2.41l0.395-0.627l1.287,0.811l6.76-10.73
		l-1.49-0.938l0.288-0.457l2.853,0.876l0.322,0.201l-4.115,6.534c2.196-0.673,3.212-0.671,4.279,0.001
		c1.252,0.788,1.52,2.092,0.698,3.395l-3.231,5.129l1.286,0.81l-0.395,0.626L579.127,733.248z"/>
	<path d="M587.434,738.787c-2.049-1.29-2.566-4.146-1.158-6.379c1.406-2.234,4.206-3.002,6.254-1.711
		c2.049,1.29,2.566,4.146,1.159,6.381C592.281,739.312,589.482,740.078,587.434,738.787z M592.082,731.408
		c-1.27-0.8-3.168,0.038-4.352,1.917c-1.172,1.861-1.119,3.952,0.15,4.752s3.186-0.027,4.369-1.905
		C593.434,734.293,593.352,732.207,592.082,731.408z"/>
	<path d="M592.191,741.478l0.395-0.626l1.285,0.809l6.76-10.73l-1.488-0.938l0.287-0.457l2.854,0.875l0.321,0.203l-7.464,11.848
		l1.27,0.799l-0.395,0.627L592.191,741.478z"/>
	<path d="M601.047,741.004l-0.117,0.186c-1.334,2.116-1.144,4.292,0.465,5.305c0.676,0.427,1.24,0.545,2.571,0.533l-0.073,0.829
		c-1.727-0.073-2.447-0.243-3.43-0.86c-2.148-1.354-2.628-3.973-1.156-6.309c1.492-2.369,4.121-3.126,6.219-1.804
		c1.828,1.151,2.292,3.193,1.141,5.021l-0.288,0.457L601.047,741.004z M605.673,742.404c0.64-1.016,0.404-2.18-0.577-2.799
		c-1.236-0.779-2.621-0.492-3.606,0.731l3.927,2.474L605.673,742.404z"/>
	<path d="M609.535,752.403l0.395-0.626l1.271,0.8l6.248-9.919l-1.271-0.8l0.395-0.626l4.029,2.537l-0.395,0.627l-1.27-0.801
		l-6.163,9.783l4.165,2.624l0.938-1.489l0.778,0.49l-1.418,2.251L609.535,752.403z"/>
	<path d="M623.629,761.328c-0.262-0.07-0.531-0.17-0.667-0.255c-0.524-0.331-0.595-0.894-0.2-1.521l0.107-0.169
		c-1.266,0.433-2.133,0.382-3.03-0.183c-1.167-0.736-1.52-2.092-0.806-3.226c0.545-0.863,1.551-1.222,2.48-0.897l3.311,1.164
		l1.205-1.912c0.426-0.678,0.229-1.488-0.449-1.916c-0.34-0.213-0.592-0.301-1.23-0.373l-0.513,0.812l-1.783-0.509
		c0.011-0.278,0.046-0.373,0.163-0.559c0.617-0.981,2.211-0.995,3.752-0.024c1.488,0.938,2.001,2.301,1.297,3.418l-3.283,5.213
		l1.304,0.82l-0.299,0.475L623.629,761.328z M624.397,756.919l-3.321-1.147l-0.533,0.847c-0.447,0.712-0.279,1.456,0.433,1.905
		c0.542,0.34,1.132,0.381,2.292,0.189L624.397,756.919z"/>
	<path d="M625.46,762.435l0.395-0.626l1.286,0.811l6.76-10.731l-1.49-0.938l0.289-0.457l2.854,0.875l0.32,0.203l-7.463,11.848
		l1.27,0.8l-0.395,0.626L625.46,762.435z M631.621,766.315l-0.848-6.349l4.842-0.971l-1.1-0.692l0.395-0.626l3.367,2.122
		l-0.394,0.626l-1.303-0.821l-4.202,0.853l0.77,5.946l0.965,0.608l-0.395,0.626L631.621,766.315z"/>
	<path d="M638.395,764.529l-0.117,0.187c-1.334,2.116-1.144,4.292,0.465,5.306c0.676,0.426,1.24,0.544,2.571,0.532l-0.073,0.829
		c-1.727-0.072-2.448-0.242-3.43-0.861c-2.149-1.354-2.628-3.972-1.156-6.308c1.492-2.37,4.12-3.126,6.219-1.804
		c1.828,1.151,2.291,3.193,1.141,5.021l-0.289,0.457L638.395,764.529z M643.021,765.931c0.64-1.015,0.404-2.181-0.577-2.799
		c-1.236-0.778-2.621-0.492-3.606,0.731l3.927,2.475L643.021,765.931z"/>
	<path d="M651.859,779.064l-4.977-3.135l0.395-0.627l1.27,0.801l6.248-9.918l-1.27-0.801l0.395-0.627l4.994,3.146
		c3.047,1.919,3.957,5.992,2.026,9.056C658.969,780.091,654.975,781.027,651.859,779.064z M658.2,768.66l-2.065-1.301l-5.959,9.463
		l2.031,1.279c2.318,1.461,5.352,0.51,7.047-2.182C660.896,773.314,660.435,770.068,658.2,768.66z"/>
	<path d="M667.499,780.429c-0.136-0.534-0.277-0.836-0.446-0.942c-0.305-0.192-0.791-0.096-2.436,0.451l-2.836,4.502l1.625,1.023
		l-0.395,0.627l-4.182-2.634l0.395-0.626l1.287,0.81l3.838-6.093l-1.473-0.928l0.288-0.457l2.853,0.875l0.305,0.192l-1.193,1.896
		c2.199-0.79,2.875-0.885,3.483-0.501c0.203,0.128,0.341,0.286,0.378,0.451l0.237,0.788L667.499,780.429z"/>
	<path d="M665.21,787.475l0.395-0.627l1.286,0.811l3.839-6.092l-1.472-0.928l0.287-0.457l2.853,0.875l0.305,0.191l-4.542,7.21
		l1.287,0.811l-0.395,0.626L665.21,787.475z M673.261,778.786c-0.491-0.31-0.635-0.944-0.314-1.452
		c0.31-0.49,0.943-0.635,1.435-0.325c0.507,0.319,0.65,0.954,0.342,1.444C674.402,778.961,673.768,779.105,673.261,778.786z"/>
	<path d="M680.629,787.352l-7.332,5.523l-0.34-0.213l1.612-9.127l-0.71-0.447l0.394-0.626l3.284,2.068l-0.395,0.626l-1.186-0.747
		l-1.13,6.263l5.04-3.799l-1.134-0.715l0.394-0.626l2.607,1.642l-0.395,0.626L680.629,787.352z"/>
	<path d="M681.579,791.734l-0.117,0.186c-1.333,2.116-1.144,4.292,0.465,5.305c0.677,0.426,1.24,0.545,2.571,0.533l-0.072,0.828
		c-1.728-0.072-2.448-0.242-3.43-0.86c-2.149-1.354-2.629-3.972-1.157-6.308c1.493-2.369,4.121-3.126,6.22-1.805
		c1.828,1.152,2.291,3.193,1.141,5.021l-0.289,0.457L681.579,791.734z M686.205,793.135c0.641-1.016,0.404-2.181-0.577-2.799
		c-1.235-0.779-2.621-0.492-3.606,0.731l3.928,2.474L686.205,793.135z"/>
</g>
<g>
	<path d="M626.737,138.436l1.074-0.698l-1.743-2.685l-7.693,4.994l0.872,1.342l-0.497,0.322l-2.51-3.865l0.496-0.322l0.872,1.342
		l7.692-4.994l-1.742-2.686l-1.074,0.697l-0.419-0.645l2.122-1.377l0.418,0.645l-0.376,0.244l4.253,6.552l0.377-0.244l0.418,0.645
		l-2.121,1.378L626.737,138.436z"/>
	<path d="M621.607,146.494c-1.055-1.625-0.473-3.873,1.3-5.023s4.062-0.768,5.117,0.857c1.055,1.624,0.473,3.873-1.3,5.023
		S622.662,148.118,621.607,146.494z M627.461,142.694c-0.654-1.007-2.314-1.036-3.805-0.069c-1.477,0.959-2.139,2.496-1.484,3.503
		c0.653,1.007,2.322,1.05,3.812,0.082S628.114,143.701,627.461,142.694z"/>
	<path d="M631.357,161.131l0.497-0.322l0.653,1.008l6.605-4.289l-9.371,1.409l5.24-8.097l-6.754,4.385l0.662,1.02l-0.496,0.322
		l-1.761-2.712l0.497-0.322l0.662,1.021l7.867-5.107l-0.662-1.021l0.496-0.323l1.404,2.162l-4.86,7.506l8.896-1.289l1.359,2.094
		l-0.496,0.322l-0.654-1.006l-7.867,5.107l0.653,1.006l-0.497,0.322L631.357,161.131z"/>
	<path d="M637.011,169.897c-0.167-0.14-0.329-0.302-0.399-0.409c-0.27-0.416-0.132-0.85,0.365-1.172l0.135-0.088
		c-1.064-0.109-1.678-0.438-2.14-1.148c-0.601-0.927-0.401-2.029,0.498-2.613c0.685-0.445,1.536-0.367,2.103,0.181l2.014,1.956
		l1.518-0.984c0.537-0.35,0.664-1.005,0.316-1.542c-0.175-0.269-0.328-0.417-0.77-0.684l-0.645,0.418l-1.125-0.968
		c0.101-0.199,0.159-0.256,0.307-0.352c0.779-0.506,1.939,0.019,2.732,1.24c0.768,1.182,0.683,2.344-0.204,2.92l-4.135,2.684
		l0.671,1.033l-0.376,0.244L637.011,169.897z M639.049,166.952l-2.027-1.947l-0.672,0.436c-0.563,0.366-0.69,0.964-0.324,1.528
		c0.279,0.43,0.693,0.656,1.601,0.907L639.049,166.952z"/>
	<path d="M640.963,176.221l-0.166-0.256l0.94-0.609c-1.218-0.26-1.765-0.572-2.209-1.258c-0.906-1.396-0.265-3.377,1.453-4.492
		c1.853-1.203,4.267-0.747,5.408,1.012c0.296,0.457,0.386,0.742,0.449,1.426l3.101-2.014l-0.758-1.168l0.362-0.234l1.778,1.594
		l0.166,0.254l-9.143,5.936l0.759,1.168l-0.376,0.244L640.963,176.221z M645.496,172.914c0.832-0.539,0.939-0.99,0.426-1.783
		c-0.846-1.303-2.445-1.504-3.99-0.502c-1.503,0.977-1.976,2.219-1.261,3.318c0.271,0.417,0.481,0.566,1.149,0.801l0.561,0.189
		L645.496,172.914z"/>
	<path d="M642.717,178.627l0.496-0.322l0.662,1.021l4.833-3.138l-0.759-1.168l0.363-0.235l1.779,1.593l0.156,0.242l-5.719,3.713
		l0.662,1.021l-0.496,0.322L642.717,178.627z M651.48,175.018c-0.254-0.389-0.145-0.898,0.258-1.16
		c0.389-0.252,0.898-0.145,1.151,0.245c0.261,0.403,0.153,0.912-0.237,1.165C652.25,175.529,651.741,175.42,651.48,175.018z"/>
	<path d="M646.629,185.035c-0.488-0.752-0.68-1.43-0.57-2.054l-0.483,0.313l-0.349-0.537l1.906-1.237l0.4,0.618l-0.361,0.234
		c-0.578,0.375-0.6,1.459-0.059,2.291c0.479,0.738,1.225,1.035,1.762,0.688c0.537-0.35,0.589-0.916,0.225-2.684
		c-0.34-1.611-0.141-2.391,0.705-2.939c1.048-0.68,2.309-0.296,3.109,0.939c0.385,0.591,0.533,1.143,0.469,1.719l0.535-0.232
		l0.375,0.576l-2.143,0.934l-0.375-0.577c0.183-0.042,0.375-0.129,0.496-0.207c0.523-0.341,0.561-1.224,0.09-1.948
		c-0.453-0.697-1.125-0.91-1.703-0.535c-0.577,0.374-0.583,0.512-0.187,2.563c0.331,1.655,0.157,2.359-0.701,2.917
		C648.697,186.574,647.404,186.23,646.629,185.035z"/>
	<path d="M650.576,191.115c-1.055-1.625-0.473-3.873,1.299-5.023c1.773-1.15,4.062-0.768,5.117,0.857
		c1.055,1.624,0.473,3.873-1.299,5.023C653.92,193.123,651.63,192.739,650.576,191.115z M656.429,187.314
		c-0.653-1.006-2.313-1.035-3.804-0.068c-1.477,0.959-2.139,2.496-1.485,3.502c0.653,1.008,2.322,1.051,3.812,0.083
		S657.082,188.322,656.429,187.314z"/>
	<path d="M655.873,198.893l0.496-0.322l0.653,1.006l3.935-2.553c0.711-0.463,0.918-1.112,0.535-1.703
		c-0.375-0.577-0.848-0.747-2.948-1.043l-3.491,2.266l0.662,1.02l-0.496,0.322l-1.979-3.047l0.496-0.322l0.663,1.02l4.833-3.137
		l-0.758-1.168l0.362-0.236l1.778,1.594l0.157,0.242l-1.503,0.977c1.82,0.248,2.559,0.59,3.115,1.449
		c0.646,0.994,0.402,2.029-0.631,2.7l-4.068,2.642l0.653,1.006l-0.497,0.322L655.873,198.893z"/>
</g>
<g>
</g>
<g>
	<path d="M267.961,296.196v7.688c-0.635,1.295-0.863,1.619-1.787,2.555l-0.408-0.384c0.564-0.552,0.732-0.815,0.936-1.499
		c0.18-0.624,0.216-0.947,0.216-2.015v-6.345h-0.899v-0.444h2.854v0.444H267.961z"/>
	<path d="M270.662,300.598v0.132c0,1.499,0.792,2.543,1.931,2.543c0.48,0,0.804-0.12,1.475-0.552l0.228,0.443
		c-0.899,0.516-1.319,0.66-2.015,0.66c-1.523,0-2.603-1.176-2.603-2.831c0-1.679,1.091-2.902,2.579-2.902
		c1.295,0,2.183,0.888,2.183,2.183v0.324H270.662z M273.457,299.83c0-0.72-0.492-1.235-1.188-1.235
		c-0.875,0-1.487,0.588-1.595,1.523h2.783V299.83z"/>
	<path d="M277.081,303.776c-0.695,0-1.115-0.433-1.115-1.164v-3.706h-1.043v-0.323l1.043-0.264v-1.655h0.864v1.69h1.487v0.552
		h-1.487v3.599c0,0.455,0.156,0.623,0.551,0.623c0.252,0,0.408-0.048,0.816-0.287l0.204,0.323
		C277.765,303.668,277.525,303.776,277.081,303.776z"/>
	<path d="M288.826,300.945v2.423c-1.067,0.348-1.655,0.456-2.482,0.456c-1.248,0-2.159-0.324-2.951-1.02
		c-0.887-0.792-1.391-1.919-1.391-3.106c0-2.362,1.811-4.09,4.258-4.09c0.72,0,1.247,0.096,1.991,0.372v-0.468h0.552v2.039h-0.552
		v-0.78c-0.792-0.384-1.391-0.539-2.063-0.539c-1.655,0-2.998,1.547-2.998,3.466c0,1.967,1.535,3.514,3.49,3.514
		c0.36,0,0.576-0.036,1.092-0.168v-2.099h-1.02v-0.443h2.974v0.443H288.826z"/>
	<path d="M291.446,300.598v0.132c0,1.499,0.792,2.543,1.931,2.543c0.48,0,0.804-0.12,1.475-0.552l0.228,0.443
		c-0.899,0.516-1.319,0.66-2.015,0.66c-1.523,0-2.603-1.176-2.603-2.831c0-1.679,1.091-2.902,2.578-2.902
		c1.295,0,2.183,0.888,2.183,2.183v0.324H291.446z M294.24,299.83c0-0.72-0.492-1.235-1.188-1.235c-0.875,0-1.487,0.588-1.595,1.523
		h2.783V299.83z"/>
	<path d="M300.408,298.679l-2.027,5.265c-0.275,0.72-0.792,1.716-1.115,2.147l-0.479,0.647l-0.78-0.804
		c0.66-0.372,0.888-0.552,1.259-1.031c0.336-0.443,0.492-0.731,0.78-1.463l-1.943-4.762h-0.504v-0.443h2.327v0.443h-0.852
		l1.451,3.538l1.343-3.538h-0.803v-0.443h1.847v0.443H300.408z"/>
	<path d="M303.553,303.824c-0.672,0-1.175-0.156-1.523-0.48v0.433h-0.479v-1.703h0.552v0.323c0,0.516,0.671,0.972,1.415,0.972
		c0.66,0,1.151-0.348,1.151-0.827c0-0.48-0.336-0.744-1.595-1.235c-1.151-0.444-1.559-0.888-1.559-1.644
		c0-0.936,0.756-1.571,1.859-1.571c0.528,0,0.936,0.132,1.271,0.408l0.072-0.432h0.516l-0.288,1.727h-0.516
		c0.048-0.132,0.072-0.288,0.072-0.396c0-0.468-0.54-0.852-1.187-0.852c-0.624,0-1.032,0.336-1.032,0.852s0.084,0.575,1.535,1.163
		c1.175,0.468,1.547,0.863,1.547,1.631C305.364,303.152,304.62,303.824,303.553,303.824z"/>
	<path d="M307.345,300.598v0.132c0,1.499,0.792,2.543,1.931,2.543c0.48,0,0.804-0.12,1.475-0.552l0.228,0.443
		c-0.899,0.516-1.319,0.66-2.015,0.66c-1.523,0-2.603-1.176-2.603-2.831c0-1.679,1.091-2.902,2.578-2.902
		c1.295,0,2.183,0.888,2.183,2.183v0.324H307.345z M310.14,299.83c0-0.72-0.492-1.235-1.188-1.235c-0.875,0-1.487,0.588-1.595,1.523
		h2.783V299.83z"/>
	<path d="M315.323,299.362c-0.24-0.228-0.408-0.336-0.527-0.336c-0.216,0-0.432,0.204-1.091,1.008v3.19h1.151v0.443h-2.962v-0.443
		h0.911v-4.318h-1.043v-0.323l1.727-0.468h0.216v1.343c0.863-1.104,1.175-1.367,1.607-1.367c0.144,0,0.264,0.036,0.336,0.108
		l0.372,0.323L315.323,299.362z"/>
</g>
<g>
	<path d="M230.739,202.334v-0.444h0.899v-5.901l-2.938,6.465l-2.951-6.597v6.033h0.912v0.444h-2.423v-0.444h0.912v-7.028h-0.912
		v-0.444h1.931l2.734,6.117l2.818-6.117h1.871v0.444h-0.899v7.028h0.899v0.444H230.739z"/>
	<path d="M237.149,202.49c-1.451,0-2.626-1.283-2.626-2.866s1.175-2.867,2.626-2.867s2.626,1.284,2.626,2.867
		S238.601,202.49,237.149,202.49z M237.149,197.261c-0.899,0-1.595,1.031-1.595,2.363c0,1.319,0.696,2.363,1.595,2.363
		s1.607-1.032,1.607-2.363C238.756,198.292,238.049,197.261,237.149,197.261z"/>
	<path d="M244.013,198.028c-0.24-0.228-0.408-0.336-0.527-0.336c-0.216,0-0.432,0.204-1.092,1.008v3.19h1.151v0.444h-2.962v-0.444
		h0.911v-4.317h-1.043v-0.324l1.727-0.468h0.216v1.343c0.864-1.104,1.176-1.368,1.607-1.368c0.144,0,0.264,0.036,0.336,0.108
		l0.372,0.324L244.013,198.028z"/>
	<path d="M248.729,202.334v-0.444h0.9v-3.514c0-0.635-0.324-1.031-0.852-1.031c-0.516,0-0.816,0.228-1.859,1.427v3.118h0.911v0.444
		h-2.722v-0.444h0.911v-4.317h-1.043v-0.324l1.727-0.468h0.216v1.343c0.899-1.043,1.415-1.368,2.183-1.368
		c0.888,0,1.439,0.576,1.439,1.5v3.634h0.9v0.444H248.729z"/>
	<path d="M252.079,202.334v-0.444h0.911v-4.317h-1.043v-0.324l1.727-0.468h0.216v5.109h0.912v0.444H252.079z M253.386,195.354
		c-0.348,0-0.624-0.276-0.624-0.636c0-0.348,0.276-0.624,0.624-0.624c0.36,0,0.636,0.275,0.636,0.624
		C254.022,195.078,253.746,195.354,253.386,195.354z"/>
	<path d="M259.084,202.334v-0.444h0.9v-3.514c0-0.635-0.324-1.031-0.852-1.031c-0.516,0-0.816,0.228-1.859,1.427v3.118h0.912v0.444
		h-2.722v-0.444h0.911v-4.317h-1.043v-0.324l1.727-0.468h0.216v1.343c0.9-1.043,1.416-1.368,2.183-1.368
		c0.887,0,1.439,0.576,1.439,1.5v3.634h0.9v0.444H259.084z"/>
	<path d="M266.836,197.668c0.288,0.336,0.384,0.624,0.384,1.116c0,1.271-0.875,2.075-2.291,2.075c-0.36,0-0.492-0.024-0.852-0.144
		c-0.36,0.372-0.504,0.6-0.504,0.815c0,0.204,0.12,0.312,0.348,0.312h2.999c0.576,0,0.912,0.408,0.912,1.104
		c0,1.355-1.367,2.458-3.059,2.458c-1.031,0-1.679-0.336-2.338-1.211c0.264-0.647,0.359-0.815,0.935-1.535
		c-0.348-0.072-0.527-0.18-0.899-0.6c0.408-0.72,0.588-0.936,1.259-1.499c-0.708-0.408-1.031-0.948-1.031-1.703
		c0-1.283,0.888-2.099,2.255-2.099c0.492,0,0.66,0.048,1.307,0.36h0.768l0.852-0.204v0.755H266.836z M266.536,202.718h-2.723
		c-0.312,0.444-0.396,0.672-0.396,0.996c0,0.708,0.671,1.211,1.631,1.211c1.056,0,1.943-0.732,1.943-1.583
		C266.992,202.958,266.812,202.718,266.536,202.718z M264.965,197.213c-0.803,0-1.307,0.611-1.307,1.583s0.504,1.595,1.307,1.595
		c0.792,0,1.308-0.624,1.308-1.595S265.756,197.213,264.965,197.213z"/>
	<path d="M278.546,199.611v2.423c-1.067,0.348-1.655,0.456-2.482,0.456c-1.248,0-2.159-0.324-2.951-1.019
		c-0.887-0.792-1.391-1.919-1.391-3.106c0-2.363,1.811-4.09,4.258-4.09c0.72,0,1.247,0.096,1.991,0.372v-0.467h0.552v2.039h-0.552
		v-0.779c-0.792-0.384-1.391-0.54-2.063-0.54c-1.655,0-2.998,1.547-2.998,3.466c0,1.967,1.535,3.514,3.49,3.514
		c0.36,0,0.576-0.036,1.092-0.168v-2.099h-1.02v-0.443h2.974v0.443H278.546z"/>
	<path d="M281.166,199.264v0.132c0,1.499,0.792,2.542,1.931,2.542c0.48,0,0.804-0.12,1.475-0.551l0.228,0.443
		c-0.899,0.516-1.319,0.66-2.015,0.66c-1.523,0-2.603-1.175-2.603-2.83c0-1.679,1.091-2.903,2.578-2.903
		c1.295,0,2.183,0.888,2.183,2.183v0.324H281.166z M283.96,198.496c0-0.72-0.492-1.235-1.188-1.235
		c-0.875,0-1.487,0.588-1.595,1.523h2.783V198.496z"/>
	<path d="M290.128,197.345l-2.027,5.265c-0.275,0.72-0.792,1.715-1.115,2.147l-0.479,0.647l-0.78-0.804
		c0.66-0.372,0.888-0.552,1.259-1.031c0.336-0.444,0.492-0.731,0.78-1.463l-1.943-4.761h-0.504v-0.444h2.327v0.444h-0.852
		l1.451,3.538l1.343-3.538h-0.803v-0.444h1.847v0.444H290.128z"/>
	<path d="M293.273,202.49c-0.672,0-1.175-0.156-1.523-0.479v0.432h-0.479v-1.703h0.552v0.324c0,0.516,0.671,0.972,1.415,0.972
		c0.66,0,1.151-0.348,1.151-0.828c0-0.479-0.336-0.744-1.595-1.235c-1.151-0.444-1.559-0.887-1.559-1.643
		c0-0.936,0.756-1.571,1.859-1.571c0.528,0,0.936,0.132,1.271,0.408l0.072-0.432h0.516l-0.288,1.727h-0.516
		c0.048-0.132,0.072-0.288,0.072-0.396c0-0.468-0.54-0.852-1.187-0.852c-0.624,0-1.032,0.336-1.032,0.852s0.084,0.576,1.535,1.163
		c1.175,0.468,1.547,0.864,1.547,1.631C295.084,201.818,294.34,202.49,293.273,202.49z"/>
	<path d="M297.065,199.264v0.132c0,1.499,0.792,2.542,1.931,2.542c0.48,0,0.804-0.12,1.475-0.551l0.228,0.443
		c-0.899,0.516-1.319,0.66-2.015,0.66c-1.523,0-2.603-1.175-2.603-2.83c0-1.679,1.091-2.903,2.578-2.903
		c1.295,0,2.183,0.888,2.183,2.183v0.324H297.065z M299.86,198.496c0-0.72-0.492-1.235-1.188-1.235
		c-0.875,0-1.487,0.588-1.595,1.523h2.783V198.496z"/>
	<path d="M305.043,198.028c-0.24-0.228-0.408-0.336-0.527-0.336c-0.216,0-0.432,0.204-1.091,1.008v3.19h1.151v0.444h-2.962v-0.444
		h0.911v-4.317h-1.043v-0.324l1.727-0.468h0.216v1.343c0.863-1.104,1.175-1.368,1.607-1.368c0.144,0,0.264,0.036,0.336,0.108
		l0.372,0.324L305.043,198.028z"/>
</g>
<g>
	<path d="M163.237,209.156c-2.471,0-4.282-1.727-4.282-4.09c0-2.327,1.811-4.125,4.15-4.125c0.779,0,1.403,0.132,2.075,0.444v-0.54
		h0.564v2.039h-0.564v-0.587c-0.731-0.54-1.271-0.744-2.039-0.744c-1.775,0-2.998,1.415-2.998,3.442
		c0,1.991,1.391,3.538,3.178,3.538c0.6,0,1.091-0.156,1.859-0.6v-0.875h0.576v1.595
		C164.749,209.024,164.089,209.156,163.237,209.156z"/>
	<path d="M166.6,209v-0.444h0.912v-7.604h-1.055v-0.324l1.727-0.468h0.228v8.396h0.899V209H166.6z"/>
	<path d="M170.943,205.93v0.132c0,1.5,0.792,2.542,1.931,2.542c0.48,0,0.804-0.12,1.475-0.551l0.228,0.443
		c-0.899,0.516-1.319,0.66-2.015,0.66c-1.523,0-2.603-1.175-2.603-2.83c0-1.679,1.091-2.903,2.578-2.903
		c1.295,0,2.183,0.888,2.183,2.183v0.324H170.943z M173.738,205.162c0-0.72-0.492-1.235-1.188-1.235
		c-0.875,0-1.487,0.588-1.595,1.523h2.783V205.162z"/>
	<path d="M178.334,209.156c-0.456,0-0.636-0.06-1.067-0.288v2.603h1.091v0.444h-2.902v-0.444h0.912v-7.232h-1.056v-0.336
		l1.727-0.456h0.228v0.827c0.611-0.624,1.067-0.839,1.751-0.839c1.271,0,2.135,1.056,2.135,2.615
		C181.152,207.849,179.965,209.156,178.334,209.156z M178.598,204.179c-0.468,0-0.779,0.156-1.331,0.696v2.758
		c0,0.744,0.252,1.02,0.936,1.02c1.139,0,1.919-0.948,1.919-2.351C180.121,204.994,179.533,204.179,178.598,204.179z"/>
	<path d="M184.19,209.156c-0.672,0-1.175-0.156-1.523-0.479v0.432h-0.479v-1.703h0.552v0.324c0,0.516,0.671,0.972,1.415,0.972
		c0.66,0,1.151-0.348,1.151-0.828c0-0.479-0.336-0.744-1.595-1.235c-1.151-0.444-1.559-0.887-1.559-1.643
		c0-0.936,0.756-1.571,1.859-1.571c0.528,0,0.936,0.132,1.271,0.408l0.072-0.432h0.516l-0.288,1.727h-0.516
		c0.048-0.132,0.072-0.288,0.072-0.396c0-0.468-0.54-0.852-1.188-0.852c-0.624,0-1.031,0.336-1.031,0.852s0.084,0.576,1.535,1.163
		c1.175,0.468,1.547,0.864,1.547,1.631C186.001,208.484,185.258,209.156,184.19,209.156z"/>
	<path d="M191.413,204.011l-2.027,5.265c-0.275,0.72-0.792,1.715-1.115,2.147l-0.479,0.647l-0.78-0.804
		c0.66-0.372,0.888-0.552,1.259-1.031c0.336-0.444,0.492-0.731,0.78-1.463l-1.943-4.761h-0.504v-0.444h2.327v0.444h-0.852
		l1.451,3.538l1.343-3.538h-0.803v-0.444h1.847v0.444H191.413z"/>
	<path d="M196.465,209.12h-0.228v-0.84c-0.66,0.66-1.08,0.875-1.691,0.875c-1.247,0-2.23-1.211-2.23-2.746
		c0-1.655,1.271-2.987,2.842-2.987c0.408,0,0.624,0.06,1.08,0.3v-2.771h-1.043v-0.324l1.727-0.468h0.228v8.168h1.043v0.335
		L196.465,209.12z M196.237,204.922c0-0.744-0.24-0.996-0.948-0.996c-1.164,0-1.943,0.923-1.943,2.303
		c0,1.343,0.588,2.147,1.571,2.147c0.372,0,0.552-0.072,0.971-0.396l0.348-0.276V204.922z"/>
	<path d="M202.129,204.694c-0.24-0.228-0.408-0.336-0.527-0.336c-0.216,0-0.432,0.204-1.092,1.008v3.19h1.151V209h-2.962v-0.444
		h0.911v-4.317h-1.043v-0.324l1.727-0.467h0.216v1.343c0.864-1.104,1.176-1.368,1.607-1.368c0.144,0,0.264,0.036,0.336,0.108
		l0.372,0.324L202.129,204.694z"/>
	<path d="M207.265,209.024c-0.156,0.048-0.324,0.084-0.42,0.084c-0.372,0-0.587-0.264-0.587-0.708v-0.12
		c-0.504,0.624-0.959,0.875-1.595,0.875c-0.828,0-1.439-0.576-1.439-1.379c0-0.612,0.396-1.116,0.971-1.248l2.051-0.468v-1.355
		c0-0.48-0.36-0.828-0.839-0.828c-0.24,0-0.396,0.036-0.744,0.204v0.576l-1.067,0.312c-0.084-0.144-0.096-0.204-0.096-0.336
		c0-0.695,0.803-1.211,1.895-1.211c1.056,0,1.751,0.528,1.751,1.319v3.694h0.924v0.335L207.265,209.024z M206.245,206.542
		l-2.051,0.479v0.6c0,0.504,0.324,0.828,0.828,0.828c0.384,0,0.696-0.168,1.223-0.636V206.542z"/>
	<path d="M173.447,220.677v2.423c-1.067,0.348-1.655,0.456-2.482,0.456c-1.248,0-2.159-0.324-2.951-1.019
		c-0.887-0.792-1.391-1.919-1.391-3.106c0-2.363,1.811-4.09,4.258-4.09c0.72,0,1.247,0.096,1.991,0.372v-0.467h0.552v2.039h-0.552
		v-0.779c-0.792-0.384-1.391-0.54-2.063-0.54c-1.655,0-2.998,1.547-2.998,3.466c0,1.967,1.535,3.514,3.49,3.514
		c0.359,0,0.575-0.036,1.091-0.168v-2.099h-1.02v-0.443h2.974v0.443H173.447z"/>
	<path d="M176.067,220.33v0.132c0,1.499,0.792,2.542,1.931,2.542c0.48,0,0.804-0.12,1.475-0.551l0.228,0.443
		c-0.899,0.516-1.319,0.66-2.015,0.66c-1.523,0-2.603-1.175-2.603-2.83c0-1.679,1.091-2.903,2.579-2.903
		c1.295,0,2.183,0.888,2.183,2.183v0.324H176.067z M178.861,219.562c0-0.72-0.492-1.235-1.188-1.235
		c-0.875,0-1.487,0.588-1.595,1.523h2.783V219.562z"/>
	<path d="M185.029,218.411l-2.027,5.265c-0.276,0.72-0.792,1.715-1.116,2.147l-0.479,0.647l-0.78-0.804
		c0.66-0.372,0.888-0.552,1.259-1.031c0.336-0.444,0.492-0.731,0.78-1.463l-1.943-4.761h-0.504v-0.444h2.327v0.444h-0.852
		l1.451,3.538l1.343-3.538h-0.803v-0.444h1.847v0.444H185.029z"/>
	<path d="M188.174,223.556c-0.672,0-1.175-0.156-1.523-0.479v0.432h-0.479v-1.703h0.552v0.324c0,0.516,0.671,0.972,1.415,0.972
		c0.66,0,1.151-0.348,1.151-0.828c0-0.479-0.336-0.744-1.595-1.235c-1.151-0.444-1.559-0.887-1.559-1.643
		c0-0.936,0.756-1.571,1.859-1.571c0.528,0,0.936,0.132,1.271,0.408l0.072-0.432h0.516l-0.288,1.727h-0.516
		c0.048-0.132,0.072-0.288,0.072-0.396c0-0.468-0.54-0.852-1.188-0.852c-0.624,0-1.031,0.336-1.031,0.852s0.084,0.576,1.535,1.163
		c1.175,0.468,1.547,0.864,1.547,1.631C189.985,222.884,189.241,223.556,188.174,223.556z"/>
	<path d="M191.966,220.33v0.132c0,1.499,0.792,2.542,1.931,2.542c0.48,0,0.804-0.12,1.475-0.551l0.228,0.443
		c-0.899,0.516-1.319,0.66-2.015,0.66c-1.523,0-2.603-1.175-2.603-2.83c0-1.679,1.091-2.903,2.579-2.903
		c1.295,0,2.183,0.888,2.183,2.183v0.324H191.966z M194.761,219.562c0-0.72-0.492-1.235-1.188-1.235
		c-0.875,0-1.487,0.588-1.595,1.523h2.783V219.562z"/>
	<path d="M199.944,219.094c-0.24-0.228-0.408-0.336-0.527-0.336c-0.216,0-0.432,0.204-1.092,1.008v3.19h1.151v0.444h-2.962v-0.444
		h0.911v-4.317h-1.043v-0.324l1.727-0.468h0.216v1.343c0.864-1.104,1.176-1.368,1.607-1.368c0.144,0,0.264,0.036,0.336,0.108
		l0.372,0.324L199.944,219.094z"/>
</g>
<g>
	<path d="M112.56,270.862v7.688c-0.635,1.295-0.863,1.619-1.787,2.555l-0.408-0.384c0.564-0.552,0.732-0.815,0.936-1.499
		c0.18-0.624,0.216-0.947,0.216-2.015v-6.345h-0.899v-0.444h2.854v0.444H112.56z"/>
	<path d="M115.261,275.264v0.132c0,1.499,0.792,2.543,1.931,2.543c0.48,0,0.804-0.12,1.475-0.552l0.228,0.443
		c-0.899,0.516-1.319,0.66-2.015,0.66c-1.523,0-2.603-1.176-2.603-2.831c0-1.679,1.091-2.902,2.579-2.902
		c1.295,0,2.183,0.888,2.183,2.183v0.324H115.261z M118.055,274.496c0-0.72-0.492-1.235-1.188-1.235
		c-0.875,0-1.487,0.588-1.595,1.523h2.783V274.496z"/>
	<path d="M119.653,278.334v-0.443h0.912v-7.604h-1.055v-0.323l1.727-0.468h0.228v8.396h0.899v0.443H119.653z"/>
	<path d="M122.857,278.334v-0.443h0.912v-7.604h-1.055v-0.323l1.727-0.468h0.228v8.396h0.899v0.443H122.857z"/>
	<path d="M130.631,273.345l-2.027,5.265c-0.276,0.72-0.792,1.716-1.116,2.147l-0.479,0.647l-0.78-0.804
		c0.66-0.372,0.888-0.552,1.259-1.031c0.336-0.443,0.492-0.731,0.78-1.463l-1.943-4.762h-0.504v-0.443h2.327v0.443h-0.852
		l1.451,3.538l1.343-3.538h-0.803v-0.443h1.847v0.443H130.631z"/>
	<path d="M141.561,275.611v2.423c-1.067,0.348-1.655,0.456-2.482,0.456c-1.248,0-2.159-0.324-2.951-1.02
		c-0.887-0.792-1.391-1.919-1.391-3.106c0-2.362,1.811-4.09,4.258-4.09c0.72,0,1.247,0.096,1.991,0.372v-0.468h0.552v2.039h-0.552
		v-0.78c-0.792-0.384-1.391-0.539-2.063-0.539c-1.655,0-2.998,1.547-2.998,3.466c0,1.967,1.535,3.514,3.49,3.514
		c0.359,0,0.575-0.036,1.091-0.168v-2.099h-1.02v-0.443h2.974v0.443H141.561z"/>
	<path d="M144.181,275.264v0.132c0,1.499,0.792,2.543,1.931,2.543c0.48,0,0.804-0.12,1.475-0.552l0.228,0.443
		c-0.899,0.516-1.319,0.66-2.015,0.66c-1.523,0-2.603-1.176-2.603-2.831c0-1.679,1.091-2.902,2.579-2.902
		c1.295,0,2.183,0.888,2.183,2.183v0.324H144.181z M146.975,274.496c0-0.72-0.492-1.235-1.188-1.235
		c-0.875,0-1.487,0.588-1.595,1.523h2.783V274.496z"/>
	<path d="M153.143,273.345l-2.027,5.265c-0.275,0.72-0.792,1.716-1.115,2.147l-0.479,0.647l-0.78-0.804
		c0.66-0.372,0.888-0.552,1.259-1.031c0.336-0.443,0.492-0.731,0.78-1.463l-1.943-4.762h-0.504v-0.443h2.327v0.443h-0.852
		l1.451,3.538l1.343-3.538H151.8v-0.443h1.847v0.443H153.143z"/>
	<path d="M156.288,278.49c-0.672,0-1.175-0.156-1.523-0.48v0.433h-0.479v-1.703h0.552v0.323c0,0.516,0.671,0.972,1.415,0.972
		c0.66,0,1.151-0.348,1.151-0.827c0-0.48-0.336-0.744-1.595-1.235c-1.151-0.444-1.559-0.888-1.559-1.644
		c0-0.936,0.756-1.571,1.859-1.571c0.528,0,0.936,0.132,1.271,0.408l0.072-0.432h0.516l-0.288,1.727h-0.516
		c0.048-0.132,0.072-0.288,0.072-0.396c0-0.468-0.54-0.852-1.187-0.852c-0.624,0-1.032,0.336-1.032,0.852s0.084,0.575,1.535,1.163
		c1.175,0.468,1.547,0.863,1.547,1.631C158.099,277.818,157.355,278.49,156.288,278.49z"/>
	<path d="M160.081,275.264v0.132c0,1.499,0.792,2.543,1.931,2.543c0.48,0,0.804-0.12,1.475-0.552l0.228,0.443
		c-0.899,0.516-1.319,0.66-2.015,0.66c-1.523,0-2.603-1.176-2.603-2.831c0-1.679,1.091-2.902,2.578-2.902
		c1.295,0,2.183,0.888,2.183,2.183v0.324H160.081z M162.875,274.496c0-0.72-0.492-1.235-1.188-1.235
		c-0.875,0-1.487,0.588-1.595,1.523h2.783V274.496z"/>
	<path d="M168.059,274.028c-0.24-0.228-0.408-0.336-0.527-0.336c-0.216,0-0.432,0.204-1.091,1.008v3.19h1.151v0.443h-2.962v-0.443
		h0.911v-4.318h-1.043v-0.323l1.727-0.468h0.216v1.343c0.863-1.104,1.175-1.367,1.607-1.367c0.144,0,0.264,0.036,0.336,0.108
		l0.372,0.323L168.059,274.028z"/>
</g>
<g>
	<path d="M180.48,396.49c-0.755,0-1.247-0.156-1.847-0.54v0.492h-0.563v-2.159h0.563v0.947c0.732,0.492,1.056,0.611,1.583,0.611
		c0.959,0,1.607-0.503,1.607-1.259c0-0.684-0.468-1.188-1.763-1.859c-1.511-0.791-2.027-1.391-2.027-2.374
		c0-1.188,1.007-2.075,2.363-2.075c0.6,0,1.043,0.108,1.427,0.336v-0.432h0.552v2.051h-0.552v-0.852
		c-0.612-0.408-0.912-0.528-1.391-0.528c-0.815,0-1.343,0.492-1.343,1.235c0,0.612,0.348,0.96,1.847,1.823
		c1.5,0.863,1.931,1.392,1.931,2.375C182.867,395.53,181.835,396.49,180.48,396.49z"/>
	<path d="M184.01,396.334v-0.443h0.912v-7.604h-1.056v-0.323l1.728-0.468h0.228v8.396h0.899v0.443H184.01z"/>
	<path d="M187.37,396.334v-0.443h0.911v-4.318h-1.043v-0.323l1.727-0.468h0.216v5.109h0.911v0.443H187.37z M188.677,389.354
		c-0.348,0-0.624-0.275-0.624-0.636c0-0.348,0.276-0.623,0.624-0.623c0.36,0,0.636,0.275,0.636,0.623
		C189.313,389.078,189.037,389.354,188.677,389.354z"/>
	<path d="M194.375,396.334v-0.443h0.9v-3.515c0-0.636-0.324-1.031-0.852-1.031c-0.516,0-0.816,0.228-1.859,1.427v3.119h0.911v0.443
		h-2.722v-0.443h0.911v-4.318h-1.043v-0.323l1.727-0.468h0.216v1.343c0.899-1.043,1.415-1.367,2.183-1.367
		c0.888,0,1.439,0.576,1.439,1.499v3.635h0.9v0.443H194.375z"/>
	<path d="M199.596,396.442c-0.695,0-1.115-0.433-1.115-1.164v-3.706h-1.043v-0.323l1.043-0.264v-1.655h0.863v1.69h1.487v0.552
		h-1.487v3.599c0,0.455,0.156,0.623,0.552,0.623c0.252,0,0.408-0.048,0.816-0.287l0.204,0.323
		C200.28,396.334,200.04,396.442,199.596,396.442z"/>
	<path d="M202.297,393.264v0.132c0,1.499,0.792,2.543,1.931,2.543c0.48,0,0.804-0.12,1.475-0.552l0.228,0.443
		c-0.899,0.516-1.319,0.66-2.015,0.66c-1.523,0-2.603-1.176-2.603-2.831c0-1.679,1.091-2.902,2.579-2.902
		c1.295,0,2.183,0.888,2.183,2.183v0.324H202.297z M205.091,392.496c0-0.72-0.492-1.235-1.188-1.235
		c-0.875,0-1.487,0.588-1.595,1.523h2.783V392.496z"/>
	<path d="M210.275,392.028c-0.24-0.228-0.408-0.336-0.527-0.336c-0.216,0-0.432,0.204-1.091,1.008v3.19h1.151v0.443h-2.962v-0.443
		h0.911v-4.318h-1.043v-0.323l1.727-0.468h0.216v1.343c0.863-1.104,1.175-1.367,1.607-1.367c0.144,0,0.264,0.036,0.336,0.108
		l0.372,0.323L210.275,392.028z"/>
</g>
<g>
	<path d="M326.718,239.311v-0.959h-2.399v6.872h1.2v0.444h-3.454v-0.444h1.199v-6.872h-2.399v0.959h-0.575v-1.895h0.575v0.336h5.853
		v-0.336h0.576v1.895H326.718z"/>
	<path d="M334.876,240.678l-1.943,5.145h-0.24l-1.523-3.73l-1.439,3.73h-0.24l-2.075-5.145h-0.504v-0.444h2.315v0.444H328.4
		l1.403,3.538l1.079-2.807l-0.3-0.731h-0.684v-0.444h2.507v0.444h-0.84l1.439,3.538l1.343-3.538h-0.804v-0.444h1.835v0.444H334.876z
		"/>
	<path d="M335.781,245.667v-0.444h0.911v-4.317h-1.043v-0.324l1.727-0.467h0.216v5.109h0.912v0.444H335.781z M337.088,238.688
		c-0.348,0-0.624-0.276-0.624-0.636c0-0.348,0.276-0.624,0.624-0.624c0.36,0,0.636,0.276,0.636,0.624
		C337.724,238.412,337.448,238.688,337.088,238.688z"/>
	<path d="M343.566,241.002c0.288,0.336,0.384,0.624,0.384,1.115c0,1.271-0.875,2.075-2.291,2.075c-0.36,0-0.492-0.024-0.852-0.144
		c-0.36,0.372-0.504,0.6-0.504,0.815c0,0.204,0.12,0.312,0.348,0.312h2.999c0.576,0,0.912,0.408,0.912,1.104
		c0,1.355-1.367,2.458-3.059,2.458c-1.031,0-1.679-0.336-2.338-1.211c0.264-0.647,0.359-0.815,0.935-1.535
		c-0.348-0.072-0.527-0.18-0.899-0.6c0.408-0.72,0.588-0.936,1.259-1.499c-0.708-0.408-1.031-0.948-1.031-1.703
		c0-1.283,0.888-2.099,2.255-2.099c0.492,0,0.66,0.048,1.307,0.36h0.768l0.852-0.204v0.755H343.566z M343.266,246.051h-2.723
		c-0.312,0.444-0.396,0.671-0.396,0.996c0,0.708,0.671,1.211,1.631,1.211c1.056,0,1.943-0.731,1.943-1.583
		C343.722,246.291,343.542,246.051,343.266,246.051z M341.695,240.546c-0.803,0-1.307,0.612-1.307,1.583
		c0,0.972,0.504,1.595,1.307,1.595c0.792,0,1.308-0.624,1.308-1.595C343.002,241.158,342.486,240.546,341.695,240.546z"/>
	<path d="M355.276,242.945v2.423c-1.067,0.348-1.655,0.456-2.482,0.456c-1.248,0-2.159-0.324-2.951-1.02
		c-0.887-0.792-1.391-1.919-1.391-3.106c0-2.363,1.811-4.09,4.258-4.09c0.72,0,1.247,0.096,1.991,0.372v-0.468h0.552v2.039h-0.552
		v-0.779c-0.792-0.384-1.391-0.54-2.063-0.54c-1.655,0-2.998,1.547-2.998,3.466c0,1.967,1.535,3.514,3.49,3.514
		c0.36,0,0.576-0.036,1.092-0.168v-2.099h-1.02v-0.444h2.974v0.444H355.276z"/>
	<path d="M357.896,242.597v0.132c0,1.5,0.792,2.542,1.931,2.542c0.48,0,0.804-0.12,1.475-0.551l0.228,0.443
		c-0.899,0.516-1.319,0.66-2.015,0.66c-1.523,0-2.603-1.175-2.603-2.83c0-1.679,1.091-2.903,2.578-2.903
		c1.295,0,2.183,0.888,2.183,2.183v0.324H357.896z M360.69,241.83c0-0.72-0.492-1.235-1.188-1.235c-0.875,0-1.487,0.588-1.595,1.523
		h2.783V241.83z"/>
	<path d="M366.858,240.678l-2.027,5.265c-0.275,0.72-0.792,1.715-1.115,2.147l-0.479,0.647l-0.78-0.804
		c0.66-0.372,0.888-0.552,1.259-1.031c0.336-0.444,0.492-0.731,0.78-1.463l-1.943-4.761h-0.504v-0.444h2.327v0.444h-0.852
		l1.451,3.538l1.343-3.538h-0.803v-0.444h1.847v0.444H366.858z"/>
	<path d="M370.003,245.823c-0.672,0-1.175-0.156-1.523-0.479v0.432H368v-1.703h0.552v0.324c0,0.516,0.671,0.972,1.415,0.972
		c0.66,0,1.151-0.348,1.151-0.828c0-0.479-0.336-0.744-1.595-1.235c-1.151-0.444-1.559-0.887-1.559-1.643
		c0-0.936,0.756-1.571,1.859-1.571c0.528,0,0.936,0.132,1.271,0.408l0.072-0.432h0.516l-0.288,1.727h-0.516
		c0.048-0.132,0.072-0.288,0.072-0.396c0-0.468-0.54-0.852-1.187-0.852c-0.624,0-1.032,0.336-1.032,0.852s0.084,0.576,1.535,1.163
		c1.175,0.468,1.547,0.864,1.547,1.631C371.814,245.152,371.07,245.823,370.003,245.823z"/>
	<path d="M373.795,242.597v0.132c0,1.5,0.792,2.542,1.931,2.542c0.48,0,0.804-0.12,1.475-0.551l0.228,0.443
		c-0.899,0.516-1.319,0.66-2.015,0.66c-1.523,0-2.603-1.175-2.603-2.83c0-1.679,1.091-2.903,2.578-2.903
		c1.295,0,2.183,0.888,2.183,2.183v0.324H373.795z M376.59,241.83c0-0.72-0.492-1.235-1.188-1.235c-0.875,0-1.487,0.588-1.595,1.523
		h2.783V241.83z"/>
	<path d="M381.773,241.362c-0.24-0.228-0.408-0.336-0.527-0.336c-0.216,0-0.432,0.204-1.091,1.008v3.19h1.151v0.444h-2.962v-0.444
		h0.911v-4.317h-1.043v-0.324l1.727-0.467h0.216v1.343c0.863-1.104,1.175-1.368,1.607-1.368c0.144,0,0.264,0.036,0.336,0.108
		l0.372,0.324L381.773,241.362z"/>
</g>
<g>
	<path d="M474.934,219c-0.708,0-0.84-0.072-1.235-0.708l-1.787-2.842h-0.936v3.106h0.899V219h-2.854v-0.444h0.899v-7.028h-0.899
		v-0.444h3.334c1.163,0,1.823,0.324,2.183,1.067c0.156,0.324,0.24,0.684,0.24,1.067c0,1.163-0.647,1.907-1.799,2.075l1.727,2.663
		c0.288,0.444,0.479,0.588,0.779,0.588h0.468V219H474.934z M472.103,211.636h-1.127v3.262h1.151c0.911,0,1.547-0.672,1.547-1.655
		C473.674,212.212,473.11,211.636,472.103,211.636z"/>
	<path d="M477.167,215.93v0.132c0,1.499,0.792,2.542,1.932,2.542c0.479,0,0.803-0.12,1.475-0.551l0.229,0.443
		c-0.9,0.516-1.319,0.66-2.016,0.66c-1.522,0-2.603-1.175-2.603-2.83c0-1.679,1.092-2.903,2.579-2.903
		c1.295,0,2.183,0.888,2.183,2.183v0.324H477.167z M479.962,215.162c0-0.72-0.492-1.235-1.188-1.235
		c-0.876,0-1.487,0.588-1.595,1.523h2.782V215.162z"/>
	<path d="M485.866,219.12h-0.229v-0.84c-0.659,0.66-1.079,0.875-1.69,0.875c-1.248,0-2.231-1.211-2.231-2.747
		c0-1.655,1.271-2.986,2.843-2.986c0.408,0,0.624,0.06,1.079,0.3v-2.77h-1.043v-0.324l1.727-0.468h0.229v8.167h1.043v0.336
		L485.866,219.12z M485.638,214.922c0-0.744-0.239-0.996-0.947-0.996c-1.163,0-1.943,0.923-1.943,2.303
		c0,1.343,0.588,2.147,1.571,2.147c0.372,0,0.552-0.072,0.972-0.396l0.348-0.276V214.922z"/>
	<path d="M494.158,219.156c-0.756,0-1.247-0.156-1.847-0.54v0.492h-0.564v-2.159h0.564v0.947c0.731,0.492,1.055,0.612,1.583,0.612
		c0.959,0,1.607-0.504,1.607-1.259c0-0.684-0.468-1.188-1.764-1.859c-1.511-0.792-2.026-1.392-2.026-2.375
		c0-1.187,1.007-2.075,2.362-2.075c0.6,0,1.043,0.108,1.428,0.336v-0.432h0.551v2.051h-0.551v-0.852
		c-0.612-0.408-0.912-0.528-1.392-0.528c-0.815,0-1.344,0.492-1.344,1.235c0,0.612,0.349,0.959,1.848,1.823
		c1.499,0.864,1.931,1.392,1.931,2.375C496.545,218.196,495.514,219.156,494.158,219.156z"/>
	<path d="M500.687,219.156c-0.456,0-0.636-0.06-1.067-0.288v2.603h1.092v0.444h-2.903v-0.444h0.912v-7.232h-1.056v-0.336
		l1.728-0.456h0.228v0.827c0.611-0.624,1.067-0.839,1.751-0.839c1.271,0,2.135,1.055,2.135,2.615
		C503.505,217.849,502.317,219.156,500.687,219.156z M500.95,214.179c-0.468,0-0.779,0.156-1.331,0.695v2.759
		c0,0.744,0.252,1.02,0.936,1.02c1.14,0,1.919-0.948,1.919-2.351C502.474,214.994,501.886,214.179,500.95,214.179z"/>
	<path d="M506.927,219.156c-1.451,0-2.627-1.283-2.627-2.866s1.176-2.867,2.627-2.867s2.626,1.284,2.626,2.867
		S508.378,219.156,506.927,219.156z M506.927,213.927c-0.899,0-1.596,1.031-1.596,2.363c0,1.319,0.696,2.363,1.596,2.363
		s1.607-1.032,1.607-2.363C508.534,214.958,507.826,213.927,506.927,213.927z"/>
	<path d="M514.953,219.096h-0.216v-1.355c-0.863,1.043-1.428,1.415-2.171,1.415c-0.899,0-1.451-0.587-1.451-1.547v-3.37h-1.043
		v-0.324l1.727-0.468h0.228v4.018c0,0.731,0.288,1.091,0.876,1.091c0.443,0,0.695-0.18,1.188-0.72l0.647-0.719v-2.878h-0.911v-0.372
		l1.583-0.419h0.228v4.881h1.043v0.336L514.953,219.096z"/>
	<path d="M519.07,219.108c-0.695,0-1.115-0.432-1.115-1.164v-3.706h-1.043v-0.324l1.043-0.264v-1.655h0.863v1.691h1.487v0.552
		h-1.487v3.598c0,0.456,0.156,0.624,0.552,0.624c0.252,0,0.408-0.048,0.815-0.288l0.204,0.324
		C519.754,219,519.515,219.108,519.07,219.108z"/>
	<path d="M521.771,215.93v0.132c0,1.499,0.792,2.542,1.932,2.542c0.479,0,0.803-0.12,1.475-0.551l0.229,0.443
		c-0.9,0.516-1.319,0.66-2.016,0.66c-1.522,0-2.603-1.175-2.603-2.83c0-1.679,1.092-2.903,2.579-2.903
		c1.295,0,2.183,0.888,2.183,2.183v0.324H521.771z M524.565,215.162c0-0.72-0.492-1.235-1.188-1.235
		c-0.876,0-1.487,0.588-1.595,1.523h2.782V215.162z"/>
	<path d="M529.75,214.694c-0.24-0.228-0.408-0.336-0.528-0.336c-0.216,0-0.432,0.204-1.091,1.008v3.19h1.151V219h-2.963v-0.444
		h0.912v-4.317h-1.044v-0.324l1.728-0.468h0.216v1.343c0.863-1.104,1.175-1.368,1.606-1.368c0.145,0,0.265,0.036,0.336,0.108
		l0.372,0.324L529.75,214.694z"/>
</g>
<g>
	<path d="M535.304,197v-0.444h0.899v-7.028h-0.899v-0.444h2.854v0.444h-0.899v6.932h2.95v-1.056h0.552V197H535.304z"/>
	<path d="M542.251,193.93v0.132c0,1.5,0.792,2.542,1.932,2.542c0.479,0,0.803-0.12,1.475-0.551l0.229,0.443
		c-0.9,0.516-1.319,0.66-2.016,0.66c-1.522,0-2.603-1.175-2.603-2.83c0-1.679,1.092-2.903,2.579-2.903
		c1.295,0,2.183,0.888,2.183,2.183v0.324H542.251z M545.046,193.163c0-0.72-0.492-1.235-1.188-1.235
		c-0.875,0-1.487,0.588-1.595,1.523h2.782V193.163z"/>
	<path d="M550.842,197.024c-0.156,0.048-0.324,0.084-0.42,0.084c-0.372,0-0.588-0.264-0.588-0.708v-0.12
		c-0.503,0.624-0.959,0.875-1.595,0.875c-0.827,0-1.439-0.576-1.439-1.379c0-0.612,0.396-1.116,0.972-1.248l2.051-0.468v-1.355
		c0-0.48-0.359-0.828-0.84-0.828c-0.239,0-0.396,0.036-0.743,0.204v0.576l-1.067,0.312c-0.084-0.144-0.096-0.204-0.096-0.336
		c0-0.695,0.804-1.211,1.895-1.211c1.056,0,1.751,0.528,1.751,1.319v3.694h0.924v0.335L550.842,197.024z M549.822,194.542
		l-2.051,0.479v0.6c0,0.504,0.324,0.828,0.827,0.828c0.384,0,0.696-0.168,1.224-0.636V194.542z"/>
	<path d="M554.154,197.108c-0.695,0-1.115-0.432-1.115-1.163v-3.706h-1.043v-0.324l1.043-0.264v-1.655h0.863v1.691h1.487v0.552
		h-1.487v3.598c0,0.456,0.156,0.624,0.552,0.624c0.252,0,0.408-0.048,0.815-0.288l0.204,0.324
		C554.838,197,554.599,197.108,554.154,197.108z"/>
	<path d="M559.325,197v-0.444h0.912v-3.514c0-0.635-0.324-1.031-0.852-1.031c-0.528,0-0.815,0.228-1.859,1.427v3.118h0.899V197
		h-2.71v-0.444h0.911v-7.604h-1.056v-0.324l1.728-0.468h0.228v4.63c0.899-1.043,1.415-1.368,2.171-1.368
		c0.888,0,1.439,0.576,1.439,1.5v3.634h0.911V197H559.325z"/>
	<path d="M563.671,193.93v0.132c0,1.5,0.792,2.542,1.932,2.542c0.479,0,0.803-0.12,1.475-0.551l0.229,0.443
		c-0.9,0.516-1.319,0.66-2.016,0.66c-1.522,0-2.603-1.175-2.603-2.83c0-1.679,1.092-2.903,2.579-2.903
		c1.295,0,2.183,0.888,2.183,2.183v0.324H563.671z M566.466,193.163c0-0.72-0.492-1.235-1.188-1.235
		c-0.875,0-1.487,0.588-1.595,1.523h2.782V193.163z"/>
	<path d="M571.65,192.695c-0.24-0.228-0.408-0.336-0.528-0.336c-0.216,0-0.432,0.204-1.091,1.008v3.19h1.151V197h-2.963v-0.444
		h0.912v-4.317h-1.044v-0.324l1.728-0.467h0.216v1.343c0.863-1.104,1.175-1.368,1.606-1.368c0.145,0,0.265,0.036,0.336,0.108
		l0.372,0.324L571.65,192.695z"/>
	<path d="M579.307,193.75c-0.229,0-0.36-0.012-0.672-0.072v-0.419c0.156,0.036,0.216,0.036,0.324,0.036
		c1.031,0,1.883-0.863,1.883-1.931c0-0.959-0.636-1.727-1.428-1.727h-1.307v6.92h1.02V197h-2.975v-0.444h0.899v-7.028h-0.899v-0.444
		h3.43c1.392,0,2.351,0.936,2.351,2.279S580.794,193.75,579.307,193.75z"/>
	<path d="M585.199,197.156c-1.451,0-2.627-1.283-2.627-2.866s1.176-2.867,2.627-2.867s2.626,1.284,2.626,2.867
		S586.65,197.156,585.199,197.156z M585.199,191.927c-0.899,0-1.596,1.031-1.596,2.363c0,1.319,0.696,2.363,1.596,2.363
		s1.607-1.032,1.607-2.363C586.807,192.958,586.099,191.927,585.199,191.927z"/>
	<path d="M591.259,197.156c-1.451,0-2.627-1.283-2.627-2.866s1.176-2.867,2.627-2.867s2.626,1.284,2.626,2.867
		S592.71,197.156,591.259,197.156z M591.259,191.927c-0.899,0-1.596,1.031-1.596,2.363c0,1.319,0.696,2.363,1.596,2.363
		s1.607-1.032,1.607-2.363C592.866,192.958,592.158,191.927,591.259,191.927z"/>
	<path d="M594.536,197v-0.444h0.911v-7.604h-1.056v-0.324l1.728-0.468h0.228v8.396h0.899V197H594.536z"/>
</g>
<g>
	<path d="M529.623,391.823c-0.756,0-1.248-0.156-1.848-0.54v0.492h-0.563v-2.159h0.563v0.947c0.732,0.492,1.056,0.611,1.584,0.611
		c0.959,0,1.606-0.503,1.606-1.259c0-0.684-0.468-1.188-1.763-1.859c-1.512-0.791-2.027-1.391-2.027-2.374
		c0-1.188,1.008-2.075,2.363-2.075c0.6,0,1.043,0.108,1.427,0.336v-0.432h0.552v2.051h-0.552v-0.852
		c-0.612-0.408-0.911-0.528-1.392-0.528c-0.815,0-1.343,0.492-1.343,1.235c0,0.612,0.348,0.96,1.847,1.823
		c1.5,0.863,1.932,1.392,1.932,2.375C532.01,390.863,530.979,391.823,529.623,391.823z"/>
	<path d="M533.033,391.667v-0.443h0.91v-4.318H532.9v-0.323l1.727-0.468h0.217v5.109h0.911v0.443H533.033z M534.34,384.687
		c-0.348,0-0.623-0.275-0.623-0.636c0-0.348,0.275-0.623,0.623-0.623c0.359,0,0.636,0.275,0.636,0.623
		C534.976,384.411,534.699,384.687,534.34,384.687z"/>
	<path d="M536.26,391.667v-0.443h0.912v-7.604h-1.056v-0.323l1.728-0.468h0.228v8.396h0.899v0.443H536.26z"/>
	<path d="M540.604,388.597v0.132c0,1.499,0.792,2.543,1.932,2.543c0.479,0,0.803-0.12,1.475-0.552l0.229,0.443
		c-0.9,0.516-1.32,0.66-2.016,0.66c-1.523,0-2.602-1.176-2.602-2.831c0-1.679,1.091-2.902,2.578-2.902
		c1.295,0,2.183,0.888,2.183,2.183v0.324H540.604z M543.398,387.829c0-0.72-0.492-1.235-1.188-1.235
		c-0.875,0-1.487,0.588-1.596,1.523h2.783V387.829z"/>
	<path d="M547.73,391.667v-0.443h0.684l-1.163-1.764l-1.343,1.764h0.707v0.443h-1.859v-0.443h0.504l1.703-2.195l-1.583-2.351h-0.503
		v-0.443h2.314v0.443h-0.744l1.08,1.655l1.234-1.655h-0.575v-0.443h1.727v0.443h-0.503l-1.607,2.051l1.691,2.495h0.503v0.443H547.73
		z"/>
	<path d="M556.454,391.823c-0.756,0-1.247-0.156-1.847-0.54v0.492h-0.564v-2.159h0.564v0.947c0.731,0.492,1.055,0.611,1.583,0.611
		c0.959,0,1.606-0.503,1.606-1.259c0-0.684-0.467-1.188-1.763-1.859c-1.511-0.791-2.026-1.391-2.026-2.374
		c0-1.188,1.007-2.075,2.362-2.075c0.6,0,1.044,0.108,1.427,0.336v-0.432h0.552v2.051h-0.552v-0.852
		c-0.611-0.408-0.911-0.528-1.391-0.528c-0.815,0-1.344,0.492-1.344,1.235c0,0.612,0.349,0.96,1.848,1.823s1.931,1.392,1.931,2.375
		C558.841,390.863,557.81,391.823,556.454,391.823z"/>
	<path d="M562.982,391.823c-0.456,0-0.636-0.061-1.067-0.288v2.603h1.091v0.443h-2.902v-0.443h0.912v-7.232h-1.056v-0.336
		l1.728-0.455h0.228v0.827c0.611-0.623,1.067-0.839,1.751-0.839c1.271,0,2.135,1.055,2.135,2.614
		C565.801,390.516,564.613,391.823,562.982,391.823z M563.246,386.846c-0.468,0-0.779,0.156-1.331,0.695v2.759
		c0,0.743,0.252,1.02,0.936,1.02c1.14,0,1.919-0.947,1.919-2.351C564.77,387.661,564.182,386.846,563.246,386.846z"/>
	<path d="M570.026,387.361c-0.24-0.228-0.408-0.336-0.528-0.336c-0.216,0-0.432,0.204-1.091,1.008v3.19h1.151v0.443h-2.963v-0.443
		h0.912v-4.318h-1.044v-0.323l1.728-0.468h0.216v1.343c0.863-1.104,1.175-1.367,1.606-1.367c0.145,0,0.265,0.036,0.336,0.108
		l0.372,0.323L570.026,387.361z"/>
	<path d="M571.12,391.667v-0.443h0.912v-4.318h-1.044v-0.323l1.728-0.468h0.216v5.109h0.911v0.443H571.12z M572.428,384.687
		c-0.348,0-0.624-0.275-0.624-0.636c0-0.348,0.276-0.623,0.624-0.623c0.359,0,0.636,0.275,0.636,0.623
		C573.063,384.411,572.787,384.687,572.428,384.687z"/>
	<path d="M578.126,391.667v-0.443h0.899v-3.515c0-0.636-0.323-1.031-0.852-1.031c-0.516,0-0.815,0.228-1.858,1.427v3.119h0.911
		v0.443h-2.723v-0.443h0.912v-4.318h-1.044v-0.323l1.728-0.468h0.216v1.343c0.899-1.043,1.415-1.367,2.183-1.367
		c0.888,0,1.439,0.576,1.439,1.499v3.635h0.899v0.443H578.126z"/>
	<path d="M585.877,387.002c0.288,0.335,0.385,0.623,0.385,1.115c0,1.271-0.876,2.074-2.291,2.074c-0.36,0-0.492-0.023-0.852-0.144
		c-0.36,0.372-0.504,0.6-0.504,0.815c0,0.204,0.12,0.312,0.348,0.312h2.998c0.576,0,0.912,0.408,0.912,1.104
		c0,1.355-1.367,2.459-3.059,2.459c-1.031,0-1.679-0.336-2.339-1.211c0.264-0.648,0.36-0.816,0.936-1.535
		c-0.348-0.072-0.527-0.181-0.899-0.6c0.408-0.72,0.588-0.936,1.26-1.5c-0.708-0.407-1.032-0.947-1.032-1.703
		c0-1.283,0.888-2.099,2.255-2.099c0.492,0,0.66,0.048,1.308,0.36h0.768l0.852-0.204v0.756H585.877z M585.577,392.051h-2.722
		c-0.312,0.443-0.396,0.672-0.396,0.995c0,0.708,0.672,1.212,1.632,1.212c1.055,0,1.942-0.731,1.942-1.583
		C586.033,392.291,585.854,392.051,585.577,392.051z M584.007,386.546c-0.804,0-1.308,0.611-1.308,1.583s0.504,1.595,1.308,1.595
		c0.791,0,1.307-0.623,1.307-1.595S584.798,386.546,584.007,386.546z"/>
</g>
<g>
	<path d="M612.956,465.667h-3.874v-0.443h0.899v-7.028h-0.899v-0.444h3.646c1.092,0,1.979,0.876,1.979,1.967
		c0,0.9-0.792,1.691-1.764,1.775c0.492,0.061,0.672,0.108,0.972,0.252c0.744,0.348,1.176,1.043,1.176,1.859
		C615.091,464.779,614.179,465.667,612.956,465.667z M612.368,458.303h-1.331v2.986h1.223c0.78,0,1.332-0.636,1.332-1.522
		C613.592,458.927,613.076,458.303,612.368,458.303z M612.38,461.829h-1.343v3.298h1.343c1.008,0,1.619-0.6,1.619-1.583
		C613.999,462.549,613.315,461.829,612.38,461.829z"/>
	<path d="M620.336,465.691c-0.156,0.048-0.324,0.084-0.42,0.084c-0.371,0-0.588-0.265-0.588-0.708v-0.12
		c-0.503,0.624-0.959,0.876-1.595,0.876c-0.827,0-1.439-0.576-1.439-1.38c0-0.611,0.396-1.115,0.972-1.247l2.051-0.468v-1.355
		c0-0.479-0.359-0.827-0.84-0.827c-0.239,0-0.396,0.036-0.743,0.204v0.575l-1.067,0.312c-0.084-0.145-0.096-0.204-0.096-0.336
		c0-0.696,0.804-1.212,1.895-1.212c1.056,0,1.751,0.528,1.751,1.319v3.694h0.924v0.336L620.336,465.691z M619.316,463.208
		l-2.051,0.48v0.6c0,0.503,0.324,0.827,0.827,0.827c0.384,0,0.696-0.168,1.224-0.636V463.208z"/>
	<path d="M624.512,465.823c-1.679,0-2.746-1.08-2.746-2.771c0-1.739,1.211-2.963,2.927-2.963c0.623,0,0.971,0.12,1.595,0.552
		l-0.647,0.72c-0.42-0.432-0.54-0.516-1.02-0.815c-0.66,0.048-0.911,0.168-1.308,0.647c-0.359,0.444-0.552,0.972-0.552,1.583
		c0,1.344,0.924,2.447,2.039,2.447c0.384,0,0.684-0.097,1.344-0.433l0.239,0.456C625.592,465.715,625.268,465.823,624.512,465.823z"
		/>
	<path d="M628.809,465.775c-0.695,0-1.115-0.433-1.115-1.164v-3.706h-1.043v-0.323l1.043-0.264v-1.655h0.863v1.69h1.487v0.552
		h-1.487v3.599c0,0.455,0.156,0.623,0.552,0.623c0.252,0,0.408-0.048,0.815-0.287l0.204,0.323
		C629.492,465.667,629.253,465.775,628.809,465.775z"/>
	<path d="M631.509,462.597v0.132c0,1.499,0.792,2.543,1.932,2.543c0.479,0,0.803-0.12,1.475-0.552l0.229,0.443
		c-0.9,0.516-1.319,0.66-2.016,0.66c-1.522,0-2.603-1.176-2.603-2.831c0-1.679,1.092-2.902,2.579-2.902
		c1.295,0,2.183,0.888,2.183,2.183v0.324H631.509z M634.304,461.829c0-0.72-0.492-1.235-1.188-1.235
		c-0.876,0-1.487,0.588-1.595,1.523h2.782V461.829z"/>
	<path d="M639.488,461.361c-0.24-0.228-0.408-0.336-0.528-0.336c-0.216,0-0.432,0.204-1.091,1.008v3.19h1.151v0.443h-2.963v-0.443
		h0.912v-4.318h-1.044v-0.323l1.728-0.468h0.216v1.343c0.863-1.104,1.175-1.367,1.606-1.367c0.145,0,0.265,0.036,0.336,0.108
		l0.372,0.323L639.488,461.361z"/>
	<path d="M640.582,465.667v-0.443h0.912v-4.318h-1.044v-0.323l1.728-0.468h0.216v5.109h0.911v0.443H640.582z M641.89,458.687
		c-0.348,0-0.624-0.275-0.624-0.636c0-0.348,0.276-0.623,0.624-0.623c0.359,0,0.636,0.275,0.636,0.623
		C642.525,458.411,642.249,458.687,641.89,458.687z"/>
	<path d="M648.008,465.691c-0.156,0.048-0.324,0.084-0.42,0.084c-0.371,0-0.588-0.265-0.588-0.708v-0.12
		c-0.503,0.624-0.959,0.876-1.595,0.876c-0.827,0-1.439-0.576-1.439-1.38c0-0.611,0.396-1.115,0.972-1.247l2.051-0.468v-1.355
		c0-0.479-0.359-0.827-0.84-0.827c-0.239,0-0.396,0.036-0.743,0.204v0.575l-1.067,0.312c-0.084-0.145-0.096-0.204-0.096-0.336
		c0-0.696,0.804-1.212,1.895-1.212c1.056,0,1.751,0.528,1.751,1.319v3.694h0.924v0.336L648.008,465.691z M646.988,463.208
		l-2.051,0.48v0.6c0,0.503,0.324,0.827,0.827,0.827c0.384,0,0.696-0.168,1.224-0.636V463.208z"/>
</g>
<g>
	<path d="M455.572,501.822c-2.471,0-4.281-1.728-4.281-4.09c0-2.327,1.811-4.126,4.15-4.126c0.779,0,1.402,0.132,2.074,0.443v-0.539
		h0.563v2.039h-0.563v-0.588c-0.731-0.54-1.271-0.744-2.039-0.744c-1.775,0-2.998,1.416-2.998,3.442
		c0,1.991,1.391,3.538,3.178,3.538c0.6,0,1.092-0.156,1.859-0.6v-0.876h0.576v1.596C457.084,501.69,456.424,501.822,455.572,501.822
		z"/>
	<path d="M460.074,498.596v0.132c0,1.499,0.792,2.543,1.932,2.543c0.479,0,0.803-0.12,1.475-0.552l0.229,0.443
		c-0.9,0.516-1.319,0.66-2.016,0.66c-1.522,0-2.603-1.176-2.603-2.831c0-1.679,1.092-2.902,2.579-2.902
		c1.295,0,2.183,0.888,2.183,2.183v0.324H460.074z M462.869,497.828c0-0.72-0.492-1.235-1.188-1.235
		c-0.875,0-1.487,0.588-1.595,1.523h2.782V497.828z"/>
	<path d="M464.468,501.666v-0.443h0.911v-7.604h-1.056v-0.323l1.728-0.468h0.228v8.396h0.899v0.443H464.468z"/>
	<path d="M468.811,498.596v0.132c0,1.499,0.792,2.543,1.932,2.543c0.479,0,0.803-0.12,1.475-0.552l0.229,0.443
		c-0.9,0.516-1.319,0.66-2.016,0.66c-1.522,0-2.603-1.176-2.603-2.831c0-1.679,1.092-2.902,2.579-2.902
		c1.295,0,2.183,0.888,2.183,2.183v0.324H468.811z M471.605,497.828c0-0.72-0.492-1.235-1.188-1.235
		c-0.875,0-1.487,0.588-1.595,1.523h2.782V497.828z"/>
	<path d="M475.603,501.822c-0.672,0-1.176-0.156-1.523-0.48v0.433H473.6v-1.703h0.552v0.323c0,0.516,0.672,0.972,1.415,0.972
		c0.66,0,1.151-0.348,1.151-0.827c0-0.48-0.336-0.744-1.595-1.235c-1.151-0.444-1.56-0.888-1.56-1.644
		c0-0.936,0.756-1.571,1.859-1.571c0.527,0,0.936,0.132,1.271,0.408l0.072-0.432h0.516l-0.287,1.727h-0.517
		c0.049-0.132,0.072-0.288,0.072-0.396c0-0.468-0.54-0.852-1.188-0.852c-0.623,0-1.031,0.336-1.031,0.852s0.084,0.575,1.535,1.163
		c1.176,0.468,1.547,0.863,1.547,1.631C477.413,501.15,476.67,501.822,475.603,501.822z"/>
	<path d="M480.282,501.774c-0.695,0-1.115-0.433-1.115-1.164v-3.706h-1.043v-0.323l1.043-0.264v-1.655h0.863v1.69h1.487v0.552
		h-1.487v3.599c0,0.455,0.156,0.623,0.552,0.623c0.252,0,0.408-0.048,0.815-0.287l0.204,0.323
		C480.966,501.666,480.727,501.774,480.282,501.774z"/>
	<path d="M481.999,501.666v-0.443h0.912v-4.318h-1.044v-0.323l1.728-0.468h0.216v5.109h0.911v0.443H481.999z M483.307,494.686
		c-0.348,0-0.624-0.275-0.624-0.636c0-0.348,0.276-0.623,0.624-0.623c0.359,0,0.636,0.275,0.636,0.623
		C483.942,494.41,483.666,494.686,483.307,494.686z"/>
	<path d="M489.005,501.666v-0.443h0.899v-3.515c0-0.636-0.323-1.031-0.852-1.031c-0.516,0-0.815,0.228-1.858,1.427v3.119h0.911
		v0.443h-2.723v-0.443h0.912v-4.318h-1.044v-0.323l1.728-0.468h0.216v1.343c0.899-1.043,1.415-1.367,2.183-1.367
		c0.888,0,1.439,0.576,1.439,1.499v3.635h0.899v0.443H489.005z"/>
	<path d="M493.338,498.596v0.132c0,1.499,0.792,2.543,1.932,2.543c0.479,0,0.803-0.12,1.475-0.552l0.229,0.443
		c-0.9,0.516-1.319,0.66-2.016,0.66c-1.522,0-2.603-1.176-2.603-2.831c0-1.679,1.092-2.902,2.579-2.902
		c1.295,0,2.183,0.888,2.183,2.183v0.324H493.338z M496.133,497.828c0-0.72-0.492-1.235-1.188-1.235
		c-0.875,0-1.487,0.588-1.595,1.523h2.782V497.828z"/>
	<path d="M504.449,498.416c-0.229,0-0.36-0.012-0.672-0.072v-0.42c0.156,0.036,0.216,0.036,0.324,0.036
		c1.031,0,1.883-0.863,1.883-1.931c0-0.96-0.636-1.728-1.428-1.728h-1.307v6.921h1.02v0.443h-2.975v-0.443h0.899v-7.028h-0.899
		v-0.444h3.43c1.392,0,2.351,0.936,2.351,2.279C507.075,497.372,505.937,498.416,504.449,498.416z"/>
	<path d="M510.342,501.822c-1.451,0-2.627-1.283-2.627-2.867c0-1.583,1.176-2.866,2.627-2.866s2.626,1.283,2.626,2.866
		C512.968,500.539,511.793,501.822,510.342,501.822z M510.342,496.593c-0.899,0-1.596,1.031-1.596,2.362
		c0,1.319,0.696,2.363,1.596,2.363s1.607-1.031,1.607-2.363C511.949,497.624,511.241,496.593,510.342,496.593z"/>
	<path d="M516.401,501.822c-1.451,0-2.627-1.283-2.627-2.867c0-1.583,1.176-2.866,2.627-2.866s2.626,1.283,2.626,2.866
		C519.027,500.539,517.853,501.822,516.401,501.822z M516.401,496.593c-0.899,0-1.596,1.031-1.596,2.362
		c0,1.319,0.696,2.363,1.596,2.363s1.607-1.031,1.607-2.363C518.009,497.624,517.301,496.593,516.401,496.593z"/>
	<path d="M519.679,501.666v-0.443h0.911v-7.604h-1.056v-0.323l1.728-0.468h0.228v8.396h0.899v0.443H519.679z"/>
</g>
<g>
	<path d="M368.864,476.334v-0.443h0.899v-7.028h-0.899v-0.444h2.854v0.444h-0.9v6.932h2.951v-1.055h0.552v1.595H368.864z"/>
	<path d="M377.455,476.49c-1.451,0-2.626-1.283-2.626-2.867c0-1.583,1.175-2.866,2.626-2.866s2.626,1.283,2.626,2.866
		C380.081,475.207,378.906,476.49,377.455,476.49z M377.455,471.261c-0.899,0-1.595,1.031-1.595,2.362
		c0,1.319,0.696,2.363,1.595,2.363s1.607-1.031,1.607-2.363C379.062,472.292,378.354,471.261,377.455,471.261z"/>
	<path d="M385.038,476.454h-0.228v-0.84c-0.66,0.66-1.08,0.876-1.691,0.876c-1.247,0-2.23-1.212-2.23-2.747
		c0-1.655,1.271-2.986,2.842-2.986c0.408,0,0.624,0.061,1.08,0.3v-2.771h-1.043v-0.323l1.727-0.468h0.228v8.167h1.043v0.336
		L385.038,476.454z M384.81,472.256c0-0.743-0.24-0.995-0.948-0.995c-1.164,0-1.943,0.924-1.943,2.303
		c0,1.344,0.588,2.146,1.571,2.146c0.372,0,0.552-0.071,0.971-0.396l0.348-0.275V472.256z"/>
	<path d="M391.673,471.669c0.288,0.335,0.384,0.623,0.384,1.115c0,1.271-0.875,2.074-2.291,2.074c-0.36,0-0.492-0.023-0.852-0.144
		c-0.36,0.372-0.504,0.6-0.504,0.815c0,0.204,0.12,0.312,0.348,0.312h2.999c0.576,0,0.912,0.408,0.912,1.104
		c0,1.355-1.367,2.459-3.059,2.459c-1.031,0-1.679-0.336-2.338-1.211c0.264-0.648,0.359-0.816,0.935-1.535
		c-0.348-0.072-0.527-0.181-0.899-0.6c0.408-0.72,0.588-0.936,1.259-1.5c-0.708-0.407-1.031-0.947-1.031-1.703
		c0-1.283,0.888-2.099,2.255-2.099c0.492,0,0.66,0.048,1.307,0.36h0.768l0.852-0.204v0.756H391.673z M391.374,476.718h-2.723
		c-0.312,0.443-0.396,0.672-0.396,0.995c0,0.708,0.671,1.212,1.631,1.212c1.056,0,1.943-0.731,1.943-1.583
		C391.829,476.958,391.649,476.718,391.374,476.718z M389.802,471.213c-0.803,0-1.307,0.611-1.307,1.583s0.504,1.595,1.307,1.595
		c0.792,0,1.308-0.623,1.308-1.595S390.594,471.213,389.802,471.213z"/>
	<path d="M394.339,473.264v0.132c0,1.499,0.792,2.543,1.931,2.543c0.48,0,0.804-0.12,1.475-0.552l0.228,0.443
		c-0.899,0.516-1.319,0.66-2.015,0.66c-1.523,0-2.603-1.176-2.603-2.831c0-1.679,1.091-2.902,2.578-2.902
		c1.295,0,2.183,0.888,2.183,2.183v0.324H394.339z M397.134,472.496c0-0.72-0.492-1.235-1.188-1.235
		c-0.875,0-1.487,0.588-1.595,1.523h2.783V472.496z"/>
	<path d="M401.73,476.49c-0.456,0-0.636-0.061-1.067-0.288v2.603h1.091v0.443h-2.902v-0.443h0.912v-7.232h-1.056v-0.336l1.727-0.455
		h0.228v0.827c0.611-0.623,1.067-0.839,1.751-0.839c1.271,0,2.135,1.055,2.135,2.614C404.548,475.183,403.361,476.49,401.73,476.49z
		 M401.994,471.513c-0.468,0-0.779,0.156-1.331,0.695v2.759c0,0.743,0.252,1.02,0.936,1.02c1.139,0,1.919-0.947,1.919-2.351
		C403.517,472.328,402.929,471.513,401.994,471.513z"/>
	<path d="M407.97,476.49c-1.451,0-2.626-1.283-2.626-2.867c0-1.583,1.175-2.866,2.626-2.866s2.626,1.283,2.626,2.866
		C410.597,475.207,409.421,476.49,407.97,476.49z M407.97,471.261c-0.899,0-1.595,1.031-1.595,2.362
		c0,1.319,0.696,2.363,1.595,2.363s1.607-1.031,1.607-2.363C409.577,472.292,408.87,471.261,407.97,471.261z"/>
	<path d="M411.248,476.334v-0.443h0.912v-7.604h-1.055v-0.323l1.727-0.468h0.228v8.396h0.899v0.443H411.248z"/>
	<path d="M415.591,473.264v0.132c0,1.499,0.792,2.543,1.931,2.543c0.48,0,0.804-0.12,1.475-0.552l0.228,0.443
		c-0.899,0.516-1.319,0.66-2.015,0.66c-1.523,0-2.603-1.176-2.603-2.831c0-1.679,1.091-2.902,2.578-2.902
		c1.295,0,2.183,0.888,2.183,2.183v0.324H415.591z M418.386,472.496c0-0.72-0.492-1.235-1.188-1.235
		c-0.875,0-1.487,0.588-1.595,1.523h2.783V472.496z"/>
	<path d="M426.701,473.084c-0.228,0-0.359-0.012-0.672-0.072v-0.42c0.156,0.036,0.217,0.036,0.324,0.036
		c1.031,0,1.883-0.863,1.883-1.931c0-0.96-0.635-1.728-1.427-1.728h-1.308v6.921h1.02v0.443h-2.975v-0.443h0.9v-7.028h-0.9v-0.444
		h3.431c1.392,0,2.351,0.936,2.351,2.279C429.328,472.04,428.188,473.084,426.701,473.084z"/>
	<path d="M430.063,476.334v-0.443h0.911v-4.318h-1.043v-0.323l1.727-0.468h0.217v5.109h0.91v0.443H430.063z M431.371,469.354
		c-0.348,0-0.624-0.275-0.624-0.636c0-0.348,0.276-0.623,0.624-0.623c0.359,0,0.635,0.275,0.635,0.623
		C432.006,469.078,431.73,469.354,431.371,469.354z"/>
	<path d="M437.068,476.334v-0.443h0.9v-3.515c0-0.636-0.324-1.031-0.852-1.031c-0.516,0-0.816,0.228-1.859,1.427v3.119h0.912v0.443
		h-2.723v-0.443h0.911v-4.318h-1.044v-0.323l1.728-0.468h0.216v1.343c0.9-1.043,1.416-1.367,2.184-1.367
		c0.887,0,1.438,0.576,1.438,1.499v3.635h0.899v0.443H437.068z"/>
	<path d="M441.402,473.264v0.132c0,1.499,0.792,2.543,1.932,2.543c0.479,0,0.803-0.12,1.475-0.552l0.229,0.443
		c-0.9,0.516-1.32,0.66-2.016,0.66c-1.523,0-2.602-1.176-2.602-2.831c0-1.679,1.091-2.902,2.578-2.902
		c1.295,0,2.183,0.888,2.183,2.183v0.324H441.402z M444.197,472.496c0-0.72-0.492-1.235-1.188-1.235
		c-0.875,0-1.487,0.588-1.596,1.523h2.783V472.496z"/>
	<path d="M448.194,476.49c-0.672,0-1.175-0.156-1.523-0.48v0.433h-0.479v-1.703h0.552v0.323c0,0.516,0.671,0.972,1.415,0.972
		c0.66,0,1.151-0.348,1.151-0.827c0-0.48-0.336-0.744-1.595-1.235c-1.152-0.444-1.56-0.888-1.56-1.644
		c0-0.936,0.756-1.571,1.858-1.571c0.528,0,0.936,0.132,1.271,0.408l0.072-0.432h0.516l-0.287,1.727h-0.516
		c0.047-0.132,0.071-0.288,0.071-0.396c0-0.468-0.54-0.852-1.187-0.852c-0.625,0-1.032,0.336-1.032,0.852s0.084,0.575,1.535,1.163
		c1.175,0.468,1.548,0.863,1.548,1.631C450.006,475.818,449.262,476.49,448.194,476.49z"/>
</g>
<g>
	<path d="M237.169,223.322v-1.019h-2.843v3.07h2.267v-0.912h0.552v2.375h-0.552v-0.923h-2.267v3.31h0.9v0.444h-2.854v-0.444h0.899
		v-7.028h-0.899v-0.444h4.785v-0.336h0.552v1.907H237.169z"/>
	<path d="M241.203,229.823c-1.451,0-2.626-1.283-2.626-2.866s1.175-2.867,2.626-2.867s2.626,1.284,2.626,2.867
		S242.654,229.823,241.203,229.823z M241.203,224.594c-0.899,0-1.595,1.031-1.595,2.363c0,1.319,0.696,2.363,1.595,2.363
		s1.607-1.032,1.607-2.363C242.81,225.625,242.102,224.594,241.203,224.594z"/>
	<path d="M249.229,229.763h-0.216v-1.355c-0.864,1.043-1.427,1.415-2.171,1.415c-0.899,0-1.451-0.587-1.451-1.547v-3.37h-1.043
		v-0.324l1.727-0.467h0.228v4.018c0,0.731,0.288,1.091,0.875,1.091c0.444,0,0.695-0.18,1.187-0.72l0.648-0.719v-2.878h-0.912v-0.372
		l1.583-0.419h0.228v4.881h1.043v0.335L249.229,229.763z"/>
	<path d="M255.098,229.667v-0.444h0.9v-3.514c0-0.635-0.324-1.031-0.852-1.031c-0.516,0-0.816,0.228-1.859,1.427v3.118h0.912v0.444
		h-2.722v-0.444h0.911v-4.317h-1.043v-0.324l1.727-0.467h0.216v1.343c0.9-1.043,1.416-1.368,2.183-1.368
		c0.887,0,1.439,0.576,1.439,1.5v3.634h0.9v0.444H255.098z"/>
	<path d="M260.318,229.775c-0.695,0-1.115-0.432-1.115-1.163v-3.706h-1.043v-0.324l1.043-0.264v-1.655h0.864v1.691h1.487v0.552
		h-1.487v3.598c0,0.456,0.156,0.624,0.551,0.624c0.252,0,0.408-0.048,0.816-0.288l0.204,0.324
		C261.002,229.667,260.762,229.775,260.318,229.775z"/>
	<path d="M266.077,229.691c-0.156,0.048-0.324,0.084-0.42,0.084c-0.372,0-0.587-0.264-0.587-0.708v-0.12
		c-0.504,0.624-0.959,0.875-1.595,0.875c-0.828,0-1.439-0.576-1.439-1.379c0-0.612,0.396-1.116,0.971-1.248l2.051-0.468v-1.355
		c0-0.48-0.36-0.828-0.839-0.828c-0.24,0-0.396,0.036-0.744,0.204v0.576l-1.067,0.312c-0.084-0.144-0.096-0.204-0.096-0.336
		c0-0.695,0.804-1.211,1.895-1.211c1.056,0,1.751,0.528,1.751,1.319v3.694h0.923v0.335L266.077,229.691z M265.058,227.208
		l-2.051,0.479v0.6c0,0.504,0.324,0.828,0.828,0.828c0.384,0,0.696-0.168,1.223-0.636V227.208z"/>
	<path d="M267.52,229.667v-0.444h0.911v-4.317h-1.043v-0.324l1.727-0.467h0.216v5.109h0.911v0.444H267.52z M268.827,222.687
		c-0.348,0-0.624-0.276-0.624-0.636c0-0.348,0.276-0.624,0.624-0.624c0.36,0,0.636,0.276,0.636,0.624
		C269.462,222.411,269.187,222.687,268.827,222.687z"/>
	<path d="M274.525,229.667v-0.444h0.9v-3.514c0-0.635-0.324-1.031-0.852-1.031c-0.516,0-0.816,0.228-1.859,1.427v3.118h0.911v0.444
		h-2.722v-0.444h0.911v-4.317h-1.043v-0.324l1.727-0.467h0.216v1.343c0.899-1.043,1.415-1.368,2.183-1.368
		c0.888,0,1.439,0.576,1.439,1.5v3.634h0.9v0.444H274.525z"/>
	<path d="M287.903,226.944v2.423c-1.067,0.348-1.655,0.456-2.482,0.456c-1.248,0-2.159-0.324-2.951-1.02
		c-0.887-0.792-1.391-1.919-1.391-3.106c0-2.363,1.811-4.09,4.258-4.09c0.72,0,1.247,0.096,1.991,0.372v-0.468h0.552v2.039h-0.552
		v-0.779c-0.792-0.384-1.391-0.54-2.063-0.54c-1.655,0-2.998,1.547-2.998,3.466c0,1.967,1.535,3.514,3.49,3.514
		c0.36,0,0.576-0.036,1.092-0.168v-2.099h-1.02V226.5h2.974v0.444H287.903z"/>
	<path d="M290.523,226.597v0.132c0,1.5,0.792,2.542,1.931,2.542c0.48,0,0.804-0.12,1.475-0.551l0.228,0.443
		c-0.899,0.516-1.319,0.66-2.015,0.66c-1.523,0-2.603-1.175-2.603-2.83c0-1.679,1.091-2.903,2.578-2.903
		c1.295,0,2.183,0.888,2.183,2.183v0.324H290.523z M293.317,225.829c0-0.72-0.492-1.235-1.188-1.235
		c-0.875,0-1.487,0.588-1.595,1.523h2.783V225.829z"/>
	<path d="M299.485,224.678l-2.027,5.265c-0.275,0.72-0.792,1.715-1.115,2.147l-0.479,0.647l-0.78-0.804
		c0.66-0.372,0.888-0.552,1.259-1.031c0.336-0.444,0.492-0.731,0.78-1.463l-1.943-4.761h-0.504v-0.444h2.327v0.444h-0.852
		l1.451,3.538l1.343-3.538h-0.803v-0.444h1.847v0.444H299.485z"/>
	<path d="M302.63,229.823c-0.672,0-1.175-0.156-1.523-0.479v0.432h-0.479v-1.703h0.552v0.324c0,0.516,0.671,0.972,1.415,0.972
		c0.66,0,1.151-0.348,1.151-0.828c0-0.479-0.336-0.744-1.595-1.235c-1.151-0.444-1.559-0.887-1.559-1.643
		c0-0.936,0.756-1.571,1.859-1.571c0.528,0,0.936,0.132,1.271,0.408l0.072-0.432h0.516l-0.288,1.727h-0.516
		c0.048-0.132,0.072-0.288,0.072-0.396c0-0.468-0.54-0.852-1.187-0.852c-0.624,0-1.032,0.336-1.032,0.852s0.084,0.576,1.535,1.163
		c1.175,0.468,1.547,0.864,1.547,1.631C304.441,229.151,303.697,229.823,302.63,229.823z"/>
	<path d="M306.422,226.597v0.132c0,1.5,0.792,2.542,1.931,2.542c0.48,0,0.804-0.12,1.475-0.551l0.228,0.443
		c-0.899,0.516-1.319,0.66-2.015,0.66c-1.523,0-2.603-1.175-2.603-2.83c0-1.679,1.091-2.903,2.578-2.903
		c1.295,0,2.183,0.888,2.183,2.183v0.324H306.422z M309.217,225.829c0-0.72-0.492-1.235-1.188-1.235
		c-0.875,0-1.487,0.588-1.595,1.523h2.783V225.829z"/>
	<path d="M314.4,225.361c-0.24-0.228-0.408-0.336-0.527-0.336c-0.216,0-0.432,0.204-1.091,1.008v3.19h1.151v0.444h-2.962v-0.444
		h0.911v-4.317h-1.043v-0.324l1.727-0.467h0.216v1.343c0.863-1.104,1.175-1.368,1.607-1.368c0.144,0,0.264,0.036,0.336,0.108
		l0.372,0.324L314.4,225.361z"/>
</g>
<g>
	<path d="M447.256,267.323v-1.02h-2.843v3.07h2.267v-0.911h0.553v2.375h-0.553v-0.924h-2.267v3.311h0.899v0.443h-2.854v-0.443h0.898
		v-7.028h-0.898v-0.444h4.785v-0.335h0.551v1.906H447.256z"/>
	<path d="M453.376,273.763h-0.216v-1.355c-0.863,1.044-1.428,1.416-2.171,1.416c-0.899,0-1.451-0.588-1.451-1.548v-3.37h-1.044
		v-0.323l1.728-0.468h0.228v4.018c0,0.731,0.288,1.092,0.876,1.092c0.444,0,0.695-0.181,1.188-0.72l0.647-0.72v-2.879h-0.912v-0.371
		l1.584-0.42h0.228v4.881h1.044v0.336L453.376,273.763z"/>
	<path d="M462.854,273.667v-0.443h0.911v-3.515c0-0.647-0.324-1.02-0.852-1.02c-0.396,0-0.707,0.18-1.223,0.731l-0.637,0.684v3.119
		h0.9v0.443h-2.711v-0.443h0.9v-3.515c0-0.636-0.324-1.031-0.852-1.031c-0.517,0-0.816,0.228-1.859,1.427v3.119h0.911v0.443h-2.722
		v-0.443h0.91v-4.318h-1.043v-0.323l1.727-0.468h0.217v1.343c0.899-1.043,1.415-1.367,2.183-1.367c0.852,0,1.319,0.444,1.438,1.367
		c0.9-1.043,1.416-1.367,2.172-1.367c0.887,0,1.439,0.576,1.439,1.487v3.646h0.898v0.443H462.854z"/>
	<path d="M470.26,273.692c-0.156,0.048-0.324,0.084-0.42,0.084c-0.371,0-0.588-0.265-0.588-0.708v-0.12
		c-0.504,0.624-0.959,0.876-1.595,0.876c-0.827,0-1.438-0.576-1.438-1.38c0-0.611,0.395-1.115,0.971-1.247l2.051-0.468v-1.355
		c0-0.479-0.359-0.827-0.84-0.827c-0.239,0-0.396,0.036-0.743,0.204v0.575l-1.067,0.312c-0.084-0.144-0.096-0.203-0.096-0.335
		c0-0.696,0.803-1.212,1.895-1.212c1.056,0,1.751,0.528,1.751,1.319v3.694h0.924v0.336L470.26,273.692z M469.24,271.208l-2.051,0.48
		v0.6c0,0.503,0.324,0.827,0.828,0.827c0.383,0,0.695-0.168,1.223-0.636V271.208z"/>
	<path d="M475.132,269.362c-0.239-0.228-0.407-0.336-0.527-0.336c-0.216,0-0.433,0.204-1.092,1.008v3.19h1.151v0.443h-2.962v-0.443
		h0.911v-4.318h-1.043v-0.323l1.727-0.468h0.216v1.343c0.864-1.104,1.176-1.367,1.607-1.367c0.144,0,0.264,0.036,0.336,0.108
		l0.372,0.323L475.132,269.362z"/>
	<path d="M478.853,273.824c-1.451,0-2.626-1.283-2.626-2.867c0-1.583,1.175-2.866,2.626-2.866s2.626,1.283,2.626,2.866
		C481.479,272.541,480.304,273.824,478.853,273.824z M478.853,268.594c-0.899,0-1.595,1.031-1.595,2.362
		c0,1.319,0.695,2.363,1.595,2.363s1.606-1.031,1.606-2.363C480.459,269.625,479.752,268.594,478.853,268.594z"/>
	<path d="M482.13,273.667v-0.443h0.911v-7.604h-1.055v-0.323l1.727-0.468h0.229v8.396h0.898v0.443H482.13z"/>
	<path d="M486.474,270.597v0.132c0,1.499,0.792,2.543,1.931,2.543c0.48,0,0.804-0.12,1.475-0.552l0.229,0.443
		c-0.899,0.516-1.319,0.66-2.015,0.66c-1.523,0-2.603-1.176-2.603-2.831c0-1.679,1.092-2.902,2.578-2.902
		c1.295,0,2.184,0.888,2.184,2.183v0.324H486.474z M489.268,269.83c0-0.72-0.491-1.235-1.188-1.235
		c-0.875,0-1.486,0.588-1.595,1.523h2.782V269.83z"/>
	<path d="M493.265,273.824c-0.672,0-1.175-0.156-1.523-0.48v0.433h-0.479v-1.703h0.552v0.323c0,0.516,0.671,0.972,1.415,0.972
		c0.66,0,1.151-0.348,1.151-0.827c0-0.48-0.336-0.744-1.595-1.235c-1.152-0.444-1.56-0.888-1.56-1.644
		c0-0.936,0.756-1.571,1.858-1.571c0.528,0,0.936,0.132,1.271,0.408l0.072-0.432h0.516l-0.287,1.727h-0.516
		c0.047-0.132,0.071-0.288,0.071-0.396c0-0.468-0.54-0.852-1.188-0.852c-0.624,0-1.031,0.336-1.031,0.852s0.084,0.575,1.535,1.163
		c1.175,0.468,1.548,0.863,1.548,1.631C495.076,273.152,494.332,273.824,493.265,273.824z"/>
</g>
<circle fill="#8751A1" cx="196.667" cy="248.334" r="6"/>
<circle fill="#8751A1" cx="188" cy="231.667" r="6"/>
<circle fill="#8751A1" cx="246.667" cy="209.667" r="6"/>
<circle fill="#8751A1" cx="240.667" cy="237" r="6"/>
<circle fill="#8751A1" cx="309.333" cy="242.334" r="6"/>
<circle fill="#8751A1" cx="262" cy="283.667" r="6"/>
<circle fill="#8751A1" cx="197.333" cy="381" r="6"/>
<circle fill="#8751A1" cx="398.667" cy="461" r="6"/>
<circle fill="#8751A1" cx="544" cy="498.334" r="6"/>
<circle fill="#8751A1" cx="630.667" cy="444.334" r="6"/>
<circle fill="#8751A1" cx="624" cy="389" r="6"/>
<circle fill="#8751A1" cx="520" cy="264.334" r="6"/>
<circle fill="#8751A1" cx="530.667" cy="312.334" r="15"/>
<circle fill="#8751A1" cx="544.667" cy="227" r="6"/>
<circle fill="#8751A1" cx="178.667" cy="275" r="6"/>
<circle fill="#8751A1" cx="572.667" cy="205.667" r="6"/>
<g>
	<path d="M120.145,253.823c-0.755,0-1.247-0.156-1.847-0.54v0.492h-0.563v-2.159h0.563v0.947c0.732,0.492,1.056,0.612,1.583,0.612
		c0.959,0,1.607-0.504,1.607-1.259c0-0.684-0.468-1.188-1.763-1.859c-1.511-0.792-2.027-1.392-2.027-2.375
		c0-1.187,1.007-2.075,2.363-2.075c0.6,0,1.043,0.108,1.427,0.336v-0.432h0.552v2.051h-0.552v-0.852
		c-0.612-0.408-0.912-0.528-1.391-0.528c-0.815,0-1.343,0.492-1.343,1.235c0,0.612,0.348,0.959,1.847,1.823
		c1.5,0.864,1.931,1.392,1.931,2.375C122.532,252.863,121.5,253.823,120.145,253.823z"/>
	<path d="M126.673,253.823c-0.456,0-0.636-0.06-1.067-0.288v2.603h1.091v0.444h-2.902v-0.444h0.912v-7.232h-1.056v-0.336
		l1.727-0.456h0.228v0.827c0.611-0.624,1.067-0.839,1.751-0.839c1.271,0,2.135,1.056,2.135,2.615
		C129.492,252.516,128.304,253.823,126.673,253.823z M126.937,248.846c-0.468,0-0.779,0.156-1.331,0.696v2.758
		c0,0.744,0.252,1.02,0.936,1.02c1.139,0,1.919-0.948,1.919-2.351C128.46,249.661,127.873,248.846,126.937,248.846z"/>
	<path d="M134.329,253.691c-0.156,0.048-0.324,0.084-0.42,0.084c-0.372,0-0.587-0.264-0.587-0.708v-0.12
		c-0.504,0.624-0.959,0.875-1.595,0.875c-0.828,0-1.439-0.576-1.439-1.379c0-0.612,0.396-1.116,0.971-1.248l2.051-0.468v-1.355
		c0-0.48-0.36-0.828-0.839-0.828c-0.24,0-0.396,0.036-0.744,0.204v0.576l-1.067,0.312c-0.084-0.144-0.096-0.204-0.096-0.336
		c0-0.695,0.803-1.211,1.895-1.211c1.056,0,1.751,0.528,1.751,1.319v3.694h0.924v0.335L134.329,253.691z M133.309,251.208
		l-2.051,0.479v0.6c0,0.504,0.324,0.828,0.828,0.828c0.384,0,0.696-0.168,1.223-0.636V251.208z"/>
	<path d="M138.014,253.823c-0.672,0-1.175-0.156-1.523-0.479v0.432h-0.479v-1.703h0.552v0.324c0,0.516,0.671,0.972,1.415,0.972
		c0.66,0,1.151-0.348,1.151-0.828c0-0.479-0.336-0.744-1.595-1.235c-1.151-0.444-1.559-0.887-1.559-1.643
		c0-0.936,0.756-1.571,1.859-1.571c0.528,0,0.936,0.132,1.271,0.408l0.072-0.432h0.516l-0.288,1.727h-0.516
		c0.048-0.132,0.072-0.288,0.072-0.396c0-0.468-0.54-0.852-1.187-0.852c-0.624,0-1.032,0.336-1.032,0.852s0.084,0.576,1.535,1.163
		c1.175,0.468,1.547,0.864,1.547,1.631C139.825,253.151,139.081,253.823,138.014,253.823z"/>
	<path d="M148.055,253.667v-0.444h0.912v-3.514c0-0.647-0.324-1.019-0.852-1.019c-0.396,0-0.708,0.18-1.224,0.731l-0.636,0.684
		v3.118h0.9v0.444h-2.711v-0.444h0.9v-3.514c0-0.635-0.324-1.031-0.852-1.031c-0.516,0-0.816,0.228-1.859,1.427v3.118h0.912v0.444
		h-2.722v-0.444h0.911v-4.317h-1.043v-0.324l1.727-0.467h0.216v1.343c0.9-1.043,1.416-1.368,2.183-1.368
		c0.852,0,1.319,0.444,1.439,1.368c0.9-1.043,1.416-1.368,2.171-1.368c0.888,0,1.439,0.576,1.439,1.487v3.646h0.899v0.444H148.055z"
		/>
	<path d="M161.447,250.944v2.423c-1.067,0.348-1.655,0.456-2.482,0.456c-1.248,0-2.159-0.324-2.951-1.02
		c-0.887-0.792-1.391-1.919-1.391-3.106c0-2.363,1.811-4.09,4.258-4.09c0.72,0,1.247,0.096,1.991,0.372v-0.468h0.552v2.039h-0.552
		v-0.779c-0.792-0.384-1.391-0.54-2.063-0.54c-1.655,0-2.998,1.547-2.998,3.466c0,1.967,1.535,3.514,3.49,3.514
		c0.359,0,0.575-0.036,1.091-0.168v-2.099h-1.02V250.5h2.974v0.444H161.447z"/>
	<path d="M164.066,250.597v0.132c0,1.5,0.792,2.542,1.931,2.542c0.48,0,0.804-0.12,1.475-0.551l0.228,0.443
		c-0.899,0.516-1.319,0.66-2.015,0.66c-1.523,0-2.603-1.175-2.603-2.83c0-1.679,1.091-2.903,2.579-2.903
		c1.295,0,2.183,0.888,2.183,2.183v0.324H164.066z M166.861,249.829c0-0.72-0.492-1.235-1.188-1.235
		c-0.875,0-1.487,0.588-1.595,1.523h2.783V249.829z"/>
	<path d="M173.028,248.678l-2.027,5.265c-0.276,0.72-0.792,1.715-1.116,2.147l-0.479,0.647l-0.78-0.804
		c0.66-0.372,0.888-0.552,1.259-1.031c0.336-0.444,0.492-0.731,0.78-1.463l-1.943-4.761h-0.504v-0.444h2.327v0.444h-0.852
		l1.451,3.538l1.343-3.538h-0.803v-0.444h1.847v0.444H173.028z"/>
	<path d="M176.173,253.823c-0.672,0-1.175-0.156-1.523-0.479v0.432h-0.479v-1.703h0.552v0.324c0,0.516,0.671,0.972,1.415,0.972
		c0.66,0,1.151-0.348,1.151-0.828c0-0.479-0.336-0.744-1.595-1.235c-1.151-0.444-1.559-0.887-1.559-1.643
		c0-0.936,0.756-1.571,1.859-1.571c0.528,0,0.936,0.132,1.271,0.408l0.072-0.432h0.516l-0.288,1.727h-0.516
		c0.048-0.132,0.072-0.288,0.072-0.396c0-0.468-0.54-0.852-1.188-0.852c-0.624,0-1.031,0.336-1.031,0.852s0.084,0.576,1.535,1.163
		c1.175,0.468,1.547,0.864,1.547,1.631C177.984,253.151,177.241,253.823,176.173,253.823z"/>
	<path d="M179.966,250.597v0.132c0,1.5,0.792,2.542,1.931,2.542c0.48,0,0.804-0.12,1.475-0.551l0.228,0.443
		c-0.899,0.516-1.319,0.66-2.015,0.66c-1.523,0-2.603-1.175-2.603-2.83c0-1.679,1.091-2.903,2.579-2.903
		c1.295,0,2.183,0.888,2.183,2.183v0.324H179.966z M182.76,249.829c0-0.72-0.492-1.235-1.188-1.235
		c-0.875,0-1.487,0.588-1.595,1.523h2.783V249.829z"/>
	<path d="M187.944,249.361c-0.24-0.228-0.408-0.336-0.527-0.336c-0.216,0-0.432,0.204-1.092,1.008v3.19h1.151v0.444h-2.962v-0.444
		h0.911v-4.317h-1.043v-0.324l1.727-0.467h0.216v1.343c0.864-1.104,1.176-1.368,1.607-1.368c0.144,0,0.264,0.036,0.336,0.108
		l0.372,0.324L187.944,249.361z"/>
</g>
<path fill="#808285" stroke="#808285" stroke-width="3" stroke-miterlimit="10" d="M519.333,707.001c0,0-2.068-1.567-5.168-3.817
	c-7.008-5.087-19.285-13.666-24.832-15.516c-8-2.667-9.334-6-16,0s-48,68-48,68l30.667,32l52.667-78l6,4.666L519.333,707.001z"/>
<path fill="#808285" stroke="#808285" stroke-width="3" stroke-miterlimit="10" d="M405.723,868.97c0,0-2.212-1.357-5.434-3.428
	c-7.284-4.683-19.735-13.007-23.473-17.504c-5.39-6.484-8.979-6.518-5.81-14.907s55.743-79.881,55.743-79.881l33.375,28.625
	l-55.79,76.19l6.526,3.896L405.723,868.97z"/>
<g>
	<path d="M391.763,925.738l-1.057-0.723l-1.808,2.642l7.569,5.179l0.904-1.32l0.488,0.334l-2.604,3.805l-0.488-0.334l0.904-1.321
		l-7.57-5.179l-1.807,2.642l1.057,0.724l-0.434,0.634l-2.088-1.429l0.434-0.634l0.371,0.253l4.41-6.447l-0.371-0.252l0.435-0.635
		l2.087,1.429L391.763,925.738z"/>
	<path d="M401.176,927.373c-1.094,1.599-3.394,1.926-5.137,0.732c-1.744-1.193-2.272-3.454-1.179-5.053s3.393-1.927,5.137-0.733
		C401.741,923.512,402.269,925.774,401.176,927.373z M395.416,923.432c-0.679,0.992-0.066,2.535,1.4,3.538
		c1.453,0.994,3.126,1.015,3.805,0.023c0.677-0.99,0.075-2.548-1.392-3.551S396.093,922.441,395.416,923.432z"/>
	<path d="M409.091,915.805c-1.592,2.324-4.98,2.856-7.438,1.176c-2.483-1.699-3.212-5.029-1.612-7.367
		c1.573-2.299,4.953-2.818,7.411-1.137S410.663,913.506,409.091,915.805z M400.737,910.07c-1.184,1.73-0.449,4.057,1.797,5.594
		c2.232,1.527,4.695,1.388,5.869-0.329c1.157-1.691,0.373-4.032-1.847-5.55C404.337,908.266,401.885,908.393,400.737,910.07z"/>
	<path d="M412.44,910.539l-0.488-0.334l0.688-1.004l-8.377-5.73l-0.795,1.162l-0.357-0.244l0.787-2.255l0.172-0.251l9.248,6.327
		l0.678-0.991l0.488,0.334L412.44,910.539z"/>
	<path d="M418.229,902.361l-0.172,0.25l-0.924-0.632c0.229,1.224,0.15,1.849-0.311,2.522c-0.939,1.373-3.016,1.545-4.706,0.387
		c-1.823-1.246-2.332-3.65-1.147-5.381c0.307-0.449,0.535-0.643,1.144-0.963l-3.052-2.088l-0.787,1.149l-0.356-0.244l0.786-2.255
		l0.172-0.252l8.997,6.155l0.786-1.149l0.37,0.254L418.229,902.361z M413.435,899.448c-0.819-0.56-1.277-0.485-1.811,0.294
		c-0.877,1.281-0.447,2.836,1.072,3.875c1.48,1.013,2.808,0.971,3.549-0.112c0.28-0.409,0.336-0.663,0.296-1.368l-0.042-0.592
		L413.435,899.448z"/>
	<path d="M418.97,886l-1.123-0.769l-2.143,3.131l3.383,2.313l1.707-2.496l-1.004-0.688l0.416-0.607l2.617,1.79l-0.416,0.608
		l-1.018-0.696l-1.709,2.496l3.646,2.495l0.678-0.99l0.488,0.334l-2.15,3.144l-0.488-0.334l0.678-0.991l-7.742-5.296l-0.678,0.991
		l-0.488-0.336l3.605-5.271l-0.369-0.253l0.416-0.607l2.1,1.437L418.97,886z"/>
	<path d="M430.041,884.871c-0.065,0.207-0.151,0.42-0.224,0.525c-0.28,0.41-0.734,0.449-1.224,0.113l-0.132-0.09
		c0.308,1.025,0.242,1.717-0.237,2.417c-0.624,0.911-1.719,1.151-2.604,0.546c-0.673-0.461-0.93-1.277-0.641-2.01l1.029-2.612
		l-1.492-1.021c-0.528-0.36-1.184-0.227-1.545,0.302c-0.181,0.264-0.258,0.463-0.335,0.973l0.634,0.434l-0.461,1.411
		c-0.222-0.017-0.297-0.048-0.441-0.147c-0.768-0.524-0.73-1.798,0.093-3c0.796-1.162,1.901-1.531,2.772-0.935l4.069,2.784
		l0.696-1.018l0.37,0.254L430.041,884.871z M426.538,884.123l-1.018,2.621l0.66,0.451c0.555,0.379,1.156,0.268,1.535-0.288
		c0.289-0.423,0.34-0.893,0.222-1.827L426.538,884.123z"/>
	<path d="M424.394,876.57c-0.262,0.383-0.773,0.479-1.17,0.207c-0.383-0.262-0.479-0.773-0.217-1.156
		c0.271-0.396,0.782-0.492,1.165-0.23C424.568,875.662,424.665,876.174,424.394,876.57z M431.097,883.27l-0.488-0.334l0.688-1.004
		l-4.756-3.254l-0.787,1.15l-0.357-0.245l0.787-2.255l0.162-0.237l5.629,3.851l0.687-1.004l0.488,0.334L431.097,883.27z"/>
	<path d="M435.174,877.566c-0.524,0.768-1.317,0.904-2.122,0.354l-4.082-2.793l-0.787,1.148l-0.357-0.244l0.496-1.348l-1.822-1.248
		l0.65-0.951l1.863,1.275l1.12-1.639l0.608,0.416l-1.121,1.639l3.963,2.711c0.502,0.344,0.805,0.298,1.103-0.139
		c0.19-0.277,0.255-0.484,0.298-1.114l0.511,0.019C435.569,876.732,435.509,877.078,435.174,877.566z"/>
	<path d="M438.948,871.793l-0.488-0.334l0.688-1.004l-3.871-2.648c-0.701-0.479-1.381-0.421-1.778,0.16
		c-0.397,0.582-0.362,1.07,0.171,3.124l3.436,2.351l0.678-0.991l0.488,0.334l-2.043,2.985l-0.488-0.334l0.688-1.004l-8.376-5.73
		l-0.796,1.162l-0.356-0.244l0.786-2.254l0.172-0.252l5.1,3.489c-0.472-1.776-0.439-2.589,0.13-3.421
		c0.669-0.979,1.719-1.152,2.735-0.457l4.004,2.74l0.688-1.004l0.488,0.334L438.948,871.793z"/>
	<path d="M436.396,857.582c-0.846,0.215-1.051,0.288-1.793,0.691c-0.525,1.193-0.083,2.135,1.516,3.229l0.871,0.597l1.04-1.52
		l0.608,0.416l-1.04,1.52l4.756,3.254l0.868-1.269l0.488,0.334l-2.232,3.264l-0.488-0.334l0.687-1.004l-4.756-3.254l-0.786,1.148
		l-0.357-0.244l0.496-1.348l-1.083-0.741c-1.665-1.139-2.047-2.99-0.953-4.589c0.442-0.647,0.999-1.12,1.758-1.492L436.396,857.582z
		"/>
	<path d="M447.963,858.845l-0.163,0.237l-1.492-1.021c0.498,1.737,0.482,2.639-0.077,3.458c-0.679,0.99-1.741,1.155-2.798,0.432
		l-3.712-2.539l-0.786,1.149l-0.357-0.245l0.787-2.254l0.171-0.251l4.425,3.028c0.807,0.551,1.42,0.505,1.863-0.143
		c0.334-0.488,0.326-0.902,0.102-1.85l-0.305-1.256l-3.17-2.17l-0.688,1.004l-0.409-0.279l0.731-2.061l0.171-0.252l5.376,3.679
		l0.787-1.149l0.369,0.254L447.963,858.845z"/>
	<path d="M449.428,856.477l-0.488-0.334l0.687-1.004l-8.376-5.73l-0.796,1.162l-0.356-0.244l0.786-2.254l0.172-0.252l9.248,6.328
		l0.678-0.991l0.488,0.334L449.428,856.477z"/>
	<path d="M454.126,853.352l-0.627,0.036c-0.066-0.977-0.227-1.396-0.623-1.667s-0.721-0.223-1.223,0.172
		c-0.438-0.609-0.465-0.938-0.166-1.375c0.289-0.422,0.846-0.525,1.242-0.255C453.469,850.77,453.966,851.885,454.126,853.352z"/>
	<path d="M453.408,835.662l-1.122-0.768l-2.143,3.13l3.383,2.313l1.707-2.496l-1.004-0.688l0.416-0.607l2.616,1.79l-0.415,0.608
		l-1.018-0.696l-1.709,2.496l3.646,2.495l0.678-0.99l0.488,0.334l-2.15,3.144l-0.488-0.334l0.678-0.991l-7.742-5.296l-0.678,0.991
		l-0.488-0.336l3.605-5.271l-0.369-0.253l0.415-0.607l2.101,1.437L453.408,835.662z"/>
	<path d="M454.659,832.332c-0.262,0.384-0.773,0.479-1.17,0.208c-0.383-0.262-0.479-0.773-0.217-1.157
		c0.271-0.396,0.783-0.491,1.166-0.229C454.835,831.425,454.931,831.937,454.659,832.332z M461.362,839.032l-0.488-0.334
		l0.688-1.004l-4.756-3.254l-0.787,1.149l-0.357-0.244l0.787-2.255l0.162-0.237l5.629,3.85l0.687-1.004l0.488,0.334L461.362,839.032
		z"/>
	<path d="M461.753,828.286c-0.432,0.092-0.678,0.196-0.768,0.328c-0.163,0.237-0.102,0.629,0.287,1.962l3.514,2.404l0.868-1.27
		l0.488,0.334l-2.232,3.264l-0.488-0.334l0.687-1.004l-4.756-3.254l-0.786,1.149l-0.357-0.245l0.787-2.254l0.163-0.238l1.479,1.013
		c-0.564-1.782-0.62-2.325-0.295-2.8c0.108-0.159,0.24-0.264,0.372-0.289l0.637-0.166L461.753,828.286z"/>
	<path d="M464.675,826.934l0.146,0.099c1.651,1.13,3.397,1.044,4.257-0.211c0.361-0.528,0.473-0.976,0.504-2.04l0.66,0.083
		c-0.109,1.38-0.268,1.95-0.792,2.717c-1.147,1.678-3.255,1.981-5.079,0.733c-1.85-1.266-2.375-3.389-1.254-5.027
		c0.977-1.427,2.623-1.736,4.049-0.76l0.357,0.244L464.675,826.934z M465.937,823.276c-0.793-0.542-1.732-0.389-2.256,0.378
		c-0.66,0.964-0.473,2.08,0.475,2.904l2.098-3.065L465.937,823.276z"/>
	<path d="M474.084,820.438l-0.488-0.334l0.687-1.004l-3.871-2.648c-0.699-0.479-1.38-0.421-1.777,0.16
		c-0.398,0.582-0.363,1.07,0.172,3.124l3.435,2.351l0.678-0.991l0.488,0.334l-2.042,2.985l-0.488-0.334l0.686-1.004l-8.375-5.73
		l-0.796,1.162l-0.356-0.244l0.786-2.254l0.172-0.252l5.1,3.489c-0.472-1.776-0.44-2.589,0.13-3.421
		c0.668-0.979,1.719-1.152,2.735-0.457l4.003,2.74l0.688-1.004l0.488,0.334L474.084,820.438z"/>
	<path d="M478.765,813.967c-1.094,1.598-3.394,1.926-5.137,0.732c-1.744-1.193-2.272-3.455-1.179-5.053
		c1.093-1.599,3.393-1.927,5.137-0.733C479.329,810.105,479.857,812.368,478.765,813.967z M473.005,810.025
		c-0.679,0.992-0.066,2.535,1.4,3.538c1.453,0.994,3.126,1.015,3.805,0.023c0.677-0.99,0.074-2.548-1.393-3.551
		S473.682,809.035,473.005,810.025z"/>
	<path d="M481.058,810.244l-0.488-0.334l0.688-1.003l-8.377-5.73l-0.795,1.163l-0.357-0.244l0.787-2.256l0.172-0.251l9.248,6.327
		l0.678-0.99l0.488,0.334L481.058,810.244z"/>
	<path d="M480.946,803.15l0.146,0.1c1.651,1.13,3.397,1.044,4.256-0.211c0.361-0.529,0.474-0.976,0.505-2.041l0.66,0.084
		c-0.11,1.379-0.268,1.95-0.793,2.717c-1.146,1.678-3.255,1.98-5.078,0.733c-1.85-1.266-2.375-3.39-1.254-5.028
		c0.977-1.426,2.623-1.735,4.049-0.76l0.357,0.245L480.946,803.15z M482.208,799.494c-0.793-0.542-1.732-0.389-2.256,0.377
		c-0.66,0.965-0.474,2.08,0.475,2.904l2.098-3.064L482.208,799.494z"/>
	<path d="M490.318,796.709l-0.488-0.334l0.678-0.99l-7.741-5.297l-0.678,0.991l-0.489-0.335l2.151-3.145l0.488,0.336l-0.678,0.99
		l7.635,5.223l2.224-3.249l-1.162-0.796l0.416-0.607l1.757,1.202L490.318,796.709z"/>
	<path d="M497.881,785.713c-0.065,0.208-0.151,0.42-0.224,0.525c-0.28,0.41-0.734,0.449-1.223,0.114l-0.132-0.09
		c0.308,1.024,0.241,1.716-0.238,2.417c-0.624,0.911-1.719,1.15-2.604,0.545c-0.673-0.461-0.93-1.275-0.641-2.01l1.029-2.611
		l-1.492-1.021c-0.527-0.361-1.184-0.227-1.545,0.301c-0.181,0.265-0.258,0.463-0.335,0.973l0.634,0.435l-0.461,1.411
		c-0.222-0.017-0.297-0.049-0.441-0.148c-0.767-0.523-0.729-1.797,0.093-3c0.796-1.162,1.901-1.53,2.772-0.934l4.07,2.783
		l0.695-1.017l0.37,0.253L497.881,785.713z M494.378,784.965l-1.018,2.621l0.66,0.451c0.555,0.379,1.156,0.268,1.535-0.287
		c0.29-0.423,0.34-0.893,0.223-1.827L494.378,784.965z"/>
	<path d="M498.819,784.284l-0.488-0.334l0.687-1.004l-8.376-5.73l-0.795,1.163l-0.357-0.244l0.787-2.256l0.172-0.251l9.248,6.327
		l0.678-0.99l0.488,0.334L498.819,784.284z M502.108,779.476l-5.102,0.485l-0.629-3.902l-0.587,0.859l-0.489-0.334l1.799-2.629
		l0.488,0.334l-0.695,1.017l0.555,3.386l4.777-0.436l0.516-0.752l0.488,0.334L502.108,779.476z"/>
	<path d="M500.886,774.008l0.145,0.099c1.652,1.13,3.397,1.044,4.256-0.211c0.361-0.528,0.475-0.976,0.504-2.04l0.662,0.083
		c-0.111,1.38-0.269,1.95-0.793,2.717c-1.148,1.678-3.256,1.981-5.078,0.733c-1.85-1.266-2.375-3.389-1.255-5.027
		c0.976-1.427,2.622-1.736,4.05-0.76l0.356,0.244L500.886,774.008z M502.146,770.351c-0.792-0.542-1.73-0.389-2.255,0.377
		c-0.659,0.964-0.474,2.081,0.476,2.905l2.096-3.065L502.146,770.351z"/>
	<path d="M512.914,763.682l-2.657,3.885l-0.488-0.334l0.678-0.991l-7.741-5.296l-0.679,0.99l-0.488-0.334l2.666-3.898
		c1.627-2.377,4.91-2.981,7.303-1.346C513.95,758.029,514.577,761.252,512.914,763.682z M504.788,758.297l-1.104,1.611l7.385,5.053
		l1.084-1.586c1.238-1.809,0.572-4.264-1.529-5.701C508.591,756.282,505.98,756.553,504.788,758.297z"/>
	<path d="M514.478,751.221c-0.432,0.092-0.677,0.195-0.768,0.328c-0.162,0.238-0.102,0.629,0.287,1.961l3.515,2.404l0.868-1.268
		l0.488,0.334l-2.232,3.263l-0.488-0.334l0.686-1.003l-4.756-3.254l-0.785,1.148l-0.357-0.244l0.787-2.255l0.162-0.237l1.479,1.012
		c-0.564-1.783-0.62-2.324-0.296-2.801c0.109-0.158,0.24-0.264,0.373-0.287l0.637-0.167L514.478,751.221z"/>
	<path d="M513.339,746.564c-0.263,0.384-0.775,0.48-1.172,0.209c-0.383-0.262-0.479-0.774-0.216-1.158
		c0.271-0.396,0.782-0.491,1.165-0.229C513.513,745.657,513.609,746.169,513.339,746.564z M520.042,753.265l-0.488-0.334
		l0.686-1.004l-4.756-3.254l-0.785,1.149l-0.357-0.244l0.787-2.255l0.162-0.237l5.628,3.85l0.687-1.004l0.488,0.334L520.042,753.265
		z"/>
	<path d="M520.41,740.934l4.194,6.03l-0.181,0.265l-7.249-1.566l-0.38,0.555l-0.489-0.334l1.754-2.562l0.488,0.334l-0.632,0.924
		l4.973,1.096l-2.886-4.146l-0.605,0.885l-0.488-0.334l1.393-2.034l0.488,0.334L520.41,740.934z"/>
	<path d="M523.941,740.309l0.146,0.099c1.651,1.13,3.396,1.044,4.256-0.212c0.361-0.527,0.473-0.975,0.504-2.039l0.661,0.083
		c-0.11,1.379-0.269,1.95-0.792,2.716c-1.148,1.678-3.256,1.981-5.08,0.734c-1.85-1.266-2.374-3.39-1.254-5.027
		c0.977-1.428,2.623-1.736,4.05-0.76l0.356,0.244L523.941,740.309z M525.202,736.651c-0.793-0.542-1.731-0.39-2.256,0.377
		c-0.66,0.965-0.473,2.081,0.476,2.904l2.097-3.064L525.202,736.651z"/>
</g>
<g>
	<g>
		
			<line fill="none" stroke="#000000" stroke-width="3" stroke-miterlimit="10" x1="384.907" y1="940.445" x2="375.809" y2="953.188"/>
		<g>
			<polygon points="369.654,961.807 373.364,946.117 376.269,952.543 383.288,953.204 			"/>
		</g>
	</g>
</g>
<g>
</g>
<g>
</g>
<g>
</g>
<g>
</g>
<g>
</g>
<g>
</g>
<g>
</g>
<g>
</g>
</svg>
