<?xml version="1.0" encoding="utf-8"?>
<!-- Generator: Adobe Illustrator 16.0.3, SVG Export Plug-In . SVG Version: 6.00 Build 0)  -->
<!DOCTYPE svg PUBLIC "-//W3C//DTD SVG 1.1//EN" "http://www.w3.org/Graphics/SVG/1.1/DTD/svg11.dtd">
<svg version="1.1" id="new_type" xmlns="http://www.w3.org/2000/svg" xmlns:xlink="http://www.w3.org/1999/xlink" x="0px" y="0px"
	 width="685px" height="485px" viewBox="0 0 685 485" enable-background="new 0 0 685 485" xml:space="preserve">
<polygon points="540.017,76.184 532.378,81.578 532.645,84.178 516.8,86.538 515.688,83.51 506.604,81.155 "/>
<g>
</g>
<radialGradient id="SVGID_1_" cx="344.4307" cy="356.4399" r="264.0016" gradientUnits="userSpaceOnUse">
	<stop  offset="0" style="stop-color:#2484C6"/>
	<stop  offset="1" style="stop-color:#2484C6;stop-opacity:0"/>
</radialGradient>
<path fill="url(#SVGID_1_)" d="M0.395,312.646c0,0,65.767,24.739,86.186,33.517s98.954,35.911,106.935,38.305
	s35.113,11.97,36.709,14.364s-2.394-2.394,1.596,2.394s2.394,1.596,3.99,4.788s0,0.797,1.596,3.192s-3.991,10.375,1.596,2.395
	s-3.99-4.789,5.586-7.98s10.374-3.99,22.344-3.99s39.902,4.789,43.892,5.586s4.788,3.191,7.98,3.99s4.788,3.99,7.182,5.586
	s-4.788-1.596,2.394,1.596s2.394,1.596,7.182,3.192s9.576,0,11.97,1.596s3.192,1.596,6.384,3.192s-1.596,0.798,3.192,1.596
	s4.788,0.798,4.788,0.798l0,0l3.99,7.182c0,0-1.596,1.596,0,3.99s-1.596,2.394,1.596,2.394s3.192,0,3.192,0s3.99-4.788,7.182-6.384
	s4.788-7.182,4.788-7.182s-1.597-3.192-0.798-5.586s0.798-9.576,0.798-9.576l2.394-6.384c0,0-3.192-2.395,3.192-5.586
	s8.778-5.586,11.172-4.788s3.192,2.394,6.384,3.99s3.192,1.596,3.192,1.596s3.99-10.375,4.788-15.163s-1.596-19.152-1.596-21.546
	s-2.394-3.991,0.798-5.586s3.192-5.586,3.192-5.586s-4.788-26.335-5.586-31.123s-5.586-24.738-3.99-31.123s5.585-11.97,7.98-18.354
	s-4.788-7.98,3.99-12.769s23.94-19.951,34.315-23.143s22.344-11.172,43.891-10.374s31.921-3.99,44.689-2.394s24.739-0.798,35.113,0
	s10.373,3.191,17.556-0.798s14.365-8.778,20.749-9.576s27.932-2.394,31.123-0.798s13.566,2.395,19.152,3.99s7.183-0.798,18.354,0
	s0,285.38,0,285.38H2.895L0.395,312.646z"/>
<path opacity="0.3" fill="#47ADC7" d="M0.395,312.646c0,0,65.767,24.739,86.186,33.517s98.954,35.911,106.935,38.305
	s35.113,11.97,36.709,14.364s-2.394-2.394,1.596,2.394s2.394,1.596,3.99,4.788s0,0.797,1.596,3.192s-3.991,10.375,1.596,2.395
	s-3.99-4.789,5.586-7.98s10.374-3.99,22.344-3.99s39.902,4.789,43.892,5.586s4.788,3.191,7.98,3.99s4.788,3.99,7.182,5.586
	s-4.788-1.596,2.394,1.596s2.394,1.596,7.182,3.192s9.576,0,11.97,1.596s3.192,1.596,6.384,3.192s-1.596,0.798,3.192,1.596
	s4.788,0.798,4.788,0.798l0,0l3.99,7.182c0,0-1.596,1.596,0,3.99s-1.596,2.394,1.596,2.394s3.192,0,3.192,0s3.99-4.788,7.182-6.384
	s4.788-7.182,4.788-7.182s-1.597-3.192-0.798-5.586s0.798-9.576,0.798-9.576l2.394-6.384c0,0-3.192-2.395,3.192-5.586
	s8.778-5.586,11.172-4.788s3.192,2.394,6.384,3.99s3.192,1.596,3.192,1.596s3.99-10.375,4.788-15.163s-1.596-19.152-1.596-21.546
	s-2.394-3.991,0.798-5.586s3.192-5.586,3.192-5.586s-4.788-26.335-5.586-31.123s-5.586-24.738-3.99-31.123s5.585-11.97,7.98-18.354
	s-4.788-7.98,3.99-12.769s23.94-19.951,34.315-23.143s22.344-11.172,43.891-10.374s31.921-3.99,44.689-2.394s24.739-0.798,35.113,0
	s10.373,3.191,17.556-0.798s14.365-8.778,20.749-9.576s27.932-2.394,31.123-0.798s13.566,2.395,19.152,3.99s7.183-0.798,18.354,0
	s0,285.38,0,285.38H2.895L0.395,312.646z"/>
<radialGradient id="SVGID_2_" cx="549.2285" cy="137.8311" r="59.7009" gradientUnits="userSpaceOnUse">
	<stop  offset="0" style="stop-color:#2484C6"/>
	<stop  offset="1" style="stop-color:#2484C6;stop-opacity:0"/>
</radialGradient>
<path fill="url(#SVGID_2_)" d="M570.182,80.423c0,0-15.162-0.798-24.738,4.788s-13.566,3.99-21.547,13.566
	c-7.98,9.576-11.97,11.172-14.364,22.344s-0.798,13.566-4.788,20.749s-2.395,4.789-7.98,10.375s-8.778,3.192-8.778,11.172
	s-3.192,11.97,4.788,15.162s11.971,3.99,12.769,6.384s0,3.192,5.586,5.586s3.99,6.384,12.769,3.99s12.768-5.586,14.364-8.778
	s3.191-7.182,0.798-8.778s-4.788-5.586-4.788-5.586s3.193-3.192,5.587-2.394s0.798,2.394,7.182,2.394s15.96-2.395,23.143-3.99
	s24.738-8.777,27.133-13.566s-2.394-3.99,3.192-7.98s1.596-3.192,6.384-14.364s6.384-15.163,0-24.739s-11.173-16.759-17.557-19.951
	S570.182,80.423,570.182,80.423z"/>
<path opacity="0.3" fill="#47ADC7" d="M570.182,80.423c0,0-15.162-0.798-24.738,4.788s-13.566,3.99-21.547,13.566
	c-7.98,9.576-11.97,11.172-14.364,22.344s-0.798,13.566-4.788,20.749s-2.395,4.789-7.98,10.375s-8.778,3.192-8.778,11.172
	s-3.192,11.97,4.788,15.162s11.971,3.99,12.769,6.384s0,3.192,5.586,5.586s3.99,6.384,12.769,3.99s12.768-5.586,14.364-8.778
	s3.191-7.182,0.798-8.778s-4.788-5.586-4.788-5.586s3.193-3.192,5.587-2.394s0.798,2.394,7.182,2.394s15.96-2.395,23.143-3.99
	s24.738-8.777,27.133-13.566s-2.394-3.99,3.192-7.98s1.596-3.192,6.384-14.364s6.384-15.163,0-24.739s-11.173-16.759-17.557-19.951
	S570.182,80.423,570.182,80.423z"/>
<g>
	<g>
		<path d="M516.67,270.081l-3.007,4.934v5.438h1.369v0.756h-5.042v-0.756h1.35v-4.969l-3.565-5.402h-1.134v-0.756h5.042v0.756
			h-1.333l2.557,3.943l2.395-3.943h-1.53v-0.756h4.195v0.756H516.67z"/>
		<path d="M521.115,281.442c-2.413,0-4.015-1.71-4.015-4.267c0-2.611,1.639-4.339,4.124-4.339c2.088,0,3.475,1.296,3.475,3.277
			v0.685h-5.384c0,2.232,1.008,3.619,2.629,3.619c0.666,0,1.026-0.144,2.413-0.972l0.414,0.792
			C523.005,281.226,522.375,281.442,521.115,281.442z M522.465,275.446c0-1.081-0.522-1.836-1.26-1.836
			c-0.955,0-1.71,0.9-1.873,2.269h3.133V275.446z"/>
		<path d="M525.308,281.208v-0.756h1.062v-11.235h-1.207v-0.576l2.593-0.702h0.72v12.514h1.062v0.756H525.308z"/>
		<path d="M530.113,281.208v-0.756h1.062v-11.235h-1.206v-0.576l2.593-0.702h0.721v12.514h1.062v0.756H530.113z"/>
		<path d="M539.17,281.442c-2.414,0-4.16-1.818-4.16-4.303c0-2.502,1.746-4.303,4.16-4.303c2.412,0,4.176,1.801,4.176,4.303
			C543.346,279.624,541.582,281.442,539.17,281.442z M539.17,273.718c-1.1,0-1.873,1.404-1.873,3.421
			c0,1.999,0.773,3.403,1.873,3.403c1.098,0,1.871-1.405,1.871-3.403C541.041,275.122,540.268,273.718,539.17,273.718z"/>
		<path d="M555.641,273.808l-2.881,7.634h-0.558l-2.179-5.401l-2.07,5.401h-0.666l-3.079-7.634h-0.486v-0.756h3.476v0.756h-0.757
			l1.819,4.448l1.313-3.367l-0.45-1.081h-0.918v-0.756h3.764v0.756h-0.775l1.855,4.556l1.71-4.556h-1.08v-0.756h2.755v0.756H555.641
			z"/>
		<path d="M560.427,281.442c-1.044,0-1.782-0.234-2.323-0.72v0.648h-0.881v-2.557h0.99v0.486c0,0.72,1.008,1.369,2.124,1.369
			c0.864,0,1.404-0.378,1.404-0.955c0-0.72-0.45-1.08-2.214-1.746c-1.747-0.667-2.396-1.387-2.396-2.647
			c0-1.495,1.152-2.485,2.881-2.485c0.882,0,1.495,0.18,2.017,0.612l0.107-0.648h0.938l-0.451,2.593h-0.918
			c0.072-0.198,0.108-0.432,0.108-0.594c0-0.612-0.882-1.188-1.782-1.188c-0.775,0-1.297,0.396-1.297,1.008
			c0,0.666,0.288,0.882,2.197,1.638c1.764,0.702,2.357,1.387,2.357,2.683C563.289,280.524,562.246,281.442,560.427,281.442z"/>
		<path d="M567.23,281.442c-1.117,0-1.873-0.738-1.873-1.818v-5.474h-1.188v-0.576l1.188-0.306v-2.575h2.053v2.539h1.855v0.918
			h-1.855v5.618c0,0.234,0.234,0.45,0.504,0.45c0.342,0,0.541-0.072,1.099-0.414l0.378,0.648
			C568.473,281.19,567.933,281.442,567.23,281.442z"/>
		<path d="M573.926,281.442c-2.412,0-4.158-1.818-4.158-4.303c0-2.502,1.746-4.303,4.158-4.303c2.414,0,4.178,1.801,4.178,4.303
			C578.104,279.624,576.34,281.442,573.926,281.442z M573.926,273.718c-1.098,0-1.871,1.404-1.871,3.421
			c0,1.999,0.773,3.403,1.871,3.403c1.1,0,1.873-1.405,1.873-3.403C575.799,275.122,575.025,273.718,573.926,273.718z"/>
		<path d="M584.349,281.208v-0.756h1.062v-5.023c0-1.08-0.233-1.422-0.972-1.422c-0.703,0-1.009,0.18-2.18,1.296v5.149h1.045v0.756
			h-4.231v-0.756h1.062v-6.302h-1.26v-0.576l2.593-0.702h0.792v1.477c1.171-1.188,1.783-1.513,2.918-1.513
			c1.529,0,2.34,0.792,2.34,2.251v5.365h1.062v0.756H584.349z"/>
		<path d="M593.33,281.442c-2.412,0-4.016-1.71-4.016-4.267c0-2.611,1.639-4.339,4.124-4.339c2.089,0,3.476,1.296,3.476,3.277v0.685
			h-5.385c0,2.232,1.009,3.619,2.629,3.619c0.666,0,1.027-0.144,2.413-0.972l0.414,0.792
			C595.221,281.226,594.591,281.442,593.33,281.442z M594.681,275.446c0-1.081-0.522-1.836-1.261-1.836
			c-0.953,0-1.71,0.9-1.872,2.269h3.133V275.446z"/>
		<path d="M602.635,281.208v-0.756h1.369v-10.371h-1.369v-0.756h5.042v0.756h-1.351v10.065h3.836v-1.332h0.972v2.395H602.635z"/>
		<path d="M617.955,281.244c-0.289,0.09-0.576,0.126-0.847,0.126c-0.667,0-0.991-0.306-1.081-0.99
			c-0.594,0.774-1.188,1.062-2.16,1.062c-1.387,0-2.269-0.81-2.269-2.088c0-1.062,0.63-1.836,1.747-2.089l2.629-0.594v-1.908
			c0-0.918-0.234-1.243-0.883-1.243c-0.288,0-0.469,0.036-0.9,0.234v0.9l-2.053,0.504c-0.126-0.216-0.145-0.306-0.145-0.504
			c0-1.098,1.242-1.818,3.115-1.818c1.927,0,2.971,0.684,2.971,1.98v5.456h1.08v0.594L617.955,281.244z M615.975,277.589
			l-2.323,0.54v1.026c0,0.684,0.378,1.17,0.918,1.17c0.433,0,0.811-0.198,1.405-0.756V277.589z"/>
		<path d="M619.879,281.208v-0.756h1.062v-11.325h-1.278v-0.486l2.593-0.702h0.792v12.514h1.062v0.756H619.879z M625.783,281.208
			l-2.7-4.105l2.81-3.295h-1.081v-0.756h3.583v0.756h-0.99l-2.269,2.557l2.755,4.087h0.756v0.756H625.783z"/>
		<path d="M633.055,281.442c-2.412,0-4.015-1.71-4.015-4.267c0-2.611,1.639-4.339,4.124-4.339c2.088,0,3.475,1.296,3.475,3.277
			v0.685h-5.384c0,2.232,1.009,3.619,2.629,3.619c0.666,0,1.026-0.144,2.413-0.972l0.414,0.792
			C634.945,281.226,634.316,281.442,633.055,281.442z M634.406,275.446c0-1.081-0.522-1.836-1.261-1.836
			c-0.954,0-1.71,0.9-1.872,2.269h3.133V275.446z"/>
	</g>
</g>
<g>
	<g>
		<line fill="none" stroke="#000000" stroke-miterlimit="10" x1="178" y1="104" x2="163.061" y2="104"/>
		<g>
			<polygon points="156,104 165.949,99.935 163.588,104 165.949,108.064 			"/>
		</g>
	</g>
</g>
<g>
	<g>
		<line fill="none" stroke="#000000" stroke-miterlimit="10" x1="500.168" y1="64.618" x2="510.353" y2="75.548"/>
		<g>
			<polygon points="515.166,80.714 505.409,76.207 509.993,75.163 511.357,70.665 			"/>
		</g>
	</g>
</g>
<g>
	<path fill="#ED1C24" d="M244.161,93.341c-1.38,0-2.621-0.74-2.621-2.24V85.76h-1.38v-1.761l1.38-0.24v-2.641h3.861v2.561h2.221
		v2.081h-2.221v3.761c0,0.7,0.26,0.9,0.58,0.9c0.2,0,0.6-0.32,1.021-0.601l0.94,2.141C246.682,92.721,245.722,93.341,244.161,93.341
		z"/>
	<path fill="#ED1C24" d="M253.341,93.341c-2.78,0-5.281-1.72-5.281-5.001c0-3.221,2.501-5.001,5.281-5.001
		c2.781,0,5.281,1.78,5.281,5.001C258.623,91.721,256.122,93.341,253.341,93.341z M253.341,86.039c-0.72,0-1.2,0.841-1.2,2.301
		c0,1.48,0.48,2.301,1.2,2.301c0.74,0,1.2-0.82,1.2-2.301C254.542,86.88,254.102,86.039,253.341,86.039z"/>
	<path fill="#ED1C24" d="M200.203,101.939c-1.16-0.7-2.38-1.181-3.881-1.181c-0.74,0-1.14,0.38-1.14,0.82
		c0,0.64,2,1.561,3.201,2.021c1.62,0.62,2.98,2.12,2.92,3.7c-0.08,2.341-1.9,4.062-5.441,4.062c-2.881,0-4.081-0.7-5.721-1.7
		l1.56-3.161c1.44,1,2.741,1.48,4.001,1.48c0.64,0,1.32-0.26,1.32-0.801c0-1.1-2.94-1.92-3.641-2.3
		c-1.681-0.9-2.621-1.86-2.621-3.381c0-2.961,3.201-4.021,5.621-4.021c2.621,0,3.841,0.5,5.341,1.26L200.203,101.939z"/>
	<path fill="#ED1C24" d="M205.702,111.341c-1.38,0-2.621-0.74-2.621-2.24v-5.341h-1.38v-1.761l1.38-0.24v-2.641h3.861v2.561h2.221
		v2.081h-2.221v3.761c0,0.7,0.26,0.9,0.58,0.9c0.2,0,0.6-0.32,1.021-0.601l0.94,2.141
		C208.222,110.721,207.262,111.341,205.702,111.341z"/>
	<path fill="#ED1C24" d="M214.882,111.341c-2.781,0-5.281-1.72-5.281-5.001c0-3.221,2.5-5.001,5.281-5.001s5.281,1.78,5.281,5.001
		C220.163,109.721,217.663,111.341,214.882,111.341z M214.882,104.039c-0.72,0-1.2,0.841-1.2,2.301c0,1.48,0.48,2.301,1.2,2.301
		c0.74,0,1.2-0.82,1.2-2.301C216.082,104.88,215.642,104.039,214.882,104.039z"/>
	<path fill="#ED1C24" d="M227.502,111.361c-0.64,0-1.32-0.021-1.96-0.341v4.762h-4.001v-14.104h4.001v0.86
		c0.44-0.46,1.18-1.2,2.42-1.2c2.741,0,4.061,1.74,4.061,4.801C232.023,109.12,230.163,111.361,227.502,111.361z M226.802,104.119
		c-0.44,0-0.78,0.261-1.26,0.841v3c0,0.58,0.24,1.16,0.9,1.16c0.94,0,1.5-1.08,1.5-2.64
		C227.942,104.979,227.602,104.119,226.802,104.119z"/>
	<path fill="#ED1C24" d="M240.261,111.001v-7.502H238v-2.3h6.261v9.802H240.261z"/>
	<path fill="#ED1C24" d="M252.702,111.361c-3.961,0-5.741-2.561-5.741-5.182c0-2.62,1.78-5.181,5.741-5.181s5.741,2.561,5.741,5.181
		C258.443,108.801,256.663,111.361,252.702,111.361z M252.702,103.579c-1.5,0-2.32,1.12-2.32,2.601s0.82,2.621,2.32,2.621
		c1.5,0,2.321-1.141,2.321-2.621S254.202,103.579,252.702,103.579z"/>
</g>
<g>
	<path fill="#ED1C24" d="M478.014,29.839c-1.856-1.12-3.808-1.888-6.208-1.888c-1.184,0-1.824,0.608-1.824,1.312
		c0,1.024,3.2,2.496,5.12,3.232c2.592,0.991,4.768,3.392,4.671,5.919c-0.128,3.744-3.04,6.496-8.703,6.496
		c-4.608,0-6.528-1.12-9.151-2.72l2.496-5.056c2.304,1.6,4.384,2.367,6.399,2.367c1.024,0,2.112-0.416,2.112-1.279
		c0-1.76-4.704-3.072-5.824-3.68c-2.688-1.44-4.192-2.976-4.192-5.408c0-4.735,5.12-6.432,8.992-6.432
		c4.191,0,6.144,0.801,8.543,2.017L478.014,29.839z"/>
	<path fill="#ED1C24" d="M486.815,44.878c-2.208,0-4.192-1.184-4.192-3.584v-8.543h-2.208v-2.816l2.208-0.384v-4.224h6.175v4.096
		h3.552v3.328h-3.552v6.016c0,1.12,0.416,1.439,0.928,1.439c0.32,0,0.96-0.512,1.632-0.96l1.504,3.424
		C490.846,43.886,489.311,44.878,486.815,44.878z"/>
	<path fill="#ED1C24" d="M501.502,44.878c-4.448,0-8.447-2.752-8.447-7.999c0-5.152,4-8,8.447-8s8.448,2.848,8.448,8
		C509.95,42.286,505.95,44.878,501.502,44.878z M501.502,33.199c-1.152,0-1.92,1.344-1.92,3.68c0,2.367,0.768,3.68,1.92,3.68
		c1.184,0,1.92-1.312,1.92-3.68C503.422,34.543,502.718,33.199,501.502,33.199z"/>
	<path fill="#ED1C24" d="M521.694,44.91c-1.024,0-2.112-0.032-3.136-0.544v7.615h-6.399V29.423h6.399v1.376
		c0.704-0.735,1.888-1.92,3.872-1.92c4.384,0,6.496,2.784,6.496,7.68C528.925,41.326,525.95,44.91,521.694,44.91z M520.574,33.327
		c-0.704,0-1.248,0.416-2.016,1.344v4.8c0,0.928,0.384,1.855,1.44,1.855c1.504,0,2.4-1.728,2.4-4.224
		C522.398,34.703,521.854,33.327,520.574,33.327z"/>
	<path fill="#ED1C24" d="M542.109,44.334V32.335h-3.615v-3.68h10.016v15.679H542.109z"/>
	<path fill="#ED1C24" d="M556.51,44.334V32.335h-3.615v-3.68h10.015v15.679H556.51z"/>
</g>
<g>
	<path d="M417.519,419.859c-1.683-1.015-3.452-1.711-5.627-1.711c-1.073,0-1.653,0.551-1.653,1.189c0,0.928,2.9,2.263,4.641,2.93
		c2.35,0.899,4.322,3.074,4.235,5.366c-0.116,3.394-2.756,5.889-7.891,5.889c-4.177,0-5.917-1.016-8.296-2.466l2.263-4.583
		c2.089,1.45,3.975,2.146,5.802,2.146c0.928,0,1.914-0.377,1.914-1.16c0-1.596-4.264-2.785-5.279-3.336
		c-2.437-1.306-3.8-2.698-3.8-4.902c0-4.293,4.642-5.83,8.151-5.83c3.8,0,5.569,0.725,7.744,1.827L417.519,419.859z"/>
	<path d="M425.492,433.493c-2.002,0-3.8-1.073-3.8-3.249v-7.745h-2.002v-2.552l2.002-0.349v-3.829h5.598v3.713h3.22v3.017h-3.22
		v5.454c0,1.015,0.377,1.305,0.842,1.305c0.29,0,0.87-0.464,1.479-0.87l1.363,3.104
		C429.146,432.594,427.754,433.493,425.492,433.493z"/>
	<path d="M438.802,433.493c-4.032,0-7.658-2.495-7.658-7.252c0-4.67,3.626-7.252,7.658-7.252s7.658,2.582,7.658,7.252
		C446.46,431.144,442.834,433.493,438.802,433.493z M438.802,422.905c-1.044,0-1.74,1.219-1.74,3.336
		c0,2.146,0.696,3.336,1.74,3.336c1.073,0,1.74-1.189,1.74-3.336C440.542,424.124,439.905,422.905,438.802,422.905z"/>
	<path d="M457.45,424.849c-0.551-0.695-0.957-0.928-1.74-0.928c-1.103,0-1.45,0.986-1.45,2.872V433h-5.802v-13.518h5.338
		l0.115,1.799c0.377-1.16,1.45-2.03,2.64-2.03c1.306,0,2.002,0.406,2.756,1.247L457.45,424.849z"/>
	<path d="M476.504,433v-8.586c0-0.986-0.262-1.219-0.639-1.219c-0.608,0-1.218,0.465-1.885,1.189V433h-5.802v-8.586
		c0-0.986-0.261-1.219-0.639-1.219c-0.608,0-1.218,0.465-1.885,1.189V433h-5.802v-13.518h5.802v1.509
		c1.073-0.899,2.843-2.002,4.38-2.002c1.624,0,2.987,0.668,3.597,2.263c1.306-0.986,3.017-2.263,4.729-2.263
		c2.233,0,3.944,1.189,3.944,4.496V433H476.504z"/>
	<path d="M500.659,427.431c-0.493,0-0.986-0.058-1.479-0.174V433h-5.976v-19.145h8.006c4.09,0,7.571,1.856,7.571,6.556
		C508.781,425.661,504.865,427.431,500.659,427.431z M500.282,418.091h-1.103v5.191c0.29,0,1.16,0.059,1.16,0.059h0.116
		c1.16,0,2.233-0.929,2.233-2.872C502.689,418.642,501.529,418.091,500.282,418.091z"/>
	<path d="M517.478,433.493c-4.032,0-7.658-2.495-7.658-7.252c0-4.67,3.626-7.252,7.658-7.252s7.658,2.582,7.658,7.252
		C525.136,431.144,521.51,433.493,517.478,433.493z M517.478,422.905c-1.044,0-1.74,1.219-1.74,3.336
		c0,2.146,0.696,3.336,1.74,3.336c1.073,0,1.74-1.189,1.74-3.336C519.218,424.124,518.581,422.905,517.478,422.905z"/>
	<path d="M527.133,433v-13.518h5.802V433H527.133z M530.18,417.713c-1.306,0-2.843-1.131-2.843-2.668s1.537-2.698,2.843-2.698
		c1.305,0,2.812,1.161,2.812,2.698S531.484,417.713,530.18,417.713z"/>
	<path d="M544.1,433v-8.586c0-0.986-0.26-1.219-0.639-1.219c-0.607,0-1.217,0.465-1.885,1.189V433h-5.801v-13.518h5.801v1.509
		c1.074-0.899,2.844-2.03,4.381-2.03c2.232,0,3.945,1.218,3.945,4.524V433H544.1z"/>
	<path d="M556.83,433.493c-2.002,0-3.799-1.073-3.799-3.249v-7.745h-2.002v-2.552l2.002-0.349v-3.829h5.598v3.713h3.219v3.017
		h-3.219v5.454c0,1.015,0.377,1.305,0.842,1.305c0.289,0,0.869-0.464,1.479-0.87l1.363,3.104
		C560.484,432.594,559.094,433.493,556.83,433.493z"/>
</g>
<path fill="none" stroke="#000000" stroke-width="7" stroke-miterlimit="10" d="M0.395,132.294c0,0,301.652-7.98,340.755-15.96
	S521.502,75.634,539.059,73.24s58.255-1.596,69.428,0.798s22.345,5.586,39.901,15.96s45.487,19.95,45.487,19.95"/>
<path fill="none" stroke="#FAA21B" stroke-width="4" stroke-miterlimit="10" d="M0.395,132.294c0,0,301.652-7.98,340.755-15.96
	c32.253-6.583,134.001-29.996,178.509-39.34"/>
<path fill="none" stroke="#ED1C24" stroke-width="2" stroke-miterlimit="10" d="M0.395,132.294c0,0,301.652-7.98,340.755-15.96
	c32.253-6.583,134.001-29.996,178.509-39.34"/>
<path fill="none" stroke="#000000" stroke-width="2" stroke-miterlimit="10" stroke-dasharray="5,3" d="M527.554,83.341
	l-3.674,4.805l-5.087,2.543l-6.458,3.643l-8,8l-3.333,8L498.333,119l-2.667,7.333V135l-3.333,7.333l-6.667,4L483,153.666
	L480.333,160l-2,17.666l-2,18l-4.667,12.667L468.333,219L461,225.666c0,0-4.667,2.667-6.667,4.667s-12,4.667-18,8
	s-10.667,6-13.333,8s-11.333,9.333-11.333,9.333l-2.667,10l-2.667,6.667c0,0-2,8.667-2.667,10.667s-1.333,10-1.333,10l1.333,19.333
	l1.333,8V327c0,0-4,1.333-6,2.667s-4.666,6-7.333,6s-8,0.667-9.333,2.667s-10.667,12-10.667,12S367,354.999,367,357.666
	s0,5.333,0,7.333s0,4.667,0.667,6.667s2,5.333,2.667,7.333s0,5.333,1.333,8s0,3.333,2.667,5.333s5.333,6.667,5.333,6.667
	l-1.333,2.667l-2.667,6L369,417l-6,2.667l-7.333-2l-14.667-2l-8-3.333c0,0-2.667-3.333-4.667-3.333S317,404.333,317,404.333
	l-5.333-4.667l-5.333-1.333l-6-0.667h-8c0,0-1.333-3.333-2-5.333s0-6-2-7.333S285,381.666,285,379.666s-3.333-14-2.667-17.333
	S281,363,283,359s2-5.333,4-8s-0.667,9.333,2-2.667s6-22,6-22c4-10,4-11.333,4-13.333s-0.667-6-0.667-6s-2.667-3.333-1.333-6.667
	s0-5.333,2.667-7.333s4.667-4.667,4.667-4.667s4-9.334,6-10.667s-4,2.667,2-1.333s0-0.667,6-4s5.333-2,9.333-6s-2-2,4-4
	s8-4.667,8-4.667s2.666-4,5.333-4.667s2-2.667,7.333-6s0,2,5.333-3.333s7.333-9.333,7.333-9.333s-0.667,2,4-2.667
	s0.667-4.667,8-6.667s2,6,7.333-2s5.333-8.667,8-12s-6.667,10,2.667-3.333s6-10.666,9.333-13.333S411,187,413,187s2-6,4.667-8
	s8.667-6,8.667-6l13.333-4.667L479,163"/>
<path fill="none" stroke="#808285" stroke-width="4" stroke-miterlimit="10" d="M521.622,76.584
	c8.441-1.76,14.579-2.954,17.437-3.344c17.557-2.394,58.255-1.596,69.428,0.798s22.345,5.586,39.901,15.96
	s45.487,19.95,45.487,19.95"/>
<g>
	<path d="M348.919,66.705v-9.245h1.148v9.245H348.919z"/>
	<path d="M357.027,66.705v-4.497c0-0.42-0.028-0.56-0.098-0.742c-0.098-0.21-0.35-0.336-0.645-0.336
		c-0.644,0-1.331,0.477-2.437,1.695v3.88h-1.051v-6.345h1.051v1.331c0.434-0.49,0.56-0.616,0.868-0.869
		c0.477-0.406,1.107-0.63,1.695-0.63c1.12,0,1.667,0.575,1.667,1.765v4.749H357.027z"/>
	<path d="M364.573,66.705v-0.798c-0.561,0.63-1.303,0.98-2.102,0.98c-1.555,0-2.647-1.303-2.647-3.18
		c0-2.045,1.358-3.516,3.235-3.516c0.672,0,1.107,0.126,1.513,0.435v-4.132h1.064v10.211H364.573z M364.573,62.572
		c0-0.49-0.014-0.63-0.126-0.84c-0.182-0.35-0.63-0.532-1.274-0.532c-1.345,0-2.213,0.966-2.213,2.493
		c0,1.275,0.714,2.199,1.695,2.199c0.378,0,0.841-0.154,1.233-0.434c0.238-0.168,0.392-0.322,0.687-0.687V62.572z"/>
	<path d="M368.505,58.833c-0.378,0-0.686-0.308-0.686-0.687s0.308-0.687,0.686-0.687c0.378,0,0.687,0.308,0.687,0.687
		S368.883,58.833,368.505,58.833z M367.973,66.705v-6.345h1.051v6.345H367.973z"/>
	<path d="M375.927,66.887c-0.869-0.056-1.177-0.28-1.233-0.882c-0.322,0.28-0.462,0.392-0.672,0.504
		c-0.392,0.224-0.896,0.364-1.345,0.364c-1.022,0-1.695-0.658-1.695-1.667c0-0.924,0.49-1.541,1.415-1.765l2.199-0.519v-1.148
		c0-0.518-0.393-0.785-1.205-0.785c-0.658,0-0.966,0.182-0.966,0.546c0,0.07,0.014,0.126,0.056,0.238l-1.065,0.224
		c-0.098-0.168-0.112-0.238-0.112-0.392c0-0.84,0.924-1.415,2.283-1.415c1.275,0,2.073,0.603,2.073,1.583v3.894
		c0.028,0.168,0.196,0.28,0.518,0.336L375.927,66.887z M374.597,63.805l-2.381,0.616c-0.154,0.294-0.182,0.434-0.182,0.687
		c0,0.504,0.336,0.826,0.854,0.826c0.476,0,0.798-0.154,1.709-0.812V63.805z"/>
	<path d="M382.325,66.705v-4.497c0-0.42-0.028-0.56-0.098-0.742c-0.098-0.21-0.35-0.336-0.645-0.336
		c-0.644,0-1.331,0.477-2.437,1.695v3.88h-1.051v-6.345h1.051v1.331c0.434-0.49,0.56-0.616,0.868-0.869
		c0.477-0.406,1.107-0.63,1.695-0.63c1.12,0,1.667,0.575,1.667,1.765v4.749H382.325z"/>
	<path d="M391.788,66.873c-0.672,0-1.106-0.126-1.513-0.434v3.614h-1.051v-9.693h1.051v0.798c0.532-0.617,1.289-0.98,2.087-0.98
		c1.569,0,2.662,1.303,2.662,3.18C395.024,65.402,393.665,66.873,391.788,66.873z M392.194,61.171c-0.378,0-0.84,0.168-1.233,0.435
		c-0.252,0.182-0.392,0.322-0.686,0.7v2.199c0,0.546,0.014,0.616,0.126,0.827c0.21,0.364,0.63,0.546,1.274,0.546
		c1.345,0,2.213-0.98,2.213-2.507C393.889,62.096,393.175,61.171,392.194,61.171z"/>
	<path d="M399.362,66.887c-1.723,0-3.138-1.527-3.138-3.348c0-1.835,1.415-3.348,3.138-3.348c1.708,0,3.124,1.513,3.124,3.348
		C402.486,65.36,401.071,66.887,399.362,66.887z M399.362,61.129c-1.121,0-1.989,1.065-1.989,2.41s0.869,2.409,1.989,2.409
		c1.106,0,1.975-1.064,1.975-2.409S400.469,61.129,399.362,61.129z"/>
	<path d="M408.519,66.705v-4.497c0-0.42-0.028-0.56-0.098-0.742c-0.098-0.21-0.35-0.336-0.645-0.336
		c-0.644,0-1.331,0.477-2.437,1.695v3.88h-1.051v-6.345h1.051v1.331c0.434-0.49,0.56-0.616,0.868-0.869
		c0.477-0.406,1.107-0.63,1.695-0.63c1.121,0,1.667,0.575,1.667,1.765v4.749H408.519z"/>
	<path d="M416.065,66.705v-0.798c-0.561,0.63-1.303,0.98-2.101,0.98c-1.555,0-2.647-1.303-2.647-3.18
		c0-2.045,1.358-3.516,3.235-3.516c0.672,0,1.107,0.126,1.513,0.435v-4.132h1.064v10.211H416.065z M416.065,62.572
		c0-0.49-0.014-0.63-0.126-0.84c-0.182-0.35-0.63-0.532-1.274-0.532c-1.345,0-2.213,0.966-2.213,2.493
		c0,1.275,0.714,2.199,1.695,2.199c0.378,0,0.841-0.154,1.233-0.434c0.238-0.168,0.392-0.322,0.687-0.687V62.572z"/>
	<path d="M425.528,66.873c-0.672,0-1.106-0.126-1.513-0.434v3.614h-1.051v-9.693h1.051v0.798c0.532-0.617,1.289-0.98,2.087-0.98
		c1.569,0,2.662,1.303,2.662,3.18C428.764,65.402,427.405,66.873,425.528,66.873z M425.934,61.171c-0.378,0-0.84,0.168-1.233,0.435
		c-0.252,0.182-0.392,0.322-0.686,0.7v2.199c0,0.546,0.014,0.616,0.126,0.827c0.21,0.364,0.63,0.546,1.274,0.546
		c1.345,0,2.213-0.98,2.213-2.507C427.629,62.096,426.915,61.171,425.934,61.171z"/>
	<path d="M435.063,66.887c-0.869-0.056-1.177-0.28-1.233-0.882c-0.322,0.28-0.462,0.392-0.672,0.504
		c-0.392,0.224-0.896,0.364-1.345,0.364c-1.022,0-1.695-0.658-1.695-1.667c0-0.924,0.49-1.541,1.415-1.765l2.199-0.519v-1.148
		c0-0.518-0.393-0.785-1.205-0.785c-0.658,0-0.966,0.182-0.966,0.546c0,0.07,0.014,0.126,0.056,0.238l-1.065,0.224
		c-0.098-0.168-0.112-0.238-0.112-0.392c0-0.84,0.924-1.415,2.283-1.415c1.275,0,2.073,0.603,2.073,1.583v3.894
		c0.028,0.168,0.196,0.28,0.518,0.336L435.063,66.887z M433.732,63.805l-2.381,0.616c-0.154,0.294-0.182,0.434-0.182,0.687
		c0,0.504,0.336,0.826,0.854,0.826c0.476,0,0.798-0.154,1.709-0.812V63.805z"/>
	<path d="M440.228,61.508c-0.21-0.182-0.322-0.252-0.448-0.252c-0.392,0-0.896,0.574-1.499,1.667v3.782h-1.051v-6.345h1.051v1.148
		c0.784-1.009,1.176-1.317,1.653-1.317c0.238,0,0.532,0.154,0.812,0.435L440.228,61.508z"/>
	<path d="M441.892,66.705V56.493h1.051v10.211H441.892z M445.59,66.705l-2.62-3.446l2.62-2.899h1.373l-2.703,2.914l2.717,3.432
		H445.59z"/>
	<path d="M448.836,58.833c-0.378,0-0.686-0.308-0.686-0.687s0.308-0.687,0.686-0.687c0.378,0,0.687,0.308,0.687,0.687
		S449.215,58.833,448.836,58.833z M448.304,66.705v-6.345h1.051v6.345H448.304z"/>
	<path d="M455.993,66.705v-4.497c0-0.42-0.028-0.56-0.098-0.742c-0.098-0.21-0.35-0.336-0.645-0.336
		c-0.644,0-1.331,0.477-2.437,1.695v3.88h-1.051v-6.345h1.051v1.331c0.434-0.49,0.56-0.616,0.868-0.869
		c0.477-0.406,1.107-0.63,1.695-0.63c1.121,0,1.667,0.575,1.667,1.765v4.749H455.993z"/>
	<path d="M463.692,61.242c0.252,0.378,0.378,0.798,0.378,1.317c0,1.289-1.135,2.395-2.465,2.395c-0.084,0-0.21-0.014-0.393-0.028
		c-0.042,0-0.112-0.014-0.21-0.014c-0.588,0.49-0.826,0.771-0.826,0.953c0,0.168,0.14,0.224,0.532,0.224h2.367
		c1.177,0,1.709,0.462,1.709,1.485c0,1.484-1.527,2.675-3.432,2.675c-1.331,0-2.479-0.7-2.479-1.527c0-0.182,0.07-0.406,0.196-0.658
		c0.182-0.351,0.364-0.588,0.841-1.093c-0.645-0.182-0.911-0.392-0.911-0.756c0-0.406,0.392-0.882,1.247-1.583
		c-0.798-0.434-1.219-1.134-1.219-2.017c0-1.429,1.051-2.423,2.536-2.423c0.462,0,0.728,0.056,1.345,0.266h0.966l1.149-0.098v0.882
		H463.692z M463.076,67.055h-2.367l-0.21,0.322c-0.406,0.63-0.532,0.882-0.532,1.121c0,0.476,0.63,0.812,1.485,0.812
		c1.289,0,2.451-0.756,2.451-1.611C463.902,67.265,463.636,67.055,463.076,67.055z M461.493,60.989c-0.771,0-1.4,0.715-1.4,1.583
		c0,0.869,0.63,1.583,1.415,1.583c0.798,0,1.415-0.687,1.415-1.583C462.922,61.69,462.292,60.989,461.493,60.989z"/>
	<path d="M474.486,66.887c-0.869-0.056-1.177-0.28-1.233-0.882c-0.322,0.28-0.462,0.392-0.672,0.504
		c-0.392,0.224-0.896,0.364-1.345,0.364c-1.022,0-1.695-0.658-1.695-1.667c0-0.924,0.49-1.541,1.415-1.765l2.199-0.519v-1.148
		c0-0.518-0.392-0.785-1.205-0.785c-0.658,0-0.966,0.182-0.966,0.546c0,0.07,0.014,0.126,0.056,0.238l-1.065,0.224
		c-0.098-0.168-0.112-0.238-0.112-0.392c0-0.84,0.924-1.415,2.283-1.415c1.275,0,2.073,0.603,2.073,1.583v3.894
		c0.028,0.168,0.196,0.28,0.518,0.336L474.486,66.887z M473.155,63.805l-2.381,0.616c-0.154,0.294-0.182,0.434-0.182,0.687
		c0,0.504,0.336,0.826,0.854,0.826c0.476,0,0.798-0.154,1.708-0.812V63.805z"/>
	<path d="M479.651,61.508c-0.21-0.182-0.322-0.252-0.448-0.252c-0.392,0-0.896,0.574-1.499,1.667v3.782h-1.051v-6.345h1.051v1.148
		c0.784-1.009,1.176-1.317,1.653-1.317c0.238,0,0.532,0.154,0.812,0.435L479.651,61.508z"/>
	<path d="M481.876,63.441c0,1.541,0.784,2.479,2.073,2.479c0.56,0,0.966-0.154,1.653-0.63l0.42,0.826
		c-0.938,0.588-1.471,0.771-2.297,0.771c-1.765,0-2.956-1.345-2.956-3.348c0-2.017,1.19-3.348,2.998-3.348
		c1.485,0,2.451,1.051,2.451,2.634v0.616H481.876z M483.697,61.144c-0.882,0-1.499,0.532-1.737,1.513h3.11
		C485.056,61.676,484.565,61.144,483.697,61.144z"/>
	<path d="M492.434,66.887c-0.869-0.056-1.177-0.28-1.233-0.882c-0.322,0.28-0.462,0.392-0.672,0.504
		c-0.392,0.224-0.896,0.364-1.345,0.364c-1.022,0-1.695-0.658-1.695-1.667c0-0.924,0.49-1.541,1.415-1.765l2.199-0.519v-1.148
		c0-0.518-0.393-0.785-1.205-0.785c-0.658,0-0.966,0.182-0.966,0.546c0,0.07,0.014,0.126,0.056,0.238l-1.065,0.224
		c-0.098-0.168-0.112-0.238-0.112-0.392c0-0.84,0.924-1.415,2.283-1.415c1.275,0,2.073,0.603,2.073,1.583v3.894
		c0.028,0.168,0.196,0.28,0.518,0.336L492.434,66.887z M491.104,63.805l-2.381,0.616c-0.154,0.294-0.182,0.434-0.182,0.687
		c0,0.504,0.336,0.826,0.854,0.826c0.476,0,0.798-0.154,1.709-0.812V63.805z"/>
</g>
<g>
	<g>
		<path d="M235.206,45.821h-0.45v-1.152c1.638-0.036,2.358-0.198,3.187-0.667c0.936-0.522,1.494-1.404,1.494-2.376
			c0-1.387-0.918-2.161-2.539-2.161h-0.9v-0.99c1.836-0.396,2.863-1.314,2.863-2.575c0-0.864-0.522-1.423-1.332-1.423
			c-0.612,0-1.044,0.216-1.981,0.991l-0.792-0.9c0.27-0.234,0.504-0.414,0.684-0.54c0.666-0.45,1.548-0.738,2.341-0.738
			c1.458,0,2.395,0.972,2.395,2.467c0,1.26-0.576,2.161-1.8,2.772c0.522,0.162,0.72,0.234,0.972,0.378
			c0.918,0.504,1.422,1.422,1.422,2.593C240.769,44.129,238.59,45.821,235.206,45.821z"/>
		<path d="M258.807,42.04v-5.78c0-0.594,0-0.702-0.126-0.954c-0.126-0.27-0.45-0.432-0.829-0.432c-0.756,0-1.548,0.522-2.754,1.782
			l-0.378,0.396v4.987h-1.35v-5.78c0-0.594,0-0.702-0.126-0.954c-0.126-0.27-0.45-0.432-0.828-0.432
			c-0.828,0-1.71,0.612-3.133,2.179v4.987h-1.351v-8.156h1.351v1.71c0.558-0.63,0.72-0.792,1.116-1.117
			c0.612-0.522,1.422-0.81,2.179-0.81c1.351,0,2.035,0.63,2.125,1.945c0.576-0.648,0.738-0.811,1.134-1.135
			c0.612-0.522,1.422-0.81,2.179-0.81c1.44,0,2.143,0.738,2.143,2.269v6.104H258.807z"/>
		<path d="M263.861,31.921c-0.486,0-0.882-0.396-0.882-0.882c0-0.486,0.396-0.882,0.882-0.882c0.486,0,0.882,0.396,0.882,0.882
			C264.743,31.525,264.347,31.921,263.861,31.921z M263.177,42.04v-8.156h1.351v8.156H263.177z"/>
		<path d="M267.551,42.04V28.914h1.35V42.04H267.551z"/>
		<path d="M272.573,37.845c0,1.98,1.008,3.187,2.665,3.187c0.72,0,1.243-0.198,2.125-0.81l0.54,1.062
			c-1.207,0.756-1.891,0.99-2.953,0.99c-2.269,0-3.799-1.729-3.799-4.303c0-2.593,1.53-4.303,3.853-4.303
			c1.909,0,3.151,1.351,3.151,3.385v0.792H272.573z M274.913,34.892c-1.134,0-1.926,0.684-2.232,1.944h3.997
			C276.66,35.576,276.03,34.892,274.913,34.892z"/>
		<path d="M282.941,42.274c-0.342,0-0.72-0.036-1.134-0.108c-0.774-0.144-1.116-0.27-1.926-0.684l0.558-1.134
			c0.27,0.144,0.468,0.252,0.612,0.324c0.576,0.27,1.296,0.45,1.872,0.45c0.829,0,1.44-0.45,1.44-1.08
			c0-0.198-0.072-0.432-0.162-0.558c-0.324-0.468-0.703-0.702-2.161-1.296c-1.584-0.667-2.125-1.225-2.125-2.215
			c0-1.422,1.188-2.305,3.097-2.305c0.342,0,0.702,0.018,1.044,0.09c0.612,0.108,0.9,0.234,1.584,0.612l-0.667,1.099
			c-0.522-0.324-0.756-0.432-1.17-0.541c-0.324-0.09-0.63-0.144-0.936-0.144c-0.918,0-1.513,0.415-1.513,1.026
			c0,0.198,0.072,0.378,0.198,0.504c0.324,0.324,0.54,0.45,2.017,1.062c1.729,0.72,2.215,1.279,2.215,2.557
			C285.786,41.392,284.724,42.274,282.941,42.274z"/>
		<path d="M293.561,37.845c0,1.98,1.008,3.187,2.665,3.187c0.72,0,1.243-0.198,2.125-0.81l0.541,1.062
			c-1.207,0.756-1.891,0.99-2.953,0.99c-2.269,0-3.799-1.729-3.799-4.303c0-2.593,1.53-4.303,3.853-4.303
			c1.909,0,3.151,1.351,3.151,3.385v0.792H293.561z M295.901,34.892c-1.135,0-1.927,0.684-2.233,1.944h3.997
			C297.647,35.576,297.018,34.892,295.901,34.892z"/>
		<path d="M307.134,42.274c-1.116-0.072-1.512-0.36-1.584-1.134c-0.414,0.36-0.594,0.504-0.864,0.648
			c-0.504,0.288-1.152,0.468-1.729,0.468c-1.314,0-2.179-0.846-2.179-2.143c0-1.188,0.63-1.98,1.819-2.269l2.827-0.666v-1.477
			c0-0.666-0.504-1.008-1.548-1.008c-0.846,0-1.243,0.234-1.243,0.702c0,0.09,0.018,0.162,0.072,0.306l-1.369,0.288
			c-0.126-0.216-0.144-0.306-0.144-0.504c0-1.081,1.188-1.819,2.935-1.819c1.639,0,2.665,0.774,2.665,2.035v5.005
			c0.036,0.216,0.252,0.36,0.666,0.432L307.134,42.274z M305.423,38.313l-3.061,0.792c-0.198,0.378-0.234,0.558-0.234,0.882
			c0,0.648,0.432,1.062,1.098,1.062c0.612,0,1.026-0.198,2.197-1.044V38.313z"/>
		<path d="M312.497,42.274c-0.342,0-0.72-0.036-1.134-0.108c-0.774-0.144-1.116-0.27-1.926-0.684l0.558-1.134
			c0.27,0.144,0.468,0.252,0.612,0.324c0.576,0.27,1.296,0.45,1.872,0.45c0.829,0,1.44-0.45,1.44-1.08
			c0-0.198-0.072-0.432-0.162-0.558c-0.324-0.468-0.703-0.702-2.161-1.296c-1.584-0.667-2.125-1.225-2.125-2.215
			c0-1.422,1.188-2.305,3.097-2.305c0.342,0,0.702,0.018,1.044,0.09c0.612,0.108,0.9,0.234,1.584,0.612l-0.667,1.099
			c-0.522-0.324-0.756-0.432-1.17-0.541c-0.324-0.09-0.63-0.144-0.936-0.144c-0.918,0-1.513,0.415-1.513,1.026
			c0,0.198,0.072,0.378,0.198,0.504c0.324,0.324,0.54,0.45,2.017,1.062c1.729,0.72,2.215,1.279,2.215,2.557
			C315.342,41.392,314.279,42.274,312.497,42.274z"/>
		<path d="M319.625,42.274c-0.937,0-1.566-0.738-1.566-1.818v-5.438h-1.369v-0.792l1.369-0.342v-2.377h1.35v2.377h2.161v1.134
			h-2.161v4.645l0.018,0.36c0.018,0.252,0.018,0.414,0.036,0.504c0.018,0.271,0.18,0.396,0.468,0.396
			c0.342,0,0.612-0.144,1.188-0.576l0.558,0.9C320.723,42.04,320.272,42.274,319.625,42.274z"/>
		<path d="M331.289,42.274c-2.215,0-4.033-1.962-4.033-4.303c0-2.358,1.818-4.303,4.033-4.303c2.196,0,4.015,1.945,4.015,4.303
			C335.304,40.312,333.485,42.274,331.289,42.274z M331.289,34.874c-1.44,0-2.557,1.368-2.557,3.097s1.117,3.097,2.557,3.097
			c1.422,0,2.539-1.369,2.539-3.097S332.711,34.874,331.289,34.874z"/>
		<path d="M342.647,30.265c-0.576-0.198-0.918-0.27-1.332-0.27c-1.387,0-2.071,0.936-2.071,2.881v1.008h1.927v1.134h-1.927v7.022
			h-1.351v-7.022h-1.368v-0.792l1.368-0.342v-1.351c0-2.323,1.369-3.799,3.511-3.799c0.684,0,1.17,0.108,1.8,0.396L342.647,30.265z"
			/>
		<path d="M349.09,31.399v4.069h4.303v1.26h-4.303v5.312h-1.477V30.156h6.68v1.243H349.09z"/>
		<path d="M357.28,31.921c-0.486,0-0.882-0.396-0.882-0.882c0-0.486,0.396-0.882,0.882-0.882c0.486,0,0.882,0.396,0.882,0.882
			C358.162,31.525,357.766,31.921,357.28,31.921z M356.596,42.04v-8.156h1.351v8.156H356.596z"/>
		<path d="M363.616,42.274c-0.342,0-0.72-0.036-1.134-0.108c-0.774-0.144-1.116-0.27-1.926-0.684l0.558-1.134
			c0.27,0.144,0.468,0.252,0.612,0.324c0.576,0.27,1.297,0.45,1.873,0.45c0.828,0,1.44-0.45,1.44-1.08
			c0-0.198-0.072-0.432-0.162-0.558c-0.324-0.468-0.702-0.702-2.161-1.296c-1.584-0.667-2.125-1.225-2.125-2.215
			c0-1.422,1.188-2.305,3.097-2.305c0.342,0,0.702,0.018,1.044,0.09c0.612,0.108,0.9,0.234,1.584,0.612l-0.667,1.099
			c-0.522-0.324-0.756-0.432-1.17-0.541c-0.324-0.09-0.63-0.144-0.936-0.144c-0.918,0-1.513,0.415-1.513,1.026
			c0,0.198,0.072,0.378,0.198,0.504c0.324,0.324,0.54,0.45,2.017,1.062c1.729,0.72,2.215,1.279,2.215,2.557
			C366.461,41.392,365.399,42.274,363.616,42.274z"/>
		<path d="M374.363,42.04v-5.78c0-0.54-0.018-0.72-0.126-0.954c-0.126-0.27-0.433-0.432-0.811-0.432
			c-0.846,0-1.729,0.612-3.133,2.179v4.987h-1.351V28.914h1.351v6.68c0.558-0.63,0.702-0.792,1.098-1.117
			c0.63-0.522,1.422-0.81,2.197-0.81c1.44,0,2.143,0.738,2.143,2.269v6.104H374.363z"/>
		<path d="M379.42,31.921c-0.486,0-0.882-0.396-0.882-0.882c0-0.486,0.396-0.882,0.882-0.882c0.486,0,0.882,0.396,0.882,0.882
			C380.302,31.525,379.906,31.921,379.42,31.921z M378.735,42.04v-8.156h1.351v8.156H378.735z"/>
		<path d="M388.619,42.04v-5.78c0-0.54-0.036-0.72-0.126-0.954c-0.126-0.27-0.45-0.432-0.828-0.432c-0.828,0-1.71,0.612-3.133,2.179
			v4.987h-1.351v-8.156h1.351v1.71c0.558-0.63,0.72-0.792,1.116-1.117c0.612-0.522,1.422-0.81,2.179-0.81
			c1.44,0,2.143,0.738,2.143,2.269v6.104H388.619z"/>
		<path d="M398.519,35.018c0.324,0.486,0.486,1.026,0.486,1.692c0,1.657-1.458,3.079-3.169,3.079c-0.108,0-0.27-0.018-0.504-0.036
			c-0.054,0-0.144-0.018-0.27-0.018c-0.756,0.63-1.062,0.99-1.062,1.225c0,0.216,0.18,0.288,0.684,0.288h3.043
			c1.513,0,2.197,0.594,2.197,1.908c0,1.909-1.962,3.439-4.411,3.439c-1.71,0-3.187-0.9-3.187-1.962c0-0.234,0.09-0.522,0.252-0.846
			c0.234-0.45,0.468-0.756,1.081-1.404c-0.829-0.234-1.17-0.504-1.17-0.973c0-0.522,0.504-1.134,1.603-2.035
			c-1.026-0.558-1.566-1.458-1.566-2.593c0-1.836,1.35-3.115,3.259-3.115c0.594,0,0.936,0.072,1.729,0.342h1.242l1.477-0.126v1.134
			H398.519z M397.727,42.49h-3.043l-0.27,0.414c-0.522,0.81-0.684,1.134-0.684,1.44c0,0.612,0.811,1.044,1.909,1.044
			c1.656,0,3.151-0.972,3.151-2.071C398.789,42.76,398.447,42.49,397.727,42.49z M395.692,34.694c-0.991,0-1.801,0.918-1.801,2.035
			s0.81,2.035,1.818,2.035c1.026,0,1.819-0.882,1.819-2.035C397.529,35.594,396.718,34.694,395.692,34.694z"/>
		<path d="M411.425,42.04h-4.394V30.156h3.854c1.152,0,1.782,0.198,2.376,0.738c0.576,0.541,0.937,1.351,0.937,2.179
			c0,1.278-0.774,2.305-2.035,2.737c1.584,0.306,2.484,1.422,2.484,3.061C414.647,40.762,413.352,42.04,411.425,42.04z
			 M412.145,31.831c-0.306-0.324-0.684-0.432-1.603-0.432h-2.035v3.853h1.927c0.846,0,1.224-0.126,1.62-0.522
			c0.36-0.36,0.576-0.918,0.576-1.531C412.631,32.623,412.451,32.137,412.145,31.831z M410.542,36.603h-2.035v4.195h2.035
			c1.081,0,1.495-0.108,1.909-0.45c0.378-0.324,0.63-0.955,0.63-1.584C413.081,37.376,412.163,36.603,410.542,36.603z"/>
		<path d="M421.108,35.36c-0.271-0.234-0.415-0.324-0.576-0.324c-0.504,0-1.152,0.738-1.927,2.143v4.861h-1.351v-8.156h1.351v1.476
			c1.008-1.296,1.512-1.692,2.125-1.692c0.306,0,0.684,0.198,1.044,0.558L421.108,35.36z"/>
		<path d="M424.005,31.921c-0.486,0-0.882-0.396-0.882-0.882c0-0.486,0.396-0.882,0.882-0.882c0.486,0,0.882,0.396,0.882,0.882
			C424.887,31.525,424.491,31.921,424.005,31.921z M423.321,42.04v-8.156h1.351v8.156H423.321z"/>
		<path d="M433.096,42.04v-1.026c-0.72,0.811-1.674,1.26-2.701,1.26c-1.999,0-3.403-1.674-3.403-4.087
			c0-2.629,1.747-4.52,4.159-4.52c0.864,0,1.422,0.162,1.944,0.558v-5.312h1.369V42.04H433.096z M433.096,36.729
			c0-0.63-0.018-0.811-0.162-1.081c-0.234-0.45-0.81-0.684-1.638-0.684c-1.729,0-2.845,1.242-2.845,3.205
			c0,1.639,0.918,2.827,2.178,2.827c0.486,0,1.081-0.198,1.584-0.558c0.306-0.216,0.504-0.414,0.882-0.882V36.729z"/>
		<path d="M442.996,35.018c0.324,0.486,0.486,1.026,0.486,1.692c0,1.657-1.458,3.079-3.169,3.079c-0.108,0-0.271-0.018-0.504-0.036
			c-0.054,0-0.144-0.018-0.27-0.018c-0.756,0.63-1.062,0.99-1.062,1.225c0,0.216,0.18,0.288,0.685,0.288h3.042
			c1.513,0,2.197,0.594,2.197,1.908c0,1.909-1.962,3.439-4.411,3.439c-1.71,0-3.187-0.9-3.187-1.962c0-0.234,0.09-0.522,0.252-0.846
			c0.234-0.45,0.468-0.756,1.081-1.404c-0.829-0.234-1.17-0.504-1.17-0.973c0-0.522,0.504-1.134,1.603-2.035
			c-1.026-0.558-1.567-1.458-1.567-2.593c0-1.836,1.351-3.115,3.259-3.115c0.594,0,0.936,0.072,1.729,0.342h1.242l1.477-0.126v1.134
			H442.996z M442.204,42.49h-3.042l-0.271,0.414c-0.522,0.81-0.684,1.134-0.684,1.44c0,0.612,0.81,1.044,1.909,1.044
			c1.656,0,3.151-0.972,3.151-2.071C443.266,42.76,442.924,42.49,442.204,42.49z M440.169,34.694c-0.99,0-1.8,0.918-1.8,2.035
			s0.81,2.035,1.818,2.035c1.026,0,1.819-0.882,1.819-2.035C442.006,35.594,441.195,34.694,440.169,34.694z"/>
		<path d="M447.243,37.845c0,1.98,1.008,3.187,2.665,3.187c0.72,0,1.243-0.198,2.125-0.81l0.54,1.062
			c-1.207,0.756-1.891,0.99-2.953,0.99c-2.269,0-3.799-1.729-3.799-4.303c0-2.593,1.53-4.303,3.853-4.303
			c1.909,0,3.151,1.351,3.151,3.385v0.792H447.243z M449.583,34.892c-1.134,0-1.926,0.684-2.232,1.944h3.997
			C451.33,35.576,450.7,34.892,449.583,34.892z"/>
	</g>
</g>
<g>
	<g>
		<path d="M593.118,20.933c-0.477-0.28-0.673-0.378-0.967-0.476c-0.351-0.112-0.91-0.196-1.274-0.196
			c-1.051,0-1.766,0.519-1.766,1.303c0,0.687,0.406,1.037,2.283,2.031c0.631,0.336,1.121,0.644,1.457,0.938
			c0.449,0.378,0.715,1.008,0.715,1.681c0,1.583-1.177,2.578-3.039,2.578c-0.631,0-1.219-0.112-1.709-0.308
			c-0.351-0.14-0.589-0.28-1.191-0.687l0.588-0.911c0.52,0.351,0.743,0.477,1.065,0.603c0.405,0.154,0.854,0.238,1.331,0.238
			c1.092,0,1.75-0.519,1.75-1.401c0-0.266-0.041-0.49-0.14-0.658c-0.154-0.28-0.421-0.546-0.784-0.756
			c-0.154-0.084-0.673-0.351-1.541-0.827c-1.387-0.743-1.975-1.471-1.975-2.423c0-1.471,1.219-2.451,3.053-2.451
			c0.533,0,1.079,0.07,1.555,0.224c0.379,0.126,0.604,0.238,1.121,0.546L593.118,20.933z"/>
		<path d="M598.171,28.777c-0.673,0-1.106-0.126-1.513-0.434v3.614h-1.051v-9.693h1.051v0.798c0.532-0.617,1.289-0.98,2.087-0.98
			c1.569,0,2.661,1.303,2.661,3.18C601.406,27.307,600.048,28.777,598.171,28.777z M598.577,23.076
			c-0.378,0-0.841,0.168-1.233,0.435c-0.252,0.182-0.392,0.322-0.686,0.7v2.199c0,0.546,0.014,0.616,0.126,0.827
			c0.21,0.364,0.63,0.546,1.274,0.546c1.345,0,2.213-0.98,2.213-2.507C600.271,24.001,599.558,23.076,598.577,23.076z"/>
		<path d="M607.369,28.609v-1.317c-0.742,1.023-1.568,1.513-2.521,1.513c-1.106,0-1.695-0.617-1.695-1.779v-4.762h1.051v4.496
			c0,0.785,0.224,1.107,0.757,1.107c0.672,0,1.681-0.714,2.408-1.723v-3.88h1.065v6.345H607.369z"/>
		<path d="M613.781,23.413c-0.211-0.182-0.322-0.252-0.449-0.252c-0.392,0-0.896,0.574-1.498,1.667v3.782h-1.051v-6.345h1.051v1.148
			c0.784-1.009,1.176-1.317,1.652-1.317c0.238,0,0.533,0.154,0.812,0.435L613.781,23.413z"/>
		<path d="M621.998,23.413c-0.209-0.182-0.322-0.252-0.447-0.252c-0.393,0-0.896,0.574-1.499,1.667v3.782h-1.051v-6.345h1.051v1.148
			c0.784-1.009,1.177-1.317,1.653-1.317c0.237,0,0.531,0.154,0.812,0.435L621.998,23.413z"/>
		<path d="M626.254,28.792c-1.723,0-3.137-1.527-3.137-3.348c0-1.835,1.414-3.348,3.137-3.348c1.709,0,3.124,1.513,3.124,3.348
			C629.378,27.265,627.963,28.792,626.254,28.792z M626.254,23.034c-1.12,0-1.988,1.065-1.988,2.41s0.868,2.409,1.988,2.409
			c1.107,0,1.976-1.064,1.976-2.409S627.361,23.034,626.254,23.034z"/>
		<path d="M635.678,28.792c-0.869-0.056-1.178-0.28-1.233-0.882c-0.322,0.28-0.462,0.392-0.673,0.504
			c-0.392,0.224-0.896,0.364-1.344,0.364c-1.023,0-1.695-0.658-1.695-1.667c0-0.924,0.49-1.541,1.415-1.765l2.199-0.519v-1.148
			c0-0.518-0.393-0.785-1.205-0.785c-0.658,0-0.966,0.182-0.966,0.546c0,0.07,0.014,0.126,0.056,0.238l-1.065,0.224
			c-0.098-0.168-0.111-0.238-0.111-0.392c0-0.84,0.924-1.415,2.283-1.415c1.275,0,2.073,0.603,2.073,1.583v3.894
			c0.028,0.168,0.196,0.28,0.519,0.336L635.678,28.792z M634.347,25.71l-2.382,0.616c-0.154,0.294-0.182,0.434-0.182,0.687
			c0,0.504,0.336,0.826,0.854,0.826c0.476,0,0.798-0.154,1.709-0.812V25.71z"/>
		<path d="M641.991,28.609v-0.798c-0.561,0.63-1.303,0.98-2.102,0.98c-1.555,0-2.647-1.303-2.647-3.18
			c0-2.045,1.359-3.516,3.236-3.516c0.672,0,1.106,0.126,1.513,0.435v-4.132h1.064v10.211H641.991z M641.991,24.477
			c0-0.49-0.015-0.63-0.126-0.84c-0.183-0.35-0.631-0.532-1.275-0.532c-1.344,0-2.213,0.966-2.213,2.493
			c0,1.275,0.715,2.199,1.695,2.199c0.378,0,0.84-0.154,1.232-0.434c0.238-0.168,0.393-0.322,0.687-0.687V24.477z"/>
		<path d="M589.42,42.792c-0.729,0-1.219-0.574-1.219-1.415v-4.23h-1.064V36.53l1.064-0.266v-1.849h1.051v1.849h1.682v0.882h-1.682
			v3.614l0.014,0.28c0.015,0.196,0.015,0.322,0.028,0.392c0.015,0.21,0.14,0.308,0.364,0.308c0.266,0,0.477-0.112,0.924-0.448
			l0.436,0.701C590.274,42.609,589.924,42.792,589.42,42.792z"/>
		<path d="M594.992,42.792c-1.723,0-3.137-1.527-3.137-3.348c0-1.835,1.414-3.348,3.137-3.348c1.709,0,3.124,1.513,3.124,3.348
			C598.116,41.265,596.701,42.792,594.992,42.792z M594.992,37.034c-1.12,0-1.988,1.065-1.988,2.41s0.868,2.409,1.988,2.409
			c1.107,0,1.976-1.064,1.976-2.409S596.1,37.034,594.992,37.034z"/>
		<path d="M606.318,39.22c-0.363,0-0.616-0.028-1.429-0.112v3.502h-1.148v-9.245h2.899c1.121,0,1.737,0.196,2.256,0.729
			c0.476,0.49,0.714,1.135,0.714,2.003C609.61,38.029,608.35,39.22,606.318,39.22z M607.901,34.723
			c-0.28-0.28-0.687-0.392-1.429-0.392h-1.583v3.81c0.645,0.07,0.911,0.084,1.233,0.084c0.518,0,0.896-0.056,1.204-0.182
			c0.673-0.28,1.093-1.009,1.093-1.877C608.42,35.563,608.238,35.059,607.901,34.723z"/>
		<path d="M611.707,39.346c0,1.541,0.785,2.479,2.074,2.479c0.56,0,0.966-0.154,1.652-0.63l0.42,0.826
			c-0.938,0.588-1.471,0.771-2.297,0.771c-1.766,0-2.955-1.345-2.955-3.348c0-2.017,1.189-3.348,2.997-3.348
			c1.485,0,2.451,1.051,2.451,2.634v0.616H611.707z M613.528,37.048c-0.882,0-1.499,0.532-1.737,1.513h3.11
			C614.887,37.581,614.396,37.048,613.528,37.048z"/>
		<path d="M617.713,42.609V32.398h1.051v10.211H617.713z"/>
		<path d="M621.647,34.737c-0.378,0-0.687-0.308-0.687-0.687s0.309-0.687,0.687-0.687s0.687,0.308,0.687,0.687
			S622.025,34.737,621.647,34.737z M621.115,42.609v-6.345h1.051v6.345H621.115z"/>
		<path d="M628.986,42.357c-0.52,0.28-1.135,0.434-1.766,0.434c-1.934,0-3.25-1.331-3.25-3.278c0-2.003,1.373-3.418,3.32-3.418
			c0.322,0,0.63,0.042,0.938,0.126c0.42,0.112,0.616,0.21,1.05,0.518l-0.602,0.854c-0.49-0.406-0.854-0.546-1.43-0.546
			c-1.273,0-2.129,0.98-2.129,2.409c0,1.457,0.855,2.367,2.214,2.367c0.616,0,1.009-0.14,1.526-0.532l0.547,0.827
			C629.224,42.231,629.084,42.315,628.986,42.357z"/>
		<path d="M635.285,42.792c-0.868-0.056-1.176-0.28-1.232-0.882c-0.322,0.28-0.462,0.392-0.672,0.504
			c-0.393,0.224-0.896,0.364-1.346,0.364c-1.021,0-1.694-0.658-1.694-1.667c0-0.924,0.49-1.541,1.415-1.765l2.199-0.519v-1.148
			c0-0.518-0.393-0.785-1.205-0.785c-0.658,0-0.967,0.182-0.967,0.546c0,0.07,0.015,0.126,0.057,0.238l-1.064,0.224
			c-0.098-0.168-0.112-0.238-0.112-0.392c0-0.84,0.925-1.415,2.283-1.415c1.274,0,2.073,0.603,2.073,1.583v3.894
			c0.027,0.168,0.195,0.28,0.518,0.336L635.285,42.792z M633.955,39.71l-2.381,0.616c-0.154,0.294-0.183,0.434-0.183,0.687
			c0,0.504,0.336,0.826,0.854,0.826c0.477,0,0.799-0.154,1.709-0.812V39.71z"/>
		<path d="M641.684,42.609v-4.497c0-0.42-0.028-0.56-0.098-0.742c-0.099-0.21-0.351-0.336-0.645-0.336
			c-0.645,0-1.331,0.477-2.438,1.695v3.88h-1.051v-6.345h1.051v1.331c0.434-0.49,0.561-0.616,0.868-0.869
			c0.477-0.406,1.106-0.63,1.695-0.63c1.12,0,1.667,0.575,1.667,1.765v4.749H641.684z"/>
		<path d="M591.381,56.848h-0.7l-3.642-9.483h1.232l2.731,7.214c0.042,0.126,0.084,0.266,0.099,0.448
			c0-0.168,0.027-0.294,0.084-0.448l2.633-7.214h1.148L591.381,56.848z"/>
		<path d="M599.811,56.792c-0.869-0.056-1.178-0.28-1.233-0.882c-0.322,0.28-0.462,0.392-0.673,0.504
			c-0.392,0.224-0.896,0.364-1.344,0.364c-1.023,0-1.695-0.658-1.695-1.667c0-0.924,0.49-1.541,1.415-1.765l2.199-0.519v-1.148
			c0-0.518-0.393-0.785-1.205-0.785c-0.658,0-0.966,0.182-0.966,0.546c0,0.07,0.014,0.126,0.056,0.238l-1.065,0.224
			c-0.098-0.168-0.111-0.238-0.111-0.392c0-0.84,0.924-1.415,2.283-1.415c1.275,0,2.073,0.603,2.073,1.583v3.894
			c0.028,0.168,0.196,0.28,0.519,0.336L599.811,56.792z M598.479,53.71l-2.382,0.616c-0.154,0.294-0.182,0.434-0.182,0.687
			c0,0.504,0.336,0.826,0.854,0.826c0.476,0,0.798-0.154,1.709-0.812V53.71z"/>
		<path d="M601.922,56.609V46.398h1.051v10.211H601.922z"/>
		<path d="M605.268,56.609V46.398h1.051v10.211H605.268z"/>
		<path d="M609.174,53.346c0,1.541,0.785,2.479,2.074,2.479c0.56,0,0.966-0.154,1.652-0.63l0.42,0.826
			c-0.938,0.588-1.471,0.771-2.297,0.771c-1.766,0-2.955-1.345-2.955-3.348c0-2.017,1.189-3.348,2.997-3.348
			c1.485,0,2.451,1.051,2.451,2.634v0.616H609.174z M610.995,51.048c-0.882,0-1.499,0.532-1.737,1.513h3.11
			C612.354,51.581,611.863,51.048,610.995,51.048z"/>
		<path d="M617.085,56.959c-0.294,0.785-0.532,1.303-0.882,1.863c-0.253,0.406-0.436,0.672-0.953,1.331l-0.84-0.645
			c0.63-0.7,0.84-0.98,1.204-1.639c0.351-0.616,0.519-0.995,0.882-1.961l-2.353-5.645h1.177l1.526,3.88l0.21,0.616l0.141-0.616
			l1.303-3.88h1.078L617.085,56.959z"/>
		<path d="M627.543,48.331v8.278h-1.148v-8.278h-3.081v-0.967h7.312v0.967H627.543z"/>
		<path d="M633.549,51.413c-0.209-0.182-0.322-0.252-0.447-0.252c-0.393,0-0.896,0.574-1.499,1.667v3.782h-1.051v-6.345h1.051v1.148
			c0.784-1.009,1.177-1.317,1.653-1.317c0.237,0,0.531,0.154,0.812,0.435L633.549,51.413z"/>
		<path d="M639.766,56.792c-0.868-0.056-1.176-0.28-1.232-0.882c-0.322,0.28-0.462,0.392-0.672,0.504
			c-0.393,0.224-0.896,0.364-1.346,0.364c-1.021,0-1.694-0.658-1.694-1.667c0-0.924,0.49-1.541,1.415-1.765l2.199-0.519v-1.148
			c0-0.518-0.393-0.785-1.205-0.785c-0.658,0-0.967,0.182-0.967,0.546c0,0.07,0.015,0.126,0.057,0.238l-1.064,0.224
			c-0.098-0.168-0.112-0.238-0.112-0.392c0-0.84,0.925-1.415,2.283-1.415c1.274,0,2.073,0.603,2.073,1.583v3.894
			c0.027,0.168,0.195,0.28,0.518,0.336L639.766,56.792z M638.436,53.71l-2.381,0.616c-0.154,0.294-0.183,0.434-0.183,0.687
			c0,0.504,0.336,0.826,0.854,0.826c0.477,0,0.799-0.154,1.709-0.812V53.71z"/>
		<path d="M642.466,48.737c-0.378,0-0.687-0.308-0.687-0.687s0.309-0.687,0.687-0.687s0.687,0.308,0.687,0.687
			S642.844,48.737,642.466,48.737z M641.934,56.609v-6.345h1.051v6.345H641.934z"/>
		<path d="M645.336,56.609V46.398h1.051v10.211H645.336z"/>
		<path d="M652.842,56.609v-4.497c0-0.42-0.014-0.56-0.098-0.742c-0.098-0.21-0.336-0.336-0.631-0.336
			c-0.658,0-1.344,0.477-2.438,1.695v3.88h-1.05V46.398h1.05v5.197c0.435-0.49,0.547-0.616,0.855-0.869
			c0.49-0.406,1.105-0.63,1.709-0.63c1.12,0,1.666,0.575,1.666,1.765v4.749H652.842z"/>
		<path d="M656.746,53.346c0,1.541,0.784,2.479,2.073,2.479c0.561,0,0.967-0.154,1.652-0.63l0.421,0.826
			c-0.938,0.588-1.471,0.771-2.298,0.771c-1.765,0-2.955-1.345-2.955-3.348c0-2.017,1.19-3.348,2.997-3.348
			c1.485,0,2.451,1.051,2.451,2.634v0.616H656.746z M658.567,51.048c-0.883,0-1.499,0.532-1.737,1.513h3.109
			C659.926,51.581,659.436,51.048,658.567,51.048z"/>
		<path d="M667.304,56.792c-0.868-0.056-1.177-0.28-1.232-0.882c-0.322,0.28-0.463,0.392-0.673,0.504
			c-0.392,0.224-0.896,0.364-1.345,0.364c-1.022,0-1.694-0.658-1.694-1.667c0-0.924,0.49-1.541,1.414-1.765l2.199-0.519v-1.148
			c0-0.518-0.392-0.785-1.204-0.785c-0.658,0-0.967,0.182-0.967,0.546c0,0.07,0.014,0.126,0.056,0.238l-1.064,0.224
			c-0.098-0.168-0.112-0.238-0.112-0.392c0-0.84,0.925-1.415,2.284-1.415c1.274,0,2.072,0.603,2.072,1.583v3.894
			c0.028,0.168,0.196,0.28,0.519,0.336L667.304,56.792z M665.973,53.71l-2.381,0.616c-0.154,0.294-0.183,0.434-0.183,0.687
			c0,0.504,0.337,0.826,0.854,0.826c0.477,0,0.799-0.154,1.709-0.812V53.71z"/>
		<path d="M673.617,56.609v-0.798c-0.56,0.63-1.303,0.98-2.101,0.98c-1.555,0-2.647-1.303-2.647-3.18
			c0-2.045,1.358-3.516,3.235-3.516c0.673,0,1.106,0.126,1.513,0.435v-4.132h1.064v10.211H673.617z M673.617,52.477
			c0-0.49-0.014-0.63-0.126-0.84c-0.182-0.35-0.63-0.532-1.274-0.532c-1.345,0-2.213,0.966-2.213,2.493
			c0,1.275,0.714,2.199,1.694,2.199c0.378,0,0.841-0.154,1.232-0.434c0.238-0.168,0.393-0.322,0.687-0.687V52.477z"/>
	</g>
</g>
<path d="M689.395,501.467"/>
<g>
	<path d="M531.584,118.333v-0.756h1.369v-10.371h-1.369v-0.756h5.041v0.756h-1.35v10.371h1.35v0.756H531.584z"/>
	<path d="M543.321,118.333v-0.756h1.062v-5.023c0-1.08-0.233-1.422-0.972-1.422c-0.703,0-1.009,0.18-2.18,1.296v5.149h1.045v0.756
		h-4.231v-0.756h1.062v-6.302h-1.26v-0.576l2.593-0.702h0.792v1.477c1.171-1.188,1.783-1.513,2.918-1.513
		c1.529,0,2.34,0.792,2.34,2.25v5.366h1.062v0.756H543.321z"/>
	<path d="M554.734,118.513h-0.793v-1.044c-0.846,0.864-1.297,1.098-2.215,1.098c-1.998,0-3.439-1.747-3.439-4.123
		c0-2.539,1.873-4.483,4.34-4.483c0.504,0,0.738,0.036,1.314,0.234v-3.853h-1.26v-0.576l2.592-0.702h0.793v12.172h1.26v0.594
		L554.734,118.513z M553.941,112.157c0-0.954-0.307-1.369-0.973-1.369c-1.35,0-2.395,1.477-2.395,3.403
		c0,1.729,0.846,3.133,1.891,3.133c0.469,0,0.936-0.252,1.477-0.792V112.157z"/>
	<path d="M558.008,118.333v-0.756h1.062v-6.302h-1.188v-0.576l2.592-0.702h0.703v7.58h1.062v0.756H558.008z M560.043,108.178
		c-0.703,0-1.279-0.558-1.279-1.278c0-0.702,0.576-1.278,1.279-1.278c0.701,0,1.277,0.576,1.277,1.278
		C561.32,107.62,560.744,108.178,560.043,108.178z"/>
	<path d="M569.225,118.369c-0.289,0.09-0.576,0.126-0.848,0.126c-0.666,0-0.99-0.306-1.08-0.99c-0.594,0.774-1.188,1.062-2.16,1.062
		c-1.387,0-2.27-0.81-2.27-2.088c0-1.062,0.631-1.836,1.748-2.089l2.629-0.594v-1.909c0-0.918-0.234-1.243-0.883-1.243
		c-0.289,0-0.469,0.036-0.9,0.234v0.9l-2.053,0.504c-0.125-0.216-0.145-0.306-0.145-0.504c0-1.099,1.242-1.819,3.115-1.819
		c1.928,0,2.971,0.684,2.971,1.98v5.456h1.08v0.594L569.225,118.369z M567.244,114.714l-2.324,0.54v1.026
		c0,0.685,0.379,1.17,0.92,1.17c0.432,0,0.809-0.198,1.404-0.756V114.714z"/>
	<path d="M576.658,118.333v-0.756h1.061v-5.023c0-1.08-0.232-1.422-0.971-1.422c-0.703,0-1.01,0.18-2.18,1.296v5.149h1.045v0.756
		h-4.232v-0.756h1.062v-6.302h-1.26v-0.576l2.594-0.702h0.791v1.477c1.17-1.188,1.783-1.513,2.918-1.513
		c1.529,0,2.34,0.792,2.34,2.25v5.366h1.062v0.756H576.658z"/>
	<path d="M542.529,135.054c-0.306,0-0.504-0.018-0.972-0.108v-0.882c0.233,0.054,0.323,0.054,0.485,0.054
		c1.225,0,1.909-0.882,1.909-2.484c0-1.693-0.666-2.575-1.962-2.575h-1.081v10.119h1.53v0.756h-5.221v-0.756h1.367v-10.371h-1.367
		v-0.756h5.455c2.232,0,3.691,1.35,3.691,3.421C546.365,133.433,544.637,135.054,542.529,135.054z"/>
	<path d="M551.098,140.167c-2.412,0-4.16-1.818-4.16-4.303c0-2.502,1.748-4.303,4.16-4.303s4.178,1.801,4.178,4.303
		C555.275,138.349,553.51,140.167,551.098,140.167z M551.098,132.443c-1.098,0-1.873,1.404-1.873,3.421
		c0,1.999,0.775,3.403,1.873,3.403s1.873-1.405,1.873-3.403C552.971,133.847,552.195,132.443,551.098,132.443z"/>
	<path d="M561.52,139.933v-0.756h1.062v-5.023c0-1.08-0.234-1.422-0.973-1.422c-0.701,0-1.008,0.18-2.178,1.296v5.149h1.043v0.756
		h-4.23v-0.756h1.062v-6.302h-1.26v-0.576l2.592-0.702h0.793v1.477c1.17-1.188,1.781-1.513,2.916-1.513
		c1.531,0,2.342,0.792,2.342,2.251v5.365h1.061v0.756H561.52z"/>
	<path d="M572.932,140.113h-0.791v-1.044c-0.848,0.864-1.297,1.098-2.215,1.098c-2,0-3.439-1.746-3.439-4.123
		c0-2.539,1.873-4.483,4.34-4.483c0.504,0,0.738,0.036,1.314,0.234v-3.854h-1.262v-0.576l2.594-0.702h0.791v12.172h1.262v0.594
		L572.932,140.113z M572.141,133.757c0-0.955-0.307-1.369-0.973-1.369c-1.352,0-2.395,1.477-2.395,3.403
		c0,1.729,0.846,3.133,1.891,3.133c0.467,0,0.936-0.252,1.477-0.792V133.757z"/>
</g>
<path fill="none" stroke="#000000" stroke-width="4" stroke-miterlimit="10" d="M687.041,73.463
	c-14.308-2.239-28.719-4.463-43.103-6.115c-6.086-0.699-12.411-1.658-18.54-1.695c-15.051-0.091-29.923-1.228-44.899-2.585
	c-2.051-0.186-5.035-0.716-6.93,0.399c-1.949,1.147-2.56,3.669-3.483,5.419"/>
<path fill="none" stroke="#808285" stroke-width="2" stroke-miterlimit="10" d="M687.041,73.463
	c-14.308-2.239-28.719-4.463-43.103-6.115c-6.086-0.699-12.411-1.658-18.54-1.695c-15.051-0.091-29.923-1.228-44.899-2.585
	c-2.051-0.186-5.035-0.716-6.93,0.399c-1.949,1.147-3.246,4.584-4.17,6.334"/>
<g>
	<g>
		<path d="M293.856,291.064l-0.698-0.302l-1.845-5.856c-0.251-0.828-0.741-1.411-1.383-1.689c-0.899-0.39-1.792,0.009-2.205,0.963
			c-0.183,0.422-0.261,0.955-0.194,1.355c0.072,0.489,0.153,0.654,0.666,1.836l-1.103,0.634c-0.597-1.239-0.638-1.345-0.786-1.91
			c-0.205-0.786-0.123-1.731,0.251-2.594c0.771-1.781,2.302-2.447,3.936-1.74c0.422,0.183,0.794,0.431,1.079,0.729
			c0.456,0.459,0.669,0.922,1.162,2.552l0.957,3.227l2.202-5.084l1.157,0.5L293.856,291.064z"/>
		<path d="M298.801,280.911c-0.297,0.567-0.972,0.778-1.539,0.481c-0.549-0.288-0.76-0.962-0.463-1.529
			c0.288-0.549,0.962-0.76,1.511-0.473C298.877,279.687,299.088,280.362,298.801,280.911z"/>
		<path d="M302.933,274.064c-1.503,2.314-4.608,2.944-6.938,1.43c-2.348-1.525-3.034-4.618-1.53-6.932
			c1.492-2.297,4.597-2.928,6.944-1.402C303.74,268.674,304.425,271.767,302.933,274.064z M295.504,269.238
			c-1.046,1.61-0.47,3.844,1.307,4.999c1.761,1.144,4.053,0.773,5.099-0.837c1.035-1.593,0.443-3.838-1.318-4.982
			C298.814,267.263,296.539,267.645,295.504,269.238z"/>
		<path d="M319.23,258.362l-3.521-5.369c-0.362-0.552-0.428-0.652-0.699-0.81c-0.281-0.174-0.681-0.127-1.032,0.104
			c-0.703,0.461-1.12,1.428-1.473,3.334l-0.11,0.599l3.039,4.632l-1.254,0.823l-3.521-5.368c-0.362-0.552-0.428-0.652-0.699-0.81
			c-0.282-0.174-0.682-0.127-1.033,0.103c-0.769,0.505-1.216,1.611-1.583,3.933l3.039,4.633l-1.254,0.823l-4.97-7.576l1.254-0.823
			l1.042,1.589c0.135-0.925,0.187-1.175,0.357-1.717c0.25-0.858,0.828-1.619,1.53-2.08c1.254-0.823,2.274-0.655,3.158,0.511
			c0.14-0.953,0.192-1.202,0.362-1.745c0.25-0.858,0.828-1.619,1.53-2.08c1.338-0.878,2.439-0.62,3.372,0.802l3.719,5.669
			L319.23,258.362z"/>
		<path d="M318.683,246.092c-0.476,0.255-1.072,0.076-1.327-0.4c-0.255-0.476-0.076-1.072,0.4-1.327
			c0.476-0.256,1.072-0.076,1.327,0.4C319.338,245.241,319.158,245.837,318.683,246.092z M323.33,256.356l-4.286-7.984l1.322-0.709
			l4.286,7.984L323.33,256.356z"/>
		<path d="M327.616,254.062l-6.974-12.803l1.317-0.717l6.975,12.803L327.616,254.062z"/>
		<path d="M330.444,247.169c1.146,1.878,2.801,2.439,4.372,1.48c0.683-0.417,1.063-0.907,1.546-1.998l1.127,0.695
			c-0.707,1.415-1.22,2.033-2.227,2.648c-2.152,1.313-4.604,0.56-6.094-1.882c-1.501-2.458-1.04-4.966,1.163-6.311
			c1.81-1.104,3.77-0.543,4.947,1.386l0.458,0.751L330.444,247.169z M330.955,243.014c-1.076,0.656-1.431,1.764-0.992,3.136
			l3.791-2.313C333.007,242.652,332.014,242.368,330.955,243.014z"/>
		<path d="M343.557,234.027c-0.397,0.008-0.583,0.041-0.716,0.162c-0.416,0.375-0.4,1.467,0.007,3.202l3.621,4.009l-1.113,1.006
			l-6.076-6.726l1.113-1.006l1.1,1.218c-0.135-1.82-0.014-2.522,0.491-2.979c0.252-0.228,0.712-0.346,1.277-0.317L343.557,234.027z"
			/>
		<path d="M353.231,235.325c-1.821,1.655-4.783,1.401-6.532-0.523c-1.763-1.939-1.722-4.896,0.099-6.552
			c1.806-1.642,4.754-1.402,6.517,0.537C355.064,230.71,355.037,233.683,353.231,235.325z M347.7,229.242
			c-1.184,1.077-1.079,3.036,0.213,4.457s3.232,1.711,4.417,0.635c1.169-1.063,1.064-3.022-0.228-4.443
			S348.869,228.179,347.7,229.242z"/>
		<path d="M362.868,227.055l-1.149-1.487c0.053,1.803-0.452,3.078-1.528,3.909c-1.25,0.966-2.453,0.783-3.467-0.53l-4.156-5.38
			l1.187-0.917l3.923,5.079c0.684,0.886,1.219,1.055,1.82,0.59c0.76-0.587,1.275-2.274,1.218-4.048l-3.386-4.383l1.203-0.929
			l5.537,7.168L362.868,227.055z"/>
		<path d="M371.692,220.454l-3.928-5.08c-0.367-0.475-0.521-0.608-0.76-0.753c-0.294-0.151-0.689-0.074-1.021,0.183
			c-0.728,0.563-1.087,1.701-1.272,4.044l3.39,4.383l-1.187,0.918l-5.543-7.168l1.187-0.918l1.163,1.503
			c0.062-0.934,0.095-1.186,0.222-1.74c0.183-0.875,0.7-1.679,1.364-2.192c1.266-0.979,2.385-0.808,3.425,0.537l4.148,5.364
			L371.692,220.454z"/>
		<path d="M380.24,210.915l-0.886-0.718c0.196,1.188-0.082,2.327-0.8,3.213c-1.397,1.726-3.825,1.768-5.909,0.082
			c-2.27-1.838-2.682-4.668-0.995-6.751c0.604-0.747,1.134-1.115,1.841-1.289l-4.587-3.714l0.957-1.182l11.335,9.177L380.24,210.915
			z M375.654,207.201c-0.544-0.44-0.712-0.551-1.046-0.615c-0.552-0.113-1.157,0.221-1.736,0.937
			c-1.208,1.493-0.916,3.325,0.778,4.697c1.415,1.146,3.083,1.184,3.964,0.095c0.34-0.42,0.584-1.071,0.626-1.759
			c0.027-0.415-0.005-0.725-0.145-1.378L375.654,207.201z"/>
		<path d="M388.057,202.375c-0.689,0.778-1.767,0.759-2.666-0.037l-4.521-4.005l-1.008,1.138l-0.658-0.583l0.723-1.389l-1.976-1.75
			l0.995-1.123l1.976,1.75l1.591-1.796l0.943,0.835l-1.591,1.796l3.862,3.421l0.313,0.25c0.223,0.17,0.357,0.29,0.445,0.341
			c0.238,0.184,0.462,0.142,0.674-0.098c0.252-0.284,0.331-0.615,0.396-1.412l1.16,0.199
			C388.671,201.29,388.535,201.837,388.057,202.375z"/>
		<path d="M388.06,190.831c-0.394,0.05-0.575,0.103-0.695,0.237c-0.374,0.417-0.242,1.501,0.347,3.182l4.025,3.601l-1,1.118
			l-6.753-6.041l1-1.118l1.222,1.094c-0.327-1.795-0.281-2.506,0.172-3.013c0.227-0.253,0.671-0.419,1.236-0.451L388.06,190.831z"/>
		<path d="M387.377,185.879c-0.361,0.401-0.982,0.434-1.384,0.073s-0.434-0.983-0.072-1.384c0.361-0.401,0.982-0.434,1.384-0.073
			S387.738,185.478,387.377,185.879z M395.221,193.964l-6.732-6.062l1.003-1.114l6.732,6.062L395.221,193.964z"/>
		<path d="M401.141,187.759c-0.644,0.712-1.193,1.051-1.909,1.186l3.827,3.46l-1.006,1.112l-10.264-9.282l1.006-1.112l0.845,0.765
			c-0.143-1.154,0.196-2.303,0.96-3.149c1.502-1.661,3.928-1.57,5.915,0.227C402.682,182.925,402.938,185.771,401.141,187.759z
			 M395.494,181.87c-0.362,0.4-0.627,1.051-0.721,1.721c-0.049,0.441-0.035,0.724,0.084,1.397l2.329,2.106
			c0.578,0.523,0.666,0.575,0.996,0.658c0.587,0.126,1.182-0.144,1.799-0.827c1.288-1.424,1.081-3.282-0.536-4.744
			C398.095,180.961,396.432,180.832,395.494,181.87z"/>
	</g>
</g>
<g>
</g>
<g>
</g>
<g>
</g>
<g>
</g>
<g>
</g>
<g>
</g>
<g>
</g>
<g>
</g>
</svg>
