<?xml version="1.0" encoding="utf-8"?>
<!-- Generator: Adobe Illustrator 16.0.3, SVG Export Plug-In . SVG Version: 6.00 Build 0)  -->
<!DOCTYPE svg PUBLIC "-//W3C//DTD SVG 1.1//EN" "http://www.w3.org/Graphics/SVG/1.1/DTD/svg11.dtd">
<svg version="1.1" id="Layer_3" xmlns="http://www.w3.org/2000/svg" xmlns:xlink="http://www.w3.org/1999/xlink" x="0px" y="0px"
	 width="841.89px" height="595.28px" viewBox="0 0 841.89 595.28" enable-background="new 0 0 841.89 595.28" xml:space="preserve">
<path fill="none" stroke="#000000" stroke-width="7" stroke-miterlimit="10" d="M472.575,587.08
	c0,0,227.272-347.354,276.798-368.385s69.93-58.346,78.02-77.341s11.534-98.372,21.031-119.403"/>
<path fill="none" stroke="#FAA21B" stroke-width="4" stroke-miterlimit="10" d="M472.575,587.08
	c0,0,227.272-347.354,276.798-368.385s69.93-58.346,78.02-77.341s11.534-98.372,21.031-119.403"/>
<path fill="none" stroke="#ED1C24" stroke-width="2" stroke-miterlimit="10" d="M472.575,587.08
	c0,0,227.272-347.354,276.798-368.385s69.93-58.346,78.02-77.341s11.534-98.372,21.031-119.403"/>
<polygon points="577.922,425.817 578.573,412.241 575.207,409.2 587.153,392.149 591.823,394.974 603.118,389.869 "/>
<g>
	<g>
		<path fill="none" stroke="#000000" stroke-width="2" stroke-miterlimit="10" d="M573.132,413.835c0,0-0.877,0.385-2.296,0.985"/>
		<path fill="none" stroke="#000000" stroke-width="2" stroke-miterlimit="10" stroke-dasharray="5.0275,3.0165" d="
			M568.052,415.979c-5.44,2.231-13.758,5.438-17.233,5.706c-5.372,0.414-13.223,16.117-20.248-2.479s-11.157-24.38-14.05-26.033
			s-17.356-8.266-25.62-9.918s-1.24-0.414-14.876-2.893s-12.396,3.72-25.206-13.223s-25.619-38.431-30.579-42.562
			c-4.959-4.132,7.851-21.487-16.942-27.272s-21.074-7.025-28.925-7.025s-47.934,13.223-57.438,13.223s-34.297-4.132-36.777-4.132
			s-14.876,0.825-21.488,1.652s-6.612-39.669-6.612-39.669s-6.198-19.422-9.504-21.075s-10.744-5.785-13.636-11.57
			s-4.132-9.091-5.785-12.81s-4.959-9.504-5.372-12.81c-0.08-0.642-0.161-1.253-0.238-1.82"/>
		<path fill="none" stroke="#000000" stroke-width="2" stroke-miterlimit="10" d="M217.312,199.775
			c-0.219-1.515-0.378-2.47-0.378-2.47s-1.238,0.413-2.402-0.366"/>
		<path fill="none" stroke="#000000" stroke-width="2" stroke-miterlimit="10" stroke-dasharray="4.9008,2.9405" d="
			M212.833,194.583c-2.038-2.826-9.244-6.43-10.775-7.195c-1.653-0.826-2.066-0.413-4.545-1.239s-16.116-5.785-16.116-5.785
			s-4.545-2.479-6.198-2.479s0-0.826-5.372-1.653s-8.265-1.24-9.917-1.24s-1.239,2.479-6.198,1.24s-6.198-0.827-10.331-2.066
			c-0.919-0.275-1.654-0.633-2.241-1.022"/>
		<path fill="none" stroke="#000000" stroke-width="2" stroke-miterlimit="10" d="M140.019,172.201
			c-1.033-1.11-1.185-2.168-1.185-2.168s0.495,1.265,0.903,2.33"/>
		<path fill="none" stroke="#000000" stroke-width="2" stroke-miterlimit="10" stroke-dasharray="4.9786,2.9871" d="M139.691,172.48
			c-0.354-0.849-0.894-2.163-1.683-4.1c-4.545-11.157-6.612-15.703-6.612-15.703l-2.893-2.066l-4.132-1.239
			c0,0-2.479-0.827-2.893,0.413s-3.306,3.719-3.719,4.958s-2.066,3.306-5.372,9.917s-5.372,9.091-7.024,13.223
			s-9.504,8.264-9.917,9.504s-23.14,17.769-29.752,21.901s-13.223,7.438-15.703,9.091s-4.545,2.893-4.958,4.545s0,2.479-1.24,4.545
			s-0.827,4.958-4.959,8.264s-10.743,4.546-16.115,9.091S8.256,258.049,7.843,259.289s-4.546,7.025-2.893,15.29
			s1.653,9.917,5.785,17.355s26.86,35.951,29.752,42.149s13.223,25.206,14.876,28.099s9.091,10.744,11.983,14.463
			s5.372,4.546,10.744,5.785s12.397-0.826,18.182-3.306s35.124-11.57,43.388-14.05s42.562-9.503,48.347-10.33
			s33.884-4.133,38.017-3.72s6.611,3.719,11.983-0.413s6.198-6.611,5.785-9.917s-3.306-7.024-2.893-9.917s-0.827-4.96,1.653-9.092
			c1.655-2.759,6.074-9.017,8.828-12.872"/>
		<path fill="none" stroke="#000000" stroke-width="2" stroke-miterlimit="10" d="M252.252,307.598
			c0.889-1.24,1.459-2.027,1.459-2.027"/>
	</g>
</g>
<radialGradient id="SVGID_1_" cx="148.7964" cy="268.4209" r="154.099" gradientUnits="userSpaceOnUse">
	<stop  offset="0" style="stop-color:#2484C6"/>
	<stop  offset="1" style="stop-color:#2484C6;stop-opacity:0"/>
</radialGradient>
<path fill="url(#SVGID_1_)" d="M99.165,189.042c2.889,1.771,9.968-8.352,11.768-10.412c2.485-2.845,2.787-7.598,4.786-10.846
	c0.628-1.02,1.658-1.806,2.333-3.092c1.396-2.665,2.045-5.694,3.521-8.258c1.823-0.21,2.494-2.678,2.841-4.191
	c0.475-2.072,0.965-3.172,1.837-5.116c0.893-1.99,0.555-3.574,2.877-4.339c1.967-0.648,4.036,0.515,5.958,0.457
	c0.397,1.946,3.447,0.27,4.797-0.224c3.069-1.123,3.808-3.8,5.665-5.89c2.046-2.302,2.123-2.98,1.814-6.181
	c-0.169-1.754-0.48-3.418-1.403-4.967c-0.655-1.1-1.024-1.536-2.064-2.113c-0.434-0.24-1.153,0.638-1.633,0.334
	c-2.378-1.506-2.032-4.22-5.061-5.299c-0.728-0.259-1.499,0.178-2.187-0.286c-0.576-0.389-0.429-1.727-0.96-2.255
	c-0.833-0.829-3.854-2.575-4.893-2.921c-0.919-0.306-1.616,0.691-3.117-0.261c-0.989-0.628-1.422-2.128-2.053-2.991
	c-1.823-2.493-4.172-3.036-6.859-5.056c-1.624-1.221-4.418-2.923-3.433-5.279c2.454-1.537,5.2-3.173,8.194-3.874
	c-0.487-3.255,3.89-6.488,5.949-8.099c2.121-1.659,5.257-4.778,4.779-7.694c-0.368-2.24-2.235-3.934-2.611-6.11
	c-0.192-1.114,1.063-3.622,0.852-4.231c-2.385-6.88-8.676-11.089-10.29-18.559c-0.417-1.93,0.543-4.101,0.065-6.045
	c-0.526-2.143-2.271-2.709-3.294-4.64c-0.915-1.726-0.419-6.336-0.616-8.583c-0.188-2.152-0.195-4.183-0.095-6.325
	c0.025-0.537,0.797,0.021,0.788-0.867c-0.012-1.21-1.054-1.757-1.3-2.79c-0.633-2.646-0.392-5.993-0.445-8.705
	c-0.04-1.995,0.641-3.809,0.512-5.7c1.574,0.946,1.011,9.028,1.155,10.953c0.146,1.946,0.006,3.705,0.413,5.544
	c0.495,2.236,2.05,4.566,2.38,6.758c0.596,3.952-3.151,6.108-0.329,10.02c1.302,1.805,1.588,2.116,1.984,4.438
	c0.458,2.687,0.888,4.645,1.857,7.181c1.4,3.667,1.884,7.758,4.109,11.225c2.425,0.896,2.888,3.632,3.625,5.895
	c1.469,4.512,5.185,9.812,3.666,14.947c-0.766,2.588-5.336,4.067-7.271,6.065c-1.36,1.405-1.569,2.732-2.55,3.95
	c-1.005,1.247-2.969,1.205-2.569,3.368c-1.571,0.285-4.986,0.323-6.017,1.5c-1.874,2.141,0.46,4.276,2.702,4.086
	c0.623,1.74,1.631,1.722,2.956,2.422c0.862,0.456,2.336,1.485,3.253,1.718c-0.032,0.331,0.104,0.769,0.13,1.1
	c1.485,0.838,3.115,0.12,4.429,1.489c1.294,1.347,1.277,4.349,2.744,5.496c1.211,0.947,3.053,0.138,4.264,0.502
	c1.072,0.323,1.45,1.031,2.469,1.698c2.036,1.332,4.083,0.989,5.357,3.039c0.942,1.517,1.614,3.598,2.495,5.211
	c0.866,1.585,1.973,3.728,2.196,5.532c0.661,5.349-3.914,9.326-7.661,12.417c-1.392,1.147-3.528,3.021-5.487,2.987
	c-0.639-0.012-7.013-1.89-6.994-1.861c0.136,0.2,0.204,0.42,0.201,0.661c-4.182,1.482-3.249,7.575-4.123,10.599
	c-1.143,3.958-2.747,6.852-2.378,11.33c1.363,0.125,2.907-0.166,4.25,0.097c1.266,0.249,2.499,1.125,3.88,1.275
	c2.38,4.032-2.007,6.236-2.197,10.046c-0.127,2.543,1.928,1.847,4.021,1.808c4.12-0.076,7.774,2.212,11.709,2.469
	c4.999,0.326,7.117-0.603,11.173-2.887c1.889-1.064,3.481-2.301,5.415-2.04c3.325,0.449,7.098,4.643,10.79,4.222
	c0.514,4.315,7.384,2.084,10.173,3.748c2.004,1.195,2.44,2.886,5.001,3.262c1.098,0.161,2.498-0.369,3.552-0.116
	c1.267,0.304,2.314,1.436,3.513,1.965c1.605,0.709,3.032,0.836,4.438,1.93c1.57,1.22,2.591,2.223,4.727,3.271
	c1.417,0.696,3.476,1.112,4.607,2.043c0.767,0.631,1.122,1.814,1.697,2.6c1.193,1.627,1.901,3.03,3.26,4.565
	c2,2.258,2.938,3.575,3.752,6.578c1.082,3.991,2.333,7.878,3.565,11.859c1.047,3.383,2.249,6.608,3.277,10.002
	c0.371,1.222,0.434,2.727,1.06,3.851c0.8,1.438,1.952,1.394,2.93,2.455c1.899,2.062,1.704,3.667,4.578,4.961
	c1.273,0.573,2.207,1.584,3.409,2.169c2.41,1.17,5.004,2.61,6.667,5c1.047,1.504,0.46,2.796,0.826,4.374
	c0.37,1.597,1.49,2.784,1.912,4.384c1.084,4.116,1.058,8.755,1.076,12.978c0.018,4.159,1.217,8.007,1.196,12.105
	c-0.016,3.099,1.493,7.55,0.071,10.341c-0.928,1.821-3.012,3.112-3.99,5.057c-1.564,3.112-1.907,5.215-4.479,7.611
	c-1.339,1.247-1.953,1.964-2.561,3.587c-2.079,5.549-2.983,10.546-3.312,16.468c-0.119,2.158,0.439,4.16-1.323,5.639
	c-1.237,1.038-4.227,1.774-5.754,1.936c-3.146,0.331-5.216,0.58-8.168,1.563c-1.59,0.529-3.914-0.07-4.783,1.646
	c-10.781,0.755-21.72,1.25-32.37,3.196c-4.753,0.869-9.019,2.155-13.044,4.832c-8.888,5.909-19.801,7.041-29.912,9.873
	c-8.783,2.459-16.463,7.665-25.149,9.996c-7.643,2.052-15.706,2.416-23.429,4.229c-4.879,1.146-7.851-0.683-12.328-2.623
	c-3.889-1.687-7.822-2.443-10.058-6.228c-3.51-5.943-7.826-11.26-11.462-17.105c-3.399-5.463-4.083-11.972-7.16-17.619
	c-5.49-10.079-12.926-20.599-23.132-26.143c-3.758-2.041-6.056-2.585-6.726-6.785c-0.82-5.139-4.381-7.968-6.671-12.34
	c-2.337-4.462,0.46-10.53,1.061-15.206c0.712-5.535,0.088-11.497,5.675-14.335c5.952-3.024,10.411-6.37,15.537-10.646
	c2.884-2.406,7.858-3.111,10.153-5.839c1.258-1.497,1.529-3.824,2.276-5.582c1.146-2.694,2.832-4.806,5.134-6.612
	c5.838-4.581,12.131-7.462,17.058-13.24c3.917-4.593,6.349-5.167,11.933-6.849c6.53-1.968,10.438-7.024,14.569-12.082
	c0.991-1.214,1.975-2.39,3.234-3.336"/>
<path opacity="0.5" fill="#47ADC7" d="M99.165,189.042c2.889,1.771,9.968-8.352,11.768-10.412c2.485-2.845,2.787-7.598,4.786-10.846
	c0.628-1.02,1.658-1.806,2.333-3.092c1.396-2.665,2.045-5.694,3.521-8.258c1.823-0.21,2.494-2.678,2.841-4.191
	c0.475-2.072,0.965-3.172,1.837-5.116c0.893-1.99,0.555-3.574,2.877-4.339c1.967-0.648,4.036,0.515,5.958,0.457
	c0.397,1.946,3.447,0.27,4.797-0.224c3.069-1.123,3.808-3.8,5.665-5.89c2.046-2.302,2.123-2.98,1.814-6.181
	c-0.169-1.754-0.48-3.418-1.403-4.967c-0.655-1.1-1.024-1.536-2.064-2.113c-0.434-0.24-1.153,0.638-1.633,0.334
	c-2.378-1.506-2.032-4.22-5.061-5.299c-0.728-0.259-1.499,0.178-2.187-0.286c-0.576-0.389-0.429-1.727-0.96-2.255
	c-0.833-0.829-3.854-2.575-4.893-2.921c-0.919-0.306-1.616,0.691-3.117-0.261c-0.989-0.628-1.422-2.128-2.053-2.991
	c-1.823-2.493-4.172-3.036-6.859-5.056c-1.624-1.221-4.418-2.923-3.433-5.279c2.454-1.537,5.2-3.173,8.194-3.874
	c-0.487-3.255,3.89-6.488,5.949-8.099c2.121-1.659,5.257-4.778,4.779-7.694c-0.368-2.24-2.235-3.934-2.611-6.11
	c-0.192-1.114,1.063-3.622,0.852-4.231c-2.385-6.88-8.676-11.089-10.29-18.559c-0.417-1.93,0.543-4.101,0.065-6.045
	c-0.526-2.143-2.271-2.709-3.294-4.64c-0.915-1.726-0.419-6.336-0.616-8.583c-0.188-2.152-0.195-4.183-0.095-6.325
	c0.025-0.537,0.797,0.021,0.788-0.867c-0.012-1.21-1.054-1.757-1.3-2.79c-0.633-2.646-0.392-5.993-0.445-8.705
	c-0.04-1.995,0.641-3.809,0.512-5.7c1.574,0.946,1.011,9.028,1.155,10.953c0.146,1.946,0.006,3.705,0.413,5.544
	c0.495,2.236,2.05,4.566,2.38,6.758c0.596,3.952-3.151,6.108-0.329,10.02c1.302,1.805,1.588,2.116,1.984,4.438
	c0.458,2.687,0.888,4.645,1.857,7.181c1.4,3.667,1.884,7.758,4.109,11.225c2.425,0.896,2.888,3.632,3.625,5.895
	c1.469,4.512,5.185,9.812,3.666,14.947c-0.766,2.588-5.336,4.067-7.271,6.065c-1.36,1.405-1.569,2.732-2.55,3.95
	c-1.005,1.247-2.969,1.205-2.569,3.368c-1.571,0.285-4.986,0.323-6.017,1.5c-1.874,2.141,0.46,4.276,2.702,4.086
	c0.623,1.74,1.631,1.722,2.956,2.422c0.862,0.456,2.336,1.485,3.253,1.718c-0.032,0.331,0.104,0.769,0.13,1.1
	c1.485,0.838,3.115,0.12,4.429,1.489c1.294,1.347,1.277,4.349,2.744,5.496c1.211,0.947,3.053,0.138,4.264,0.502
	c1.072,0.323,1.45,1.031,2.469,1.698c2.036,1.332,4.083,0.989,5.357,3.039c0.942,1.517,1.614,3.598,2.495,5.211
	c0.866,1.585,1.973,3.728,2.196,5.532c0.661,5.349-3.914,9.326-7.661,12.417c-1.392,1.147-3.528,3.021-5.487,2.987
	c-0.639-0.012-7.013-1.89-6.994-1.861c0.136,0.2,0.204,0.42,0.201,0.661c-4.182,1.482-3.249,7.575-4.123,10.599
	c-1.143,3.958-2.747,6.852-2.378,11.33c1.363,0.125,2.907-0.166,4.25,0.097c1.266,0.249,2.499,1.125,3.88,1.275
	c2.38,4.032-2.007,6.236-2.197,10.046c-0.127,2.543,1.928,1.847,4.021,1.808c4.12-0.076,7.774,2.212,11.709,2.469
	c4.999,0.326,7.117-0.603,11.173-2.887c1.889-1.064,3.481-2.301,5.415-2.04c3.325,0.449,7.098,4.643,10.79,4.222
	c0.514,4.315,7.384,2.084,10.173,3.748c2.004,1.195,2.44,2.886,5.001,3.262c1.098,0.161,2.498-0.369,3.552-0.116
	c1.267,0.304,2.314,1.436,3.513,1.965c1.605,0.709,3.032,0.836,4.438,1.93c1.57,1.22,2.591,2.223,4.727,3.271
	c1.417,0.696,3.476,1.112,4.607,2.043c0.767,0.631,1.122,1.814,1.697,2.6c1.193,1.627,1.901,3.03,3.26,4.565
	c2,2.258,2.938,3.575,3.752,6.578c1.082,3.991,2.333,7.878,3.565,11.859c1.047,3.383,2.249,6.608,3.277,10.002
	c0.371,1.222,0.434,2.727,1.06,3.851c0.8,1.438,1.952,1.394,2.93,2.455c1.899,2.062,1.704,3.667,4.578,4.961
	c1.273,0.573,2.207,1.584,3.409,2.169c2.41,1.17,5.004,2.61,6.667,5c1.047,1.504,0.46,2.796,0.826,4.374
	c0.37,1.597,1.49,2.784,1.912,4.384c1.084,4.116,1.058,8.755,1.076,12.978c0.018,4.159,1.217,8.007,1.196,12.105
	c-0.016,3.099,1.493,7.55,0.071,10.341c-0.928,1.821-3.012,3.112-3.99,5.057c-1.564,3.112-1.907,5.215-4.479,7.611
	c-1.339,1.247-1.953,1.964-2.561,3.587c-2.079,5.549-2.983,10.546-3.312,16.468c-0.119,2.158,0.439,4.16-1.323,5.639
	c-1.237,1.038-4.227,1.774-5.754,1.936c-3.146,0.331-5.216,0.58-8.168,1.563c-1.59,0.529-3.914-0.07-4.783,1.646
	c-10.781,0.755-21.72,1.25-32.37,3.196c-4.753,0.869-9.019,2.155-13.044,4.832c-8.888,5.909-19.801,7.041-29.912,9.873
	c-8.783,2.459-16.463,7.665-25.149,9.996c-7.643,2.052-15.706,2.416-23.429,4.229c-4.879,1.146-7.851-0.683-12.328-2.623
	c-3.889-1.687-7.822-2.443-10.058-6.228c-3.51-5.943-7.826-11.26-11.462-17.105c-3.399-5.463-4.083-11.972-7.16-17.619
	c-5.49-10.079-12.926-20.599-23.132-26.143c-3.758-2.041-6.056-2.585-6.726-6.785c-0.82-5.139-4.381-7.968-6.671-12.34
	c-2.337-4.462,0.46-10.53,1.061-15.206c0.712-5.535,0.088-11.497,5.675-14.335c5.952-3.024,10.411-6.37,15.537-10.646
	c2.884-2.406,7.858-3.111,10.153-5.839c1.258-1.497,1.529-3.824,2.276-5.582c1.146-2.694,2.832-4.806,5.134-6.612
	c5.838-4.581,12.131-7.462,17.058-13.24c3.917-4.593,6.349-5.167,11.933-6.849c6.53-1.968,10.438-7.024,14.569-12.082
	c0.991-1.214,1.975-2.39,3.234-3.336"/>
<g>
</g>
<g>
	<path d="M104.509,276.813v-1.839H99.91v13.176h2.3V289h-6.623v-0.851h2.299v-13.176h-4.599v1.839h-1.104v-3.633h1.104v0.644h11.222
		v-0.644h1.104v3.633H104.509z"/>
	<path d="M111.985,280.745c-0.46-0.437-0.782-0.644-1.012-0.644c-0.414,0-0.828,0.391-2.093,1.932v6.117h2.208V289h-5.68v-0.851
		h1.748v-8.278h-2v-0.621l3.312-0.896h0.414v2.575c1.656-2.116,2.253-2.622,3.082-2.622c0.276,0,0.506,0.069,0.644,0.207
		l0.713,0.621L111.985,280.745z"/>
	<path d="M119.116,289.299c-2.783,0-5.036-2.46-5.036-5.496c0-3.036,2.253-5.496,5.036-5.496c2.782,0,5.036,2.46,5.036,5.496
		C124.151,286.839,121.898,289.299,119.116,289.299z M119.116,279.273c-1.725,0-3.059,1.978-3.059,4.53
		c0,2.529,1.334,4.53,3.059,4.53s3.081-1.978,3.081-4.53C122.197,281.251,120.84,279.273,119.116,279.273z"/>
	<path d="M134.501,289.185h-0.414v-2.599c-1.655,2-2.736,2.713-4.162,2.713c-1.725,0-2.782-1.126-2.782-2.966v-6.461h-2v-0.621
		l3.311-0.896h0.437v7.703c0,1.403,0.552,2.093,1.679,2.093c0.851,0,1.333-0.345,2.276-1.38l1.242-1.38v-5.519h-1.748v-0.713
		l3.036-0.805h0.437v9.359h2.001v0.644L134.501,289.185z"/>
	<path d="M142.392,289.208c-1.334,0-2.139-0.828-2.139-2.23v-7.105h-2v-0.621l2-0.506v-3.173h1.656v3.242h2.851v1.058h-2.851v6.898
		c0,0.874,0.299,1.196,1.058,1.196c0.483,0,0.782-0.092,1.563-0.552l0.391,0.621C143.702,289,143.242,289.208,142.392,289.208z"/>
	<path d="M152.213,289v-0.851h1.725v-13.475h-1.725v-0.851h5.473v0.851h-1.725v13.291h5.657v-2.023h1.058V289H152.213z"/>
	<path d="M171.394,289.046c-0.299,0.092-0.621,0.161-0.805,0.161c-0.713,0-1.126-0.506-1.126-1.357v-0.23
		c-0.966,1.196-1.84,1.679-3.059,1.679c-1.586,0-2.759-1.104-2.759-2.645c0-1.172,0.759-2.138,1.863-2.391l3.932-0.897v-2.599
		c0-0.919-0.69-1.586-1.61-1.586c-0.46,0-0.759,0.069-1.426,0.391v1.104l-2.046,0.598c-0.161-0.276-0.184-0.391-0.184-0.644
		c0-1.334,1.541-2.323,3.633-2.323c2.023,0,3.357,1.012,3.357,2.53v7.083h1.771v0.644L171.394,289.046z M169.439,284.287
		l-3.932,0.92v1.149c0,0.966,0.621,1.587,1.586,1.587c0.736,0,1.334-0.322,2.346-1.219V284.287z"/>
	<path d="M173.856,289v-0.851h1.748v-14.579h-2.023v-0.621l3.311-0.897h0.437v16.097h1.725V289H173.856z M182.226,289l-4.714-5.657
		l4.116-3.909h-1.495v-0.851h4.576v0.851h-1.771l-3.564,3.403l4.392,5.312h1.311V289H182.226z"/>
	<path d="M187.725,283.114v0.253c0,2.875,1.518,4.875,3.702,4.875c0.92,0,1.541-0.23,2.828-1.058l0.437,0.851
		c-1.725,0.989-2.529,1.265-3.863,1.265c-2.92,0-4.99-2.253-4.99-5.427c0-3.219,2.093-5.565,4.944-5.565
		c2.483,0,4.185,1.702,4.185,4.185v0.621H187.725z M193.083,281.642c0-1.38-0.943-2.369-2.277-2.369
		c-1.678,0-2.851,1.127-3.058,2.92h5.335V281.642z"/>
</g>
<g>
	<path fill="none" d="M622.667,408.334c0,0,115.334-151.333,122.667-157.333s51.334-26.667,56-33.333"/>
	<path d="M641.433,363.266l10.071,7.711l-0.377,0.492l-13.058-0.322l7.625,5.838l0.924-1.207l0.588,0.449l-2.456,3.209l-0.588-0.449
		l0.924-1.209l-8.704-6.664l-0.933-0.033l-0.839,1.096l-0.588-0.449l1.764-2.303l12.425,0.291l-7.386-5.654l-0.925,1.207
		l-0.588-0.451l2.445-3.191l0.587,0.449L641.433,363.266z"/>
	<path d="M655.87,365.354c-1.473,1.92-4.364,2.174-6.459,0.566s-2.6-4.467-1.126-6.387s4.364-2.172,6.459-0.564
		S657.344,363.434,655.87,365.354z M648.951,360.045c-0.913,1.189-0.254,3.158,1.507,4.51c1.746,1.34,3.833,1.479,4.746,0.287
		c0.913-1.189,0.267-3.172-1.495-4.523C651.948,358.967,649.865,358.855,648.951,360.045z"/>
	<path d="M656.918,351.762c-0.545,0.086-0.858,0.199-0.98,0.357c-0.219,0.285-0.168,0.779,0.225,2.467l4.222,3.24l1.169-1.523
		l0.587,0.449l-3.008,3.92l-0.587-0.451l0.926-1.205l-5.713-4.383l-1.06,1.379l-0.429-0.328l1.135-2.76l0.219-0.285l1.777,1.363
		c-0.583-2.264-0.615-2.943-0.177-3.514c0.146-0.191,0.315-0.314,0.483-0.336l0.806-0.162L656.918,351.762z"/>
	<path d="M665.777,352.32c-0.707,0.92-1.705,1.035-2.672,0.291l-4.899-3.768l-1.061,1.381l-0.428-0.33l0.712-1.648l-2.188-1.682
		l0.877-1.141l2.236,1.719l1.512-1.967l0.729,0.561l-1.512,1.967l4.757,3.658c0.603,0.463,0.982,0.428,1.385-0.096
		c0.256-0.334,0.352-0.588,0.448-1.371l0.636,0.061C666.329,351.307,666.229,351.732,665.777,352.32z"/>
	<path d="M670.887,345.373l-0.586-0.451l0.927-1.205l-4.646-3.572c-0.84-0.646-1.692-0.619-2.229,0.078
		c-0.536,0.697-0.527,1.309-0.003,3.908l4.122,3.17l0.914-1.189l0.587,0.451l-2.755,3.582l-0.587-0.451l0.927-1.203l-10.052-7.73
		l-1.072,1.395l-0.429-0.328l1.138-2.76l0.231-0.301l6.12,4.707c-0.465-2.25-0.369-3.262,0.399-4.26
		c0.901-1.174,2.224-1.318,3.444-0.379l4.804,3.693l0.927-1.203l0.586,0.451L670.887,345.373z"/>
	<path d="M671.244,336.518l0.174,0.135c1.979,1.525,4.163,1.543,5.323,0.037c0.488-0.633,0.659-1.184,0.772-2.51l0.818,0.152
		c-0.234,1.711-0.472,2.412-1.18,3.332c-1.551,2.012-4.201,2.24-6.387,0.555c-2.218-1.709-2.723-4.395-1.209-6.359
		c1.318-1.709,3.394-1.979,5.104-0.66l0.428,0.33L671.244,336.518z M673.074,332.047c-0.95-0.732-2.132-0.609-2.84,0.311
		c-0.892,1.156-0.737,2.562,0.388,3.656l2.832-3.674L673.074,332.047z"/>
	<path d="M684.075,328.314c-0.095,0.256-0.219,0.514-0.316,0.641c-0.378,0.49-0.946,0.508-1.532,0.055l-0.158-0.121
		c0.311,1.301,0.18,2.158-0.468,2.998c-0.842,1.092-2.225,1.314-3.286,0.496c-0.808-0.623-1.07-1.658-0.658-2.553l1.47-3.184
		l-1.79-1.379c-0.634-0.488-1.459-0.367-1.947,0.266c-0.244,0.316-0.355,0.559-0.487,1.189l0.76,0.586l-0.675,1.727
		c-0.275-0.035-0.366-0.08-0.541-0.215c-0.918-0.707-0.781-2.293,0.329-3.734c1.074-1.395,2.479-1.775,3.524-0.971l4.879,3.76
		l0.939-1.219l0.443,0.342L684.075,328.314z M679.76,327.135l-1.454,3.197l0.792,0.609c0.665,0.514,1.422,0.414,1.935-0.25
		c0.391-0.508,0.486-1.09,0.406-2.264L679.76,327.135z"/>
	<path d="M688.004,323.592c-0.685,0.887-1.403,1.393-2.186,1.521l0.57,0.439l-0.489,0.633l-2.247-1.734l0.562-0.729l0.428,0.33
		c0.68,0.525,1.966,0.104,2.724-0.877c0.672-0.871,0.714-1.874,0.081-2.363c-0.633-0.488-1.323-0.314-3.255,0.846
		c-1.759,1.067-2.76,1.152-3.757,0.383c-1.234-0.953-1.303-2.598-0.179-4.054c0.538-0.696,1.128-1.1,1.834-1.262l-0.496-0.534
		l0.525-0.682l1.985,2.141l-0.526,0.68c-0.125-0.197-0.306-0.388-0.448-0.498c-0.617-0.477-1.674-0.156-2.334,0.699
		c-0.635,0.822-0.607,1.703,0.072,2.229c0.681,0.525,0.846,0.476,3.1-0.84c1.815-1.074,2.716-1.162,3.729-0.379
		C688.964,320.519,689.092,322.184,688.004,323.592z"/>
	<path d="M692.719,317.362c-0.71,0.917-1.707,1.03-2.673,0.284l-4.89-3.781l-1.064,1.377l-0.427-0.33l0.716-1.646l-2.184-1.689
		l0.882-1.139l2.23,1.726l1.518-1.962l0.728,0.562l-1.517,1.963l4.747,3.671c0.601,0.465,0.981,0.431,1.386-0.092
		c0.257-0.332,0.353-0.587,0.452-1.37l0.635,0.062C693.274,316.35,693.172,316.777,692.719,317.362z"/>
	<path d="M697.789,310.518l-0.585-0.454l0.919-1.186l-9.264-7.181l-0.919,1.186l-0.585-0.453l4.889-6.307l-0.442-0.343l0.563-0.728
		l2.514,1.948l-0.552,0.711l-1.344-1.042l-2.903,3.747l4.047,3.137l2.315-2.987l-1.201-0.932l0.563-0.727l3.13,2.426l-0.563,0.727
		l-1.218-0.943l-2.315,2.988l4.236,3.283l3.015-3.889l-1.392-1.078l0.564-0.727l2.102,1.629L697.789,310.518z"/>
	<path d="M708.212,297.102l-0.584-0.454l0.921-1.184l-4.623-3.599c-0.836-0.651-1.688-0.63-2.229,0.064
		c-0.528,0.678-0.535,1.306-0.026,3.907l4.103,3.193l0.934-1.199l0.583,0.455l-2.788,3.582l-0.584-0.455l0.934-1.199l-5.68-4.422
		l-1.068,1.373l-0.427-0.332l1.154-2.751l0.221-0.284l1.768,1.376c-0.452-2.252-0.35-3.262,0.437-4.272
		c0.909-1.167,2.231-1.304,3.446-0.358l4.78,3.722l0.922-1.183l0.583,0.455L708.212,297.102z"/>
	<path d="M713.697,290.361c-0.714,0.914-1.712,1.022-2.674,0.271l-4.87-3.805l-1.071,1.372l-0.426-0.333l0.725-1.643l-2.176-1.699
		l0.887-1.135l2.223,1.736l1.527-1.955l0.725,0.566l-1.526,1.955l4.729,3.694c0.599,0.468,0.979,0.435,1.386-0.085
		c0.259-0.331,0.355-0.585,0.459-1.367l0.635,0.064C714.258,289.352,714.153,289.777,713.697,290.361z"/>
	<path d="M713.195,279.059c-0.546,0.081-0.86,0.19-0.984,0.348c-0.222,0.284-0.176,0.777,0.201,2.469l4.188,3.28l1.184-1.512
		l0.583,0.456l-3.045,3.89l-0.583-0.457l0.937-1.196l-5.668-4.438l-1.073,1.37l-0.425-0.333l1.161-2.749l0.222-0.284l1.764,1.381
		c-0.561-2.268-0.587-2.949-0.143-3.516c0.147-0.189,0.318-0.31,0.486-0.33l0.808-0.155L713.195,279.059z"/>
	<path d="M724.16,276.801c-0.099,0.254-0.225,0.511-0.323,0.637c-0.384,0.487-0.952,0.498-1.534,0.04l-0.156-0.124
		c0.297,1.304,0.157,2.161-0.499,2.994c-0.854,1.084-2.239,1.292-3.292,0.463c-0.802-0.631-1.054-1.669-0.633-2.56l1.504-3.17
		l-1.776-1.398c-0.629-0.495-1.456-0.383-1.951,0.246c-0.247,0.314-0.36,0.556-0.5,1.185l0.755,0.594l-0.693,1.72
		c-0.274-0.038-0.365-0.084-0.539-0.221c-0.911-0.718-0.758-2.303,0.368-3.733c1.089-1.383,2.498-1.75,3.536-0.934l4.84,3.812
		l0.953-1.21l0.44,0.347L724.16,276.801z M719.854,275.575l-1.487,3.183l0.786,0.619c0.66,0.52,1.418,0.43,1.938-0.23
		c0.396-0.503,0.497-1.085,0.429-2.259L719.854,275.575z"/>
	<path d="M729.363,270.165l-0.579-0.46l0.933-1.174l-4.587-3.644c-0.83-0.659-1.683-0.647-2.229,0.042
		c-0.535,0.673-0.548,1.301-0.064,3.906l4.07,3.233l0.945-1.19l0.579,0.46l-2.823,3.554l-0.579-0.46l0.945-1.19l-5.636-4.477
		l-1.082,1.362l-0.423-0.336l1.18-2.739l0.225-0.282l1.753,1.393c-0.429-2.256-0.317-3.265,0.479-4.267
		c0.921-1.158,2.244-1.282,3.449-0.324l4.744,3.768l0.933-1.174l0.579,0.46L729.363,270.165z"/>
	<path d="M735.89,262.435c-1.758,2.179-4.276,2.434-6.471,0.663c-2.257-1.821-2.576-4.674-0.78-6.899
		c0.653-0.809,1.173-1.135,2.387-1.492l0.256,1.594c-1,0.093-1.234,0.161-2.126,0.469c-0.629,0.906-0.736,1.358-0.528,2.375
		c0.199,0.932,0.683,1.733,1.477,2.374c1.743,1.407,4.142,1.363,5.31-0.084c0.402-0.498,0.592-0.988,0.847-2.195l0.843,0.166
		C736.88,260.921,736.682,261.454,735.89,262.435z"/>
	<path d="M735.311,254.628l0.169,0.141c1.917,1.604,4.098,1.708,5.317,0.252c0.513-0.614,0.706-1.156,0.873-2.477l0.811,0.183
		c-0.303,1.702-0.568,2.393-1.312,3.282c-1.63,1.948-4.287,2.07-6.403,0.299c-2.147-1.797-2.544-4.501-0.952-6.403
		c1.386-1.656,3.471-1.841,5.126-0.455l0.414,0.346L735.311,254.628z M737.319,250.234c-0.92-0.77-2.105-0.693-2.85,0.196
		c-0.938,1.12-0.84,2.53,0.24,3.669l2.978-3.558L737.319,250.234z"/>
	<path d="M756.146,244.35c-1.022,0.589-1.273,0.595-2.374,0.005l-4.948-2.622l-1.352,0.778l2.584,4.49l1.301-0.749l0.369,0.642
		l-4.126,2.375l-0.369-0.642l1.3-0.749l-5.848-10.158l-1.3,0.749l-0.369-0.641l4.818-2.774c1.682-0.968,2.904-1.049,4.043-0.273
		c0.495,0.338,0.916,0.789,1.235,1.343c0.968,1.681,0.65,3.295-0.874,4.496l4.712,2.411c0.785,0.402,1.182,0.45,1.615,0.201
		l0.676-0.389l0.38,0.659L756.146,244.35z M745.929,236.062l-1.63,0.938l2.715,4.715l1.664-0.958
		c1.317-0.758,1.677-2.258,0.858-3.679C748.678,235.587,747.385,235.224,745.929,236.062z"/>
	<path d="M761.875,241.575c-2.128,1.15-4.87,0.2-6.124-2.123c-1.255-2.322-0.548-5.136,1.58-6.287
		c2.129-1.15,4.87-0.199,6.125,2.123S764.004,240.425,761.875,241.575z M757.73,233.905c-1.319,0.713-1.522,2.777-0.467,4.73
		c1.046,1.936,2.893,2.915,4.213,2.202c1.319-0.713,1.54-2.787,0.484-4.74C760.906,234.144,759.05,233.192,757.73,233.905z"/>
	<path d="M772.746,235.487c-0.191,0.194-0.41,0.379-0.551,0.455c-0.547,0.293-1.072,0.076-1.422-0.576l-0.095-0.176
		c-0.248,1.314-0.719,2.043-1.653,2.545c-1.216,0.653-2.569,0.289-3.203-0.892c-0.482-0.899-0.298-1.951,0.444-2.599l2.645-2.305
		l-1.069-1.991c-0.378-0.705-1.182-0.933-1.886-0.554c-0.353,0.189-0.554,0.365-0.933,0.886l0.454,0.846l-1.322,1.3
		c-0.237-0.145-0.302-0.224-0.406-0.417c-0.548-1.022,0.226-2.414,1.829-3.275c1.551-0.833,2.989-0.605,3.614,0.558l2.914,5.428
		l1.356-0.729l0.265,0.493L772.746,235.487z M769.289,232.644l-2.635,2.323l0.473,0.881c0.397,0.74,1.129,0.961,1.869,0.563
		c0.563-0.303,0.89-0.795,1.296-1.899L769.289,232.644z"/>
	<path d="M780.995,231.187l-0.333,0.182l-0.672-1.229c-0.438,1.493-0.879,2.145-1.773,2.634c-1.825,0.999-4.233,0.013-5.462-2.233
		c-1.324-2.422-0.529-5.387,1.769-6.644c0.597-0.326,0.961-0.412,1.819-0.425l-2.217-4.053l-1.526,0.835l-0.26-0.474l2.153-2.066
		l0.333-0.182l6.536,11.95l1.526-0.835l0.269,0.492L780.995,231.187z M777.303,225.227c-0.595-1.088-1.147-1.265-2.183-0.698
		c-1.702,0.931-2.104,2.906-1,4.924c1.075,1.965,2.578,2.671,4.017,1.884c0.544-0.297,0.75-0.547,1.104-1.356l0.288-0.682
		L777.303,225.227z"/>
</g>
<g>
	<path d="M747.775,121.976c-0.468,0-0.792-0.036-1.836-0.144v4.501h-1.477V114.45h3.727c1.44,0,2.232,0.252,2.899,0.937
		c0.612,0.63,0.918,1.458,0.918,2.575C752.007,120.446,750.387,121.976,747.775,121.976z M749.811,116.196
		c-0.36-0.36-0.883-0.504-1.837-0.504h-2.034v4.897c0.828,0.09,1.17,0.108,1.584,0.108c0.666,0,1.152-0.072,1.549-0.234
		c0.864-0.36,1.404-1.296,1.404-2.413C750.477,117.277,750.242,116.628,749.811,116.196z"/>
	<path d="M754.704,122.138c0,1.98,1.009,3.187,2.665,3.187c0.721,0,1.242-0.197,2.125-0.81l0.54,1.062
		c-1.206,0.756-1.891,0.99-2.953,0.99c-2.269,0-3.799-1.729-3.799-4.304c0-2.593,1.53-4.303,3.853-4.303
		c1.909,0,3.151,1.351,3.151,3.385v0.792H754.704z M757.045,119.186c-1.134,0-1.927,0.684-2.232,1.944h3.997
		C758.792,119.87,758.161,119.186,757.045,119.186z"/>
	<path d="M764.893,126.568c-0.469,0-1.207-0.091-1.639-0.181c-0.288-0.071-0.45-0.107-0.828-0.288v-12.892h1.351v5.312
		c0.432-0.216,0.612-0.288,0.936-0.378c0.415-0.108,1.026-0.18,1.531-0.18c2.052,0,3.421,1.566,3.421,3.925
		C769.664,124.731,767.791,126.568,764.893,126.568z M765.793,119.239c-0.757,0-1.351,0.198-2.017,0.648v5.204
		c0.378,0.18,0.702,0.252,1.188,0.252c0.233,0,0.468-0.019,0.702-0.072c0.468-0.09,0.918-0.306,1.296-0.576
		c0.9-0.648,1.225-1.386,1.225-2.755C768.188,120.248,767.305,119.239,765.793,119.239z"/>
	<path d="M774.379,126.568c-0.469,0-1.207-0.091-1.639-0.181c-0.288-0.071-0.45-0.107-0.828-0.288v-12.892h1.351v5.312
		c0.432-0.216,0.612-0.288,0.936-0.378c0.415-0.108,1.026-0.18,1.531-0.18c2.052,0,3.421,1.566,3.421,3.925
		C779.15,124.731,777.277,126.568,774.379,126.568z M775.279,119.239c-0.757,0-1.351,0.198-2.017,0.648v5.204
		c0.378,0.18,0.702,0.252,1.188,0.252c0.233,0,0.468-0.019,0.702-0.072c0.468-0.09,0.918-0.306,1.296-0.576
		c0.9-0.648,1.225-1.386,1.225-2.755C777.674,120.248,776.791,119.239,775.279,119.239z"/>
	<path d="M781.398,126.333v-13.126h1.351v13.126H781.398z"/>
	<path d="M786.42,122.138c0,1.98,1.009,3.187,2.665,3.187c0.721,0,1.242-0.197,2.125-0.81l0.54,1.062
		c-1.206,0.756-1.891,0.99-2.953,0.99c-2.269,0-3.799-1.729-3.799-4.304c0-2.593,1.53-4.303,3.853-4.303
		c1.909,0,3.151,1.351,3.151,3.385v0.792H786.42z M788.761,119.186c-1.134,0-1.927,0.684-2.232,1.944h3.997
		C790.508,119.87,789.877,119.186,788.761,119.186z"/>
	<path d="M761.114,134.485c-0.9-0.631-1.765-0.9-2.917-0.9c-2.521,0-4.321,1.944-4.321,4.663c0,2.989,1.818,4.951,4.609,4.951
		c1.008,0,1.782-0.161,2.736-0.558l0.414,1.152c-0.72,0.324-1.008,0.432-1.603,0.576c-0.594,0.144-1.08,0.198-1.638,0.198
		c-3.583,0-6.122-2.575-6.122-6.23c0-3.475,2.574-6.104,5.978-6.104c0.774,0,1.53,0.144,2.232,0.396
		c0.522,0.197,0.774,0.323,1.369,0.738L761.114,134.485z"/>
	<path d="M766.944,137.654c-0.27-0.234-0.414-0.324-0.576-0.324c-0.504,0-1.152,0.738-1.927,2.143v4.861h-1.35v-8.156h1.35v1.477
		c1.009-1.297,1.513-1.692,2.125-1.692c0.307,0,0.685,0.197,1.044,0.558L766.944,137.654z"/>
	<path d="M769.805,140.138c0,1.98,1.009,3.187,2.665,3.187c0.721,0,1.242-0.197,2.125-0.81l0.54,1.062
		c-1.206,0.756-1.891,0.99-2.953,0.99c-2.269,0-3.799-1.729-3.799-4.304c0-2.593,1.53-4.303,3.853-4.303
		c1.909,0,3.151,1.35,3.151,3.385v0.792H769.805z M772.146,137.185c-1.134,0-1.927,0.685-2.232,1.945h3.997
		C773.893,137.87,773.262,137.185,772.146,137.185z"/>
	<path d="M778.246,140.138c0,1.98,1.009,3.187,2.665,3.187c0.721,0,1.242-0.197,2.125-0.81l0.54,1.062
		c-1.206,0.756-1.891,0.99-2.953,0.99c-2.269,0-3.799-1.729-3.799-4.304c0-2.593,1.53-4.303,3.853-4.303
		c1.909,0,3.151,1.35,3.151,3.385v0.792H778.246z M780.587,137.185c-1.134,0-1.927,0.685-2.232,1.945h3.997
		C782.334,137.87,781.703,137.185,780.587,137.185z"/>
	<path d="M785.968,144.333v-13.126h1.351v13.126H785.968z M790.721,144.333l-3.366-4.43l3.366-3.727h1.765l-3.475,3.745l3.493,4.411
		H790.721z"/>
	<path d="M699.897,152.485c-0.9-0.631-1.765-0.9-2.917-0.9c-2.521,0-4.321,1.944-4.321,4.663c0,2.989,1.818,4.951,4.609,4.951
		c1.008,0,1.782-0.161,2.736-0.558l0.414,1.152c-0.72,0.324-1.008,0.432-1.603,0.576c-0.594,0.144-1.08,0.198-1.638,0.198
		c-3.583,0-6.122-2.575-6.122-6.23c0-3.475,2.574-6.104,5.978-6.104c0.774,0,1.53,0.144,2.232,0.396
		c0.522,0.197,0.774,0.323,1.369,0.738L699.897,152.485z"/>
	<path d="M707.834,162.568c-1.116-0.072-1.513-0.36-1.584-1.135c-0.414,0.36-0.595,0.504-0.864,0.648
		c-0.505,0.288-1.152,0.468-1.729,0.468c-1.314,0-2.179-0.846-2.179-2.143c0-1.188,0.63-1.98,1.818-2.269l2.826-0.666v-1.477
		c0-0.666-0.504-1.009-1.548-1.009c-0.847,0-1.242,0.234-1.242,0.703c0,0.09,0.018,0.162,0.071,0.306l-1.368,0.288
		c-0.126-0.216-0.144-0.306-0.144-0.504c0-1.08,1.188-1.818,2.935-1.818c1.639,0,2.665,0.773,2.665,2.034v5.006
		c0.036,0.216,0.252,0.359,0.666,0.432L707.834,162.568z M706.123,158.606l-3.061,0.793c-0.198,0.378-0.234,0.558-0.234,0.882
		c0,0.648,0.433,1.062,1.099,1.062c0.612,0,1.026-0.198,2.196-1.044V158.606z"/>
	<path d="M721.498,162.333v-5.779c0-0.595,0-0.702-0.126-0.955c-0.126-0.27-0.45-0.432-0.828-0.432
		c-0.757,0-1.549,0.522-2.755,1.782l-0.378,0.396v4.987h-1.351v-5.779c0-0.595,0-0.702-0.126-0.955
		c-0.126-0.27-0.45-0.432-0.828-0.432c-0.829,0-1.711,0.612-3.134,2.179v4.987h-1.35v-8.156h1.35v1.71
		c0.559-0.63,0.721-0.792,1.117-1.116c0.611-0.521,1.422-0.81,2.178-0.81c1.351,0,2.035,0.63,2.125,1.944
		c0.576-0.648,0.738-0.811,1.135-1.135c0.612-0.521,1.422-0.81,2.179-0.81c1.44,0,2.143,0.738,2.143,2.269v6.104H721.498z"/>
	<path d="M729.164,162.549c-0.864,0-1.423-0.162-1.945-0.558v4.646h-1.35v-12.46h1.35v1.026c0.685-0.793,1.657-1.261,2.684-1.261
		c2.017,0,3.421,1.675,3.421,4.087C733.323,160.659,731.576,162.549,729.164,162.549z M729.686,155.221
		c-0.485,0-1.08,0.216-1.584,0.559c-0.324,0.233-0.504,0.414-0.883,0.9v2.826c0,0.702,0.019,0.793,0.162,1.062
		c0.271,0.469,0.811,0.702,1.639,0.702c1.729,0,2.845-1.26,2.845-3.223C731.864,156.41,730.946,155.221,729.686,155.221z"/>
	<path d="M741.171,155.311c0.324,0.486,0.486,1.026,0.486,1.693c0,1.656-1.459,3.078-3.169,3.078c-0.108,0-0.271-0.018-0.504-0.036
		c-0.055,0-0.145-0.018-0.271-0.018c-0.756,0.63-1.062,0.99-1.062,1.225c0,0.216,0.181,0.288,0.685,0.288h3.043
		c1.512,0,2.196,0.594,2.196,1.908c0,1.908-1.963,3.439-4.411,3.439c-1.711,0-3.188-0.9-3.188-1.963
		c0-0.234,0.091-0.522,0.253-0.847c0.233-0.45,0.468-0.756,1.08-1.404c-0.828-0.233-1.171-0.504-1.171-0.972
		c0-0.522,0.505-1.135,1.603-2.035c-1.026-0.558-1.566-1.458-1.566-2.593c0-1.836,1.351-3.114,3.259-3.114
		c0.595,0,0.937,0.071,1.729,0.342h1.243l1.476-0.126v1.134H741.171z M740.379,162.784h-3.043l-0.271,0.414
		c-0.522,0.811-0.684,1.135-0.684,1.44c0,0.612,0.81,1.044,1.908,1.044c1.656,0,3.151-0.972,3.151-2.07
		C741.441,163.053,741.099,162.784,740.379,162.784z M738.344,154.987c-0.99,0-1.801,0.919-1.801,2.035s0.811,2.034,1.819,2.034
		c1.026,0,1.818-0.882,1.818-2.034C740.181,155.887,739.37,154.987,738.344,154.987z"/>
	<path d="M748.622,155.654c-0.27-0.234-0.414-0.324-0.576-0.324c-0.504,0-1.152,0.738-1.927,2.143v4.861h-1.35v-8.156h1.35v1.477
		c1.009-1.297,1.513-1.692,2.125-1.692c0.307,0,0.685,0.197,1.044,0.558L748.622,155.654z"/>
	<path d="M754.094,162.568c-2.215,0-4.033-1.963-4.033-4.304c0-2.358,1.818-4.303,4.033-4.303c2.196,0,4.015,1.944,4.015,4.303
		C758.108,160.605,756.29,162.568,754.094,162.568z M754.094,155.167c-1.44,0-2.557,1.368-2.557,3.097s1.116,3.097,2.557,3.097
		c1.422,0,2.539-1.368,2.539-3.097S755.516,155.167,754.094,155.167z"/>
	<path d="M765.776,162.333v-1.692c-0.955,1.314-2.017,1.944-3.241,1.944c-1.423,0-2.179-0.792-2.179-2.286v-6.122h1.351v5.779
		c0,1.009,0.288,1.423,0.972,1.423c0.864,0,2.161-0.918,3.098-2.215v-4.987h1.368v8.156H765.776z"/>
	<path d="M775.604,162.333v-5.779c0-0.541-0.036-0.721-0.126-0.955c-0.126-0.27-0.45-0.432-0.828-0.432
		c-0.829,0-1.711,0.612-3.134,2.179v4.987h-1.35v-8.156h1.35v1.71c0.559-0.63,0.721-0.792,1.117-1.116
		c0.611-0.521,1.422-0.81,2.178-0.81c1.441,0,2.144,0.738,2.144,2.269v6.104H775.604z"/>
	<path d="M785.305,162.333v-1.026c-0.72,0.811-1.675,1.261-2.701,1.261c-1.998,0-3.402-1.675-3.402-4.088
		c0-2.628,1.746-4.519,4.159-4.519c0.864,0,1.422,0.162,1.944,0.558v-5.312h1.368v13.126H785.305z M785.305,157.022
		c0-0.63-0.018-0.811-0.162-1.08c-0.234-0.45-0.811-0.685-1.639-0.685c-1.729,0-2.845,1.242-2.845,3.205
		c0,1.639,0.919,2.827,2.179,2.827c0.486,0,1.08-0.198,1.585-0.559c0.306-0.216,0.504-0.414,0.882-0.882V157.022z"/>
	<path d="M791.154,162.639c-0.162,0.541-0.343,0.973-0.829,1.873l-0.233,0.432h-0.793c0.181-0.396,0.234-0.54,0.396-1.025
		c0.162-0.505,0.198-0.648,0.307-1.117l-0.774-1.944c0.378-0.252,0.63-0.324,1.044-0.324c0.685,0,1.026,0.396,1.026,1.152
		C791.298,161.992,791.244,162.297,791.154,162.639z"/>
	<path d="M731.809,180.333v-7.473h-2.034v-1.134h3.385v8.606H731.809z"/>
	<path d="M738,180.549c-0.576,0-1.026-0.45-1.026-1.026c0-0.558,0.45-1.008,1.026-1.008c0.559,0,1.009,0.45,1.009,1.008
		C739.009,180.099,738.559,180.549,738,180.549z"/>
	<path d="M744.984,183.304c-0.468,0.307-1.062,0.54-1.711,0.666c-0.611,0.126-0.972,0.162-2.052,0.217v-1.135
		c1.188-0.072,1.53-0.126,2.196-0.324c1.261-0.396,1.98-1.386,1.98-2.755c0-0.9-0.288-1.656-0.792-2.143
		c-0.45-0.414-1.062-0.594-2.161-0.63l-0.882-0.036v-5.438h4.88v1.134h-3.584v3.169l0.703,0.055c1.998,0.162,3.24,1.584,3.24,3.799
		C746.803,181.306,746.137,182.566,744.984,183.304z"/>
	<path d="M764.606,180.333v-5.779c0-0.595,0-0.702-0.126-0.955c-0.126-0.27-0.45-0.432-0.828-0.432
		c-0.757,0-1.549,0.522-2.755,1.782l-0.378,0.396v4.987h-1.351v-5.779c0-0.595,0-0.702-0.126-0.955
		c-0.126-0.27-0.45-0.432-0.828-0.432c-0.829,0-1.711,0.612-3.134,2.179v4.987h-1.35v-8.156h1.35v1.71
		c0.559-0.63,0.721-0.792,1.117-1.116c0.611-0.521,1.422-0.81,2.179-0.81c1.35,0,2.034,0.63,2.124,1.944
		c0.576-0.648,0.738-0.811,1.135-1.135c0.612-0.521,1.422-0.81,2.179-0.81c1.44,0,2.143,0.738,2.143,2.269v6.104H764.606z"/>
	<path d="M769.661,170.214c-0.486,0-0.882-0.396-0.882-0.882s0.396-0.883,0.882-0.883s0.883,0.396,0.883,0.883
		S770.147,170.214,769.661,170.214z M768.978,180.333v-8.156h1.35v8.156H768.978z"/>
	<path d="M773.352,180.333v-13.126h1.351v13.126H773.352z"/>
	<path d="M778.373,176.138c0,1.98,1.009,3.187,2.665,3.187c0.721,0,1.242-0.197,2.125-0.81l0.54,1.062
		c-1.206,0.756-1.891,0.99-2.953,0.99c-2.269,0-3.799-1.729-3.799-4.304c0-2.593,1.53-4.303,3.853-4.303
		c1.909,0,3.151,1.35,3.151,3.385v0.792H778.373z M780.714,173.185c-1.134,0-1.927,0.685-2.232,1.945h3.997
		C782.461,173.87,781.83,173.185,780.714,173.185z"/>
	<path d="M788.742,180.568c-0.342,0-0.72-0.036-1.134-0.108c-0.774-0.144-1.116-0.27-1.927-0.685l0.558-1.134
		c0.271,0.144,0.469,0.252,0.612,0.324c0.576,0.27,1.297,0.45,1.873,0.45c0.828,0,1.44-0.45,1.44-1.081
		c0-0.197-0.072-0.432-0.162-0.558c-0.324-0.468-0.702-0.702-2.161-1.297c-1.584-0.666-2.124-1.224-2.124-2.214
		c0-1.423,1.188-2.305,3.097-2.305c0.342,0,0.702,0.018,1.044,0.09c0.612,0.107,0.9,0.233,1.585,0.612l-0.666,1.098
		c-0.522-0.324-0.757-0.432-1.171-0.54c-0.324-0.09-0.63-0.144-0.937-0.144c-0.918,0-1.512,0.414-1.512,1.026
		c0,0.197,0.071,0.378,0.197,0.504c0.324,0.324,0.541,0.45,2.018,1.062c1.729,0.72,2.214,1.278,2.214,2.557
		C791.587,179.685,790.525,180.568,788.742,180.568z"/>
</g>
<g>
	<g>
		<line fill="none" stroke="#000000" stroke-miterlimit="10" x1="804" y1="157.667" x2="816.559" y2="135.165"/>
		<g>
			<polygon points="820,129 818.701,139.669 816.302,135.626 811.602,135.707 			"/>
		</g>
	</g>
</g>
<g>
	<path fill="none" d="M320,311.666c25.141-10.215,62.474-19.998,84.276,2.483c6.125,6.316,5.873,13.113,7.249,21.194
		c1.681,9.867,6.988,17.787,13.128,25.509c7.559,9.506,17.239,27.618,30.015,30.813"/>
	<path d="M411.016,334.465c-0.465-2.721,1.389-5.29,4.129-5.759c2.76-0.473,5.362,1.335,5.827,4.056
		c0.462,2.701-1.392,5.271-4.151,5.742C414.08,338.973,411.479,337.165,411.016,334.465z M419.75,332.971
		c-0.324-1.893-2.263-3.144-4.353-2.786c-2.07,0.354-3.503,2.182-3.179,4.074c0.32,1.873,2.278,3.121,4.349,2.767
		C418.657,336.668,420.07,334.844,419.75,332.971z"/>
	<path d="M413.837,344.126c-0.244-0.592,0.027-1.244,0.619-1.488c0.572-0.236,1.225,0.035,1.469,0.626
		c0.237,0.573-0.034,1.226-0.607,1.462C414.727,344.97,414.073,344.698,413.837,344.126z"/>
	<path d="M415.474,353.806c-0.56-0.269-1.124-0.698-1.617-1.241c-0.472-0.51-0.713-0.831-1.386-1.826l1.077-0.652
		c0.752,1.087,1,1.381,1.572,1.9c1.102,0.969,2.456,1.084,3.757,0.296c0.854-0.518,1.407-1.227,1.579-1.985
		c0.135-0.666-0.047-1.351-0.645-2.415l-0.474-0.859l5.166-3.129l2.808,4.636l-1.077,0.652l-2.062-3.403l-3.01,1.823l0.353,0.698
		c0.996,1.992,0.359,3.991-1.744,5.265C418.419,354.384,416.838,354.476,415.474,353.806z"/>
	<path d="M431.608,370.427l5.231-3.717c0.537-0.383,0.635-0.452,0.782-0.729c0.163-0.288,0.102-0.686-0.142-1.027
		c-0.486-0.685-1.469-1.065-3.386-1.347l-0.602-0.088l-4.514,3.208l-0.869-1.222l5.231-3.718c0.538-0.382,0.636-0.452,0.783-0.728
		c0.163-0.288,0.102-0.686-0.142-1.028c-0.533-0.749-1.654-1.154-3.987-1.434l-4.515,3.208l-0.868-1.223l7.382-5.246l0.869,1.222
		l-1.549,1.101c0.93,0.1,1.181,0.143,1.729,0.292c0.867,0.219,1.648,0.767,2.135,1.451c0.869,1.222,0.738,2.247-0.394,3.174
		c0.958,0.104,1.209,0.146,1.757,0.297c0.866,0.218,1.648,0.767,2.135,1.451c0.927,1.304,0.71,2.414-0.676,3.398l-5.524,3.926
		L431.608,370.427z"/>
	<path d="M434.528,374.522l7.251-5.434l0.899,1.2l-7.251,5.434L434.528,374.522z M443.979,368.39
		c-0.323-0.432-0.235-1.048,0.197-1.372c0.432-0.323,1.048-0.235,1.372,0.197c0.323,0.432,0.235,1.048-0.197,1.372
		C444.92,368.91,444.304,368.822,443.979,368.39z"/>
	<path d="M437.75,378.69l11.224-9.3l0.957,1.155l-11.224,9.299L437.75,378.69z"/>
	<path d="M445.375,380.359c-1.485,1.621-1.564,3.365-0.208,4.607c0.589,0.54,1.165,0.77,2.347,0.931l-0.354,1.274
		c-1.555-0.285-2.29-0.607-3.16-1.403c-1.857-1.702-1.813-4.265,0.117-6.373c1.944-2.122,4.48-2.375,6.382-0.633
		c1.562,1.432,1.566,3.469,0.041,5.135l-0.595,0.648L445.375,380.359z M449.506,379.697c-0.929-0.851-2.09-0.885-3.286-0.082
		l3.272,2.998C450.423,381.567,450.42,380.535,449.506,379.697z"/>
</g>
<g>
	<path fill="#ED1C24" d="M469.161,535.341c-1.38,0-2.62-0.74-2.62-2.24v-5.341h-1.381v-1.761l1.381-0.24v-2.641h3.86v2.561h2.221
		v2.081h-2.221v3.761c0,0.7,0.261,0.9,0.58,0.9c0.2,0,0.601-0.32,1.021-0.601l0.939,2.141
		C471.682,534.721,470.722,535.341,469.161,535.341z"/>
	<path fill="#ED1C24" d="M478.342,535.341c-2.781,0-5.281-1.72-5.281-5.001c0-3.221,2.5-5.001,5.281-5.001
		c2.78,0,5.281,1.78,5.281,5.001C483.623,533.721,481.122,535.341,478.342,535.341z M478.342,528.039
		c-0.721,0-1.201,0.841-1.201,2.301c0,1.48,0.48,2.301,1.201,2.301c0.74,0,1.199-0.82,1.199-2.301
		C479.541,528.88,479.102,528.039,478.342,528.039z"/>
	<path fill="#ED1C24" d="M425.203,543.939c-1.16-0.7-2.381-1.181-3.881-1.181c-0.74,0-1.14,0.38-1.14,0.82
		c0,0.64,2,1.561,3.201,2.021c1.62,0.62,2.98,2.12,2.92,3.7c-0.08,2.341-1.9,4.062-5.44,4.062c-2.881,0-4.081-0.7-5.721-1.7
		l1.56-3.161c1.44,1,2.741,1.48,4.001,1.48c0.64,0,1.32-0.26,1.32-0.801c0-1.1-2.94-1.92-3.641-2.3
		c-1.681-0.9-2.621-1.86-2.621-3.381c0-2.961,3.201-4.021,5.621-4.021c2.621,0,3.84,0.5,5.341,1.26L425.203,543.939z"/>
	<path fill="#ED1C24" d="M430.701,553.341c-1.38,0-2.62-0.74-2.62-2.24v-5.341h-1.38v-1.761l1.38-0.24v-2.641h3.86v2.561h2.221
		v2.081h-2.221v3.761c0,0.7,0.261,0.9,0.58,0.9c0.201,0,0.601-0.32,1.021-0.601l0.939,2.141
		C433.223,552.721,432.262,553.341,430.701,553.341z"/>
	<path fill="#ED1C24" d="M439.882,553.341c-2.78,0-5.281-1.72-5.281-5.001c0-3.221,2.501-5.001,5.281-5.001s5.281,1.78,5.281,5.001
		C445.163,551.721,442.662,553.341,439.882,553.341z M439.882,546.039c-0.72,0-1.2,0.841-1.2,2.301c0,1.48,0.48,2.301,1.2,2.301
		c0.74,0,1.2-0.82,1.2-2.301C441.082,546.88,440.643,546.039,439.882,546.039z"/>
	<path fill="#ED1C24" d="M452.502,553.361c-0.641,0-1.32-0.021-1.961-0.341v4.762h-4v-14.104h4v0.86c0.441-0.46,1.181-1.2,2.421-1.2
		c2.741,0,4.062,1.74,4.062,4.801C457.023,551.12,455.162,553.361,452.502,553.361z M451.802,546.119
		c-0.44,0-0.78,0.261-1.261,0.841v3c0,0.58,0.24,1.16,0.9,1.16c0.94,0,1.5-1.08,1.5-2.64
		C452.941,546.979,452.602,546.119,451.802,546.119z"/>
	<path fill="#ED1C24" d="M465.262,553.001v-7.502H463v-2.3h6.262v9.802H465.262z"/>
	<path fill="#ED1C24" d="M477.701,553.361c-3.961,0-5.74-2.561-5.74-5.182c0-2.62,1.779-5.181,5.74-5.181s5.742,2.561,5.742,5.181
		C483.443,550.801,481.662,553.361,477.701,553.361z M477.701,545.579c-1.5,0-2.32,1.12-2.32,2.601s0.82,2.621,2.32,2.621
		c1.501,0,2.321-1.141,2.321-2.621S479.202,545.579,477.701,545.579z"/>
</g>
<g>
	<path fill="#ED1C24" d="M809.161,60.008c-1.38,0-2.62-0.74-2.62-2.24v-5.341h-1.381v-1.761l1.381-0.24v-2.641h3.86v2.561h2.221
		v2.081h-2.221v3.761c0,0.7,0.261,0.9,0.58,0.9c0.2,0,0.601-0.32,1.021-0.601l0.939,2.141
		C811.682,59.388,810.722,60.008,809.161,60.008z"/>
	<path fill="#ED1C24" d="M818.342,60.008c-2.781,0-5.281-1.72-5.281-5.001c0-3.221,2.5-5.001,5.281-5.001
		c2.78,0,5.281,1.78,5.281,5.001C823.623,58.388,821.122,60.008,818.342,60.008z M818.342,52.706c-0.721,0-1.201,0.841-1.201,2.301
		c0,1.48,0.48,2.301,1.201,2.301c0.74,0,1.199-0.82,1.199-2.301C819.541,53.547,819.102,52.706,818.342,52.706z"/>
	<path fill="#ED1C24" d="M768.803,68.606c-1.16-0.7-2.38-1.181-3.881-1.181c-0.74,0-1.14,0.38-1.14,0.82
		c0,0.64,2.001,1.561,3.2,2.021c1.621,0.62,2.98,2.12,2.921,3.7c-0.08,2.341-1.9,4.062-5.44,4.062c-2.881,0-4.082-0.7-5.722-1.7
		l1.56-3.161c1.441,1,2.741,1.48,4.002,1.48c0.64,0,1.32-0.26,1.32-0.801c0-1.1-2.941-1.92-3.641-2.3
		c-1.682-0.9-2.621-1.86-2.621-3.381c0-2.961,3.201-4.021,5.621-4.021c2.621,0,3.841,0.5,5.342,1.26L768.803,68.606z"/>
	<path fill="#ED1C24" d="M774.302,78.008c-1.38,0-2.62-0.74-2.62-2.24v-5.341h-1.381v-1.761l1.381-0.24v-2.641h3.86v2.561h2.221
		v2.081h-2.221v3.761c0,0.7,0.261,0.9,0.58,0.9c0.2,0,0.601-0.32,1.021-0.601l0.939,2.141
		C776.822,77.388,775.862,78.008,774.302,78.008z"/>
	<path fill="#ED1C24" d="M783.482,78.008c-2.781,0-5.281-1.72-5.281-5.001c0-3.221,2.5-5.001,5.281-5.001
		c2.78,0,5.281,1.78,5.281,5.001C788.764,76.388,786.263,78.008,783.482,78.008z M783.482,70.706c-0.721,0-1.201,0.841-1.201,2.301
		c0,1.48,0.48,2.301,1.201,2.301c0.74,0,1.199-0.82,1.199-2.301C784.682,71.547,784.242,70.706,783.482,70.706z"/>
	<path fill="#ED1C24" d="M796.102,78.028c-0.64,0-1.32-0.021-1.96-0.341v4.762h-4.001V68.346h4.001v0.86
		c0.44-0.46,1.181-1.2,2.421-1.2c2.74,0,4.061,1.74,4.061,4.801C800.623,75.787,798.763,78.028,796.102,78.028z M795.402,70.786
		c-0.44,0-0.781,0.261-1.261,0.841v3c0,0.58,0.24,1.16,0.9,1.16c0.94,0,1.5-1.08,1.5-2.64
		C796.542,71.646,796.202,70.786,795.402,70.786z"/>
	<path fill="#ED1C24" d="M808.861,77.668v-7.502h-2.261v-2.3h6.261v9.802H808.861z"/>
	<path fill="#ED1C24" d="M817.861,77.668v-7.502h-2.261v-2.3h6.261v9.802H817.861z"/>
</g>
<g>
	<path d="M607.396,414.718V425h-4.121v-10.282h-3.761v-2.921h11.643v2.921H607.396z"/>
	<path d="M616.516,419.379c-0.38-0.48-0.66-0.641-1.2-0.641c-0.76,0-1,0.681-1,1.98V425h-4.001v-9.322h3.681l0.08,1.24
		c0.261-0.8,1.001-1.4,1.82-1.4c0.9,0,1.381,0.28,1.9,0.86L616.516,419.379z"/>
	<path d="M622.835,425.34c-2.78,0-5.281-1.72-5.281-5.001c0-3.221,2.501-5.001,5.281-5.001s5.281,1.78,5.281,5.001
		C628.116,423.72,625.615,425.34,622.835,425.34z M622.835,418.038c-0.72,0-1.2,0.841-1.2,2.301c0,1.48,0.48,2.301,1.2,2.301
		c0.74,0,1.2-0.82,1.2-2.301C624.035,418.879,623.595,418.038,622.835,418.038z"/>
	<path d="M635.556,425l-0.2-1.04c-0.98,1.04-2.44,1.38-3.501,1.38c-1.54,0-2.44-0.82-2.44-3.101v-6.562h4.001v5.922
		c0,0.68,0.181,0.84,0.44,0.84c0.42,0,0.84-0.32,1.3-0.82v-5.941h4.001v7.762c0,0.721,0.2,1.561,0.2,1.561H635.556z"/>
	<path d="M644.214,425.34c-1.38,0-2.62-0.74-2.62-2.24v-5.341h-1.38v-1.761l1.38-0.24v-2.641h3.861v2.561h2.22v2.081h-2.22v3.761
		c0,0.7,0.26,0.9,0.58,0.9c0.199,0,0.6-0.32,1.02-0.601l0.94,2.141C646.735,424.72,645.774,425.34,644.214,425.34z"/>
	<path d="M600.935,443v-13.203h4.121v10.282h5.001V443H600.935z"/>
	<path d="M620.656,443c-0.601,0.08-1.241,0.18-1.841,0.18c-0.84,0-1.601-0.26-2-0.899c-0.641,0.56-1.701,1.06-2.801,1.06
		c-1.74,0-3.101-0.96-3.101-2.521c0-0.86,0.12-2.221,2.601-2.86l2.641-0.681v-1.06c0-0.601-0.12-0.82-0.74-0.82
		c-0.48,0-0.641,0.26-0.641,0.42c0,0.12,0,0.18,0.04,0.3l-3.381,0.601c-0.22-0.42-0.26-0.7-0.26-1c0-1.44,1.48-2.381,4.761-2.381
		c2.761,0,4.221,1.021,4.221,3.141v3.721c0,0.66,0.12,0.82,0.761,0.881C620.676,443,620.656,443,620.656,443z M616.155,439.199
		l-1.4,0.36c-0.101,0.16-0.16,0.58-0.16,0.88c0,0.48,0.22,0.82,0.62,0.82c0.34,0,0.82-0.28,0.94-0.5V439.199z"/>
	<path d="M627.995,443l-1.921-3.661V443h-4.001v-14.583h4.001v8.502l1.94-3.241h4.021l-2.9,4.241l2.9,5.081H627.995z"/>
	<path d="M637.255,443.34c-3.761,0-5.102-2.54-5.102-5.141c0-2.961,2.301-4.861,5.262-4.861c3,0,4.381,1.82,4.461,4.381l0.04,1.381
		h-5.741c0,0.8,0.76,1.46,1.78,1.46c1.12,0,1.76-0.16,2.96-0.721l1.021,2.541C640.035,443,639.896,443.34,637.255,443.34z
		 M637.354,435.759c-0.7,0-1.14,0.74-1.14,1.52h2C638.215,436.398,637.975,435.759,637.354,435.759z"/>
	<path d="M654.074,439.159c-0.34,0-0.68-0.04-1.02-0.12V443h-4.121v-13.203h5.521c2.821,0,5.222,1.28,5.222,4.521
		C659.676,437.938,656.975,439.159,654.074,439.159z M653.814,432.718h-0.76v3.581c0.199,0,0.8,0.04,0.8,0.04h0.08
		c0.8,0,1.54-0.641,1.54-1.98C655.475,433.098,654.675,432.718,653.814,432.718z"/>
	<path d="M667.074,443l-0.2-1.04c-0.98,1.04-2.44,1.38-3.501,1.38c-1.54,0-2.44-0.82-2.44-3.101v-6.562h4.001v5.922
		c0,0.68,0.181,0.84,0.44,0.84c0.42,0,0.84-0.32,1.3-0.82v-5.941h4.001v7.762c0,0.721,0.2,1.561,0.2,1.561H667.074z"/>
	<path d="M672.872,443v-14.583h4.001V443H672.872z"/>
	<path d="M678.852,443v-14.583h4.001V443H678.852z"/>
	<path d="M689.492,443.34c-2.78,0-5.281-1.72-5.281-5.001c0-3.221,2.501-5.001,5.281-5.001s5.281,1.78,5.281,5.001
		C694.773,441.72,692.272,443.34,689.492,443.34z M689.492,436.038c-0.72,0-1.2,0.841-1.2,2.301c0,1.48,0.48,2.301,1.2,2.301
		c0.74,0,1.2-0.82,1.2-2.301C690.692,436.879,690.252,436.038,689.492,436.038z"/>
	<path d="M702.213,443l-0.2-1.04c-0.98,1.04-2.44,1.38-3.501,1.38c-1.54,0-2.44-0.82-2.44-3.101v-6.562h4.001v5.922
		c0,0.68,0.181,0.84,0.44,0.84c0.42,0,0.84-0.32,1.3-0.82v-5.941h4.001v7.762c0,0.721,0.2,1.561,0.2,1.561H702.213z"/>
	<path d="M710.871,443.34c-1.38,0-2.62-0.74-2.62-2.24v-5.341h-1.38v-1.761l1.38-0.24v-2.641h3.861v2.561h2.22v2.081h-2.22v3.761
		c0,0.7,0.26,0.9,0.58,0.9c0.199,0,0.6-0.32,1.02-0.601l0.94,2.141C713.393,442.72,712.432,443.34,710.871,443.34z"/>
</g>
<g>
</g>
<g>
</g>
<g>
</g>
<g>
</g>
<g>
</g>
<g>
</g>
<g>
</g>
<g>
</g>
</svg>
