<?xml version="1.0" encoding="utf-8"?>
<!-- Generator: Adobe Illustrator 16.0.3, SVG Export Plug-In . SVG Version: 6.00 Build 0)  -->
<!DOCTYPE svg PUBLIC "-//W3C//DTD SVG 1.1//EN" "http://www.w3.org/Graphics/SVG/1.1/DTD/svg11.dtd">
<svg version="1.1" id="Layer_3" xmlns="http://www.w3.org/2000/svg" xmlns:xlink="http://www.w3.org/1999/xlink" x="0px" y="0px"
	 width="841.89px" height="647px" viewBox="0 0 841.89 647" enable-background="new 0 0 841.89 647" xml:space="preserve">
<path opacity="0.6" fill="#B2D675" d="M207,654c11.277-6.314,19.989-10.898,32.739-12.18c15.319-1.54,35.266-3.508,48.708-1.969
	c10.083,1.154,22.575,4.635,32.705,2.807c3.675-0.664,5.417-2.531,8.456-4.036c7.224-3.578,14.934-5.187,22.828-7.224
	c23.972-6.187,48.602-9.581,72.419-16.138c8.654-2.383,16.882-5.526,25.896-5.984c12.081-0.614,23.226-2.083,34.382-7.335
	c2.033-0.957,6.479-2.499,7.852-4.708c0.61-0.982-2.731-0.877-2.617-1.098c-0.5,0.965,1.843-5.334,1.538-4.62
	c1.92-4.501,12.163-10.072,15.822-12.631c10.822-7.566,22.858-12.947,33.793-20.175c6.047-3.997,10.668-9.654,16.753-13.649
	c12.034-7.899,15.503-23.165,22.142-36.126c2.907-5.676,4.214-12.814,7.356-18.172c3.721-6.343,12.216-8.999,16.557-15.077
	c4.627-6.479,5.068-14.947,8.566-22.024c5.523-11.174,15.027-19.847,22.962-29.245c10.889-12.897,12.633-24.55,18.529-39.45
	c5.121-12.939,14.709-29.522,25.948-38.352c8.146-6.4,17.01-6.543,26.871-7.093c21.2-1.183,38.36-8.775,56.462-19.775
	c7.957-4.835,15.641-10.077,23.417-15.188c2.721-1.788,8.433-4.275,10.746-6.782c2.833-3.069,3.001-3.182,1.864-8.145
	c-2.738-11.955-11.661-22.487-15.574-34.177c-2.729-8.154-4.107-16.551-4.561-25.121c-0.305-5.772,2.198-18.188-1.118-23.421
	c-3.232-5.1-10.853-4.794-16.03-7.773c-13.384-7.701-23.801-8.693-39.563-7.625c-13.723,0.93-23.736,3.149-33.212-7.322
	c-5.915-6.537-6.476-5.312-13.561-2.827c-0.995,0.349-0.452,1.631-1.673,1.964c-2.71,0.738-14.007-5.208-16.358-5.941
	c-8.82-2.75-17.797-4.963-26.731-7.302c-7.268-1.904-18.012-3.167-24.282-7.823c-5.393-4.003-7.449-7.559-14.459-9.835
	c-3.265-1.06-7.262-1.232-10.388-2.571c-1.312-0.561-3.295-0.799-0.854,0.081c-4.181-12.154-40.142-9.103-48.857-8.995
	c-14.183,0.175-29.688-1.978-43.701,0.215c0.377,3.42-2.011,3.67-5.209,6.386c-9.766,8.292-19.243,16.75-26.849,27.197
	c-11.375,15.624-17.156,35.566-29.545,50.421c-3.134,3.758-5.406,4.255-6.295,7.633c-8.45,2.606-16.125,6.552-24.369,9.638
	c-12.657,4.738-31.68,1.921-42.072,6.552c-3.085,1.375-4.942,3.175-7.569,5.865c-6.346,6.497-8.696,13.415-13.386,20.179
	c-10.222-4.499-18.782-9.77-30.343-11.607c-9.059-1.439-24.151-1.613-23.372-13.466c2.14-0.8,3.745-1.893,5.287-3.715
	c-9.928-16.217-20.003-29.079-39.019-34.464c-10.755-3.046-23.343-2.557-31.75-10.829c-6.609-6.502-9.054-9.995-18.856-11.747
	c-4.883-0.873-9.891-0.775-14.751-1.871c-5.516-1.243-10.567-4.126-16.118-5.119c-18.761-3.357-41.027,9.654-57.255,17.002
	c-21.932,9.93-43.313,21.239-65.647,30.264c-5.383,2.175-7.736,4.918-10.189,10.945c-3.157,7.757,0.824,21.967,1.804,29.736
	c2.051,16.272,5.237,32.271,9.169,48.185c2.833,11.467,4.871,23.163,7.87,34.577c3.385,12.884,9.544,23.217,16.417,34.47
	c14.504,23.749,22.953,52.859,44.015,72.065c3.221,2.937,8.074,4.49,9.318,8.014c1.75,4.955-1.333,12.172-1.527,17.462
	c-0.404,11.03,2.269,22.736,5.062,33.3c2.27,8.581,5.035,22.626,13.202,27.679c0.357,0.222,3.508,0.479,4.39,0.851
	c1.167,0.49,2.538,2.136,3.719,2.847c4.193,2.521,9.348,4.456,13.816,6.427c7.481,3.298,16.866,4.267,23.934,7.854
	c1.105,0.561,6.269,4.716,7.167,5.962c1.995,2.768,5.083,15.737,4.822,19.212c-0.298,3.972-4.113,8.646-5.142,12.549
	c-1.237,4.694-0.835,10.122-0.538,14.96c1.053,17.114,7.818,31.096,22.039,40.431"/>
<g opacity="0.3">
	<path fill="#92C83E" d="M247.878,185.991c0.767,0.787,1.569,1.513,2.358,2.139c2.54,2.016,4.625,3.572,6.881,5.716
		c1.453,1.381,2.674,3.095,4.007,4.593c0.759,0.854,1.748,1.184,2.409,1.867c1.104,1.139,1.476,2.859,2.331,4.216
		c0.923,1.465,2.133,2.861,3.061,4.18c1.071,1.523,2.448,1.989,3.821,3.112c2.384,1.95,3.722,4.059,4.966,6.835
		c1.827,4.074,1.973,6.576,1.646,10.845c-0.667,8.743,0.163,17.628-1.421,26.319c-0.829,4.547-1.388,8.662-1.25,13.3
		c0.06,2.016-0.173,5.019,0.281,6.83c0.503,2.008,2.933,4.31,4.519,5.467c1.927,1.406,4.173,1.791,6.227,2.908
		c2.183,1.187,2.443,2.67,3.26,5.051c1.404,4.093,3.651,7.729,5.283,11.724c0.493,1.206,1.133,2.884,0.776,4.22
		c-0.462,1.728-1.511,2.307-3.016,3.171c-3.098,1.779-5.956,3.489-7.313,6.758c-0.811,1.949-2.621,2.573-4.011,3.869
		c-3.181,2.967-7.246,7.032-8.256,11.723c-0.909,4.219-0.365,8.986,3.447,11.307c4.041,2.458,8.806,4.087,12.491,7.057
		c2.256,1.818,4.925,4.456,6.24,7.069c1.19,2.366,0.862,5.67,0.862,8.354c0,22-17.477,38.381,6.523,45.381c8,2,15-3,23,0
		c11,4,7,14,16,21c17,14,9-26,10-38c1-23-1-51,11-69c8.97-13.455,24.936-22.414,40.557-25.697c4.692-0.986,9.995-1.51,14.469,0.711
		c1.735,0.861,2.252,2.148,4.394,2.959c3.625,1.371,8.642-0.705,11.993-2.073c3.957-1.617,7.633-4.581,11.472-6.036
		c1.849-0.701,3.89-0.471,5.698-1.456c1.965-1.069,4.274-2.498,6.074-3.94c2.735-2.192,5.637-4.318,7.744-7.086
		c1.528-2.007,2.27-4.347,3.3-6.614c0.885-1.945,2.276-2.822,3.503-4.504c2.57-3.527,3.902-7.979,4.656-12.219
		c1.567-8.807,0.749-17.817,1.825-26.677c0.567-4.672,1.746-9.372,4.314-13.367c1.177-1.766,1.823-3.669,2.996-5.352
		c1.201-1.723,3.153-2.864,4.205-4.708c0.587-1.029,0.778-2.19,1.345-3.214c0.688-1.243,1.665-1.638,2.648-2.522
		c3.099-2.786,6.312-5.584,9.286-8.275c0.913-0.827,1.85-1.563,2.701-2.469c1.002-1.065,0.931-1.759,1.574-2.972
		c1.074-2.025,2.78-3.182,3.612-5.309c1.001-2.562,1.89-5.001,3.632-7.179c3.363-4.205,8.758-6.331,11.56-10.811
		c1.437-2.298,2.923-4.102,5.06-5.642c2.745-1.979,5.021-4.394,8.096-6.307c3.874-2.411,6.753-5.351,9.039-9.469
		c0.823-1.483,1.821-3.026,2.75-4.499c1.572-2.492,2.446-5.63,4.175-8.12c0.937-1.348,2.066-2.114,3.176-3.333
		c2.496-2.745,6.957-3.625,10.591-4.552c2.777-0.708,5.634-0.853,7.189-3.318c1.862-2.954,3.28-6.353,4.808-9.498
		c2.038-4.197,5.847-8.122,8.687-11.349c1.772-2.014,5.026-4.422,7.501-5.581c3.79-1.774,8.266-3.499,12.239-4.807
		c3.681-1.211,7.174-2.8,10.829-4.092c2.825-1,5.753-1.645,8.633-2.458c2.686-0.758,3.682-1.957,5.784-3.641
		C640.614,74.92,645.606,71.157,651,69c5-2,15,0,20-3c9-6,11-24,19-32c6-7,16-10,22-17c8-8,12-20,20-28
		c6.266-6.835,13.637-12.588,21.194-17.917c3.874-2.731,7.826-5.347,11.802-7.927c1.422-0.922,3.653-1.801,4.799-3.029
		c1.177-1.26,1.276-2.961,2.869-4c1.524-0.993,3.306-1.545,4.835-2.603c0.381-0.264,1.034-1.067,1.431-1.144
		c5.608-1.094,0.086,15.479-0.47,17.333c-1.666,5.549-4.42,12.461-8.334,16.75c-3.364,3.687-9.389,7.57-10.71,12.605
		c-0.43,1.636-0.327,3.271-0.938,4.901c-0.66,1.766-1.85,2.99-2.771,4.55c-0.428,0.724,0.361-0.266,0.408-0.334
		c-1.374,1.995-2.814,3.819-4.548,5.6c-3.97,4.076-8.262,7.828-12.525,11.589c-2.144,1.892-5.964,4.25-7.336,6.868
		c-0.273,0.523-0.043,1.129,0.115,0.795c-0.479,1.011-1.179,1.946-1.78,2.898c-2.261,3.577-4.187,8.313-7.556,11.002
		c-5.912,4.718-10.276,13.364-13.294,20.354c-1.771,4.103-2.697,4.461-6.039,6.97c-3.343,2.508-4.526,7.438-6.919,10.806
		c-2.066,2.909-4.44,5.563-6.78,8.249c-0.429,0.492-1.368,1.626-1.447,1.895c-1.532,0.428-3.022-0.133-4.522,0.444
		c-0.678,0.261-1.302,0.94-1.98,1.26c-3.861,1.819-8.11,4.303-12.181,5.653c-2.992,0.992-7.013,1.547-10.146,1.435
		c-2.492-0.09-4.992,0.086-7.479-0.148c-2.253-0.213-4.285-1.234-6.538-1.166c-3.393,0.102-7.016,0.457-10.091,2.028
		c-7.511,3.84-12.24,11.015-17.005,17.666c-2.536,3.54-5.751,6.583-8,10.334c-0.853,1.423-1.066,3.189-1.739,4.245
		c-0.947,1.484-2.489,2.465-3.312,4.261c-1.269,2.771-2.191,5.844-4.311,8.089c-1.037,1.098-2.107,2.157-3.153,3.25
		c-3.145,3.283-6.697,6.086-9.422,9.796c-1.305,1.776-2.03,3.893-2.967,5.676c-1.326,2.521-3.021,3.779-4.829,5.764
		c-2.189,2.405-4.606,4.868-6.233,7.721c-1.195,2.096-1.646,3.615-3.821,4.9c-1.281,0.758-2.873,1.275-4.224,1.929
		c-5.771,2.793-10.935,6.296-16.986,8.418c-3.554,1.246-6.945,1.679-7.766,5.926c-0.838,4.336,0.22,9.329,0.148,13.725
		c-0.054,3.346,0.221,6.553,0.147,9.846c-0.055,2.452-0.39,5.362,0.402,7.737c1.001,3,5,6,1,11c-4,5-5,8-12,11s-8,5-8,9s3,5,1,9
		s-5,10-7,14s-4,14-10,18c-1.765,1.177-2.543,2.544-3.762,4.146c-1.299,1.709-3.13,2.898-4.552,4.523
		c-1.238,1.417-2.671,3.231-4.159,4.296c-7.821,5.596-18.836,7.395-27.855,4.286c-0.022-0.176-0.04-0.352-0.051-0.528
		c-2.135,0.124-2.545-2.039-4.283-2.876c-2.615-1.262-5.767,0.015-8.631,0.214c-5.314,0.369-11.768-0.426-16.446,2.586
		c-1.674,1.077-2.941,2.401-4.977,2.786c-1.571,0.297-3.055-0.252-4.601-0.188c-0.929,0.039-1.58,0.341-2.364,0.417
		c-4.386,0.428-12.214-0.42-15.493,2.821c-2.643,2.611-3.712,6.128-6.459,8.489c-2.058,1.77-4.271,4.585-6.463,6.062
		c-1.656,1.116-3.968,0.75-5.574,1.947c-1.484,1.105-1.974,3.237-2.33,5.017c-0.678,3.392-4.743,6.081-7.302,8.008
		c-3.194,2.404-4.765,6.29-6.216,9.994c-2.623,6.692-2.875,13.133-3.186,20.181c-0.261,5.938-1.078,12.024-1.835,17.918
		c-0.417,3.254-0.907,7.014-0.482,10.324c0.232,1.809,0.693,3.228,0.734,5.022c0.047,2.067,0.273,4.169,0.423,6.234
		c0.17,2.336-0.038,2.812-1.085,5.167c-2.519,5.666-4.287,12.819-8.401,17.475c-1.676,1.897-3.254,3.593-5.558,4.45
		C351.5,456.481,347.39,459.805,343,462c-14,7-15,4-23,11s-25,32-25,32s-13,5-15,12s-16,45-16,45s0-1-2,4s6,0-8,9s-22,13-29,14
		s-15-2.28-19,2s-6,3-10,12s-8,27-8,27l-13,22c-2,0,9-37-2-45c-9-8-13,3-19-10c-12-25,8-40,29-37c6,1,16,7,22,6c3,0,20-13,22-15
		c8-6,13-15,20-21c1.769-1.18,3.891-2.367,5.924-3.022c1.431-0.461,2.636-0.241,3.529-1.523c1.419-2.039,0.24-5.094,0.892-7.364
		c1.357-4.727,3.544-9.837,6.241-13.966c2.938-4.498,7.014-8.241,10.515-12.283c0.961-1.109,3.869-3.887,3.962-5.504
		c0.014-0.237-0.649-1.114-0.698-1.691c-0.229-2.697,2.62-6.525,3.914-9.022c3.205-6.188,8.458-9.039,14.211-12.502
		c1.484-0.893,3.284-1.74,4.85-2.715c2.092-1.303,3.971-2.64,6.222-3.783c2.648-1.345,6.436-2.381,8.768-4.22
		c1.464-1.153,2.648-3.306,3.799-4.805c2.616-3.405,3.788-6.783,5.58-10.673c1.965-4.267,5.419-6.91,1.551-11.286
		c-3.688-4.173-8.28-7.209-13.257-9.64c-8-4-14,0-21-8c-7-7-10.102-24.227-16.102-33.227c-5-7-15.182-20.94-20.182-28.94
		c-4.177-6.683-3.675-14.362-0.896-21.424c2.715-6.897,6.184-13.732,9.47-20.358c0.916-1.849,1.79-3.925,2.376-5.82
		c0.949-3.062,2.278-6.475,1-9.544c-0.736-1.767-1.683-3.487-2.639-5.145c-1.391-2.411-4.181-5.45-4.972-8.423
		c-0.57-2.145-1.351-4.19-2.073-6.495c-0.922-2.945-0.988-5.885-1.891-8.83c-0.916-2.987-1.388-5.994-1.235-9.124
		c0.172-3.536-0.542-7.344-0.81-10.877c-0.583-7.713-1.197-15.424-1.88-23.128c-0.317-3.575-0.632-5.955-2.176-9.218
		c-2.111-4.461-4.387-8.871-6.873-13.135c-1.017-1.745-2.132-4.291-3.915-5.4c-0.099-0.062-0.491,0.483-0.987,0.228
		c-1.986-1.021-3.409-2.804-4.167-4.877c-0.331-0.904-0.168-2.28-0.615-3.067c-0.062-0.11-0.989-0.638-1.154-0.837
		c-1.509-1.819-3.064-3.67-4.728-5.349c-2.292-2.312-4.462-2.574-4.161-5.951c0.281-3.135,1.867-6.418,2.884-8.972
		c2.086-5.24,5.948-11.155,9.247-15.798c1.395-1.962,1.807-3.969,2.98-6.028c3.286-5.766,5.955-11.849,8.687-17.888
		c0.636-1.405,1.195-2.434,2.146-3.606c2.271-2.799,2.48-6.585,3.725-10.088c0.427-1.201,1.528-7.566,3.215-8.064
		c0.316,5.417,0.564,11.196,0.499,16.617c-0.038,3.125-0.545,7.878-1.382,9.996c-1.019,2.577-2.088,5.255-3.116,7.875
		c-1.104,2.814-1.708,5.703-2.588,8.574c-0.728,2.375-2.405,3.813-3.659,5.895c-0.643,1.065-1.188,2.406-1.699,3.396
		c-1.267,2.457-2.308,5.132-3.474,7.704c-1.25,2.76-1.276,2.82-0.938,5.428c0.324,2.486-0.783,4.06,0.156,6.52
		c1.301,3.41,2.493,7.34,4.189,10.561C245.138,182.836,246.446,184.521,247.878,185.991z"/>
	<g>
		<path fill="#92C83E" d="M246.11,187.759c2.478,2.392,5.284,4.396,7.901,6.631c2.429,2.074,4.11,4.825,6.585,6.814
			c1.992,1.601,2.67,3.946,4.106,6.021c1.657,2.394,3.328,4.396,5.755,6.001c6.885,4.552,6.516,12.849,6.195,20.021
			c-0.383,8.538-0.326,16.771-1.691,25.244c-0.861,5.344-1.481,11.524-0.603,16.903c0.794,4.858,5.167,8.297,9.529,9.988
			c4.217,1.635,4.425,4.567,6.115,8.245c1.449,3.154,3.122,6.208,4.342,9.463c1.111,2.966-4.211,4.637-5.849,6.002
			c-2.614,2.182-3.826,5.261-6.473,7.373c-6.551,5.228-15.636,17.66-7.818,25.779c4.252,4.416,10.859,5.732,15.555,9.692
			c3.226,2.721,5.181,5.569,5.256,9.849c0.059,3.341-0.123,6.689-0.629,9.99c-1.338,8.71-5.745,17.156-5.535,26.068
			c0.204,8.67,8.438,13.381,16.07,14.877c5.763,1.13,11.615-1.249,17.381-1.182c7.673,0.089,10.042,6.179,12.434,12.11
			c2.08,5.159,8.65,14.351,15.5,12.64c5.364-1.339,5.91-8.302,6.193-12.806c0.488-7.776-0.472-15.626-0.885-23.387
			c-0.541-10.156,0.235-20.515,0.564-30.673c0.429-13.26,1.444-27.1,7.224-39.25c5.865-12.33,17.868-20.931,30.221-25.953
			c5.995-2.438,12.643-4.308,19.14-4.243c4.05,0.04,6.186,2.49,9.462,4.152c2.26,1.147,4.926,0.784,7.316,0.402
			c5.722-0.913,10.882-4.42,15.816-7.182c2.714-1.518,5.896-1.292,8.554-2.786c2.756-1.549,5.288-3.305,7.76-5.269
			c4.896-3.892,7.781-7.562,10.255-13.268c1.132-2.609,3.795-4.759,5.209-7.305c1.703-3.063,2.54-6.609,3.203-10.015
			c1.381-7.096,1.12-14.44,1.441-21.629c0.377-8.452,2.825-14.514,6.645-21.872c1.2-2.312,3.506-3.878,5.002-6.006
			c1.372-1.951,0.372-2.605,2.632-4.459c1.246-1.022,2.442-2.087,3.646-3.159c2.659-2.366,5.309-4.745,7.984-7.092
			c2.38-2.087,3.22-4.924,5.192-7.34c1.735-2.125,2.446-4.709,3.602-7.16c1.555-3.298,4.607-5.434,7.412-7.578
			c1.837-1.404,3.718-2.89,5.065-4.796c2.399-3.394,4.942-5.766,8.129-8.392c4.675-3.851,9.583-6.714,13.273-11.614
			c4.33-5.749,6.22-12.925,11.326-18.024c4.381-4.373,11.526-2.995,16.395-6.426c2.105-1.484,3.21-4.419,4.307-6.626
			c1.953-3.935,3.648-7.554,6.453-10.985c4.318-5.283,8.683-8.94,15.009-11.573c6.596-2.746,13.498-5.272,20.284-7.505
			c2.891-0.951,6.249-1.22,8.954-2.657c2.303-1.223,4.191-2.992,6.224-4.607c5.741-4.562,11.484-8.418,18.96-8.745
			c4.812-0.21,9.66-0.066,14.055-2.304c3.953-2.013,6.551-7.075,8.414-10.834c5.017-10.121,7.479-20.03,17.215-26.853
			c4.63-3.245,9.593-5.86,13.858-9.617c4.788-4.217,8.317-9.831,11.591-15.23c3.504-5.78,6.979-11.171,11.615-16.126
			c4.999-5.342,10.791-9.924,16.678-14.237c5.48-4.016,11.146-8.114,17.128-11.347c2.061-1.113,3.397-2.544,4.472-4.608
			c0.782-1.505,2.924-2.205,4.342-2.91c0.608-0.303,1.173-0.671,1.692-1.104c-0.493-0.939-0.615-0.963-0.364-0.073
			c0.806,7.492-4.056,18.725-7.405,24.967c-2.854,5.319-8.02,8.27-11.623,12.934c-1.684,2.179-2.673,4.212-3.167,6.919
			c-0.604,3.308-2.386,5.107-3.504,8.067c-0.896,2.367,2.545,4.212,4.178,2.432c0.182-0.183,0.349-0.378,0.503-0.584
			c-1.309-1.01-2.617-2.02-3.927-3.029c-4.22,5.913-9.847,10.645-15.26,15.429c-2.975,2.629-8.88,5.635-9.505,9.944
			c-0.206,1.42,0.334,2.587,1.746,3.076c0.073,0.025,0.146,0.05,0.219,0.076c-0.497-1.224-0.995-2.448-1.493-3.672
			c-1.555,2.708-3.206,5.356-4.753,8.073c-1.93,3.391-4.746,5.563-7.356,8.353c-4.384,4.686-7.327,10.712-9.939,16.5
			c-1.213,2.687-2.178,4.75-4.577,6.551c-2.366,1.776-4.036,3.603-5.517,6.178c-2.056,3.575-3.676,6.841-6.343,10.079
			c-1.759,2.135-3.852,4.089-5.331,6.441c0.72-0.413,1.439-0.826,2.159-1.238c-2.46,0.286-4.595,0.055-6.774,1.393
			c-2.715,1.667-5.675,3.011-8.546,4.402c-6.961,3.373-16.105,4.135-23.593,2.248c-12.756-3.215-22.583,5.993-29.577,15.339
			c-3.824,5.111-8.158,9.997-11.61,15.36c-0.765,1.188-1.186,3.005-1.74,4.245c-0.505,1.129-1.925,1.958-2.58,3.046
			c-2.019,3.354-2.899,6.977-5.696,9.885c-4.345,4.517-9.411,8.523-12.803,13.849c-1.89,2.968-2.898,5.847-5.454,8.429
			c-2.459,2.485-4.758,5.127-6.818,7.951c-2.174,2.979-2.963,5.157-6.612,6.706c-3.123,1.326-6.071,3.048-9.044,4.674
			c-5.062,2.77-11.559,3.913-16.036,7.536c-4,3.236-2.592,10.961-2.283,15.25c0.239,3.306,0.142,6.649,0.241,9.963
			c0.099,3.3-0.61,6.954,0.158,10.193c0.514,2.168,1.493,3.859,2.539,5.807c1.615,3.008-2.569,6.964-4.341,9.237
			c-3.619,4.643-9.413,5.718-13.903,9.193c-2.739,2.121-3.2,5.75-2.908,8.95c0.271,2.962,2.18,4.44,0.647,7.504
			c-1.537,3.075-3.075,6.15-4.612,9.225c-1.795,3.59-3.238,7.16-4.64,10.918c-1.022,2.744-2.29,5.451-4.104,7.77
			c-1.478,1.89-3.695,2.948-5.161,4.863c-4.115,5.377-9.304,10.896-15.637,13.513c-6.289,2.598-13.345,2.689-19.782,0.677
			c0.611,0.804,1.224,1.607,1.835,2.411c-0.017-0.176-0.034-0.353-0.051-0.528c-0.098-1.02-0.681-2.23-1.835-2.411
			c-1.817-0.282-3.69-2.684-5.632-3.312c-2.403-0.777-5.563,0.277-7.947,0.561c-6.213,0.738-11.995-0.24-17.708,2.927
			c-1.938,1.074-2.687,2.399-5.263,2.515c-1.257,0.056-2.442-0.368-3.718-0.168c-2.622,0.413-5.185,0.475-7.833,0.561
			c-4.759,0.156-9.582,0.921-12.564,4.996c-3.931,5.371-7.801,11.873-14.641,13.528c-2.147,0.521-3.45,2.22-4.398,4.058
			c-0.535,1.037-0.744,2.231-0.994,3.357c-0.557,2.515-3.232,4.33-5.132,5.756c-10.006,7.511-11.147,21.544-11.661,33.092
			c-0.318,7.145-1.437,14.208-2.24,21.305c-0.357,3.157-0.223,6.189,0.296,9.31c0.631,3.785,1.595,9.188,0.041,12.79
			c-2.464,5.71-4.021,12.068-8.01,16.969c-2.229,2.737-4.974,3.91-8.051,5.407c-3.495,1.7-6.657,4.059-10.094,5.879
			c-7.979,4.224-16.518,5.421-23.506,11.391c-6.489,5.543-11.552,13.226-16.57,20.055c-2.401,3.268-4.747,6.575-7.064,9.902
			c-0.558,0.801-1.112,1.604-1.663,2.41c-0.522,0.765,2.179-1.324,1.121-0.898c-0.644,0.259-1.28,0.538-1.915,0.818
			c-7.594,3.357-12.871,7.818-15.466,15.716c-4.651,14.154-9.937,28.12-15.086,42.1c1.637,0.222,3.274,0.443,4.911,0.665
			c-0.064-0.645-0.106-0.746-0.363-1.333c-0.354-0.81-1.348-1.195-2.159-1.238c-3.266-0.172-5.276,6.765-4.645,9.228
			c1.074,4.192,2.157-1.707,0.693-0.609c-3.818,2.863-8.035,5.299-12.078,7.822c-7.039,4.393-14.509,9.004-22.768,10.586
			c-4.9,0.938-9.949-0.578-14.889-0.049c-3.694,0.396-5.573,2.621-8.251,4.854c-10.762,8.972-13.401,24.674-16.391,37.81
			c-0.053,0.232,0.382-0.651-0.19,0.315c-0.458,0.776-0.917,1.552-1.375,2.327c-1.498,2.534-2.995,5.069-4.493,7.604
			c-2.25,3.808-4.5,7.615-6.75,11.423c0.941-0.383,1.882-0.766,2.823-1.149c1.969,0.699,1.555,2.942,1.593,1.296
			c0.01-0.438,0.071-0.877,0.12-1.311c0.149-1.329,0.397-2.651,0.611-3.971c0.651-4.008,1.276-8.017,1.766-12.047
			c0.914-7.523,1.862-16.683-1.513-23.771c-1.518-3.188-4.081-5.423-7.134-7.138c-3.387-1.903-6.61-0.812-10.167-1.292
			c-4.966-0.669-7.08-11.14-7.803-15.1c-1.05-5.745,0.63-11.68,4.386-16.087c6.865-8.055,19.765-9.761,29.317-6.483
			c8.098,2.778,15.598,7.307,23.658,2.522c6.314-3.748,12.565-8.334,18.047-13.229c4.397-3.928,8.295-7.938,12.071-12.485
			c1.925-2.318,3.89-4.588,6.001-6.739c1.338-1.362,2.851-2.373,4.507-3.304c1.783-1.003,3.891-0.977,5.596-1.976
			c4.231-2.479,2.722-8.952,4.059-12.914c2.625-7.779,7.438-13.643,12.933-19.556c2.201-2.368,6.85-6.082,6.85-9.669
			c0-1.304-0.858-1.606-0.455-3.224c0.354-1.421,1.402-2.886,2.139-4.145c1.854-3.166,3.601-5.961,6.393-8.401
			c4.682-4.093,10.806-6.612,16.012-9.954c5.01-3.216,11.289-4.08,14.852-9.221c3.534-5.097,5.721-10.521,8.796-15.846
			c2.913-5.043,2.606-8.578-1.407-12.894c-3.815-4.103-9.353-7.804-14.619-9.69c-5.887-2.11-12.324-1.065-17.28-5.439
			c-8.441-7.45-10.233-21.124-15.1-30.858c-2.215-4.43-5.588-8.372-8.462-12.383c-3.704-5.17-7.377-10.361-10.919-15.644
			c-4.061-6.059-6.249-11.55-4.731-18.956c1.619-7.898,6.283-15.545,9.843-22.709c2.057-4.141,3.753-8.328,4.789-12.847
			c1.014-4.427-1.119-8.134-3.227-11.846c-1.157-2.038-2.666-3.87-3.884-5.875c-1.461-2.407-2.041-5.776-2.909-8.446
			c-1.932-5.938-3.083-12.88-3.019-19.077c0.057-5.535-0.991-11.277-1.423-16.801c-0.488-6.22-0.86-12.48-1.647-18.67
			c-0.638-5.013-3.172-9.439-5.451-13.867c-2.111-4.1-4.247-9.4-7.882-12.4c-0.9-0.743-1.963-0.968-3.029-0.391
			c0.022-0.012-2.08-6.883-3.245-7.717c-3.004-2.149-5.111-5.687-8.07-8.045c-2.809-2.239,2.778-11.906,3.865-14.042
			c2.311-4.542,5.468-8.53,8.081-12.879c4.733-7.88,7.45-16.974,12.086-24.899c2.054-3.512,3.273-6.324,4.335-10.314
			c0.457-1.717,1.12-7.167,2.545-8.084c-1.254-0.72-2.508-1.439-3.762-2.159c0.466,8.272,1.839,17.915-0.793,25.948
			c-1.441,4.398-3.48,8.524-4.731,13.001c-1.192,4.268-3.691,7.151-5.554,11.058c-1.681,3.526-3.518,7.086-4.86,10.759
			c-1.01,2.764-0.306,5.704-0.628,8.597c-0.393,3.527,2.041,7.784,3.301,10.962C241.847,182.31,243.669,185.101,246.11,187.759
			c2.185,2.38,5.711-1.166,3.535-3.535c-3.049-3.321-4.547-7.054-6.056-11.248c-1.299-3.614-0.889-6.492-1.322-10.178
			c-0.354-3.015,2.906-7.891,4.223-10.57c1.454-2.958,3.846-5.556,5.07-8.562c1.517-3.726,2.27-7.719,3.749-11.477
			c1.243-3.159,2.671-6.216,3.29-9.567c1.444-7.823,0.621-16.128,0.177-24.008c-0.101-1.795-2.078-3.242-3.762-2.159
			c-2.706,1.741-3.312,5.393-4.027,8.306c-0.48,1.951-1.111,3.862-1.609,5.812c-0.836,3.27-2.913,5.573-4.345,8.537
			c-2.891,5.983-5.444,12.074-8.687,17.888c-3.008,5.392-6.268,10.564-9.36,15.936c-2.667,4.634-5.194,10.159-6.003,15.459
			c-0.638,4.181,2.057,5.884,4.804,8.383c1.884,1.714,3.194,4.244,5.233,5.74c0.671,0.493,0.868,3,1.405,4.213
			c1.268,2.864,4.856,6.064,8.04,4.341c-1.01-0.13-2.02-0.261-3.029-0.391c2.446,2.019,3.822,5.383,5.349,8.119
			c1.807,3.238,3.446,6.567,5.047,9.911c1.759,3.674,1.827,7.832,2.17,11.809c0.389,4.495,0.748,8.993,1.1,13.491
			c0.294,3.749,0.601,7.485,1.014,11.222c0.361,3.266-0.021,6.561,0.435,9.808c1.043,7.422,3.047,14.957,5.545,22.021
			c2.172,6.143,8.787,10.096,7.125,17.354c-1.761,7.689-6.351,14.755-9.627,21.863c-2.593,5.626-4.875,11.202-5.403,17.426
			c-0.519,6.122,2.043,11.417,5.289,16.379c6.196,9.476,13.823,18.226,19.503,28.002c5.5,9.464,6.747,21.438,13.807,30.035
			c3.27,3.982,6.977,6.702,12.077,7.698c2.453,0.479,4.954,0.591,7.404,1.114c3.813,0.813,7.403,3.23,10.58,5.395
			c3.059,2.084,7.89,5.431,5.833,9.489c-1.361,2.686-2.771,5.275-3.998,8.038c-1.238,2.787-2.822,5.233-4.59,7.705
			c-2.625,3.67-5.696,4.518-9.6,6.346c-5.549,2.599-10.92,6.197-16.153,9.407c-5.057,3.103-8.9,6.844-11.772,12.045
			c-1.971,3.567-4.882,7.356-2.992,11.525c0.219,0.483-10.729,11.448-11.874,12.858c-3.843,4.735-6.351,10.359-8.287,16.099
			c-0.461,1.368-0.521,8.039-1.804,8.414c-2.898,0.849-6.07,1.921-8.379,3.98c-8.054,7.182-13.938,16.204-22.404,23.037
			c-3.208,2.59-6.55,5.021-9.927,7.385c-2.538,1.775-5.773,4.632-8.937,4.949c-5.128,0.515-11.12-3.025-15.795-4.738
			c-4.904-1.797-10.085-2.029-15.24-1.43c-8.882,1.033-17.166,5.523-21.896,13.232c-5.581,9.093-2.834,20.196,1.549,29.097
			c1.39,2.823,3.432,5.056,6.347,6.238c2.599,1.055,5.673-0.101,8.37,0.493c7.777,1.71,8.214,11.214,8.159,17.466
			c-0.062,7.084-1.284,14.118-2.417,21.091c-0.427,2.628-2.246,8.102,1.295,9.358c1.05,0.372,2.284-0.236,2.823-1.149
			c4.3-7.277,8.601-14.555,12.901-21.832c2.13-3.605,2.424-9.359,3.523-13.359c1.973-7.179,3.967-17.156,10.198-21.898
			c3.03-2.306,5.073-4.83,9.173-4.941c4.583-0.124,8.966,0.776,13.557,0.046c7.004-1.115,13.612-4.963,19.64-8.474
			c4.508-2.626,8.883-5.48,13.257-8.32c1.449-0.941,4.406-2.277,5.18-4.014c0.577-1.294,0.499-2.424-0.467-3.5
			c-0.527-0.589-0.007,0.689,0.097,0.249c0.284-0.845,0.617-1.671,1.001-2.478c0.929-2.138,0.744-0.207-1.24-0.312
			c-0.72-0.413-1.439-0.825-2.159-1.238c-0.106-0.396-0.213-0.794-0.319-1.19c0.283,2.828,3.911,3.379,4.911,0.665
			c4.726-12.83,9.441-25.669,13.9-38.594c0.854-2.476,1.44-5.238,2.604-7.588c1.991-4.022,7.259-6.518,11.12-8.357
			c4.196-1.999,6.089-6.17,8.778-9.938c5.37-7.525,10.827-15.188,17.283-21.833c6.178-6.359,14.706-7.731,22.483-11.372
			c3.096-1.449,5.962-3.275,8.872-5.058c2.701-1.654,5.752-2.631,8.374-4.384c4.658-3.115,7.267-8.641,9.327-13.625
			c2.14-5.178,4.813-10.107,4.364-15.79c-0.59-7.459-1.287-14.323-0.325-21.8c1.739-13.512,0.456-28.167,6.906-40.548
			c2.514-4.825,9.165-6.514,10.912-11.876c1.307-4.012,3.59-5.097,7.158-6.708c2.282-1.031,4.213-3.768,5.928-5.493
			c1.991-2.004,3.595-3.864,5.104-6.262c2.269-3.604,4.525-4.623,8.634-4.973c2.489-0.212,4.996-0.122,7.487-0.305
			c2.309-0.169,5.45,0.375,7.63-0.318c2.872-0.915,4.919-2.96,7.687-4.082c3.088-1.251,6.807-1.027,10.077-1.085
			c3.01-0.054,5.875-0.657,8.861-0.88c2.068-0.154,4.155,2.989,6.382,3.337c-0.611-0.804-1.224-1.607-1.835-2.411
			c0.017,0.176,0.034,0.353,0.051,0.528c0.111,1.154,0.689,2.053,1.835,2.411c10.769,3.366,24.346,1.36,32.462-6.945
			c4.088-4.184,7.865-8.557,12.156-12.489c3.634-3.329,5.4-8.601,7.033-13.099c1.791-4.934,4.337-9.54,6.682-14.23
			c1.089-2.177,2.43-4.325,2.759-6.766c0.347-2.577-1.37-4.628-1.599-7.133c-0.489-5.369,7.233-6.787,10.76-8.943
			c4.163-2.545,7.205-7.281,9.87-11.237c2.761-4.099-0.159-7.774-1.719-11.484c-1.219-2.898-0.277-7.262-0.331-10.346
			c-0.068-3.901-0.086-7.813-0.366-11.705c-0.248-3.441-1.341-8.758,2.185-10.775c2.289-1.31,5.24-1.755,7.652-2.868
			c3.125-1.441,6.132-3.083,9.148-4.735c3.242-1.775,6.963-2.984,9.958-5.132c1.711-1.227,2.624-3.2,3.601-4.995
			c1.703-3.134,4.465-5.772,6.911-8.334c1.972-2.065,3.571-3.958,4.826-6.54c1.948-4.01,4.482-6.947,7.678-10.013
			c4.205-4.033,8.253-7.725,10.541-13.175c1.237-2.948,3.558-4.901,4.83-7.747c1.771-3.958,4.009-6.917,6.784-10.239
			c4.357-5.215,7.748-11.054,12.696-15.788c2.896-2.771,6.23-4.545,10.136-5.382c4.434-0.949,8.525,0.645,12.905,0.902
			c6.706,0.394,13.261-0.091,19.5-2.682c3.318-1.378,6.469-3.143,9.7-4.708c1.975-0.957,6.08-0.501,7.4-2.601
			c3.393-5.397,8.11-9.371,10.996-15.209c2.558-5.174,7.757-7.412,10.189-12.709c2.936-6.395,5.895-12.708,10.758-17.906
			c2.232-2.386,4.495-4.202,6.328-6.965c1.987-2.994,3.755-6.267,5.543-9.384c0.844-1.469,0.027-3.146-1.493-3.672
			c-0.073-0.025-0.146-0.051-0.22-0.076c0.582,1.025,1.164,2.05,1.746,3.076c0.323-2.23,4.181-4.39,5.788-5.646
			c2.329-1.819,4.483-3.903,6.68-5.877c4.329-3.892,8.405-7.909,11.794-12.656c1.644-2.304-2.16-5.244-3.927-3.029
			c-0.154,0.206-0.322,0.401-0.503,0.584c1.393,0.811,2.785,1.621,4.179,2.432c0.867-2.295,2.635-3.903,3.283-6.433
			c0.993-3.868,1.555-5.994,4.465-8.975c4.553-4.663,8.59-8.216,11.522-14.205c3.361-6.866,5.998-15.373,6.604-23.033
			c0.191-2.421-0.279-5.321-2.638-6.534c-0.959-0.494-2.653-0.688-3.593-0.035c-2.093,1.456-4.936,2.434-6.771,4.138
			c-2.236,2.075-3.074,4.381-5.974,5.947c-2.99,1.616-5.785,3.693-8.602,5.589c-5.979,4.022-11.79,8.295-17.308,12.931
			c-4.839,4.065-9.349,8.601-13.188,13.624c-4.155,5.437-7.195,11.666-11.057,17.307c-7.31,10.681-19.9,14.435-28.015,24.142
			c-6.715,8.034-7.823,19.319-14.36,27.458c-3.787,4.715-10.098,3.927-15.547,4.165c-6.269,0.273-11.26,3.042-16.364,6.555
			c-2.523,1.736-4.93,3.681-7.287,5.631c-2.944,2.436-6.877,2.9-10.456,3.942c-6.82,1.984-13.686,4.872-20.284,7.505
			c-11.722,4.677-19.128,13.633-24.45,24.856c-0.848,1.788-1.924,4.418-3.571,5.579c-1.112,0.784-3.327,0.961-4.654,1.268
			c-2.569,0.593-5.336,1.19-7.698,2.402c-5.72,2.934-8.319,7.923-11.002,13.458c-3.103,6.402-7.234,11.408-13.104,15.358
			c-2.507,1.688-4.762,3.833-7.125,5.704c-2.883,2.283-4.442,5.153-6.817,7.878c-3.834,4.399-8.938,6.54-11.936,11.81
			c-1.572,2.765-2.396,5.565-4.402,8.127c-0.666,0.85-1.138,1.719-1.57,2.705c-0.929,2.113-3.016,3.504-4.701,5.021
			c-4.673,4.206-9.904,7.496-12.382,13.357c-0.91,2.153-3.718,3.915-5.003,6.005c-1.686,2.742-3.486,5.824-4.585,8.854
			c-5.213,14.384-0.175,30.66-6.704,44.662c-1.286,2.758-3.694,4.698-5.208,7.305c-1.705,2.934-2.451,5.777-4.888,8.339
			c-2.211,2.326-4.984,4.349-7.609,6.166c-3.084,2.134-6.146,2.297-9.423,3.694c-5.994,2.555-11.032,6.44-17.479,8.007
			c-3.789,0.921-6.217-2.165-9.377-3.499c-2.955-1.248-6.216-1.336-9.368-1.158c-11.994,0.676-24.472,6.618-34.006,13.608
			c-21.354,15.657-23.797,41.027-24.422,65.582c-0.241,9.479-0.848,19.007-0.275,28.479c0.465,7.697,1.314,15.495,0.537,23.198
			c-0.109,1.086-0.51,5.33-2.11,5.508c-3.974,0.443-7.973-5.821-9.359-8.663c-1.897-3.886-2.784-7.801-5.662-11.167
			c-3.545-4.147-9.704-5.29-14.843-4.988c-6.901,0.404-12.375,2.365-19.078-0.67c-4.303-1.948-6.451-5.135-6.325-9.814
			c0.113-4.157,1.679-8.366,2.809-12.327c1.428-5.004,2.592-10.021,3.128-15.204c0.515-4.973,0.805-10.466-1.782-14.896
			c-3.192-5.466-9.199-8.757-14.651-11.456c-3.525-1.745-6.461-3.209-6.801-7.546c-0.294-3.743,1.629-6.988,3.911-9.762
			c1.847-2.245,4.106-3.807,6.212-5.747c2.781-2.562,3.863-5.652,7.286-7.783c4.038-2.514,6.395-4.531,5.198-9.644
			c-0.626-2.676-2.277-5.315-3.478-7.755c-1.498-3.043-2.35-6.379-3.961-9.345c-2.949-5.431-12.095-3.614-12.537-11.325
			c-0.415-7.218,0.882-14.146,1.79-21.259c0.953-7.468,0.393-15.081,0.879-22.583c0.377-5.824-0.784-11.621-4.435-16.34
			c-1.722-2.227-3.697-3.547-5.876-5.249c-2.393-1.868-3.806-5.28-5.147-7.913c-1.161-2.279-3.842-3.684-5.468-5.661
			c-2.551-3.102-5.795-5.497-8.93-7.968c-0.831-0.664-1.617-1.376-2.358-2.139C247.326,181.985,243.787,185.517,246.11,187.759z"/>
	</g>
</g>
<g opacity="0.5">
	<path fill="#EBEBE6" d="M246.667,167c-0.529,0.07-0.201,0.808,0.318,1.636"/>
</g>
<path fill="#6ACCE6" d="M339.206,444.332c1.442-9.812-2.931-19.979-8.557-27.811c-1.989-2.769-4.969-6.534-8.316-7.727
	c-4.285-1.527-8.879-1.352-13.361-1.203c-5.015,0.167-10.056,0.47-14.948-0.878c-7.367-2.03-9.353-9.203-8.014-15.931
	c1.646-8.265,7.853-17.708,1.804-25.469c-2.923-3.75-6.73-6.863-8.953-11.105c-2.104-4.015-20.644-10.216-22.511-14.342
	c-2.229-4.924,3.974-11.58,3.808-17.136c-0.145-4.862,9.099-4.847,13.941-6.262c3.73-1.091,7.079-2.4,10.354-4.546
	c3.218-2.107,7.963-4.7,9.223-8.661c1.236-3.888-0.438-7.281-2.575-10.513c-1.134-1.716-2.143-3.07-3.858-4.189
	c-3.28-2.138-6.448-1.933-9.087-5.405c-3.991-5.25-3.221-12.961-3.907-19.156c-0.859-7.761-3.405-15.634-4.317-23.393
	c-0.679-5.775,0.318-11.763-1.429-17.326c-1.833-5.834-4.937-11.333-8.017-16.578c-5.372-9.146-11.908-16.143-18.964-23.959
	c-3.615-4.004-7.47-8.917-7.237-14.599c0.231-5.667,3.7-11.554,6.071-16.542c5.087-10.7,9.587-21.611,13.775-32.7
	c4.892-12.953,4.884-27.016,8.643-40.313c3.651-12.917,9.633-25.019,16.831-36.306c1.74-2.728,3.594-5.382,5.477-8.013
	c0.962-1.345,1.957-2.665,2.952-3.986c1.971-2.619,2.875-0.509,4.629,1.043c4.513,3.996,7.539,9.374,11.226,14.072
	c1.876,2.391,3.845,4.586,6.228,6.483c0.627,0.5,1.512,0.494,1.963-0.253c3.733-6.184,5.578-12.94,6.77-20.02
	c1.225-7.272,2.64-14.967,2.712-22.338c0.046-4.731-0.438-9.384,2.775-13.341c1.854-2.284,4.63-3.641,7.045-5.229
	c3.898-2.562,5.111-6.165,4.869-10.704c-0.085-1.604-2.586-1.612-2.5,0c0.36,6.76-3.788,8.316-8.516,11.746
	c-4.407,3.197-5.984,7.724-6.227,13.004c-0.688,14.983-1.112,32.409-9.086,45.619c0.654-0.084,1.309-0.168,1.963-0.253
	c-8.727-6.95-12.651-18.051-22.253-24.195c-0.427-0.274-1.185-0.229-1.515,0.195c-15.909,20.482-27.456,43.165-31.488,68.963
	c-1.059,6.774-1.65,13.354-3.767,19.923c-2.267,7.037-5.493,13.741-8.067,20.666c-3.69,9.927-9.738,18.99-12.474,29.272
	c-2.403,9.032,4.444,16.473,10.185,22.546c7.94,8.399,14.271,17.055,19.639,27.364c6.743,12.95,6.802,27.761,8.601,41.984
	c0.759,5.996,1.1,12.074,1.955,18.045c0.719,5.018,2.428,9.772,6.56,12.946c1.333,1.024,4.979,0.717,6.538,1.27
	c3.576,1.27,5.217,6.712,6.474,10.154c2.182,5.976-7.23,9.484-11.296,11.902c-5.001,2.975-19.743,3.029-22.087,9.168
	c-3.238,8.482-8.638,13.737-5.077,21.198c1.804,3.781,20.619,9.248,22.43,13.028c1.781,3.717,4.502,6.434,7.25,9.463
	c4.365,4.814,5.076,8.506,3.438,14.716c-1.247,4.725-3.313,9.317-3.815,14.219c-0.873,8.53,4.118,14.908,12.405,16.713
	c8.729,1.9,20.725-2.806,28.2,3.026c8.342,6.509,14.625,20.438,13.075,30.985C336.563,445.244,338.972,445.923,339.206,444.332
	L339.206,444.332z"/>
<path fill="#6ACCE6" d="M166.5,656c-0.848-6.555-0.728-12.949,0.054-19.501c0.847-7.099,2.402-14.195,1.633-21.36
	c-1.356-12.644-8.937-23.537-11.776-35.804c-2.068-8.935,0.409-22.269,10.235-25.37c10.289-3.248,20.405,4.337,25.475,12.513
	c4.108,6.625,12.613,17.814,20.879,17.522c11.043-0.39,15.813-14.062,22.318-22.474c7.428-9.604,11.945-20.911,20.207-29.937
	c8.205-8.964,13.312-11.93,19.475-22.59c2.824-4.884,10.725-14.423,12.918-19.596c2.832-6.68,6.218-10.934,13.223-13.364
	c5.139-1.783,10.317-2.952,14.908-6.007c4.486-2.984,6.125-7.442,7.611-12.368c2.013-6.673,5.88-8.488,12.259-9.626
	c5.601-0.998,11.322-1.433,16.748-3.237c7.693-2.559,12.976-9.688,12.814-17.687c-0.085-4.188-2.997-10.631-3.482-14.781
	c-0.829-7.077,2.634-10.209,5.299-16.701c1.876-4.572,3.029-9.357,1.333-14.176c-1.281-3.639-9.199-8.042-10.631-11.457
	c-3.331-7.943,3.643-15.02,6.303-22.649c3.446-9.886,9.016-21.923,16.031-29.684c5.815-6.434,15.595-13.088,24.667-12.667
	c10.361,0.48,16.111,14.091,26.438,15.702c10.551,1.646,21.335-4.655,29.507-10.586c8.634-6.267,16.757-14.378,21.751-23.895
	c2.579-4.915,0.645-17.874,1.972-23.222c1.696-6.835,6.139-6.919,8.025-13.706c1.446-5.201,3.175-10.167,4.072-15.511
	c0.974-5.798,1.496-11.657,2.634-17.431c1.062-5.395,7.911-9.178,11.602-13.353c4.225-4.779,5.287-8.567,11.105-10.719
	c10.71-3.959,20.22-9.665,30.494-14.565c9.982-4.761,20.758-9.157,29.051-16.675c6.391-5.793,8.796-6.037,11.683-14.041
	c5.391-14.949,6.854-44.724,24-51.333c5.33-2.054,11.901,0,17.509-0.568C641.228,94.452,647.907,90.994,654,89
	c11.172-3.656,21.127-7.715,30.347-14.945C704.621,58.156,719.991,33.416,735,12.667c21.462-29.668,40.554-58.958,48.411-95.002
	c0.685-3.143-4.136-4.479-4.822-1.329c-6.3,28.902-19.482,55.58-35.379,80.35c-14.662,22.844-31.541,45.357-51.194,64.17
	c-9.108,8.719-19.307,16.213-30.685,21.69c-5.688,2.738-11.725,4.679-17.864,6.103c-6.474,1.502-13.085,1.559-19.617,2.603
	c-8.091,1.292-15.803,5.195-20.742,11.85c-4.642,6.253-6.811,13.835-8.822,21.25c-2.293,8.451-4.506,16.895-9.085,24.452
	c-5.704,9.414-14.841,14.669-24.425,19.462c-5.254,2.627-10.607,5.051-15.882,7.637c-5.157,2.529-9.94,5.765-15.163,8.132
	c-10.204,4.626-16.542,8.036-23.843,17.322c-6.54,8.32-12.814,25.923-14.222,35.978c-1.68,11.995-9.819,16.894-12.666,28.667
	c-1.445,5.975,2.066,12.132-0.622,17.698c-2.521,5.216-6.466,9.712-10.472,13.831c-8.241,8.474-19.671,17.113-31.804,18.366
	c-10.756,1.11-19.158-8.829-28.914-11.767c-7.869-2.369-16.081,0.948-22.443,5.503c-15.084,10.798-25.391,30.471-28.439,48.492
	c-1.144,6.76-1.783,16.596,3.888,21.607c1.132,1.001,2.583,1.619,3.472,2.882c1.729,2.456,0.681,6.33-0.13,8.893
	c-1.927,6.087-5.104,11.316-5.02,17.892c0.099,7.729,5.288,20.927-0.184,27.604c-7.171,8.75-20.729,4.442-30.423,7.841
	c-4.025,1.411-6.831,5.169-8.243,9.068C318.74,456.473,317.12,463.51,316,466c-1.646,3.661-4.603,1.273-8.142,2.643
	c-4.995,1.933-10.208,2.915-14.908,5.594c-4.677,2.666-7.251,7.924-9.349,12.645c-2.301,5.178-4.018,10.584-6.68,15.602
	c-3.123,5.886-9.032,10.558-13.886,14.992c-9.538,8.713-18.57,14.299-25.035,25.525c-5.833,10.129-11.19,24.124-22.923,27.929
	c-4.347,1.409-10.223,2.196-14.051-0.885c-2.884-2.321-4.519-6.13-6.552-9.143c-9.308-13.794-33.93-18.617-41.199-0.394
	c-5.84,14.64,0.882,28.367,6.298,41.912c3.546,8.87,4.21,16.912,3.018,26.337c-1.162,9.188-2.29,17.976-1.09,27.243
	C161.908,659.151,166.913,659.191,166.5,656L166.5,656z"/>
<radialGradient id="SVGID_1_" cx="467.248" cy="286.458" r="345.2001" gradientUnits="userSpaceOnUse">
	<stop  offset="0" style="stop-color:#2484C6"/>
	<stop  offset="1" style="stop-color:#2484C6;stop-opacity:0"/>
</radialGradient>
<path fill="url(#SVGID_1_)" d="M166.5,656c-0.848-6.555-0.728-12.949,0.054-19.501c0.847-7.099,2.402-14.195,1.633-21.36
	c-1.356-12.644-8.937-23.537-11.776-35.804c-2.068-8.935,0.409-22.269,10.235-25.37c10.289-3.248,20.405,4.337,25.475,12.513
	c4.108,6.625,12.613,17.814,20.879,17.522c11.043-0.39,15.813-14.062,22.318-22.474c7.428-9.604,11.945-20.911,20.207-29.937
	c8.205-8.964,13.312-11.93,19.475-22.59c2.824-4.884,10.725-14.423,12.918-19.596c2.832-6.68,6.218-10.934,13.223-13.364
	c5.139-1.783,10.317-2.952,14.908-6.007c4.486-2.984,6.125-7.442,7.611-12.368c2.013-6.673,5.88-8.488,12.259-9.626
	c5.601-0.998,11.322-1.433,16.748-3.237c7.693-2.559,12.976-9.688,12.814-17.687c-0.085-4.188-2.997-10.631-3.482-14.781
	c-0.829-7.077,2.634-10.209,5.299-16.701c1.876-4.572,3.029-9.357,1.333-14.176c-1.281-3.639-9.199-8.042-10.631-11.457
	c-3.331-7.943,3.643-15.02,6.303-22.649c3.446-9.886,9.016-21.923,16.031-29.684c5.815-6.434,15.595-13.088,24.667-12.667
	c10.361,0.48,16.111,14.091,26.438,15.702c10.551,1.646,21.335-4.655,29.507-10.586c8.634-6.267,16.757-14.378,21.751-23.895
	c2.579-4.915,0.645-17.874,1.972-23.222c1.696-6.835,6.139-6.919,8.025-13.706c1.446-5.201,3.175-10.167,4.072-15.511
	c0.974-5.798,1.496-11.657,2.634-17.431c1.062-5.395,7.911-9.178,11.602-13.353c4.225-4.779,5.287-8.567,11.105-10.719
	c10.71-3.959,20.22-9.665,30.494-14.565c9.982-4.761,20.758-9.157,29.051-16.675c6.391-5.793,8.796-6.037,11.683-14.041
	c5.391-14.949,6.854-44.724,24-51.333c5.33-2.054,11.901,0,17.509-0.568C641.228,94.452,647.907,90.994,654,89
	c11.172-3.656,21.127-7.715,30.347-14.945C704.621,58.156,719.991,33.416,735,12.667c21.462-29.668,40.554-58.958,48.411-95.002
	c0.685-3.143-4.136-4.479-4.822-1.329c-6.3,28.902-19.482,55.58-35.379,80.35c-14.662,22.844-31.541,45.357-51.194,64.17
	c-9.108,8.719-19.307,16.213-30.685,21.69c-5.688,2.738-11.725,4.679-17.864,6.103c-6.474,1.502-13.085,1.559-19.617,2.603
	c-8.091,1.292-15.803,5.195-20.742,11.85c-4.642,6.253-6.811,13.835-8.822,21.25c-2.293,8.451-4.506,16.895-9.085,24.452
	c-5.704,9.414-14.841,14.669-24.425,19.462c-5.254,2.627-10.607,5.051-15.882,7.637c-5.157,2.529-9.94,5.765-15.163,8.132
	c-10.204,4.626-16.542,8.036-23.843,17.322c-6.54,8.32-12.814,25.923-14.222,35.978c-1.68,11.995-9.819,16.894-12.666,28.667
	c-1.445,5.975,2.066,12.132-0.622,17.698c-2.521,5.216-6.466,9.712-10.472,13.831c-8.241,8.474-19.671,17.113-31.804,18.366
	c-10.756,1.11-19.158-8.829-28.914-11.767c-7.869-2.369-16.081,0.948-22.443,5.503c-15.084,10.798-25.391,30.471-28.439,48.492
	c-1.144,6.76-1.783,16.596,3.888,21.607c1.132,1.001,2.583,1.619,3.472,2.882c1.729,2.456,0.681,6.33-0.13,8.893
	c-1.927,6.087-5.104,11.316-5.02,17.892c0.099,7.729,5.288,20.927-0.184,27.604c-7.171,8.75-20.729,4.442-30.423,7.841
	c-4.025,1.411-6.831,5.169-8.243,9.068C318.74,456.473,317.12,463.51,316,466c-1.646,3.661-4.603,1.273-8.142,2.643
	c-4.995,1.933-10.208,2.915-14.908,5.594c-4.677,2.666-7.251,7.924-9.349,12.645c-2.301,5.178-4.018,10.584-6.68,15.602
	c-3.123,5.886-9.032,10.558-13.886,14.992c-9.538,8.713-18.57,14.299-25.035,25.525c-5.833,10.129-11.19,24.124-22.923,27.929
	c-4.347,1.409-10.223,2.196-14.051-0.885c-2.884-2.321-4.519-6.13-6.552-9.143c-9.308-13.794-33.93-18.617-41.199-0.394
	c-5.84,14.64,0.882,28.367,6.298,41.912c3.546,8.87,4.21,16.912,3.018,26.337c-1.162,9.188-2.29,17.976-1.09,27.243
	C161.908,659.151,166.913,659.191,166.5,656L166.5,656z"/>
<radialGradient id="SVGID_2_" cx="285.6553" cy="212.0166" r="168.2751" gradientUnits="userSpaceOnUse">
	<stop  offset="0" style="stop-color:#2484C6"/>
	<stop  offset="1" style="stop-color:#2484C6;stop-opacity:0"/>
</radialGradient>
<path fill="url(#SVGID_2_)" d="M339.206,444.332c1.442-9.812-2.931-19.979-8.557-27.811c-1.989-2.769-4.969-6.534-8.316-7.727
	c-4.285-1.527-8.879-1.352-13.361-1.203c-5.015,0.167-10.056,0.47-14.948-0.878c-7.367-2.03-9.353-9.203-8.014-15.931
	c1.646-8.265,7.853-17.708,1.804-25.469c-2.923-3.75-6.73-6.863-8.953-11.105c-2.104-4.015-20.644-10.216-22.511-14.342
	c-2.229-4.924,3.974-11.58,3.808-17.136c-0.145-4.862,9.099-4.847,13.941-6.262c3.73-1.091,7.079-2.4,10.354-4.546
	c3.218-2.107,7.963-4.7,9.223-8.661c1.236-3.888-0.438-7.281-2.575-10.513c-1.134-1.716-2.143-3.07-3.858-4.189
	c-3.28-2.138-6.448-1.933-9.087-5.405c-3.991-5.25-3.221-12.961-3.907-19.156c-0.859-7.761-3.405-15.634-4.317-23.393
	c-0.679-5.775,0.318-11.763-1.429-17.326c-1.833-5.834-4.937-11.333-8.017-16.578c-5.372-9.146-11.908-16.143-18.964-23.959
	c-3.615-4.004-7.47-8.917-7.237-14.599c0.231-5.667,3.7-11.554,6.071-16.542c5.087-10.7,9.587-21.611,13.775-32.7
	c4.892-12.953,4.884-27.016,8.643-40.313c3.651-12.917,9.633-25.019,16.831-36.306c1.74-2.728,3.594-5.382,5.477-8.013
	c0.962-1.345,1.957-2.665,2.952-3.986c1.971-2.619,2.875-0.509,4.629,1.043c4.513,3.996,7.539,9.374,11.226,14.072
	c1.876,2.391,3.845,4.586,6.228,6.483c0.627,0.5,1.512,0.494,1.963-0.253c3.733-6.184,5.578-12.94,6.77-20.02
	c1.225-7.272,2.64-14.967,2.712-22.338c0.046-4.731-0.438-9.384,2.775-13.341c1.854-2.284,4.63-3.641,7.045-5.229
	c3.898-2.562,5.111-6.165,4.869-10.704c-0.085-1.604-2.586-1.612-2.5,0c0.36,6.76-3.788,8.316-8.516,11.746
	c-4.407,3.197-5.984,7.724-6.227,13.004c-0.688,14.983-1.112,32.409-9.086,45.619c0.654-0.084,1.309-0.168,1.963-0.253
	c-8.727-6.95-12.651-18.051-22.253-24.195c-0.427-0.274-1.185-0.229-1.515,0.195c-15.909,20.482-27.456,43.165-31.488,68.963
	c-1.059,6.774-1.65,13.354-3.767,19.923c-2.267,7.037-5.493,13.741-8.067,20.666c-3.69,9.927-9.738,18.99-12.474,29.272
	c-2.403,9.032,4.444,16.473,10.185,22.546c7.94,8.399,14.271,17.055,19.639,27.364c6.743,12.95,6.802,27.761,8.601,41.984
	c0.759,5.996,1.1,12.074,1.955,18.045c0.719,5.018,2.428,9.772,6.56,12.946c1.333,1.024,4.979,0.717,6.538,1.27
	c3.576,1.27,5.217,6.712,6.474,10.154c2.182,5.976-7.23,9.484-11.296,11.902c-5.001,2.975-19.743,3.029-22.087,9.168
	c-3.238,8.482-8.638,13.737-5.077,21.198c1.804,3.781,20.619,9.248,22.43,13.028c1.781,3.717,4.502,6.434,7.25,9.463
	c4.365,4.814,5.076,8.506,3.438,14.716c-1.247,4.725-3.313,9.317-3.815,14.219c-0.873,8.53,4.118,14.908,12.405,16.713
	c8.729,1.9,20.725-2.806,28.2,3.026c8.342,6.509,14.625,20.438,13.075,30.985C336.563,445.244,338.972,445.923,339.206,444.332
	L339.206,444.332z"/>
<g>
	<g>
		<path d="M236.238,260.107c-4.065-6.929-7.778-14.088-11.162-21.372c-2.454-5.281-4.696-10.736-6.017-16.422
			c-1.061-4.572,0.577-8.811,1.847-13.192c3.455-11.921,8.692-25.287,6.501-37.88c-1.08-6.205-7.203-11.216-11.394-15.419
			c-3.633-3.644-7.439-7.143-11.362-10.474c-3.663-3.11-8.995,2.168-5.304,5.304c3.562,3.025,6.99,6.212,10.342,9.467
			c4.572,4.441,10.453,8.996,10.723,15.767c0.499,12.481-5.271,25.119-8.337,37.014c-2.565,9.949,2.032,19.655,6.062,28.611
			c3.444,7.654,7.376,15.142,11.625,22.381C232.208,268.06,238.691,264.288,236.238,260.107L236.238,260.107z"/>
	</g>
</g>
<g>
	<g>
		<path fill="#A7A9AC" d="M235.159,260.738c-4.066-6.929-7.778-14.088-11.162-21.372c-2.499-5.377-4.798-10.931-6.143-16.721
			c-1.121-4.826,0.506-9.231,1.847-13.856c3.379-11.658,8.646-24.89,6.501-37.216c-1.042-5.989-7.035-10.818-11.072-14.867
			c-3.633-3.644-7.44-7.143-11.362-10.474c-2.442-2.074-5.997,1.445-3.535,3.535c3.562,3.025,6.989,6.212,10.341,9.468
			c4.859,4.72,10.803,9.47,11.089,16.65c0.503,12.6-5.287,25.339-8.382,37.347c-2.471,9.586,2.054,19.021,5.937,27.648
			c3.444,7.654,7.375,15.142,11.624,22.381C232.472,266.04,236.794,263.525,235.159,260.738L235.159,260.738z"/>
	</g>
</g>
<g>
</g>
<g>
	<g>
		<path d="M119.303,660.304c3.441-3.828,4.583-10.363,6.039-15.14c3.125-10.25,6.005-20.576,8.859-30.904
			c8.931-32.316,17.301-64.791,25.325-97.344c8.898-36.098,17.367-72.323,24.675-108.78c3.008-15.005,5.807-30.061,8.048-45.2
			c1.784-12.056,2.349-24.077,3.626-36.155c3.633-34.351,41.682-53.927,69.384-66.535c24.912-11.338,50.9-19.624,74.637-33.4
			c52.281-30.345,106.107-58.171,159.267-86.929c31.272-16.918,62.54-33.848,93.685-51c19.785-10.896,39.828-21.559,58.987-33.541
			c17.754-11.103,35.312-22.932,51.937-35.66c20.486-15.685,40.787-34.057,51.705-57.93c3.993-8.729-8.933-16.358-12.951-7.57
			c-10.076,22.03-28.607,38.984-47.54,53.479c-16.129,12.348-33.24,23.703-50.418,34.539
			c-18.945,11.951-38.867,22.476-58.474,33.281c-62.774,34.596-126.003,68.362-188.982,102.583
			c-21.546,11.708-43.18,23.303-64.411,35.579c-8.347,4.826-17.229,9.693-25.623,13.208c-16.095,6.741-32.455,12.812-48.383,19.954
			c-31.279,14.026-66.713,34.411-76.095,69.994c-1.838,6.973-1.914,14.103-2.421,21.235c-0.179,2.521-0.421,5.036-0.686,7.549
			c-0.145,1.373-0.304,2.745-0.468,4.116c-0.112,0.941-0.578,4.57-0.478,3.826c-1.971,14.632-4.625,29.172-7.442,43.661
			c-13.567,69.789-31.09,138.955-49.845,207.514c-3.075,11.239-6.201,22.468-9.535,33.633c-1.013,3.395-2.045,6.785-3.167,10.145
			c-0.333,0.997-0.678,1.99-1.056,2.971c-0.586,1.518,0.839-1.886,0.347-0.818c-0.363,0.788-1.038,1.133,0.849-0.967
			C102.251,656.868,112.824,667.512,119.303,660.304L119.303,660.304z"/>
	</g>
</g>
<g>
	<g>
		<path fill="#FAA21B" d="M117.536,658.535c3.099-3.447,4.092-9.762,5.395-14.036c3.125-10.25,6.005-20.576,8.859-30.904
			c8.931-32.316,17.301-64.791,25.325-97.343c8.897-36.099,17.367-72.324,24.675-108.78c3.008-15.005,5.807-30.062,8.048-45.201
			c1.751-11.83,2.283-23.637,3.537-35.49c3.75-35.454,41.863-55.604,70.623-68.693c24.913-11.338,50.901-19.624,74.637-33.4
			c52.281-30.345,106.107-58.171,159.267-86.929c31.272-16.918,62.54-33.848,93.685-51c19.785-10.896,39.828-21.559,58.987-33.541
			c17.753-11.103,35.312-22.932,51.937-35.66c20.156-15.432,40.07-33.555,50.809-57.033c2.661-5.819-5.955-10.905-8.635-5.047
			C734.427-22.1,715.508-4.894,696.246,9.853c-16.129,12.348-33.24,23.703-50.418,34.539
			c-18.945,11.951-38.867,22.476-58.474,33.281c-62.774,34.596-126.003,68.362-188.981,102.583
			c-21.546,11.708-43.18,23.303-64.411,35.579c-8.575,4.958-17.05,9.62-26.22,13.46c-15.896,6.657-32.055,12.648-47.786,19.702
			c-30.634,13.737-65.743,33.592-74.946,68.5c-3.1,11.757-2.428,24.668-4.053,36.726c-1.971,14.632-4.625,29.173-7.442,43.662
			c-13.566,69.789-31.09,138.954-49.845,207.513c-3.075,11.239-6.201,22.468-9.535,33.634c-1.013,3.394-2.045,6.784-3.167,10.145
			c-0.333,0.996-0.677,1.99-1.056,2.971c-0.487,1.262,0.474-1.043,0.095-0.221c-0.269,0.582-0.801,0.939,0.458-0.461
			C106.167,656.245,113.216,663.341,117.536,658.535L117.536,658.535z"/>
	</g>
</g>
<g>
	<g>
		<path fill="#ED1C24" d="M115.768,656.768c2.753-3.062,3.603-9.16,4.752-12.933c3.125-10.251,6.005-20.576,8.859-30.904
			c8.93-32.316,17.301-64.791,25.325-97.344c8.897-36.099,17.367-72.323,24.675-108.78c3.008-15.005,5.807-30.061,8.047-45.201
			c1.718-11.605,2.218-23.195,3.448-34.825c3.865-36.543,42.056-57.288,71.861-70.852c24.915-11.339,50.902-19.624,74.637-33.4
			c52.281-30.345,106.107-58.171,159.267-86.929c31.272-16.918,62.54-33.848,93.685-51c19.785-10.896,39.828-21.559,58.987-33.541
			c17.753-11.103,35.312-22.932,51.937-35.66c19.827-15.18,39.354-33.052,49.911-56.136c1.331-2.91-2.978-5.453-4.316-2.523
			c-10.437,22.818-29.743,40.274-49.334,55.273c-16.129,12.348-33.24,23.703-50.418,34.539
			c-18.945,11.951-38.867,22.476-58.474,33.281c-62.774,34.596-126.003,68.362-188.981,102.583
			c-21.546,11.708-43.18,23.303-64.411,35.579c-8.767,5.069-17.442,9.786-26.817,13.712c-15.696,6.574-31.655,12.485-47.189,19.45
			c-29.986,13.446-64.772,32.777-73.797,67.005c-3.093,11.732-2.431,24.688-4.053,36.727c-1.971,14.632-4.625,29.172-7.442,43.661
			c-13.566,69.789-31.089,138.955-49.845,207.514c-3.075,11.239-6.201,22.468-9.535,33.633c-1.013,3.395-2.045,6.785-3.167,10.145
			c-0.333,0.997-0.678,1.99-1.057,2.972c-0.071,0.184-0.603,0.991-0.09,0.421C110.083,655.623,113.608,659.171,115.768,656.768
			L115.768,656.768z"/>
	</g>
</g>
<g>
	<path fill="none" d="M312.508,213.98c0,0,167.592-90.091,176.75-92.521C498.416,119.029,545.996,91.14,553,87"/>
	<path d="M348.212,180.646l5.981,11.186l-0.547,0.292l-11.755-5.692l4.529,8.468l1.34-0.716l0.349,0.652l-3.562,1.905l-0.349-0.652
		l1.34-0.718l-5.169-9.667l-0.835-0.416l-1.217,0.651l-0.349-0.652l2.558-1.369l11.192,5.404l-4.386-8.203l-1.341,0.717
		l-0.349-0.653l3.546-1.896l0.349,0.652L348.212,180.646z"/>
	<path d="M360.493,188.519c-2.135,1.139-4.872,0.173-6.115-2.156c-1.242-2.33-0.52-5.141,1.616-6.279
		c2.135-1.14,4.872-0.174,6.114,2.155S362.629,187.38,360.493,188.519z M356.389,180.823c-1.323,0.706-1.537,2.77-0.493,4.729
		c1.036,1.941,2.879,2.932,4.202,2.225c1.324-0.705,1.555-2.778,0.51-4.737C359.564,181.081,357.713,180.118,356.389,180.823z"/>
	<path d="M367.068,176.576c-0.531-0.146-0.863-0.175-1.04-0.079c-0.317,0.168-0.476,0.639-0.815,2.338l2.504,4.695l1.694-0.903
		l0.349,0.652l-4.36,2.325l-0.348-0.654l1.342-0.715l-3.39-6.353l-1.535,0.818l-0.255-0.477l2.175-2.044l0.317-0.169l1.055,1.976
		c0.405-2.301,0.657-2.934,1.292-3.271c0.211-0.113,0.417-0.155,0.579-0.105l0.801,0.185L367.068,176.576z"/>
	<path d="M374.903,180.747c-1.024,0.545-1.98,0.237-2.554-0.838l-2.902-5.457l-1.537,0.817l-0.253-0.476l1.33-1.207l-1.296-2.436
		l1.271-0.677l1.325,2.489l2.189-1.164l0.432,0.811l-2.189,1.166l2.818,5.297c0.357,0.671,0.718,0.796,1.3,0.485
		c0.371-0.197,0.563-0.39,0.976-1.062l0.553,0.318C375.825,180.053,375.556,180.399,374.903,180.747z"/>
	<path d="M382.413,176.544l-0.347-0.652l1.342-0.714l-2.752-5.174c-0.498-0.937-1.285-1.265-2.062-0.852s-1.022,0.974-1.619,3.557
		l2.442,4.591l1.324-0.705l0.348,0.653l-3.99,2.123l-0.348-0.653l1.342-0.713l-5.955-11.195l-1.554,0.827l-0.254-0.477l2.177-2.042
		l0.335-0.178l3.626,6.815c0.507-2.241,1.013-3.122,2.125-3.713c1.306-0.695,2.569-0.28,3.293,1.08l2.846,5.35l1.342-0.713
		l0.348,0.652L382.413,176.544z"/>
	<path d="M386.416,168.621l0.104,0.194c1.171,2.208,3.152,3.126,4.831,2.236c0.706-0.376,1.089-0.806,1.741-1.966l0.683,0.476
		c-0.921,1.462-1.428,2.002-2.452,2.546c-2.244,1.19-4.751,0.302-6.044-2.136c-1.312-2.473-0.662-5.127,1.529-6.289
		c1.908-1.012,3.909-0.399,4.921,1.509l0.253,0.478L386.416,168.621z M389.931,165.307c-0.562-1.06-1.689-1.436-2.714-0.892
		c-1.29,0.684-1.731,2.028-1.16,3.49l4.098-2.175L389.931,165.307z"/>
	<path d="M401.491,166.459c-0.192,0.192-0.411,0.376-0.553,0.451c-0.548,0.291-1.072,0.071-1.418-0.583l-0.094-0.176
		c-0.255,1.312-0.729,2.039-1.666,2.535c-1.218,0.647-2.569,0.277-3.198-0.906c-0.478-0.901-0.289-1.952,0.457-2.596l2.655-2.292
		l-1.059-1.995c-0.375-0.707-1.177-0.938-1.883-0.564c-0.354,0.188-0.555,0.363-0.936,0.883l0.449,0.848l-1.329,1.293
		c-0.236-0.146-0.3-0.226-0.403-0.42c-0.543-1.023,0.237-2.411,1.844-3.265c1.555-0.825,2.992-0.591,3.61,0.575l2.887,5.44
		l1.359-0.722l0.263,0.494L401.491,166.459z M398.049,163.6l-2.646,2.31l0.469,0.883c0.394,0.742,1.123,0.965,1.865,0.571
		c0.565-0.3,0.894-0.791,1.305-1.892L398.049,163.6z"/>
	<path d="M407.02,163.783c-0.99,0.523-1.854,0.687-2.619,0.48l0.337,0.637l-0.707,0.374l-1.328-2.509l0.813-0.431l0.253,0.477
		c0.401,0.76,1.747,0.908,2.843,0.328c0.972-0.514,1.424-1.41,1.05-2.117s-1.074-0.834-3.313-0.576
		c-2.043,0.244-2.989-0.092-3.579-1.205c-0.729-1.379-0.112-2.904,1.514-3.766c0.778-0.411,1.481-0.534,2.192-0.39l-0.231-0.692
		l0.76-0.402l0.923,2.77l-0.761,0.402c-0.032-0.232-0.117-0.48-0.202-0.64c-0.365-0.689-1.459-0.834-2.414-0.329
		c-0.918,0.487-1.257,1.3-0.856,2.06c0.402,0.76,0.573,0.782,3.17,0.517c2.097-0.227,2.953,0.065,3.551,1.197
		C409.165,161.382,408.592,162.951,407.02,163.783z"/>
	<path d="M413.873,160.069c-1.025,0.541-1.98,0.232-2.551-0.847l-2.888-5.466l-1.539,0.813l-0.252-0.478l1.333-1.202l-1.29-2.44
		l1.274-0.673l1.317,2.493l2.193-1.158l0.429,0.813l-2.192,1.159l2.804,5.306c0.355,0.671,0.715,0.798,1.3,0.489
		c0.371-0.196,0.563-0.389,0.978-1.061l0.553,0.319C414.798,159.377,414.528,159.724,413.873,160.069z"/>
	<path d="M421.336,155.925l-0.345-0.654l1.328-0.699l-5.465-10.369l-1.327,0.699l-0.345-0.654l7.06-3.721l-0.261-0.495l0.814-0.43
		l1.482,2.813l-0.796,0.42l-0.793-1.504l-4.193,2.21l2.388,4.53l3.343-1.764l-0.709-1.345l0.814-0.429l1.847,3.503l-0.813,0.43
		l-0.719-1.362l-3.344,1.762l2.499,4.742l4.354-2.294l-0.82-1.558l0.814-0.428l1.239,2.353L421.336,155.925z"/>
	<path d="M436.373,148.021l-0.344-0.654l1.328-0.697l-2.721-5.188c-0.492-0.938-1.277-1.272-2.056-0.863
		c-0.761,0.399-1.026,0.968-1.64,3.546l2.414,4.604l1.346-0.706l0.344,0.656l-4.02,2.107l-0.344-0.656l1.346-0.705l-3.343-6.375
		l-1.54,0.808l-0.252-0.478l2.189-2.027l0.318-0.168l1.039,1.984c0.521-2.238,1.031-3.115,2.164-3.71
		c1.312-0.687,2.572-0.264,3.287,1.1l2.812,5.366l1.328-0.696l0.344,0.654L436.373,148.021z"/>
	<path d="M444.157,144.152c-1.028,0.537-1.981,0.224-2.547-0.858l-2.86-5.479l-1.543,0.806l-0.25-0.479l1.34-1.196l-1.279-2.447
		l1.277-0.666l1.305,2.5l2.199-1.147l0.426,0.815l-2.197,1.148l2.777,5.318c0.352,0.674,0.711,0.801,1.297,0.496
		c0.371-0.194,0.564-0.386,0.982-1.055l0.551,0.32C445.084,143.466,444.813,143.81,444.157,144.152z"/>
	<path d="M448.346,133.668c-0.531-0.152-0.861-0.183-1.041-0.091c-0.318,0.166-0.48,0.635-0.838,2.331l2.458,4.719l1.702-0.888
		l0.344,0.656l-4.381,2.283l-0.342-0.657l1.346-0.702l-3.324-6.385l-1.543,0.803l-0.25-0.478l2.193-2.023l0.32-0.166l1.034,1.986
		c0.427-2.297,0.685-2.927,1.323-3.26c0.213-0.11,0.418-0.149,0.58-0.1l0.799,0.193L448.346,133.668z"/>
	<path d="M459.289,136.132c-0.195,0.19-0.416,0.373-0.557,0.446c-0.551,0.285-1.074,0.06-1.414-0.598l-0.092-0.178
		c-0.268,1.31-0.75,2.032-1.691,2.52c-1.227,0.634-2.574,0.25-3.189-0.94c-0.469-0.906-0.268-1.955,0.482-2.592l2.682-2.265
		l-1.039-2.009c-0.369-0.71-1.168-0.949-1.879-0.582c-0.355,0.185-0.559,0.357-0.945,0.872l0.441,0.854l-1.342,1.28
		c-0.234-0.149-0.299-0.229-0.399-0.425c-0.534-1.03,0.261-2.41,1.878-3.246c1.563-0.81,2.998-0.562,3.605,0.612l2.83,5.471
		l1.369-0.707l0.258,0.498L459.289,136.132z M455.877,133.235l-2.672,2.283l0.461,0.888c0.386,0.747,1.113,0.979,1.859,0.593
		c0.568-0.295,0.902-0.783,1.324-1.88L455.877,133.235z"/>
	<path d="M466.771,132.242l-0.338-0.658l1.334-0.683l-2.668-5.215c-0.484-0.943-1.266-1.285-2.048-0.884
		c-0.766,0.392-1.036,0.958-1.675,3.53l2.369,4.627l1.354-0.693l0.336,0.659l-4.039,2.068l-0.338-0.658l1.354-0.692l-3.28-6.407
		l-1.548,0.793l-0.246-0.481l2.207-2.006l0.32-0.164l1.02,1.994c0.543-2.232,1.062-3.104,2.201-3.688
		c1.316-0.674,2.572-0.239,3.273,1.131l2.762,5.393l1.334-0.683l0.338,0.658L466.771,132.242z"/>
	<path d="M475.893,127.913c-2.502,1.256-4.9,0.447-6.166-2.072c-1.301-2.591-0.412-5.32,2.143-6.604
		c0.93-0.467,1.537-0.548,2.791-0.372l-0.426,1.557c-0.949-0.328-1.191-0.363-2.131-0.451c-0.947,0.564-1.232,0.932-1.463,1.943
		c-0.203,0.931-0.096,1.86,0.363,2.771c1.006,2.002,3.207,2.954,4.869,2.119c0.572-0.287,0.947-0.654,1.678-1.648l0.699,0.5
		C477.42,126.944,477.02,127.348,475.893,127.913z"/>
	<path d="M478.611,120.556l0.096,0.198c1.081,2.254,3.023,3.251,4.736,2.429c0.721-0.348,1.121-0.761,1.819-1.894l0.661,0.501
		c-0.979,1.425-1.506,1.944-2.551,2.445c-2.289,1.1-4.76,0.113-5.955-2.375c-1.211-2.523-0.455-5.149,1.781-6.224
		c1.947-0.934,3.922-0.241,4.855,1.706l0.234,0.486L478.611,120.556z M482.258,117.386c-0.52-1.082-1.631-1.502-2.676-1
		c-1.317,0.632-1.812,1.957-1.299,3.44l4.182-2.008L482.258,117.386z"/>
	<path d="M502.5,115.403c-1.057,0.523-1.309,0.514-2.371-0.143l-4.776-2.926l-1.399,0.693l2.302,4.643l1.345-0.666l0.328,0.663
		l-4.266,2.115l-0.33-0.664l1.346-0.666l-5.207-10.506l-1.344,0.666l-0.33-0.663l4.984-2.47c1.74-0.862,2.966-0.866,4.055-0.021
		c0.473,0.369,0.865,0.845,1.149,1.418c0.86,1.739,0.443,3.331-1.153,4.434l4.555,2.701c0.759,0.45,1.152,0.523,1.6,0.301
		l0.701-0.346l0.337,0.681L502.5,115.403z M492.814,106.492l-1.686,0.835l2.416,4.876l1.721-0.853
		c1.363-0.676,1.816-2.15,1.088-3.62C495.588,106.188,494.32,105.745,492.814,106.492z"/>
	<path d="M508.405,112.53c-2.134,1.145-4.874,0.184-6.122-2.145c-1.246-2.328-0.529-5.141,1.604-6.285s4.873-0.184,6.121,2.145
		S510.539,111.387,508.405,112.53z M504.283,104.841c-1.322,0.71-1.532,2.774-0.482,4.732c1.039,1.939,2.885,2.925,4.207,2.217
		c1.322-0.71,1.551-2.784,0.5-4.741C507.459,105.091,505.605,104.133,504.283,104.841z"/>
	<path d="M519.201,106.374c-0.189,0.195-0.406,0.384-0.545,0.461c-0.543,0.3-1.071,0.09-1.43-0.558l-0.097-0.175
		c-0.231,1.315-0.692,2.051-1.621,2.564c-1.208,0.668-2.564,0.322-3.213-0.852c-0.495-0.893-0.323-1.946,0.411-2.604l2.615-2.339
		l-1.094-1.978c-0.389-0.7-1.193-0.917-1.895-0.529c-0.35,0.193-0.548,0.371-0.92,0.897l0.465,0.84l-1.307,1.316
		c-0.238-0.142-0.305-0.22-0.41-0.412c-0.562-1.016,0.193-2.417,1.787-3.298c1.541-0.852,2.982-0.643,3.619,0.512l2.982,5.391
		l1.348-0.745l0.271,0.49L519.201,106.374z M515.709,103.573l-2.605,2.355l0.484,0.876c0.406,0.734,1.141,0.945,1.875,0.539
		c0.561-0.31,0.879-0.807,1.271-1.915L515.709,103.573z"/>
	<path d="M527.375,101.968l-0.332,0.187l-0.688-1.219c-0.417,1.498-0.85,2.155-1.738,2.656c-1.811,1.021-4.23,0.067-5.488-2.162
		c-1.354-2.402-0.6-5.377,1.682-6.664c0.594-0.333,0.955-0.423,1.812-0.448l-2.268-4.022l-1.516,0.854l-0.264-0.471l2.123-2.094
		l0.332-0.186l6.688,11.859l1.516-0.854l0.274,0.487L527.375,101.968z M523.605,96.059c-0.607-1.079-1.162-1.249-2.189-0.669
		c-1.689,0.953-2.066,2.932-0.936,4.935c1.1,1.95,2.609,2.636,4.039,1.831c0.539-0.305,0.742-0.557,1.086-1.37l0.279-0.686
		L523.605,96.059z"/>
</g>
<g>
	<path fill="#ED1C24" d="M103.161,560.341c-1.38,0-2.621-0.74-2.621-2.24v-5.341h-1.38v-1.761l1.38-0.24v-2.641h3.861v2.561h2.221
		v2.081h-2.221v3.761c0,0.7,0.26,0.9,0.58,0.9c0.2,0,0.6-0.32,1.021-0.601l0.94,2.141
		C105.682,559.721,104.722,560.341,103.161,560.341z"/>
	<path fill="#ED1C24" d="M112.341,560.341c-2.78,0-5.281-1.72-5.281-5.001c0-3.221,2.501-5.001,5.281-5.001
		c2.781,0,5.281,1.78,5.281,5.001C117.623,558.721,115.122,560.341,112.341,560.341z M112.341,553.039c-0.72,0-1.2,0.841-1.2,2.301
		c0,1.48,0.48,2.301,1.2,2.301c0.74,0,1.2-0.82,1.2-2.301C113.542,553.88,113.102,553.039,112.341,553.039z"/>
	<path fill="#ED1C24" d="M69.083,568.939c-1.16-0.7-2.38-1.181-3.881-1.181c-0.74,0-1.14,0.38-1.14,0.82c0,0.64,2,1.561,3.201,2.021
		c1.62,0.62,2.98,2.12,2.92,3.7c-0.08,2.341-1.9,4.062-5.441,4.062c-2.881,0-4.081-0.7-5.721-1.7l1.56-3.161
		c1.44,1,2.741,1.48,4.001,1.48c0.64,0,1.32-0.26,1.32-0.801c0-1.1-2.94-1.92-3.641-2.3c-1.681-0.9-2.621-1.86-2.621-3.381
		c0-2.961,3.201-4.021,5.621-4.021c2.621,0,3.841,0.5,5.341,1.26L69.083,568.939z"/>
	<path fill="#ED1C24" d="M74.582,578.341c-1.38,0-2.621-0.74-2.621-2.24v-5.341h-1.38v-1.761l1.38-0.24v-2.641h3.861v2.561h2.221
		v2.081h-2.221v3.761c0,0.7,0.26,0.9,0.58,0.9c0.2,0,0.6-0.32,1.021-0.601l0.94,2.141C77.102,577.721,76.142,578.341,74.582,578.341
		z"/>
	<path fill="#ED1C24" d="M83.762,578.341c-2.781,0-5.281-1.72-5.281-5.001c0-3.221,2.5-5.001,5.281-5.001s5.281,1.78,5.281,5.001
		C89.043,576.721,86.542,578.341,83.762,578.341z M83.762,571.039c-0.72,0-1.2,0.841-1.2,2.301c0,1.48,0.48,2.301,1.2,2.301
		c0.74,0,1.2-0.82,1.2-2.301C84.962,571.88,84.522,571.039,83.762,571.039z"/>
	<path fill="#ED1C24" d="M96.382,578.361c-0.64,0-1.32-0.021-1.96-0.341v4.762H90.42v-14.104h4.001v0.86
		c0.44-0.46,1.18-1.2,2.42-1.2c2.741,0,4.061,1.74,4.061,4.801C100.903,576.12,99.042,578.361,96.382,578.361z M95.682,571.119
		c-0.44,0-0.78,0.261-1.26,0.841v3c0,0.58,0.24,1.16,0.9,1.16c0.94,0,1.5-1.08,1.5-2.64
		C96.822,571.979,96.482,571.119,95.682,571.119z"/>
	<path fill="#ED1C24" d="M115.682,578.021v3.861h-3.081v-3.861h-5.981v-1.68l6.042-8.282h3.021v7.742h2.201v2.22H115.682z
		 M112.602,572.1l-2.621,3.701h2.621V572.1z"/>
</g>
<g>
	<path fill="#ED1C24" d="M773.161,30.008c-1.38,0-2.62-0.74-2.62-2.24v-5.341h-1.381v-1.761l1.381-0.24v-2.641h3.86v2.561h2.221
		v2.081h-2.221v3.761c0,0.7,0.261,0.9,0.58,0.9c0.2,0,0.601-0.32,1.021-0.601l0.939,2.141
		C775.682,29.388,774.722,30.008,773.161,30.008z"/>
	<path fill="#ED1C24" d="M782.342,30.008c-2.781,0-5.281-1.72-5.281-5.001c0-3.221,2.5-5.001,5.281-5.001
		c2.78,0,5.281,1.78,5.281,5.001C787.623,28.388,785.122,30.008,782.342,30.008z M782.342,22.706c-0.721,0-1.201,0.841-1.201,2.301
		c0,1.48,0.48,2.301,1.201,2.301c0.74,0,1.199-0.82,1.199-2.301C783.541,23.547,783.102,22.706,782.342,22.706z"/>
	<path fill="#ED1C24" d="M738.723,38.606c-1.16-0.7-2.38-1.181-3.881-1.181c-0.74,0-1.14,0.38-1.14,0.82
		c0,0.64,2.001,1.561,3.2,2.021c1.621,0.62,2.98,2.12,2.921,3.7c-0.08,2.341-1.9,4.062-5.44,4.062c-2.881,0-4.082-0.7-5.722-1.7
		l1.56-3.161c1.441,1,2.741,1.48,4.002,1.48c0.64,0,1.32-0.26,1.32-0.801c0-1.1-2.941-1.92-3.641-2.3
		c-1.682-0.9-2.621-1.86-2.621-3.381c0-2.961,3.201-4.021,5.621-4.021c2.621,0,3.841,0.5,5.342,1.26L738.723,38.606z"/>
	<path fill="#ED1C24" d="M744.222,48.008c-1.38,0-2.62-0.74-2.62-2.24v-5.341h-1.381v-1.761l1.381-0.24v-2.641h3.86v2.561h2.221
		v2.081h-2.221v3.761c0,0.7,0.261,0.9,0.58,0.9c0.2,0,0.601-0.32,1.021-0.601l0.939,2.141
		C746.742,47.388,745.782,48.008,744.222,48.008z"/>
	<path fill="#ED1C24" d="M753.402,48.008c-2.781,0-5.281-1.72-5.281-5.001c0-3.221,2.5-5.001,5.281-5.001
		c2.78,0,5.281,1.78,5.281,5.001C758.684,46.388,756.183,48.008,753.402,48.008z M753.402,40.706c-0.721,0-1.201,0.841-1.201,2.301
		c0,1.48,0.48,2.301,1.201,2.301c0.74,0,1.199-0.82,1.199-2.301C754.602,41.547,754.162,40.706,753.402,40.706z"/>
	<path fill="#ED1C24" d="M766.021,48.028c-0.64,0-1.32-0.021-1.96-0.341v4.762h-4.001V38.346h4.001v0.86
		c0.44-0.46,1.181-1.2,2.421-1.2c2.74,0,4.061,1.74,4.061,4.801C770.543,45.787,768.683,48.028,766.021,48.028z M765.322,40.786
		c-0.44,0-0.781,0.261-1.261,0.841v3c0,0.58,0.24,1.16,0.9,1.16c0.94,0,1.5-1.08,1.5-2.64
		C766.462,41.646,766.122,40.786,765.322,40.786z"/>
	<path fill="#ED1C24" d="M782.142,48.108c-3.921,0-5.621-2.681-5.621-6.082c0-4.82,2.721-8.142,7.602-8.142
		c0.96,0,1.74,0.12,2.561,0.32l-0.399,2.44c-1.101-0.2-1.341-0.18-1.761-0.18c-1.96,0-3.221,1.02-3.701,2.86
		c0.681-0.2,1.521-0.34,2.46-0.34c2.262,0,4.422,1.7,4.422,4.161C787.703,45.787,785.922,48.108,782.142,48.108z M782.482,41.566
		c-0.541,0-1.441,0.32-1.881,0.561c0,2.16,0.26,3.28,1.62,3.28c0.96,0,1.4-0.74,1.4-2.141
		C783.622,42.146,783.322,41.566,782.482,41.566z"/>
</g>
<g>
	<path fill="#FFFFFF" d="M668.18,59.825c4.656-4.531,10.375-4.797,10.375-4.797c12.633-0.516,15.914-4.914,15.914-4.914
		c3.914-3.887-3.211-14.633-3.211-14.633c-0.906-3.887,3.352-9.922,3.352-9.922l-8.445-6.09
		c-15.172,5.438-17.984-0.816-17.984-0.816s-2.805,6.254-17.977,0.816l-8.445,6.09c0,0,4.258,6.035,3.352,9.922
		c0,0-7.125,10.746-3.211,14.633c0,0,3.281,4.398,15.914,4.914C657.812,55.028,663.523,55.293,668.18,59.825z"/>
	<path fill-rule="evenodd" clip-rule="evenodd" d="M691.938,35.208c-0.719-3.535,3.219-9.18,3.258-9.234l0.414-0.586l-0.578-0.414
		l-8.445-6.086l-0.312-0.227l-0.352,0.133c-14.227,5.098-17.062-0.391-17.086-0.445l-0.672-1.395c0-0.012-0.641,1.402-0.641,1.402
		c-0.023,0.047-2.852,5.535-17.078,0.438l-0.359-0.133l-0.305,0.227l-8.445,6.086l-0.578,0.418l0.406,0.582
		c0.039,0.055,3.977,5.699,3.266,9.234c-0.82,1.258-7.062,11.234-3.102,15.348c0.141,0.184,1.695,2.113,6.281,3.578
		c0.547-0.34,1.086-0.68,1.609-1.035c-5.094-1.375-6.727-3.391-6.75-3.422l-0.031-0.031c0-0.008-0.031-0.039-0.031-0.039
		c-2.867-2.848,1.414-10.875,3.297-13.727l0.078-0.109l0.023-0.125c0.812-3.453-1.992-8.242-3.062-9.906l7.578-5.469
		c11.82,4.145,16.352,1.266,17.859-0.391c1.508,1.656,6.047,4.535,17.859,0.391l7.586,5.469c-1.07,1.664-3.875,6.453-3.07,9.906
		l0.031,0.125l0.07,0.109c1.891,2.852,6.172,10.879,3.305,13.727l-0.039,0.035l-0.031,0.043c-0.023,0.039-3.336,4.137-15.367,4.625
		c-0.242,0.008-5.648,0.312-10.344,4.531c-4.688-4.219-10.094-4.523-10.336-4.531c-3.617-0.148-6.438-0.621-8.625-1.211
		c-0.523,0.355-1.062,0.695-1.609,1.035c2.445,0.785,5.758,1.434,10.172,1.613c0.055,0,5.508,0.32,9.898,4.594l0.5,0.484
		l0.508-0.484c4.391-4.273,9.844-4.594,9.898-4.594c12.688-0.516,16.234-4.906,16.453-5.191
		C699,46.442,692.758,36.465,691.938,35.208z"/>
	<g>
		<path d="M650.887,42.805c0.756-0.672,1.701-1.491,2.625-2.352c1.616-1.512,4.22-3.884,4.22-6.257c0-1.365-1.218-2.331-2.813-2.331
			c-1.302,0-2.562,0.504-3.359,0.945l-0.21-1.806c1.218-0.525,2.52-0.861,3.843-0.861c2.645,0,4.766,1.428,4.766,4.178
			c0,2.436-2.625,5.039-4.241,6.656c-0.819,0.819-1.868,1.701-2.583,2.352h7.034v1.722h-9.28V42.805z"/>
		<path d="M667.896,32.811l-2.247,1.932l-1.112-1.407l3.59-2.939h1.869v14.655h-2.1V32.811z"/>
		<path d="M675.708,42.805c0.756-0.672,1.7-1.491,2.624-2.352c1.617-1.512,4.221-3.884,4.221-6.257c0-1.365-1.218-2.331-2.813-2.331
			c-1.302,0-2.562,0.504-3.359,0.945l-0.21-1.806c1.218-0.525,2.52-0.861,3.842-0.861c2.646,0,4.767,1.428,4.767,4.178
			c0,2.436-2.624,5.039-4.241,6.656c-0.818,0.819-1.869,1.701-2.582,2.352h7.033v1.722h-9.28V42.805z"/>
	</g>
</g>
<g>
	<path d="M126.602,173.764h2.479c2.129,0,4.076,0.616,4.076,2.956c0,2.283-1.667,3.11-3.769,3.11h-0.826v3.712h-1.961V173.764z
		 M128.562,178.289h0.687c0.98,0,1.862-0.322,1.862-1.457c0-1.135-0.854-1.527-1.862-1.527h-0.687V178.289z"/>
	<path d="M140.241,183.135c-0.687,0.378-1.471,0.574-2.479,0.574c-2.382,0-3.769-1.373-3.769-3.74c0-2.087,1.107-3.81,3.349-3.81
		c2.675,0,3.432,1.835,3.432,4.356h-4.987c0.084,1.163,0.896,1.821,2.06,1.821c0.91,0,1.695-0.336,2.396-0.729V183.135z
		 M138.98,179.227c-0.057-0.91-0.477-1.695-1.527-1.695s-1.583,0.729-1.667,1.695H138.98z"/>
	<path d="M142.31,173.036h1.877v4.216h0.027c0.519-0.686,1.177-1.092,2.157-1.092c2.214,0,3.026,1.765,3.026,3.754
		c0,1.975-0.812,3.796-3.026,3.796c-0.798,0-1.666-0.28-2.213-1.05h-0.028v0.882h-1.82V173.036z M145.854,182.253
		c1.232,0,1.583-1.345,1.583-2.339c0-0.966-0.337-2.297-1.556-2.297c-1.204,0-1.681,1.289-1.681,2.297
		C144.2,180.936,144.606,182.253,145.854,182.253z"/>
	<path d="M150.934,173.036h1.877v4.216h0.027c0.519-0.686,1.177-1.092,2.157-1.092c2.214,0,3.026,1.765,3.026,3.754
		c0,1.975-0.812,3.796-3.026,3.796c-0.798,0-1.667-0.28-2.213-1.05h-0.028v0.882h-1.82V173.036z M154.478,182.253
		c1.232,0,1.583-1.345,1.583-2.339c0-0.966-0.337-2.297-1.556-2.297c-1.204,0-1.681,1.289-1.681,2.297
		C152.824,180.936,153.23,182.253,154.478,182.253z"/>
	<path d="M159.6,173.036h1.877v10.506H159.6V173.036z"/>
	<path d="M169.304,183.135c-0.687,0.378-1.471,0.574-2.479,0.574c-2.382,0-3.769-1.373-3.769-3.74c0-2.087,1.107-3.81,3.349-3.81
		c2.675,0,3.432,1.835,3.432,4.356h-4.987c0.084,1.163,0.896,1.821,2.06,1.821c0.91,0,1.695-0.336,2.396-0.729V183.135z
		 M168.043,179.227c-0.057-0.91-0.477-1.695-1.527-1.695s-1.583,0.729-1.667,1.695H168.043z"/>
	<path d="M182.618,183.401c-0.714,0.168-1.484,0.308-2.227,0.308c-3.166,0-5.365-1.583-5.365-4.889c0-3.348,2.045-5.225,5.365-5.225
		c0.645,0,1.499,0.126,2.213,0.406l-0.14,1.653c-0.743-0.42-1.415-0.519-2.115-0.519c-2.018,0-3.278,1.541-3.278,3.544
		c0,1.989,1.233,3.488,3.32,3.488c0.771,0,1.681-0.168,2.143-0.406L182.618,183.401z"/>
	<path d="M184,176.328h1.667v1.639h0.027c0.084-0.672,0.854-1.807,1.976-1.807c0.182,0,0.378,0,0.574,0.056v1.891
		c-0.168-0.098-0.504-0.154-0.841-0.154c-1.526,0-1.526,1.905-1.526,2.941v2.647H184V176.328z"/>
	<path d="M195.008,183.135c-0.687,0.378-1.471,0.574-2.479,0.574c-2.382,0-3.769-1.373-3.769-3.74c0-2.087,1.107-3.81,3.349-3.81
		c2.675,0,3.432,1.835,3.432,4.356h-4.987c0.084,1.163,0.896,1.821,2.06,1.821c0.91,0,1.694-0.336,2.396-0.729V183.135z
		 M193.747,179.227c-0.057-0.91-0.477-1.695-1.527-1.695c-1.05,0-1.583,0.729-1.667,1.695H193.747z"/>
	<path d="M202.862,183.135c-0.687,0.378-1.471,0.574-2.479,0.574c-2.382,0-3.769-1.373-3.769-3.74c0-2.087,1.107-3.81,3.349-3.81
		c2.675,0,3.432,1.835,3.432,4.356h-4.987c0.084,1.163,0.896,1.821,2.06,1.821c0.91,0,1.695-0.336,2.396-0.729V183.135z
		 M201.602,179.227c-0.057-0.91-0.477-1.695-1.527-1.695s-1.583,0.729-1.667,1.695H201.602z"/>
	<path d="M204.973,173.036h1.877v6.178h0.027l2.242-2.886h2.213l-2.689,3.222l3.025,3.992h-2.381l-2.41-3.502h-0.027v3.502h-1.877
		V173.036z"/>
</g>
<g>
	<path fill="#FFFFFF" d="M178.201,140.362c-1.082,0-1.965,0.879-1.965,1.961v15.043c0,1.082,0.883,1.961,1.965,1.961h15.043
		c1.082,0,1.961-0.879,1.961-1.961v-15.043c0-1.082-0.879-1.961-1.961-1.961H178.201z"/>
	<path d="M193.244,159.729c1.305,0,2.363-1.059,2.363-2.363v-15.043c0-1.305-1.059-2.363-2.363-2.363h-15.043
		c-1.305,0-2.363,1.059-2.363,2.363v15.043c0,1.305,1.059,2.363,2.363,2.363H193.244z"/>
	<path fill="#FFFFFF" d="M182.287,155.1l3.488-6.684l3.492,6.684H182.287z M192.291,155.1l-6.516-12.473l-6.512,12.473h-1.379v0.898
		h15.676V155.1H192.291z"/>
</g>
<g>
	<rect x="551.758" y="378.619" opacity="0.6" fill="#FFFFFF" width="271.805" height="47.52"/>
	<g>
		<g>
			<path fill="#ED1C24" d="M564.947,420.234c-1.092,0-2.223,0-3.432-0.039v-4.758h3.003c2.457,0,5.421-1.248,5.421-4.485
				c0-2.964-1.17-4.563-4.173-4.642l-3.783-0.078v-13.494h15.172v4.719h-7.605v4.72c8.814,1.17,8.347,7.177,8.347,8.347
				C577.896,418.401,570.603,420.234,564.947,420.234z"/>
			<path fill="#ED1C24" d="M584.213,399.291c-1.989,0-3.51-1.365-3.51-3.121c0-1.793,1.521-3.119,3.51-3.119
				s3.472,1.326,3.472,3.119C587.685,397.926,586.202,399.291,584.213,399.291z M584.213,412.355c-1.989,0-3.51-1.364-3.51-3.119
				c0-1.795,1.521-3.121,3.51-3.121s3.472,1.326,3.472,3.121C587.685,410.991,586.202,412.355,584.213,412.355z"/>
			<path d="M615.804,411.85l-5.889-10.297h-2.458v10.297h-4.914v-25.741h8.581c3.744,0,5.46,0.468,6.98,1.911
				c1.404,1.287,2.106,3.158,2.106,5.577c0,1.989-0.468,3.588-1.404,4.836c-0.975,1.248-1.872,1.794-4.017,2.379l6.396,11.038
				H615.804z M610.655,390.281h-3.198v7.098h3.198c3.12,0,4.485-1.092,4.485-3.666C615.141,391.256,613.854,390.281,610.655,390.281
				z"/>
			<path d="M631.872,412.355c-5.188,0-9.126-4.133-9.126-9.594c0-5.421,3.938-9.555,9.126-9.555s9.126,4.134,9.126,9.555
				C640.998,408.223,637.06,412.355,631.872,412.355z M631.872,396.912c-2.34,0-4.29,2.651-4.29,5.85c0,3.237,1.95,5.889,4.29,5.889
				s4.29-2.651,4.29-5.889C636.162,399.563,634.212,396.912,631.872,396.912z"/>
			<path d="M655.74,411.85v-3.043c-2.185,2.418-3.979,3.354-6.279,3.354c-3.276,0-4.914-1.677-4.914-5.109v-13.339h4.68v11.662
				c0,2.223,0.391,3.081,1.482,3.081c1.014,0,2.379-1.015,4.407-3.159l0.624-0.663v-10.921h4.68v18.137H655.74z"/>
			<path d="M677.151,411.85v-11.662c0-2.262-0.391-3.081-1.521-3.081c-0.975,0-2.34,0.976-4.368,3.159l-0.624,0.663v10.921h-4.68
				v-18.137h4.68v3.004c2.185-2.379,3.979-3.354,6.279-3.354c3.276,0,4.914,1.716,4.914,5.148v13.339H677.151z"/>
			<path d="M698.055,411.85v-2.457c-0.663,1.053-0.975,1.403-1.833,1.949c-1.053,0.663-2.184,1.014-3.393,1.014
				c-4.291,0-7.45-3.821-7.45-9.048c0-5.616,3.861-10.14,8.659-10.14c0.507,0,1.053,0.078,1.599,0.194
				c0.975,0.234,1.404,0.39,2.418,1.093v-11.038h4.642v28.433H698.055z M698.055,401.007c0-1.015-0.117-1.95-0.233-2.341
				c-0.312-0.975-1.6-1.676-3.043-1.676c-2.573,0-4.484,2.534-4.484,5.967c0,3.275,1.521,5.577,3.744,5.577
				c1.442,0,2.886-0.976,4.017-2.73V401.007z"/>
			<path d="M733.311,400.929c-1.833,1.56-4.095,2.224-7.604,2.224c-0.976,0-1.521-0.039-2.38-0.117v8.814h-4.914v-25.741h8.814
				c3.354,0,5.227,0.585,6.825,2.106c1.443,1.442,2.185,3.393,2.185,5.771C736.236,396.834,735.222,399.291,733.311,400.929z
				 M726.759,390.281h-3.433v8.58l1.248,0.039c0.547,0,0.897,0.039,1.093,0.039c3.822,0,5.499-1.404,5.499-4.562
				C731.166,391.568,729.801,390.281,726.759,390.281z"/>
			<path d="M748.521,399.252c-0.507-0.391-0.897-0.547-1.404-0.547c-0.741,0-1.56,0.508-2.262,1.365
				c-0.858,1.053-1.248,2.106-1.248,3.472v8.308h-4.642v-18.137h4.018l0.194,3.979c1.756-3.081,2.887-4.251,4.291-4.251
				c0.975,0,1.794,0.429,2.534,1.287L748.521,399.252z"/>
			<path d="M766.304,412.083h-0.975c-2.34,0-3.081-0.39-3.9-1.989c-1.716,1.561-3.237,2.224-5.07,2.224
				c-3.081,0-5.265-2.028-5.265-4.915c0-0.623,0.117-1.248,0.312-1.832c0.624-1.678,1.717-2.535,4.368-3.315l5.148-1.482v-1.521
				c0-1.95-0.702-2.848-2.223-2.848c-1.404,0-2.535,0.741-2.535,1.639c0,0.156,0.039,0.233,0.117,0.468l-4.446,0.976
				c-0.195-0.547-0.234-0.742-0.234-1.248c0-3.199,2.808-5.031,7.723-5.031c4.329,0,6.279,1.793,6.279,5.771v7.566
				c0,1.639,0.194,1.911,1.442,2.028L766.304,412.083z M760.922,403.775l-4.641,1.521c-0.273,0.702-0.352,1.053-0.352,1.521
				c0,1.17,0.702,1.871,1.872,1.871c0.585,0,1.287-0.194,1.911-0.545c0.312-0.156,0.546-0.312,1.209-0.819V403.775z"/>
			<path d="M773.128,390.359c-1.442,0-2.651-1.404-2.651-3.159s1.209-3.159,2.651-3.159c1.443,0,2.613,1.404,2.613,3.159
				S774.571,390.359,773.128,390.359z M770.788,411.85v-18.137h4.642v18.137H770.788z"/>
			<path d="M789.859,399.252c-0.507-0.391-0.897-0.547-1.404-0.547c-0.741,0-1.56,0.508-2.262,1.365
				c-0.858,1.053-1.248,2.106-1.248,3.472v8.308h-4.642v-18.137h4.018l0.194,3.979c1.756-3.081,2.887-4.251,4.291-4.251
				c0.975,0,1.794,0.429,2.535,1.287L789.859,399.252z"/>
			<path d="M795.903,390.359c-1.442,0-2.651-1.404-2.651-3.159s1.209-3.159,2.651-3.159c1.443,0,2.613,1.404,2.613,3.159
				S797.347,390.359,795.903,390.359z M793.563,411.85v-18.137h4.642v18.137H793.563z"/>
			<path d="M816.34,411.069c-1.911,0.858-3.861,1.286-5.967,1.286c-5.383,0-8.775-3.549-8.775-9.087
				c0-5.733,3.899-10.062,9.087-10.062c4.485,0,7.605,3.393,7.605,8.307v1.989h-12.013c0.078,1.521,0.195,2.146,0.624,2.886
				c0.78,1.326,2.34,2.185,4.057,2.185c0.701,0,1.403-0.078,2.145-0.312c1.092-0.312,1.794-0.663,3.472-1.716l1.716,3.549
				C817.432,410.562,816.769,410.874,816.34,411.069z M810.373,396.717c-2.067,0-3.472,1.404-3.861,3.861h7.098
				C813.492,397.809,812.557,396.717,810.373,396.717z"/>
		</g>
	</g>
	<g>
		<g>
			<polyline fill="none" stroke="#000000" stroke-width="3" points="550.65,408.578 531.76,361.676 490.02,339.963 			"/>
			<g>
				<path d="M491.09,340.52c1.334,4.229-0.201,10.418-2.076,14.289c-1.148-7.105-3.779-14.15-8.471-19.775
					c7.242,0.72,14.444-1.555,21.055-4.416C499.146,334.532,495.567,338.973,491.09,340.52z"/>
			</g>
		</g>
	</g>
</g>
<g>
	<path fill="none" d="M225,540c0,0,28-29,35-38s15-31,23-36s28-25,35-28s14,0,20-7s8-8,9-19"/>
	<path d="M230.921,533.845c0.005-0.001,0.011-0.004,0.016-0.009c0.007-0.007,0.007-0.015,0.002-0.02s-0.01-0.005-0.02-0.001
		c-0.011,0.006-0.021,0.007-0.028-0.001c-0.008-0.008-0.007-0.021,0.003-0.03c0.005-0.005,0.01-0.008,0.014-0.009l0.004,0.007
		c-0.003,0.001-0.008,0.003-0.012,0.008c-0.007,0.007-0.006,0.014-0.002,0.018c0.004,0.005,0.01,0.004,0.02-0.001
		c0.012-0.005,0.021-0.005,0.028,0.002c0.008,0.009,0.009,0.021-0.003,0.033c-0.005,0.005-0.012,0.009-0.017,0.01L230.921,533.845z"
		/>
	<path d="M230.942,533.813c0.003-0.001,0.008-0.003,0.012-0.006c0.005-0.005,0.005-0.01,0.001-0.013
		c-0.003-0.003-0.007-0.003-0.013,0c-0.009,0.004-0.016,0.004-0.021-0.001c-0.006-0.006-0.006-0.016,0.002-0.023
		c0.004-0.004,0.008-0.006,0.011-0.007l0.003,0.007c-0.002,0-0.006,0.002-0.01,0.005c-0.004,0.005-0.004,0.009-0.001,0.012
		s0.006,0.002,0.013-0.001c0.009-0.004,0.015-0.004,0.021,0.002c0.006,0.006,0.006,0.016-0.003,0.024
		c-0.004,0.004-0.009,0.007-0.013,0.008L230.942,533.813z"/>
	<path d="M230.97,533.783c0.003,0,0.008-0.003,0.012-0.006c0.005-0.005,0.005-0.01,0.002-0.013c-0.003-0.003-0.007-0.003-0.014,0
		c-0.009,0.004-0.016,0.004-0.021-0.001c-0.006-0.006-0.006-0.016,0.002-0.023c0.004-0.004,0.008-0.006,0.011-0.007l0.003,0.007
		c-0.002,0-0.006,0.002-0.01,0.005c-0.004,0.005-0.004,0.009-0.001,0.012s0.006,0.002,0.013-0.001
		c0.009-0.004,0.015-0.004,0.021,0.002c0.006,0.006,0.006,0.016-0.003,0.024c-0.004,0.004-0.009,0.007-0.013,0.008L230.97,533.783z"
		/>
	<path d="M230.997,533.673l0.044,0.045c0.003,0.003,0.007,0.007,0.01,0.009l-0.006,0.006l-0.007-0.006
		c0.002,0.007,0,0.015-0.005,0.021c-0.009,0.009-0.023,0.008-0.035-0.003c-0.012-0.013-0.012-0.027-0.003-0.037
		c0.005-0.005,0.012-0.007,0.017-0.005l-0.022-0.022L230.997,533.673z M231.022,533.712c-0.001-0.001-0.002-0.002-0.003-0.002
		c-0.005-0.004-0.013-0.004-0.018,0.001c-0.007,0.008-0.005,0.018,0.003,0.025c0.007,0.008,0.017,0.011,0.024,0.003
		c0.004-0.004,0.005-0.012,0.002-0.018c-0.001-0.001-0.002-0.002-0.003-0.003L231.022,533.712z"/>
	<path d="M231.057,533.695l-0.032-0.032l-0.005,0.005l-0.005-0.005l0.005-0.005l-0.001-0.002c-0.005-0.005-0.009-0.011-0.009-0.018
		c0-0.005,0.002-0.009,0.005-0.012c0.002-0.003,0.005-0.004,0.007-0.005l0.004,0.006c-0.001,0.001-0.003,0.002-0.005,0.004
		c-0.006,0.006-0.002,0.012,0.003,0.018l0.002,0.002l0.009-0.009l0.005,0.005l-0.009,0.009l0.032,0.032L231.057,533.695z"/>
</g>
<g>
	<path fill="none" d="M354,328c0,0,21-31,28-32s45,1,58-4s21-11,26-23s16-44,20-53s15-30,22-34"/>
	<path d="M367.533,309.235l0.005-0.007l0.025,0.02c-0.001-0.003-0.001-0.006-0.002-0.008l-0.007-0.031l0.006-0.009l0.007,0.036
		l0.045,0.004l-0.006,0.008l-0.039-0.003l0.001,0.009l0.02,0.016l-0.005,0.007L367.533,309.235z"/>
	<path d="M367.616,309.268c0.004-0.001,0.009-0.004,0.013-0.009c0.005-0.007,0.005-0.014,0-0.018
		c-0.004-0.004-0.01-0.004-0.018,0.001c-0.01,0.006-0.019,0.008-0.025,0.002c-0.008-0.006-0.009-0.018-0.001-0.027
		c0.004-0.006,0.009-0.009,0.012-0.01l0.004,0.007c-0.002,0-0.006,0.003-0.01,0.008c-0.005,0.007-0.003,0.013,0,0.016
		c0.005,0.004,0.01,0.002,0.018-0.003c0.01-0.006,0.018-0.007,0.025-0.001c0.008,0.007,0.01,0.018,0,0.03
		c-0.004,0.005-0.01,0.009-0.014,0.011L367.616,309.268z"/>
	<path d="M365.039,295.589c-0.747,0.254-1.036,0.375-1.416,0.602c-0.448,0.274-1.062,0.802-1.401,1.196
		c-0.979,1.137-1.085,2.393-0.237,3.124c0.743,0.64,1.5,0.527,4.326-0.576c0.952-0.368,1.742-0.611,2.374-0.7
		c0.827-0.133,1.757,0.167,2.484,0.794c1.712,1.477,1.691,3.677-0.046,5.691c-0.588,0.683-1.257,1.214-1.927,1.562
		c-0.478,0.248-0.852,0.375-1.853,0.647l-0.437-1.485c0.862-0.233,1.208-0.358,1.645-0.59c0.545-0.295,1.054-0.702,1.498-1.217
		c1.019-1.182,1.072-2.378,0.118-3.2c-0.288-0.248-0.569-0.412-0.843-0.463c-0.447-0.094-0.983-0.055-1.55,0.144
		c-0.234,0.088-1.006,0.4-2.331,0.896c-2.096,0.808-3.433,0.765-4.463-0.124c-1.591-1.371-1.515-3.604,0.196-5.588
		c0.496-0.576,1.082-1.102,1.692-1.473c0.489-0.292,0.819-0.429,1.636-0.703L365.039,295.589z"/>
	<path d="M378.227,298.439c-1.922,1.536-4.86,1.092-6.483-0.938c-1.635-2.047-1.405-4.995,0.517-6.53
		c1.906-1.523,4.833-1.096,6.468,0.951C380.351,293.952,380.133,296.916,378.227,298.439z M373.097,292.017
		c-1.25,0.999-1.27,2.96-0.072,4.46s3.116,1.914,4.366,0.915c1.234-0.986,1.254-2.948,0.056-4.448S374.331,291.031,373.097,292.017z
		"/>
	<path d="M388.197,295.669l-0.039-1.14c-0.769,0.927-1.811,1.463-2.95,1.502c-2.219,0.076-3.842-1.729-3.934-4.408
		c-0.1-2.918,1.767-5.084,4.445-5.176c0.959-0.033,1.585,0.125,2.18,0.545l-0.203-5.897l1.519-0.052l0.5,14.572L388.197,295.669z
		 M387.995,289.772c-0.024-0.7-0.051-0.899-0.221-1.193c-0.277-0.491-0.925-0.729-1.845-0.697c-1.919,0.066-3.111,1.488-3.036,3.667
		c0.062,1.819,1.127,3.104,2.526,3.055c0.54-0.019,1.192-0.261,1.738-0.68c0.332-0.251,0.544-0.479,0.946-1.013L387.995,289.772z"/>
	<path d="M399.38,295.881c-1.241-0.074-1.682-0.392-1.766-1.252c-0.458,0.402-0.658,0.563-0.957,0.725
		c-0.559,0.322-1.278,0.526-1.918,0.529c-1.46,0.007-2.425-0.929-2.432-2.37c-0.006-1.32,0.69-2.204,2.009-2.53l3.138-0.754
		l-0.008-1.64c-0.003-0.74-0.565-1.118-1.726-1.113c-0.94,0.004-1.379,0.267-1.376,0.787c0,0.1,0.021,0.18,0.082,0.34l-1.519,0.327
		c-0.141-0.24-0.162-0.339-0.163-0.56c-0.005-1.2,1.311-2.026,3.251-2.035c1.82-0.009,2.965,0.846,2.971,2.247l0.025,5.562
		c0.041,0.24,0.282,0.398,0.742,0.477L399.38,295.881z M397.459,291.489l-3.396,0.896c-0.218,0.421-0.257,0.622-0.255,0.981
		c0.003,0.72,0.485,1.178,1.226,1.175c0.68-0.003,1.139-0.225,2.435-1.171L397.459,291.489z"/>
	<path d="M412.757,295.396l-4.877,0.138l-0.373-13.193l4.278-0.121c1.279-0.036,1.985,0.164,2.662,0.745
		c0.657,0.582,1.082,1.47,1.107,2.389c0.041,1.419-0.787,2.583-2.173,3.102c1.769,0.29,2.803,1.501,2.854,3.32
		C416.295,293.876,414.896,295.336,412.757,295.396z M413.236,284.04c-0.35-0.35-0.773-0.458-1.792-0.43l-2.259,0.064l0.121,4.278
		l2.139-0.061c0.94-0.026,1.355-0.178,1.783-0.63c0.389-0.411,0.611-1.038,0.592-1.717
		C413.801,284.904,413.585,284.37,413.236,284.04z M411.607,289.387l-2.259,0.064l0.131,4.657l2.259-0.063
		c1.199-0.034,1.656-0.167,2.105-0.56c0.41-0.372,0.669-1.079,0.65-1.779C414.45,290.167,413.406,289.336,411.607,289.387z"/>
	<path d="M425.521,294.697l-0.141-1.875c-0.947,1.535-2.072,2.321-3.428,2.423c-1.576,0.118-2.479-0.696-2.603-2.352l-0.508-6.781
		l1.496-0.112l0.48,6.402c0.084,1.117,0.438,1.551,1.195,1.495c0.958-0.072,2.317-1.196,3.247-2.71l-0.415-5.524l1.516-0.114
		l0.678,9.034L425.521,294.697z"/>
	<path d="M432.964,294.023c-1.026,0.165-1.848-0.535-2.037-1.719l-0.954-5.963l-1.5,0.24l-0.139-0.869l1.44-0.615l-0.417-2.606
		l1.48-0.237l0.417,2.606l2.369-0.379l0.199,1.244l-2.369,0.379l0.814,5.094l0.083,0.392c0.064,0.273,0.093,0.451,0.128,0.546
		c0.067,0.293,0.268,0.403,0.583,0.352c0.375-0.06,0.646-0.265,1.202-0.84l0.771,0.889
		C434.127,293.574,433.675,293.91,432.964,294.023z"/>
	<path d="M440.547,292.078c-0.978,0.353-1.914-0.182-2.32-1.311l-2.046-5.682l-1.431,0.515l-0.298-0.828l1.301-0.872l-0.894-2.483
		l1.411-0.508l0.894,2.483l2.258-0.813l0.427,1.186l-2.258,0.813l1.748,4.854l0.154,0.369c0.114,0.257,0.175,0.426,0.228,0.514
		c0.12,0.275,0.337,0.346,0.639,0.237c0.357-0.128,0.585-0.381,1.024-1.049l0.922,0.73
		C441.606,291.42,441.225,291.834,440.547,292.078z"/>
	<path d="M444.099,285.238c1.036,1.94,2.654,2.595,4.277,1.729c0.706-0.376,1.113-0.844,1.658-1.905l1.084,0.758
		c-0.786,1.372-1.334,1.959-2.375,2.514c-2.223,1.187-4.625,0.293-5.972-2.229c-1.355-2.54-0.751-5.016,1.524-6.23
		c1.87-0.998,3.793-0.325,4.857,1.668l0.414,0.776L444.099,285.238z M444.848,281.121c-1.111,0.593-1.529,1.677-1.17,3.072
		l3.916-2.09C446.917,280.878,445.941,280.537,444.848,281.121z"/>
	<path d="M456.26,264.918c-1.115,0.494-1.868,1.161-2.529,2.257c-1.446,2.397-0.63,5.225,1.955,6.785
		c2.842,1.714,5.751,1.111,7.353-1.542c0.578-0.958,0.868-1.788,1.039-2.922l1.334,0.268c-0.105,0.871-0.168,1.207-0.372,1.854
		c-0.204,0.648-0.432,1.141-0.752,1.672c-2.056,3.407-5.96,4.344-9.436,2.247c-3.305-1.994-4.326-5.95-2.374-9.186
		c0.444-0.736,1.015-1.373,1.657-1.896c0.488-0.383,0.753-0.55,1.487-0.878L456.26,264.918z"/>
	<path d="M461.467,260.331c-0.352,0.184-0.503,0.297-0.568,0.464c-0.205,0.521,0.295,1.491,1.433,2.861l5.026,1.974l-0.548,1.396
		l-8.434-3.311l0.549-1.396l1.526,0.599c-0.932-1.568-1.136-2.25-0.888-2.883c0.124-0.316,0.482-0.627,1.001-0.854L461.467,260.331z
		"/>
	<path d="M465.132,258.435c2.062,0.771,3.709,0.19,4.354-1.533c0.28-0.75,0.277-1.37-0.017-2.526l1.315-0.149
		c0.317,1.549,0.295,2.353-0.118,3.458c-0.883,2.361-3.276,3.281-5.956,2.28c-2.698-1.008-3.883-3.267-2.979-5.684
		c0.742-1.986,2.631-2.754,4.748-1.962l0.825,0.308L465.132,258.435z M462.97,254.85c-0.441,1.181-0.037,2.271,1.155,3.08
		l1.555-4.16C464.361,253.299,463.404,253.688,462.97,254.85z"/>
	<path d="M468.377,249.686c2.066,0.757,3.71,0.166,4.344-1.562c0.274-0.751,0.268-1.372-0.033-2.526l1.314-0.158
		c0.327,1.547,0.311,2.351-0.096,3.459c-0.867,2.367-3.255,3.303-5.941,2.319c-2.705-0.991-3.904-3.242-3.017-5.665
		c0.729-1.991,2.613-2.771,4.735-1.993l0.827,0.303L468.377,249.686z M466.191,246.116c-0.434,1.183-0.022,2.271,1.175,3.072
		l1.528-4.17C467.572,244.555,466.618,244.951,466.191,246.116z"/>
	<path d="M475.697,243.229l-13.693-4.995l0.515-1.409l13.692,4.994L475.697,243.229z M477.506,238.27l-5.901,1.827l-2.607-4.931
		l0.672-1.841l2.585,5.05l5.931-1.966L477.506,238.27z"/>
</g>
<g>
</g>
<g>
</g>
<g>
</g>
<g>
</g>
<g>
</g>
<g>
</g>
<g>
</g>
<g>
</g>
</svg>
