<?xml version="1.0" encoding="utf-8"?>
<!-- Generator: Adobe Illustrator 16.0.3, SVG Export Plug-In . SVG Version: 6.00 Build 0)  -->
<!DOCTYPE svg PUBLIC "-//W3C//DTD SVG 1.1//EN" "http://www.w3.org/Graphics/SVG/1.1/DTD/svg11.dtd">
<svg version="1.1" id="nps_mammoth" xmlns="http://www.w3.org/2000/svg" xmlns:xlink="http://www.w3.org/1999/xlink" x="0px"
	 y="0px" width="885px" height="756px" viewBox="0 0 885 756" enable-background="new 0 0 885 756" xml:space="preserve">
<path fill="none" stroke="#4D4D4D" stroke-width="1.0414" d="M380.873,396.313c0.177-1.526,0.131-5.546-0.064-8.509
	c-0.193-2.962-0.184-6.491-0.233-7.362c-0.047-0.872-0.385-6.451-0.425-7.178c-0.04-0.727-0.137-4.57-3.639-10.438"/>
<polyline fill="none" stroke="#4D4D4D" stroke-width="1.0414" points="361.882,370.808 357.866,364 374.745,354.355 378.97,361.317 
	"/>
<g>
</g>
<g>
	<g>
		<line fill="none" stroke="#000000" stroke-miterlimit="10" x1="571.956" y1="629.738" x2="584.239" y2="638.242"/>
		<g>
			<polygon points="590.044,642.261 579.55,639.94 583.805,637.941 584.177,633.256 			"/>
		</g>
	</g>
</g>
<g>
	<path fill="#ED1C24" d="M545.161,618.341c-1.38,0-2.621-0.74-2.621-2.24v-5.341h-1.38v-1.761l1.38-0.24v-2.641h3.861v2.561h2.221
		v2.081h-2.221v3.761c0,0.7,0.26,0.9,0.58,0.9c0.2,0,0.6-0.32,1.021-0.601l0.94,2.141
		C547.682,617.721,546.722,618.341,545.161,618.341z"/>
	<path fill="#ED1C24" d="M554.341,618.341c-2.78,0-5.281-1.72-5.281-5.001c0-3.221,2.501-5.001,5.281-5.001
		c2.781,0,5.281,1.78,5.281,5.001C559.623,616.721,557.122,618.341,554.341,618.341z M554.341,611.039c-0.72,0-1.2,0.841-1.2,2.301
		c0,1.48,0.48,2.301,1.2,2.301c0.74,0,1.2-0.82,1.2-2.301C555.542,611.88,555.102,611.039,554.341,611.039z"/>
	<path fill="#ED1C24" d="M510.723,626.939c-1.16-0.7-2.38-1.181-3.881-1.181c-0.74,0-1.14,0.38-1.14,0.82
		c0,0.64,2,1.561,3.201,2.021c1.62,0.62,2.98,2.12,2.92,3.7c-0.08,2.341-1.9,4.062-5.441,4.062c-2.881,0-4.081-0.7-5.721-1.7
		l1.56-3.161c1.44,1,2.741,1.48,4.001,1.48c0.64,0,1.32-0.26,1.32-0.801c0-1.1-2.94-1.92-3.641-2.3
		c-1.681-0.9-2.621-1.86-2.621-3.381c0-2.961,3.201-4.021,5.621-4.021c2.621,0,3.841,0.5,5.341,1.26L510.723,626.939z"/>
	<path fill="#ED1C24" d="M516.222,636.341c-1.38,0-2.621-0.74-2.621-2.24v-5.341h-1.38v-1.761l1.38-0.24v-2.641h3.861v2.561h2.221
		v2.081h-2.221v3.761c0,0.7,0.26,0.9,0.58,0.9c0.2,0,0.6-0.32,1.021-0.601l0.94,2.141
		C518.742,635.721,517.782,636.341,516.222,636.341z"/>
	<path fill="#ED1C24" d="M525.402,636.341c-2.78,0-5.281-1.72-5.281-5.001c0-3.221,2.501-5.001,5.281-5.001
		c2.781,0,5.281,1.78,5.281,5.001C530.683,634.721,528.183,636.341,525.402,636.341z M525.402,629.039c-0.72,0-1.2,0.841-1.2,2.301
		c0,1.48,0.48,2.301,1.2,2.301c0.74,0,1.2-0.82,1.2-2.301C526.602,629.88,526.162,629.039,525.402,629.039z"/>
	<path fill="#ED1C24" d="M538.022,636.361c-0.64,0-1.32-0.021-1.96-0.341v4.762h-4.001v-14.104h4.001v0.86
		c0.44-0.46,1.18-1.2,2.42-1.2c2.741,0,4.061,1.74,4.061,4.801C542.543,634.12,540.683,636.361,538.022,636.361z M537.322,629.119
		c-0.44,0-0.78,0.261-1.26,0.841v3c0,0.58,0.24,1.16,0.9,1.16c0.94,0,1.5-1.08,1.5-2.64
		C538.462,629.979,538.122,629.119,537.322,629.119z"/>
	<path fill="#ED1C24" d="M551.961,640.242c-0.96,0-1.741-0.12-2.561-0.32l0.4-2.44c1,0.18,1.3,0.18,1.66,0.18h0.1
		c1.96,0,3.221-1.021,3.701-2.86c-0.68,0.2-1.521,0.34-2.461,0.34c-2.26,0-4.421-1.7-4.421-4.161c0-2.641,1.78-4.961,5.562-4.961
		c3.92,0,5.621,2.681,5.621,6.082C559.563,636.921,556.842,640.242,551.961,640.242z M553.862,628.72c-0.96,0-1.4,0.74-1.4,2.141
		c0,1.12,0.3,1.7,1.14,1.7c0.54,0,1.44-0.32,1.88-0.561C555.482,629.84,555.222,628.72,553.862,628.72z"/>
</g>
<g>
	<path fill="#ED1C24" d="M108.254,331.839c-1.856-1.12-3.808-1.888-6.208-1.888c-1.184,0-1.824,0.608-1.824,1.312
		c0,1.024,3.2,2.496,5.12,3.232c2.592,0.991,4.768,3.392,4.671,5.919c-0.128,3.744-3.04,6.496-8.703,6.496
		c-4.608,0-6.528-1.12-9.151-2.72l2.496-5.056c2.304,1.6,4.384,2.367,6.399,2.367c1.024,0,2.112-0.416,2.112-1.279
		c0-1.76-4.704-3.072-5.824-3.68c-2.688-1.44-4.192-2.976-4.192-5.408c0-4.735,5.12-6.432,8.992-6.432
		c4.191,0,6.144,0.801,8.543,2.017L108.254,331.839z"/>
	<path fill="#ED1C24" d="M117.055,346.878c-2.208,0-4.192-1.184-4.192-3.584v-8.543h-2.208v-2.816l2.208-0.384v-4.224h6.175v4.096
		h3.552v3.328h-3.552v6.016c0,1.12,0.416,1.439,0.928,1.439c0.32,0,0.96-0.512,1.632-0.96l1.504,3.424
		C121.086,345.886,119.551,346.878,117.055,346.878z"/>
	<path fill="#ED1C24" d="M131.742,346.878c-4.448,0-8.447-2.752-8.447-7.999c0-5.152,4-8,8.447-8s8.448,2.848,8.448,8
		C140.19,344.286,136.19,346.878,131.742,346.878z M131.742,335.199c-1.152,0-1.92,1.344-1.92,3.68c0,2.367,0.768,3.68,1.92,3.68
		c1.184,0,1.92-1.312,1.92-3.68C133.662,336.543,132.958,335.199,131.742,335.199z"/>
	<path fill="#ED1C24" d="M151.934,346.91c-1.024,0-2.112-0.032-3.136-0.544v7.615h-6.399v-22.559h6.399v1.376
		c0.704-0.735,1.888-1.92,3.872-1.92c4.384,0,6.496,2.784,6.496,7.68C159.166,343.326,156.19,346.91,151.934,346.91z
		 M150.814,335.327c-0.704,0-1.248,0.416-2.016,1.344v4.8c0,0.928,0.384,1.855,1.44,1.855c1.504,0,2.4-1.728,2.4-4.224
		C152.638,336.703,152.094,335.327,150.814,335.327z"/>
	<path fill="#ED1C24" d="M172.35,346.334v-11.999h-3.616v-3.68h10.015v15.679H172.35z"/>
	<path fill="#ED1C24" d="M192.253,346.91c-6.335,0-9.183-4.096-9.183-8.288c0-4.191,2.848-8.287,9.183-8.287
		c6.336,0,9.184,4.096,9.184,8.287C201.437,342.814,198.589,346.91,192.253,346.91z M192.253,334.463
		c-2.399,0-3.711,1.792-3.711,4.159c0,2.368,1.312,4.192,3.711,4.192c2.4,0,3.712-1.824,3.712-4.192
		C195.965,336.255,194.653,334.463,192.253,334.463z"/>
</g>
<g>
	<path d="M211.036,431.047v-10.472l-4.205,10.472h-3.075l-3.945-10.298v10.298h-5.482v-19.145h6.469l4.555,10.762l4.757-10.762
		h6.439v19.145H211.036z"/>
	<path d="M233.857,431.047c-0.87,0.116-1.798,0.261-2.668,0.261c-1.219,0-2.321-0.377-2.901-1.305
		c-0.928,0.812-2.465,1.537-4.061,1.537c-2.523,0-4.496-1.393-4.496-3.655c0-1.247,0.174-3.22,3.771-4.147l3.829-0.986v-1.537
		c0-0.87-0.174-1.189-1.073-1.189c-0.696,0-0.928,0.377-0.928,0.609c0,0.174,0,0.261,0.058,0.435l-4.902,0.87
		c-0.319-0.609-0.377-1.015-0.377-1.45c0-2.089,2.146-3.452,6.903-3.452c4.003,0,6.121,1.479,6.121,4.555v5.396
		c0,0.957,0.174,1.188,1.102,1.275C233.887,431.047,233.857,431.047,233.857,431.047z M227.331,425.535l-2.03,0.522
		c-0.146,0.232-0.232,0.841-0.232,1.276c0,0.696,0.319,1.189,0.899,1.189c0.493,0,1.189-0.406,1.363-0.726V425.535z"/>
	<path d="M252.563,431.047v-8.586c0-0.986-0.262-1.219-0.639-1.219c-0.608,0-1.218,0.465-1.885,1.189v8.615h-5.802v-8.586
		c0-0.986-0.261-1.219-0.639-1.219c-0.608,0-1.218,0.465-1.885,1.189v8.615h-5.802v-13.518h5.802v1.509
		c1.073-0.899,2.843-2.002,4.38-2.002c1.624,0,2.987,0.668,3.597,2.263c1.306-0.986,3.017-2.263,4.729-2.263
		c2.233,0,3.944,1.189,3.944,4.496v9.515H252.563z"/>
	<path d="M277.793,431.047v-8.586c0-0.986-0.262-1.219-0.639-1.219c-0.608,0-1.218,0.465-1.885,1.189v8.615h-5.802v-8.586
		c0-0.986-0.261-1.219-0.639-1.219c-0.608,0-1.218,0.465-1.885,1.189v8.615h-5.802v-13.518h5.802v1.509
		c1.073-0.899,2.843-2.002,4.38-2.002c1.624,0,2.987,0.668,3.597,2.263c1.306-0.986,3.017-2.263,4.729-2.263
		c2.233,0,3.944,1.189,3.944,4.496v9.515H277.793z"/>
	<path d="M293.131,431.54c-4.032,0-7.658-2.495-7.658-7.252c0-4.67,3.626-7.252,7.658-7.252s7.658,2.582,7.658,7.252
		C300.789,429.19,297.163,431.54,293.131,431.54z M293.131,420.952c-1.044,0-1.74,1.219-1.74,3.336c0,2.146,0.696,3.336,1.74,3.336
		c1.073,0,1.74-1.189,1.74-3.336C294.871,422.171,294.233,420.952,293.131,420.952z"/>
	<path d="M306.935,431.54c-2.002,0-3.8-1.073-3.8-3.249v-7.745h-2.002v-2.552l2.002-0.349v-3.829h5.598v3.713h3.22v3.017h-3.22V426
		c0,1.015,0.377,1.305,0.842,1.305c0.29,0,0.87-0.464,1.479-0.87l1.363,3.104C310.589,430.641,309.197,431.54,306.935,431.54z"/>
	<path d="M321.812,431.047v-8.586c0-0.899-0.232-1.219-0.639-1.219c-0.608,0-1.305,0.522-1.885,1.189v8.615h-5.802V409.9h5.802
		v9.138c1.131-1.016,3.017-2.002,4.438-2.002c2.408,0,3.888,1.509,3.888,4.438v9.572H321.812z"/>
	<path d="M207.643,455.047v-7.629h-7.513v7.629h-5.976v-19.145h5.976v7.106h7.513v-7.106h5.976v19.145H207.643z"/>
	<path d="M224.142,455.54c-4.032,0-7.658-2.495-7.658-7.252c0-4.67,3.626-7.252,7.658-7.252s7.658,2.582,7.658,7.252
		C231.8,453.19,228.174,455.54,224.142,455.54z M224.142,444.952c-1.044,0-1.74,1.219-1.74,3.336c0,2.146,0.696,3.336,1.74,3.336
		c1.073,0,1.74-1.189,1.74-3.336C225.882,446.171,225.244,444.952,224.142,444.952z"/>
	<path d="M237.945,455.54c-2.002,0-3.8-1.073-3.8-3.249v-7.745h-2.002v-2.552l2.002-0.349v-3.829h5.598v3.713h3.22v3.017h-3.22V450
		c0,1.015,0.377,1.305,0.842,1.305c0.29,0,0.87-0.464,1.479-0.87l1.363,3.104C241.6,454.641,240.208,455.54,237.945,455.54z"/>
	<path d="M265.148,441.906c-1.683-1.015-3.452-1.711-5.627-1.711c-1.073,0-1.653,0.551-1.653,1.189c0,0.928,2.9,2.263,4.641,2.93
		c2.35,0.899,4.322,3.074,4.235,5.366c-0.116,3.394-2.756,5.889-7.891,5.889c-4.177,0-5.917-1.016-8.296-2.466l2.263-4.583
		c2.089,1.45,3.975,2.146,5.802,2.146c0.928,0,1.914-0.377,1.914-1.16c0-1.596-4.264-2.785-5.279-3.336
		c-2.437-1.306-3.8-2.698-3.8-4.902c0-4.293,4.642-5.83,8.151-5.83c3.8,0,5.569,0.725,7.744,1.827L265.148,441.906z"/>
	<path d="M277.617,455.569c-0.929,0-1.915-0.029-2.843-0.493v6.903h-5.802v-20.45h5.802v1.248c0.638-0.668,1.711-1.741,3.51-1.741
		c3.974,0,5.889,2.524,5.889,6.962C284.173,452.32,281.475,455.569,277.617,455.569z M276.602,445.068
		c-0.638,0-1.131,0.377-1.827,1.219v4.351c0,0.842,0.348,1.683,1.305,1.683c1.363,0,2.176-1.566,2.176-3.829
		C278.255,446.315,277.762,445.068,276.602,445.068z"/>
	<path d="M295.161,446.896c-0.551-0.695-0.957-0.928-1.74-0.928c-1.103,0-1.45,0.986-1.45,2.872v6.207h-5.802v-13.518h5.338
		l0.115,1.799c0.377-1.16,1.45-2.03,2.64-2.03c1.306,0,2.002,0.406,2.756,1.247L295.161,446.896z"/>
	<path d="M297.565,455.047v-13.518h5.802v13.518H297.565z M300.611,439.76c-1.306,0-2.843-1.131-2.843-2.668
		s1.537-2.698,2.843-2.698s2.813,1.161,2.813,2.698S301.917,439.76,300.611,439.76z"/>
	<path d="M314.532,455.047v-8.586c0-0.986-0.261-1.219-0.639-1.219c-0.608,0-1.218,0.465-1.885,1.189v8.615h-5.802v-13.518h5.802
		v1.509c1.073-0.899,2.843-2.03,4.38-2.03c2.233,0,3.945,1.218,3.945,4.524v9.515H314.532z"/>
	<path d="M336.052,444.372c0.29,0.493,0.551,1.219,0.551,1.943c0,4.468-3.48,5.425-6.556,5.425c-0.377,0-1.393-0.116-1.653-0.146
		c-0.406,0.377-0.899,0.87-0.899,1.276c0,0.232,0.377,0.436,0.899,0.436h5.599c2.93,0,4.177,0.812,4.177,3.161
		c0,3.133-3.394,5.918-8.934,5.918c-4.294,0-6.701-1.422-6.701-3.017c0-0.842,1.044-2.553,2.205-3.568
		c-1.189-0.203-2.089-0.899-2.089-1.682c0-1.161,2.03-2.669,2.987-3.365c-1.682-0.726-2.61-2.553-2.61-4.235
		c0-3.423,3.133-5.482,6.933-5.482c1.479,0,2.437,0.378,3.394,0.609h1.856l3.162-0.231v2.958H336.052z M332.049,456.323h-4.062
		c-0.318,0.406-0.783,0.957-0.783,1.653c0,0.638,1.306,1.189,2.553,1.189c1.74,0,3.133-0.696,3.133-2.03
		C332.89,456.816,332.745,456.323,332.049,456.323z M329.931,444.141c-1.073,0-1.334,1.131-1.334,2.32
		c0,1.16,0.29,2.204,1.363,2.204s1.363-1.044,1.363-2.233S331.004,444.141,329.931,444.141z"/>
	<path d="M350.986,446.055c-1.566-1.044-2.843-1.509-4.119-1.509c-0.986,0-1.334,0.406-1.334,0.929c0,0.754,2.03,1.073,3.771,1.74
		c1.77,0.667,2.785,1.799,2.785,4.003c0,2.582-2.727,4.322-6.266,4.322c-3.336,0-4.555-0.726-6.439-1.509l1.305-3.625
		c1.509,1.015,3.046,1.624,4.525,1.624c0.957,0,1.247-0.349,1.247-0.842c0-0.812-2.204-1.275-3.887-1.943
		c-1.683-0.667-2.697-1.74-2.697-3.8c0-2.64,2.813-4.438,6.353-4.438c2.263,0,4.177,0.521,6.091,1.363L350.986,446.055z"/>
</g>
<path fill="none" stroke="#000000" stroke-width="7" stroke-miterlimit="10" d="M422-8c0,16,3,12,1,35s5,43,6,46s4,62,4,68
	s-9,34-8,39s11,36,12,39s0,10,0,14s-5,3-4,12s-1,9,0,19s6,50,6,53s-1,11-2,14s4,10,2,14s-5,4-7,10s-3,44-3,47s-2,6-5,13s-7,12-8,7
	s-1-10-2-15s-2-9-4-14s-3-5-3-11s0-6-2-13s-4-8-5-13s-5-8-5-8s-2,1-9,7s-20,16-20,16s-11,5-12,8s-5,3-7,8s-12,2-8,12s7,17,15,28
	s14,40,13,51s-4,34-6,40s-3,10-6,16s-9,15-11,12s-2-23-2-34s0-32-5-38s-12-13-15-8s-5,5-7,16s-2,23-12,29s-12,5-16,18s-8,18-4,30
	s14,29,8,42s-10,15-15,29s-3,19-3,27s0,12-3,15s-4-12-8,9s-10,37-18,48s-2,21-14,32s-16,14-22,23"/>
<path fill="none" stroke="#000000" stroke-width="7" stroke-miterlimit="10" d="M366,371c0,0,5,17,10,23s8,5,12,16s0,18,5,28
	s48,42,60,48s78,75,89,86s33,33,46,45s38,22,54,30s33,18,44,25s3,7,19,6s7-10,38-3s54,8,68,22s16,24,36,31s22,15,42,4s27,3,48-16
	s22-1,41-34"/>
<path fill="none" stroke="#000000" stroke-width="7" stroke-miterlimit="10" d="M422-8c0,16,3,12,1,35s5,43,6,46s4,62,4,68
	s-9,34-8,39s11,36,12,39s0,10,0,14s-5,3-4,12s-1,9,0,19s6,50,6,53s-1,11-2,14s4,10,2,14s-5,4-7,10s-3,44-3,47s-2,6-5,13s-7,12-8,7
	s-1-10-2-15s-2-9-4-14s-3-5-3-11s0-6-2-13s-4-8-5-13s-5-8-5-8s-2,1-9,7s-20,16-20,16s-11,5-12,8s-5,3-7,8s-12,2-8,12s7,17,15,28
	s14,40,13,51s-4,34-6,40s-3,10-6,16s-9,15-11,12s-2-23-2-34s0-32-5-38s-12-13-15-8s-5,5-7,16s-2,23-12,29s-12,5-16,18s-8,18-4,30
	s14,29,8,42s-10,15-15,29s-3,19-3,27s0,12-3,15s-4-12-8,9s-10,37-18,48s-2,21-14,32s-16,14-22,23"/>
<path fill="none" stroke="#FAA21B" stroke-width="4" stroke-miterlimit="10" d="M366,371c0,0,5,17,10,23s8,5,12,16s0,18,5,28
	s48,42,60,48s78,75,89,86s33,33,46,45s38,22,54,30s33,18,44,25s3,7,19,6s7-10,38-3s54,8,68,22s16,24,36,31s22,15,42,4s27,3,48-16
	s22-1,41-34"/>
<path fill="none" stroke="#ED1C24" stroke-width="2" stroke-miterlimit="10" d="M366,371c0,0,5,17,10,23s8,5,12,16s0,18,5,28
	s48,42,60,48s78,75,89,86s33,33,46,45s38,22,54,30s33,18,44,25s3,7,19,6s7-10,38-3s54,8,68,22s16,24,36,31s22,15,42,4s27,3,48-16
	s22-1,41-34"/>
<path fill="none" stroke="#000000" stroke-width="2" stroke-miterlimit="10" stroke-dasharray="5,3" d="M331,403c0,0-2,0-13,0
	s-15-6-26-11s-13-9-16-7s-9-3-6-4s0,5,3-1s3-12-1-18s-10-18-5-27s12-24,11-35s-2-34-7-41s-12-11-12-11l-10-6c0,0,2-1,5-4s8-6,7-9
	s-3,8-10-7s-15-25-17-32s-14-23-14-23l-7-13l-6-12c0,0-12-7-2-10s12-8,20-6s11,3,13,6s1,4,5,8s1,10,7,11s5-2,10,2s9,3,9,3s3-4,10-2
	s-2-11,7,2s10,14,12,19s-3-2,2,5s0,2,5,7s-2-2,5,5s10,9,10,12s-5,0,0,3s-2,3,5,3s7-10,11,4s5,28,10,42s4,32,9,39s15,10,13,22
	s-4,24-3,27s-2,19-2,19"/>
<g>
	<path fill="none" d="M202,118c0,0,19-3,25-1s12,5,17,10s5,11,12,14s5,3,11,3s11-3,18,2s16,12,21,20s6,8,13,18s13,10,20,16
		s4,9,11,22s4,6,10,33s8,42,12,47s8,15,7,24"/>
	<path d="M236.462,124.496c-0.527,0.015-1.121-0.09-1.705-0.31c-0.555-0.201-0.862-0.35-1.757-0.84l0.56-0.912
		c0.992,0.529,1.293,0.655,1.927,0.825c1.209,0.304,2.278-0.137,2.954-1.237c0.445-0.724,0.587-1.474,0.421-2.114
		c-0.157-0.556-0.561-1.003-1.426-1.574l-0.692-0.465l2.687-4.373l3.924,2.411l-0.56,0.912l-2.882-1.771l-1.566,2.549l0.538,0.39
		c1.527,1.118,1.824,2.876,0.729,4.657C238.912,123.787,237.753,124.472,236.462,124.496z"/>
	<path d="M241.278,124.808c-0.42-0.345-0.479-0.943-0.134-1.364c0.334-0.407,0.933-0.466,1.353-0.121
		c0.407,0.334,0.466,0.933,0.131,1.34C242.283,125.083,241.685,125.142,241.278,124.808z"/>
	<path d="M245.639,129.392c-1.415-1.87-1.022-4.532,0.861-5.958c1.897-1.436,4.566-1.09,5.981,0.78
		c1.405,1.856,1.012,4.519-0.885,5.955C249.713,131.593,247.044,131.248,245.639,129.392z M251.642,124.849
		c-0.984-1.301-2.936-1.486-4.372-0.399c-1.423,1.077-1.789,3.015-0.804,4.316c0.974,1.288,2.939,1.462,4.362,0.386
		C252.264,128.065,252.616,126.137,251.642,124.849z"/>
	<path d="M265.519,144.328l1.474-5.255c0.151-0.541,0.179-0.639,0.129-0.9c-0.046-0.278-0.299-0.508-0.643-0.604
		c-0.688-0.193-1.541,0.08-2.959,0.918l-0.445,0.264l-1.272,4.535l-1.228-0.344l1.475-5.256c0.151-0.54,0.179-0.639,0.128-0.9
		c-0.045-0.278-0.299-0.508-0.643-0.604c-0.753-0.211-1.712,0.12-3.405,1.182l-1.272,4.535l-1.228-0.344l2.081-7.417l1.228,0.345
		l-0.437,1.555c0.668-0.431,0.857-0.537,1.3-0.73c0.69-0.318,1.5-0.374,2.188-0.181c1.228,0.344,1.689,1.092,1.436,2.31
		c0.689-0.442,0.878-0.548,1.321-0.742c0.689-0.318,1.5-0.374,2.188-0.181c1.31,0.368,1.76,1.218,1.37,2.61l-1.557,5.55
		L265.519,144.328z"/>
	<path d="M272.133,133.869c-0.458,0.039-0.861-0.303-0.899-0.76c-0.039-0.458,0.303-0.861,0.76-0.899
		c0.458-0.039,0.861,0.303,0.899,0.76C272.932,133.427,272.59,133.831,272.133,133.869z M272.287,143.441l-0.643-7.672l1.27-0.106
		l0.643,7.672L272.287,143.441z"/>
	<path d="M276.039,143.092l0.479-12.38l1.273,0.049l-0.478,12.381L276.039,143.092z"/>
	<path d="M281.316,139.719c-0.691,1.737-0.229,3.147,1.225,3.726c0.632,0.251,1.159,0.26,2.146,0.031l0.103,1.12
		c-1.322,0.242-2.004,0.208-2.936-0.162c-1.99-0.792-2.729-2.843-1.83-5.101c0.905-2.274,2.845-3.24,4.882-2.429
		c1.674,0.667,2.292,2.285,1.582,4.069l-0.277,0.695L281.316,139.719z M284.4,137.946c-0.995-0.396-1.929-0.073-2.637,0.926
		l3.506,1.396C285.693,139.156,285.379,138.336,284.4,137.946z"/>
	<path d="M289.001,148.932l7.52-9.844l1.013,0.773l-7.52,9.845L289.001,148.932z"/>
	<path d="M294.36,153.512c-1.588-1.359-1.688-3.882-0.251-5.56c1.447-1.691,3.944-1.969,5.532-0.611
		c1.575,1.348,1.686,3.858,0.239,5.549C298.443,154.568,295.935,154.86,294.36,153.512z M298.901,148.207
		c-1.033-0.884-2.673-0.588-3.733,0.651s-1.1,2.905-0.067,3.789c1.02,0.873,2.66,0.577,3.72-0.663S299.92,149.079,298.901,148.207z"
		/>
	<path d="M300.67,159.517c-1.421-1.535-1.227-4.055,0.396-5.557c1.635-1.513,4.15-1.5,5.571,0.035
		c1.409,1.523,1.228,4.031-0.407,5.544C304.607,161.042,302.08,161.04,300.67,159.517z M305.8,154.77
		c-0.924-0.999-2.589-0.895-3.787,0.214s-1.431,2.761-0.506,3.759c0.912,0.986,2.577,0.882,3.775-0.227
		S306.713,155.755,305.8,154.77z"/>
	<path d="M305.95,166.308c-0.452-0.679-0.616-1.202-0.578-1.819l-3.649,2.429l-0.706-1.061l9.788-6.515l0.706,1.061l-0.806,0.537
		c0.98,0.123,1.856,0.642,2.393,1.448c1.054,1.584,0.473,3.563-1.422,4.825C309.61,168.587,307.211,168.204,305.95,166.308z
		 M311.979,162.887c-0.254-0.382-0.734-0.736-1.267-0.953c-0.354-0.132-0.589-0.18-1.169-0.222l-2.221,1.478
		c-0.551,0.367-0.613,0.428-0.75,0.683c-0.227,0.457-0.128,1.004,0.305,1.654c0.904,1.358,2.478,1.576,4.019,0.55
		C312.186,165.219,312.639,163.876,311.979,162.887z"/>
</g>
<path fill="none" stroke="#939598" stroke-width="5" stroke-miterlimit="10" d="M422-8c0,16,3,12,1,35s5,43,6,46s4,62,4,68
	s-9,34-8,39s11,36,12,39s0,10,0,14s-5,3-4,12s-1,9,0,19s6,50,6,53s-1,11-2,14s4,10,2,14s-5,4-7,10s-3,44-3,47s-2,6-5,13s-7,12-8,7
	s-1-10-2-15s-2-9-4-14s-3-5-3-11s0-6-2-13s-4-8-5-13s-5-8-5-8s-2,1-9,7s-20,16-20,16s-11,5-12,8s-5,3-7,8s-12,2-8,12s7,17,15,28
	s14,40,13,51s-4,34-6,40s-3,10-6,16s-9,15-11,12s-2-23-2-34s0-32-5-38s-12-13-15-8s-5,5-7,16s-2,23-12,29s-12,5-16,18s-8,18-4,30
	s14,29,8,42s-10,15-15,29s-3,19-3,27s0,12-3,15s-4-12-8,9s-10,37-18,48s-2,21-14,32s-16,14-22,23"/>
<g>
	<path fill="none" d="M462,481c0,0,8,6,33,30s76,77,84,82s49,31,71,41"/>
	<path d="M522.116,537.799l7.355-7.355c-0.522,0.343-0.712,0.433-1.349,0.712L519.316,535l-0.955-0.955l3.843-8.475
		c0.293-0.649,0.369-0.827,0.789-1.451l-7.279,7.279l-0.955-0.955l8.399-8.399l1.438,1.438l-4.161,9.277
		c-0.216,0.471-0.268,0.522-0.471,0.802c0.382-0.28,0.471-0.344,0.789-0.483l9.366-4.072l1.438,1.438l-8.399,8.399L522.116,537.799z
		"/>
	<path d="M529.561,545.608c-0.737-0.842-0.812-1.326-0.315-1.923c-0.547-0.039-0.776-0.065-1.069-0.155
		c-0.56-0.154-1.145-0.486-1.552-0.894c-0.928-0.931-0.938-2.141-0.02-3.056c0.842-0.839,1.848-0.952,2.891-0.313l2.467,1.533
		l1.046-1.042c0.472-0.47,0.358-1.069-0.379-1.809c-0.597-0.599-1.043-0.715-1.375-0.384c-0.064,0.063-0.102,0.127-0.166,0.267
		l-1.17-0.766c0.064-0.242,0.115-0.318,0.255-0.458c0.765-0.763,2.127-0.442,3.36,0.795c1.156,1.161,1.333,2.435,0.439,3.324
		l-3.546,3.534c-0.127,0.178-0.077,0.433,0.165,0.777L529.561,545.608z M531.16,541.601l-2.722-1.609
		c-0.408,0.126-0.561,0.228-0.791,0.457c-0.459,0.458-0.447,1.056,0.023,1.528c0.432,0.434,0.865,0.587,2.291,0.819L531.16,541.601z
		"/>
	<path d="M539.365,555.106l4.09-4.08c0.42-0.419,0.497-0.496,0.586-0.763c0.103-0.28-0.012-0.624-0.279-0.891
		c-0.534-0.535-1.462-0.727-3.206-0.691l-0.547,0.012l-3.529,3.521l-0.953-0.956l4.09-4.08c0.42-0.419,0.497-0.496,0.586-0.763
		c0.102-0.28-0.012-0.624-0.279-0.891c-0.585-0.586-1.641-0.778-3.753-0.679l-3.529,3.521l-0.953-0.956l5.771-5.758l0.954,0.956
		l-1.21,1.208c0.84-0.05,1.069-0.05,1.578,0.002c0.802,0.064,1.578,0.435,2.111,0.97c0.954,0.956,0.991,1.884,0.124,2.876
		c0.865-0.05,1.094-0.049,1.604,0.002c0.802,0.064,1.577,0.435,2.111,0.97c1.017,1.02,0.99,2.037-0.093,3.118l-4.319,4.309
		L539.365,555.106z"/>
	<path d="M550.149,565.888l4.08-4.09c0.419-0.42,0.496-0.497,0.584-0.764c0.102-0.28-0.014-0.624-0.281-0.89
		c-0.535-0.534-1.464-0.724-3.208-0.684l-0.547,0.013l-3.521,3.529l-0.956-0.953l4.08-4.09c0.419-0.42,0.496-0.497,0.584-0.764
		c0.102-0.28-0.013-0.624-0.281-0.891c-0.586-0.584-1.643-0.774-3.755-0.67l-3.521,3.529l-0.956-0.953l5.758-5.772l0.956,0.954
		l-1.208,1.21c0.84-0.052,1.069-0.052,1.578-0.001c0.802,0.062,1.579,0.431,2.114,0.964c0.956,0.954,0.995,1.882,0.13,2.876
		c0.866-0.052,1.095-0.052,1.604-0.002c0.802,0.062,1.579,0.431,2.114,0.965c1.02,1.017,0.995,2.035-0.085,3.118l-4.309,4.319
		L550.149,565.888z"/>
	<path d="M555.384,571.403c-1.575-1.556-1.489-4.229,0.155-5.893c1.657-1.677,4.316-1.782,5.891-0.227
		c1.562,1.543,1.489,4.204-0.168,5.881C559.617,572.828,556.945,572.946,555.384,571.403z M560.583,566.141
		c-1.024-1.012-2.779-0.823-3.994,0.406s-1.382,2.986-0.358,3.998c1.012,1,2.767,0.811,3.981-0.418S561.594,567.141,560.583,566.141
		z"/>
	<path d="M561.086,577.001c-0.67-0.654-0.605-1.622,0.149-2.395l3.797-3.889l-0.979-0.956l0.553-0.567l1.218,0.711l1.66-1.7
		l0.966,0.943l-1.66,1.7l1.545,1.509l-0.792,0.811l-1.545-1.509l-3.244,3.323l-0.238,0.27c-0.164,0.193-0.276,0.309-0.327,0.386
		c-0.176,0.206-0.147,0.409,0.059,0.61c0.245,0.239,0.538,0.325,1.252,0.417l-0.229,1.034
		C562.035,577.601,561.55,577.454,561.086,577.001z"/>
	<path d="M567.828,583.187l3.997-4.173c0.374-0.39,0.485-0.533,0.569-0.776c0.096-0.282-0.014-0.611-0.287-0.872
		c-0.611-0.585-1.671-0.753-3.769-0.594l-3.449,3.601l-0.975-0.934l9.077-9.478l0.975,0.934l-4.619,4.823
		c0.838-0.069,1.055-0.086,1.565-0.046c0.816,0.059,1.587,0.398,2.146,0.934c1.04,0.996,1.036,2.015-0.022,3.12l-4.221,4.407
		L567.828,583.187z"/>
	<path d="M572.725,583.113l0.929-1.004l2.524,2.334l-0.929,1.004L572.725,583.113z"/>
	<path d="M584.833,584.136l-6.52,8.405l-1.166-0.905l6.52-8.404l-3.128-2.427l0.761-0.981l7.423,5.759l-0.761,0.981L584.833,584.136
		z"/>
	<path d="M584.827,596.93c-1.876-1.175-2.376-3.803-1.135-5.786c1.251-1.999,3.824-2.682,5.701-1.507
		c1.862,1.166,2.371,3.778,1.12,5.777C589.271,597.397,586.688,598.096,584.827,596.93z M588.753,590.659
		c-1.221-0.764-2.893-0.197-3.81,1.268s-0.697,3.217,0.524,3.981c1.206,0.754,2.877,0.187,3.794-1.278
		S589.958,591.414,588.753,590.659z"/>
	<path d="M596.597,604.227l-0.935-0.576l1.11-5.299l0.129-0.449l-0.328,0.326l-4.312,3.325l-0.965-0.595l2.088-8.565l1.256,0.774
		l-1.74,6.56l-0.107,0.208l0.138-0.189l4.226-3.357l0.287-1.494l1.21,0.746l-1.562,6.648l-0.117,0.224l0.147-0.205l5.131-4.448
		l1.149,0.708L596.597,604.227z"/>
	<path d="M603.246,603.104c-1.027,1.692-0.792,3.245,0.624,4.104c0.615,0.374,1.164,0.475,2.235,0.41l-0.09,1.188
		c-1.423,0.021-2.128-0.134-3.036-0.686c-1.938-1.176-2.349-3.447-1.013-5.646c1.345-2.215,3.539-2.882,5.523-1.677
		c1.63,0.99,1.991,2.788,0.936,4.525l-0.411,0.677L603.246,603.104z M606.777,601.796c-0.969-0.588-2.001-0.415-2.916,0.503
		l3.415,2.073C607.914,603.286,607.73,602.375,606.777,601.796z"/>
	<path d="M614.465,606.965c-0.111-0.339-0.188-0.49-0.328-0.574c-0.432-0.259-1.367,0.042-2.752,0.848l-2.497,4.169l-1.158-0.693
		l4.188-6.995l1.158,0.693l-0.758,1.266c1.531-0.594,2.167-0.675,2.691-0.36c0.263,0.157,0.485,0.521,0.609,1.015L614.465,606.965z"
		/>
	<path d="M622.626,619.489l-0.276-6.048l-1.37-0.795l-2.557,4.405l-1.276-0.741l5.962-10.272l3.128,1.816
		c1.245,0.723,1.729,1.252,1.985,2.171c0.218,0.772,0.096,1.7-0.356,2.478c-0.47,0.81-1.248,1.398-2.14,1.608
		c-0.664,0.176-1.146,0.146-2.008-0.125l0.37,6.353L622.626,619.489z M626.751,609.981c-0.167-0.43-0.404-0.63-1.323-1.163
		l-1.665-0.967l-2.159,3.72l1.666,0.966c1.354,0.786,2.452,0.507,3.22-0.815C626.869,611.069,626.953,610.494,626.751,609.981z"/>
	<path d="M628.586,623.137c-1.931-1.083-2.557-3.684-1.413-5.725c1.153-2.057,3.69-2.863,5.621-1.78
		c1.916,1.074,2.551,3.659,1.397,5.716C633.047,623.389,630.501,624.211,628.586,623.137z M632.205,616.684
		c-1.256-0.704-2.898-0.057-3.744,1.451s-0.541,3.246,0.715,3.951c1.241,0.695,2.883,0.048,3.729-1.459
		S633.445,617.38,632.205,616.684z"/>
	<path d="M639.175,628.916c-0.95-0.59-1.163-1.031-0.861-1.748c-0.535,0.122-0.762,0.164-1.068,0.163
		c-0.58,0.016-1.236-0.131-1.744-0.403c-1.159-0.621-1.521-1.774-0.909-2.917c0.561-1.047,1.491-1.448,2.674-1.141l2.806,0.748
		l0.697-1.301c0.314-0.587,0.032-1.127-0.889-1.62c-0.746-0.399-1.206-0.38-1.427,0.032c-0.042,0.08-0.061,0.151-0.081,0.304
		l-1.342-0.392c-0.009-0.25,0.018-0.338,0.111-0.513c0.51-0.952,1.906-1.042,3.445-0.217c1.444,0.773,1.983,1.94,1.388,3.051
		l-2.363,4.412c-0.07,0.207,0.052,0.436,0.383,0.695L639.175,628.916z M639.537,624.617l-3.072-0.747
		c-0.353,0.24-0.47,0.381-0.623,0.667c-0.306,0.571-0.121,1.141,0.466,1.455c0.54,0.289,0.998,0.31,2.429,0.116L639.537,624.617z"/>
	<path d="M646.625,632.423l0.456-0.919c-1.005,0.406-2.06,0.386-2.979-0.07c-1.79-0.887-2.305-3.011-1.233-5.172
		c1.167-2.354,3.571-3.272,5.732-2.201c0.774,0.384,1.202,0.777,1.494,1.364l2.358-4.758l1.226,0.608l-5.829,11.758L646.625,632.423
		z M648.984,627.665c0.28-0.564,0.343-0.734,0.334-1.04c-0.01-0.507-0.422-0.973-1.164-1.341c-1.548-0.768-3.1-0.15-3.972,1.608
		c-0.728,1.468-0.433,2.94,0.696,3.5c0.436,0.216,1.056,0.302,1.667,0.204c0.37-0.058,0.635-0.147,1.182-0.398L648.984,627.665z"/>
</g>
<g>
	<path fill="none" d="M424,300c0,0-3-51-2-64s-8-46-7-55s8-69,6-83s-12-63-11-71"/>
	<path d="M415.814,174.733l-9.88,4.918c-0.096,0.043-0.249,0.117-0.438,0.186c-0.133,0.058-0.211,0.103-0.285,0.113
		c-0.133,0.058-0.227,0.083-0.467,0.128l10.229,1.152l-0.165,1.466l-11.803-1.33l0.215-1.913l9.654-4.835
		c0.078-0.045,0.191-0.087,0.304-0.129c0.187-0.051,0.205-0.049,0.561-0.154c0.038-0.014,0.111-0.024,0.187-0.052l-9.997-1.125
		l0.166-1.467l11.91,1.342L415.814,174.733z"/>
	<path d="M416.862,166.323c-0.236,2.202-2.382,3.8-4.708,3.55c-2.345-0.252-4.083-2.267-3.847-4.469
		c0.235-2.184,2.362-3.784,4.707-3.532C415.339,162.122,417.096,164.139,416.862,166.323z M409.505,165.533
		c-0.154,1.432,1.087,2.688,2.806,2.872s3.198-0.779,3.352-2.211c0.152-1.414-1.089-2.67-2.808-2.854
		S409.657,164.119,409.505,165.533z"/>
	<path d="M411.053,155.491c-0.26,0.245-0.365,0.378-0.381,0.54c-0.052,0.501,0.616,1.221,1.933,2.135l4.833,0.499l-0.139,1.343
		l-8.108-0.836l0.138-1.343l1.468,0.152c-1.185-1.136-1.527-1.677-1.464-2.286c0.031-0.305,0.267-0.66,0.662-0.981L411.053,155.491z
		"/>
	<path d="M418.312,152.366c-0.093,0.932-0.89,1.485-1.965,1.378l-5.41-0.539l-0.136,1.361l-0.789-0.079l-0.205-1.396l-2.364-0.235
		l0.134-1.344l2.364,0.236l0.214-2.15l1.129,0.112l-0.214,2.15l4.622,0.46l0.36,0.018c0.252,0.007,0.414,0.023,0.505,0.014
		c0.271,0.009,0.412-0.14,0.44-0.427c0.034-0.34-0.083-0.623-0.455-1.239l0.951-0.466
		C418.188,151.25,418.376,151.721,418.312,152.366z"/>
	<path d="M418.96,143.223l-5.75-0.543c-0.538-0.051-0.718-0.05-0.961,0.036c-0.28,0.1-0.471,0.389-0.506,0.766
		c-0.08,0.842,0.446,1.777,1.873,3.322l4.962,0.469l-0.127,1.343l-13.06-1.234l0.127-1.344l6.646,0.628
		c-0.575-0.615-0.722-0.773-1.007-1.198c-0.46-0.676-0.672-1.491-0.6-2.262c0.135-1.433,0.936-2.062,2.458-1.918l6.073,0.574
		L418.96,143.223z"/>
	<path d="M419.774,134.006l-11.843-0.947l0.532-6.657l1.238,0.099l-0.415,5.186l3.948,0.315l0.343-4.289l1.238,0.099l-0.343,4.289
		l4.181,0.334l0.428-5.347l1.238,0.099L419.774,134.006z"/>
	<path d="M420.843,119.373L415.078,119c-0.539-0.035-0.721-0.01-0.96,0.064c-0.278,0.108-0.46,0.421-0.484,0.798
		c-0.054,0.826,0.5,1.746,1.971,3.265l4.975,0.321l-0.087,1.347l-8.136-0.525l0.087-1.347l1.707,0.11
		c-0.593-0.597-0.744-0.77-1.042-1.186c-0.481-0.644-0.717-1.471-0.668-2.225c0.093-1.437,0.874-2.09,2.401-1.991l6.088,0.393
		L420.843,119.373z"/>
	<path d="M421.385,113.412c-0.042,0.935-0.807,1.531-1.886,1.482l-5.428-0.244l-0.062,1.366l-0.791-0.036l-0.28-1.381l-2.373-0.107
		l0.061-1.348l2.373,0.107l0.097-2.157l1.132,0.051l-0.097,2.157l4.638,0.208l0.36-0.001c0.252-0.007,0.414,0,0.505-0.013
		c0.27-0.006,0.403-0.162,0.417-0.45c0.015-0.342-0.117-0.618-0.522-1.212l0.924-0.517
		C421.201,112.305,421.414,112.765,421.385,113.412z"/>
	<path d="M414.7,105.34c-0.239,0.266-0.332,0.408-0.334,0.569c-0.009,0.504,0.716,1.166,2.105,1.965l4.857,0.09l-0.025,1.349
		l-8.149-0.152l0.025-1.349l1.476,0.027c-1.277-1.032-1.663-1.542-1.652-2.154c0.006-0.306,0.211-0.68,0.578-1.033L414.7,105.34z"/>
	<path d="M421.187,96.745c0.015,1.118-0.242,1.535-1.008,1.667c0.391,0.385,0.548,0.553,0.713,0.812
		c0.326,0.48,0.555,1.112,0.6,1.687c0.102,1.31-0.675,2.236-1.967,2.336c-1.184,0.091-2.022-0.476-2.401-1.638l-0.882-2.766
		l-1.471,0.114c-0.664,0.051-0.966,0.58-0.886,1.621c0.065,0.843,0.329,1.22,0.796,1.184c0.09-0.007,0.16-0.031,0.299-0.096
		l0.393,1.342c-0.206,0.142-0.294,0.167-0.491,0.182c-1.077,0.083-1.904-1.044-2.039-2.785c-0.126-1.633,0.566-2.715,1.822-2.812
		l4.988-0.386c0.212-0.052,0.339-0.279,0.379-0.697L421.187,96.745z M417.371,98.755l1.025,2.989
		c0.392,0.168,0.574,0.19,0.897,0.165c0.646-0.05,1.025-0.512,0.974-1.176c-0.047-0.61-0.276-1.008-1.21-2.109L417.371,98.755z"/>
	<path d="M419.36,88.083l-5.692,0.989c-0.532,0.092-0.703,0.159-0.918,0.288c-0.244,0.17-0.349,0.517-0.284,0.89
		c0.142,0.815,0.896,1.58,2.682,2.712l4.912-0.854l0.231,1.33l-8.032,1.396l-0.231-1.33l1.685-0.292
		c-0.716-0.442-0.903-0.574-1.291-0.908c-0.619-0.514-1.042-1.262-1.171-2.007c-0.247-1.418,0.36-2.236,1.867-2.499l6.011-1.045
		L419.36,88.083z"/>
	<path d="M417.273,78.263c0.472,0.592,0.808,1.336,0.951,2.133c0.44,2.445-0.943,4.413-3.406,4.856
		c-2.533,0.456-4.635-0.958-5.079-3.42c-0.073-0.407-0.09-0.807-0.054-1.215c0.046-0.557,0.125-0.828,0.417-1.447l1.218,0.567
		c-0.402,0.712-0.497,1.205-0.366,1.931c0.291,1.612,1.725,2.47,3.532,2.144c1.843-0.332,2.799-1.62,2.49-3.338
		c-0.14-0.779-0.407-1.244-1.021-1.81l0.921-0.879C417.059,77.99,417.197,78.148,417.273,78.263z"/>
	<path d="M412.935,76.041c1.949-0.353,2.956-1.56,2.661-3.189c-0.128-0.709-0.416-1.188-1.175-1.946l0.949-0.721
		c0.959,1.052,1.311,1.684,1.5,2.729c0.404,2.232-1.025,4.046-3.558,4.504c-2.551,0.461-4.506-0.74-4.919-3.025
		c-0.34-1.878,0.768-3.34,2.77-3.703l0.779-0.141L412.935,76.041z M409.613,74.263c0.202,1.116,1.016,1.774,2.311,1.851
		l-0.711-3.933C409.976,72.423,409.415,73.165,409.613,74.263z"/>
	<path d="M413.728,56.551l-4.454,4.104l0.272,1.561l5.018-0.877l0.254,1.454l-11.703,2.044l-0.623-3.564
		c-0.248-1.418-0.153-2.129,0.386-2.918c0.451-0.663,1.24-1.167,2.126-1.321c0.922-0.161,1.874,0.056,2.609,0.604
		c0.562,0.395,0.85,0.783,1.196,1.618l4.626-4.371L413.728,56.551z M403.793,59.511c-0.222,0.404-0.222,0.715-0.04,1.761
		l0.332,1.897l4.237-0.74l-0.331-1.897c-0.27-1.542-1.189-2.204-2.696-1.941C404.55,58.721,404.056,59.026,403.793,59.511z"/>
	<path d="M412.802,49.613c0.358,2.185-1.283,4.296-3.592,4.675c-2.327,0.382-4.54-1.098-4.898-3.282
		c-0.355-2.167,1.268-4.275,3.595-4.657C410.216,45.97,412.446,47.447,412.802,49.613z M405.502,50.811
		c0.233,1.421,1.764,2.301,3.469,2.021s2.875-1.603,2.641-3.023c-0.23-1.403-1.761-2.283-3.466-2.003S405.272,49.408,405.502,50.811
		z"/>
	<path d="M410.989,37.69c0.087,1.115-0.141,1.548-0.897,1.73c0.416,0.358,0.583,0.517,0.765,0.763
		c0.357,0.458,0.627,1.074,0.709,1.644c0.188,1.301-0.527,2.277-1.811,2.462c-1.176,0.169-2.05-0.342-2.504-1.477l-1.062-2.704
		l-1.461,0.21c-0.66,0.095-0.926,0.643-0.778,1.676c0.121,0.838,0.409,1.196,0.872,1.13c0.089-0.013,0.158-0.041,0.293-0.115
		l0.48,1.313c-0.196,0.156-0.283,0.187-0.479,0.215c-1.069,0.153-1.969-0.917-2.218-2.646c-0.233-1.622,0.387-2.748,1.635-2.927
		l4.955-0.712c0.208-0.066,0.321-0.301,0.333-0.721L410.989,37.69z M407.312,39.947l1.22,2.917c0.402,0.142,0.586,0.152,0.907,0.106
		c0.642-0.092,0.99-0.579,0.895-1.238c-0.087-0.606-0.342-0.988-1.347-2.026L407.312,39.947z"/>
	<path d="M409.938,29.833l-1.022,0.088c0.869,0.648,1.398,1.56,1.486,2.582c0.171,1.99-1.376,3.532-3.779,3.739
		c-2.617,0.225-4.649-1.353-4.856-3.755c-0.074-0.861,0.04-1.43,0.389-1.984l-5.289,0.455l-0.117-1.362l13.07-1.124L409.938,29.833z
		 M404.648,30.288c-0.627,0.054-0.805,0.087-1.062,0.253c-0.428,0.272-0.612,0.866-0.542,1.69c0.148,1.721,1.481,2.727,3.435,2.558
		c1.632-0.14,2.736-1.156,2.628-2.411c-0.042-0.484-0.29-1.059-0.691-1.53c-0.241-0.287-0.456-0.467-0.954-0.803L404.648,30.288z"/>
</g>
<path fill="#0E6E84" d="M165.677,436.142c-1.338-9.153,9.125-17.416,17.531-24.054c2.455-1.938,4.773-3.77,6.363-5.315
	c0.775-0.754,3.006-1.483,3.787-2.256c4.705-4.662,8.115-9.521,14.189-12.449c14.765-7.117,37.443-7.267,67.406-0.447
	c5.039,1.147,9.925,2.946,14.65,4.685c5.063,1.864,10.298,3.791,15.66,4.882c9.203,1.873,18.87,1.846,28.22,1.821l2.516-0.006
	l2.929,4.287l-5.222-1.067c-9.456,0.024-19.443-1.201-28.849-3.116c-5.514-1.123-10.823-3.077-15.957-4.966
	c-4.665-1.717-9.687-0.398-14.597-1.516c-29.502-6.715-51.534-9.711-65.874-2.798c-5.772,2.782-10.517,7.483-15.105,12.029
	c-0.785,0.777-1.564,1.55-2.345,2.309c-1.662,1.616-4.02,3.478-6.516,5.45c-8.012,6.326-17.982,14.2-16.806,22.249L165.677,436.142z
	"/>
<g>
	<path fill="none" d="M158.324,402.919c0,0,9.357-6.745,12.838-8.486s2.61-2.829,14.361-2.176s19.148,5.44,36.338,8.704
		s33.51,8.486,48.306,8.269s28.287,4.569,28.287,4.569"/>
	<path fill="#0E6E84" d="M228.679,395.492c-0.271-0.306-0.393-0.423-0.654-0.581c-0.283-0.176-0.676-0.333-1.046-0.407
		c-1.85-0.367-3.595,0.877-3.988,2.854c-0.294,1.48,0.508,2.581,2.078,2.892c0.293,0.058,0.594,0.078,0.9,0.073
		c0.372-0.006,0.592-0.042,1.12-0.162l0.086,1.369c-0.696,0.167-0.972,0.218-1.515,0.217c-0.424-0.005-0.854-0.037-1.327-0.131
		c-2.449-0.486-3.627-2.166-3.164-4.5c0.152-0.766,0.496-1.493,0.979-2.126c0.443-0.562,0.986-1.024,1.625-1.375
		c1.104-0.616,2.167-0.763,3.519-0.495c0.689,0.137,1.207,0.333,1.651,0.633c0.281,0.188,0.437,0.339,0.797,0.729L228.679,395.492z"
		/>
	<path fill="#0E6E84" d="M229.56,402.542l-1.513-0.329l3.446-8.875l1.574,0.169L229.56,402.542z"/>
	<path fill="#0E6E84" d="M235.914,400.443l-2.867,0.78c-0.015,0.303-0.005,0.438,0.045,0.57c0.074,0.203,0.299,0.387,0.502,0.433
		c0.165,0.037,0.483,0.042,0.76-0.002c0.374-0.062,0.608-0.156,1.556-0.582l0.381,1.031c-0.421,0.212-0.596,0.279-0.979,0.446
		c-0.309,0.13-0.556,0.221-0.753,0.27c-0.555,0.155-1.185,0.173-1.692,0.059c-1.129-0.254-1.53-1.077-1.216-2.472
		c0.551-2.447,2.29-3.841,4.255-3.399c1.103,0.248,1.58,0.795,1.397,1.606C237.154,399.843,236.737,400.215,235.914,400.443z
		 M235.383,398.538c-0.292-0.065-0.62,0.034-0.958,0.291c-0.384,0.287-0.613,0.595-1.055,1.375l2.242-0.667
		c0.101-0.151,0.13-0.224,0.156-0.338C235.847,398.842,235.712,398.612,235.383,398.538z"/>
	<path fill="#0E6E84" d="M247.278,401.795l-1.705,4.346l-1.509-0.338l1.414-3.638c0.062-0.159,0.136-0.369,0.161-0.483
		c0.06-0.266,0.012-0.41-0.178-0.453c-0.292-0.065-0.726,0.091-1.247,0.454c-0.836,0.585-1.23,1.096-1.672,2.235l-0.558,1.42
		L240.476,405l1.426-3.635c0.062-0.159,0.123-0.372,0.148-0.486c0.06-0.266,0.012-0.41-0.166-0.45
		c-0.304-0.068-0.739,0.088-1.259,0.451c-0.332,0.232-0.696,0.55-0.879,0.775c-0.107,0.123-0.21,0.286-0.334,0.484
		c-0.194,0.33-0.245,0.438-0.458,0.976l-0.558,1.42l-1.509-0.338l2.203-5.619l1.571,0.179l-0.699,1.575
		c1.05-1.003,1.984-1.367,2.935-1.154c0.761,0.17,1.081,0.642,0.919,1.364c-0.02,0.089-0.069,0.251-0.127,0.451
		c1.056-0.909,1.896-1.213,2.796-1.012c0.812,0.182,1.084,0.629,0.891,1.491C247.352,401.585,247.313,401.697,247.278,401.795z"/>
	<path fill="#0E6E84" d="M252.078,407.431l-1.365-0.266l0.596-1.631c-0.634,0.604-0.914,0.815-1.468,1.078
		c-0.526,0.255-1.061,0.349-1.469,0.27c-0.689-0.134-1.022-1.007-0.808-2.104c0.321-1.646,1.334-3.037,2.601-3.558
		c0.59-0.243,1.097-0.263,1.926-0.101c0.549,0.107,0.886,0.212,2.035,0.635L252.078,407.431z M251.793,402.172
		c-1.046-0.204-2.228,0.969-2.527,2.5c-0.104,0.536-0.026,0.882,0.229,0.932c0.229,0.045,0.703-0.208,1.18-0.618
		c0.625-0.553,1.095-1.203,1.327-1.847l0.289-0.804C252.058,402.237,251.971,402.207,251.793,402.172z"/>
	<path fill="#0E6E84" d="M258.522,403.544l-1.297-0.204l-1.036,3.247c0.367-0.074,0.491-0.107,0.783-0.207
		c0.236-0.081,0.349-0.129,0.632-0.256l0.371,0.993c-0.215,0.111-0.387,0.203-0.5,0.25c-0.328,0.159-0.916,0.383-1.246,0.476
		c-0.552,0.164-1.02,0.208-1.688,0.183c-0.073-0.209-0.09-0.436-0.035-0.782c0.034-0.218,0.133-0.598,0.258-0.973l1.009-3.159
		l-0.977-0.153l0.336-1.053l1.001,0.078l0.517-1.617l1.503,0.064l-0.569,1.78l1.285,0.201L258.522,403.544z"/>
	<path fill="#0E6E84" d="M260.326,408.68l-1.536-0.185l1.631-5.815l1.582,0.021L260.326,408.68z M262.507,400.797
		c-0.149,0.479-0.604,0.778-1.069,0.722c-0.361-0.043-0.608-0.492-0.548-0.996c0.006-0.051,0.025-0.102,0.044-0.151
		c0.163-0.479,0.605-0.779,1.069-0.723c0.362,0.043,0.594,0.504,0.532,1.021C262.531,400.708,262.526,400.747,262.507,400.797z"/>
	<path fill="#0E6E84" d="M266.427,404.582c-0.574-0.355-0.841-0.453-1.256-0.483c-0.506-0.037-0.803,0.111-0.824,0.396
		c-0.006,0.09,0.013,0.183,0.059,0.265c0.103,0.203,0.175,0.287,0.833,0.909c0.84,0.817,1.083,1.239,1.037,1.875
		c-0.081,1.103-0.962,1.755-2.221,1.663c-0.247-0.018-0.634-0.072-0.967-0.148c-0.487-0.114-0.679-0.167-1.174-0.347l0.52-1.227
		c0.631,0.281,1.014,0.4,1.39,0.427c0.48,0.035,0.78-0.152,0.803-0.463c0.017-0.233-0.086-0.424-0.39-0.733
		c-0.389-0.393-0.619-0.632-0.68-0.688c-0.182-0.195-0.337-0.39-0.467-0.568c-0.2-0.302-0.293-0.621-0.267-0.984
		c0.081-1.116,0.958-1.704,2.398-1.599c0.635,0.046,1.172,0.203,1.738,0.479L266.427,404.582z"/>
	<path fill="#0E6E84" d="M277.938,402.75c-0.314-0.26-0.454-0.356-0.735-0.472c-0.307-0.129-0.719-0.224-1.096-0.239
		c-1.883-0.075-3.412,1.424-3.493,3.437c-0.06,1.506,0.903,2.468,2.5,2.532c0.299,0.012,0.599-0.015,0.9-0.068
		c0.367-0.063,0.577-0.133,1.08-0.334l0.298,1.339c-0.661,0.272-0.925,0.366-1.462,0.449c-0.418,0.061-0.849,0.096-1.33,0.077
		c-2.493-0.1-3.917-1.574-3.822-3.95c0.031-0.779,0.257-1.55,0.636-2.25c0.35-0.624,0.813-1.164,1.391-1.609
		c0.994-0.78,2.021-1.09,3.397-1.035c0.701,0.028,1.243,0.141,1.728,0.368c0.307,0.142,0.484,0.266,0.9,0.595L277.938,402.75z"/>
	<path fill="#0E6E84" d="M282.107,405.758c-0.097-0.076-0.146-0.095-0.237-0.104c-0.22-0.024-0.452,0.068-0.755,0.323
		c-0.358,0.288-0.645,0.635-0.876,1.068c-0.228,0.407-0.358,0.758-0.578,1.571l-0.288,1.067l-1.538-0.169l1.569-5.832l1.375-0.019
		l-0.443,1.77c0.139-0.194,0.247-0.339,0.31-0.437c0.244-0.313,0.512-0.611,0.787-0.855c0.306-0.28,0.578-0.381,0.94-0.342
		c0.194,0.021,0.305,0.086,0.52,0.267L282.107,405.758z"/>
	<path fill="#0E6E84" d="M286.655,407.266l-2.816,0.943c0.002,0.303,0.02,0.438,0.078,0.566c0.085,0.199,0.321,0.369,0.526,0.403
		c0.167,0.027,0.484,0.014,0.758-0.046c0.37-0.083,0.598-0.191,1.52-0.67l0.439,1.008c-0.408,0.235-0.578,0.312-0.952,0.501
		c-0.301,0.147-0.542,0.252-0.736,0.312c-0.544,0.187-1.172,0.241-1.685,0.156c-1.141-0.189-1.588-0.987-1.354-2.397
		c0.409-2.474,2.065-3.964,4.052-3.636c1.115,0.185,1.622,0.703,1.486,1.523C287.858,406.596,287.464,406.992,286.655,407.266z
		 M286.016,405.396c-0.295-0.049-0.617,0.069-0.939,0.345c-0.367,0.308-0.578,0.629-0.974,1.432l2.199-0.795
		c0.092-0.156,0.117-0.231,0.136-0.346C286.497,405.673,286.35,405.451,286.016,405.396z"/>
	<path fill="#0E6E84" d="M292.375,408.48l-2.867,0.78c-0.015,0.303-0.005,0.438,0.045,0.57c0.074,0.203,0.299,0.387,0.502,0.433
		c0.165,0.037,0.483,0.042,0.76-0.002c0.374-0.062,0.608-0.156,1.556-0.582l0.381,1.031c-0.421,0.212-0.596,0.279-0.979,0.446
		c-0.309,0.13-0.556,0.221-0.753,0.27c-0.555,0.155-1.185,0.173-1.692,0.059c-1.129-0.254-1.53-1.077-1.216-2.472
		c0.551-2.447,2.29-3.841,4.255-3.399c1.103,0.249,1.58,0.795,1.397,1.606C293.616,407.88,293.199,408.253,292.375,408.48z
		 M291.845,406.576c-0.292-0.065-0.62,0.034-0.958,0.291c-0.384,0.287-0.613,0.595-1.055,1.375l2.242-0.667
		c0.101-0.151,0.13-0.224,0.156-0.338C292.309,406.88,292.174,406.65,291.845,406.576z"/>
	<path fill="#0E6E84" d="M299.91,408.498c-0.133,0.083-0.423,0.243-0.874,0.49l-0.673,0.359c-0.303,0.156-0.524,0.267-1.131,0.537
		c0.092,0.663,0.126,0.822,0.303,1.564c0.238,0.949,0.286,1.112,0.62,2.198l-1.722-0.501c-0.198-0.761-0.258-1.022-0.326-1.394
		c-0.078-0.429-0.116-0.765-0.184-1.556l-0.188,0.04l-1.113,2.384l-1.485-0.432l4.049-8.61l1.557,0.277l-2.407,5.107l0.48-0.253
		l0.678-0.331l0.655-0.392l0.708-0.43l1.723,0.501C300.291,408.257,300.058,408.406,299.91,408.498z"/>
</g>
<g>
	<path fill="none" d="M239,181c0,0,12,26,16,32s11,10,11,13s0,9,0,9l-1,7c0,0,7,1,11,12s8,27,9,37s2,13-1,24s-6,13-8,19s-4,8-3,13"
		/>
	<path d="M274.108,242.018c-0.236-0.063-0.467-0.148-0.668-0.269c-0.366-0.212-0.524-0.378-0.871-0.868
		c0.662,1.126,0.404,2.231-0.686,2.923c-0.443,0.281-0.958,0.449-1.488,0.483c-1.226,0.085-2.112-0.472-2.973-1.827l-2.179-3.432
		l9.203-3.978l1.93,3.04c0.724,1.14,0.863,1.638,0.697,2.33c-0.131,0.492-0.467,0.972-0.961,1.285
		C275.543,242.066,274.779,242.179,274.108,242.018z M270.918,240.045l-0.643-1.013l-2.539,1.096l0.644,1.013
		c0.7,1.102,1.596,1.421,2.482,0.858C271.508,241.589,271.53,241.007,270.918,240.045z M274.78,238.375l-0.651-1.026l-2.37,1.025
		l0.604,0.95c0.587,0.924,1.534,1.212,2.332,0.706C275.251,239.675,275.287,239.172,274.78,238.375z"/>
	<path d="M277.703,247.996l-3.002-1.658c-0.256,0.239-0.357,0.359-0.42,0.508c-0.102,0.228-0.063,0.561,0.068,0.762
		c0.107,0.164,0.367,0.424,0.631,0.609c0.359,0.249,0.629,0.359,1.757,0.769l-0.514,1.161c-0.519-0.163-0.718-0.248-1.169-0.418
		c-0.361-0.141-0.639-0.264-0.841-0.382c-0.584-0.317-1.121-0.809-1.449-1.312c-0.731-1.117-0.401-2.122,0.98-3.024
		c2.424-1.584,4.985-1.341,6.257,0.605c0.714,1.093,0.669,1.929-0.134,2.454C279.213,248.496,278.568,248.47,277.703,247.996z
		 M278.794,245.992c-0.189-0.289-0.541-0.471-1.027-0.53c-0.548-0.071-0.986,0-1.979,0.29l2.394,1.25
		c0.204-0.044,0.288-0.081,0.401-0.155C278.935,246.617,279.008,246.318,278.794,245.992z"/>
	<path d="M277.009,256.802l-0.542-1.51l1.969-0.373c-0.974-0.271-1.347-0.424-1.935-0.819c-0.563-0.372-0.973-0.846-1.135-1.297
		c-0.273-0.762,0.395-1.608,1.609-2.043c1.821-0.653,3.798-0.471,5.062,0.478c0.589,0.442,0.908,0.933,1.238,1.85
		c0.218,0.607,0.312,1.003,0.571,2.392L277.009,256.802z M282.055,253.414c-0.416-1.158-2.276-1.637-3.97-1.029
		c-0.593,0.213-0.89,0.495-0.789,0.777c0.091,0.254,0.62,0.574,1.309,0.805c0.917,0.292,1.839,0.375,2.614,0.225l0.968-0.188
		C282.147,253.715,282.125,253.611,282.055,253.414z"/>
	<path d="M283.203,262.822c-0.723-0.154-1.598-0.498-3.104-1.212c-0.939-0.449-1.257-0.618-2.128-1.151l-0.406-1.319l6.77-2.082
		l0.685,1.563l-5.006,1.539c1.097,0.401,1.435,0.532,1.854,0.67c1.206,0.399,1.77,0.445,2.501,0.22
		c0.387-0.119,0.618-0.237,0.937-0.477l0.856,1.762c-0.446,0.184-0.771,0.3-1.087,0.397
		C284.472,262.918,283.854,262.952,283.203,262.822z"/>
	<path d="M284.585,268.43l-2.343-2.501c-0.317,0.148-0.45,0.231-0.556,0.354c-0.167,0.185-0.233,0.514-0.17,0.745
		c0.051,0.188,0.218,0.516,0.412,0.773c0.266,0.347,0.488,0.536,1.434,1.272l-0.846,0.945c-0.443-0.314-0.606-0.457-0.983-0.758
		c-0.3-0.245-0.526-0.447-0.682-0.623c-0.458-0.481-0.816-1.114-0.973-1.692c-0.351-1.288,0.272-2.141,1.863-2.574
		c2.792-0.76,5.151,0.261,5.762,2.503c0.343,1.258,0.042,2.039-0.883,2.291C285.867,269.371,285.262,269.147,284.585,268.43z
		 M286.24,266.861c-0.09-0.333-0.369-0.614-0.813-0.819c-0.5-0.237-0.938-0.304-1.971-0.334l1.891,1.925
		c0.208,0.021,0.298,0.012,0.429-0.023C286.181,267.499,286.343,267.237,286.24,266.861z"/>
	<path d="M287.018,274.555c0.044-0.134,0.045-0.196,0.02-0.298c-0.06-0.248-0.251-0.463-0.646-0.692
		c-0.453-0.275-0.942-0.45-1.502-0.53c-0.531-0.087-0.963-0.09-1.932-0.009l-1.27,0.108l-0.421-1.734l6.94-0.59l0.561,1.484
		l-2.093,0.215c0.265,0.074,0.464,0.134,0.595,0.164c0.436,0.141,0.864,0.314,1.237,0.517c0.424,0.221,0.641,0.477,0.74,0.885
		c0.053,0.219,0.027,0.364-0.084,0.668L287.018,274.555z"/>
	<path d="M287.251,283.277c-0.093-0.517-0.13-0.891-0.153-1.268l-3.446,0.075l-0.342-1.889l10.016-0.228l0.609,3.364
		c0.339,1.874-0.44,3.127-2.122,3.432C289.454,287.191,287.719,285.859,287.251,283.277z M292.277,283.175l-0.232-1.284l-3.34,0.071
		l0.025,0.224c0.032,0.345,0.068,0.46,0.103,0.652c0.168,0.93,0.361,1.321,0.772,1.658c0.409,0.322,1.059,0.463,1.693,0.349
		C292.126,284.696,292.451,284.134,292.277,283.175z"/>
	<path d="M287.866,293.801c-0.526-0.124-1.034-0.355-1.503-0.651c-1.023-0.673-1.483-1.438-1.618-2.675
		c-0.176-1.625,0.726-2.628,2.529-2.823c2.653-0.288,4.693,1.135,4.942,3.431c0.178,1.64-0.727,2.613-2.605,2.816
		C289.045,293.96,288.407,293.923,287.866,293.801z M290.826,291.052c-0.05-0.462-0.555-0.95-1.282-1.249
		c-0.663-0.275-1.4-0.391-2.071-0.318c-0.879,0.095-1.467,0.521-1.412,1.028c0.021,0.194,0.169,0.449,0.338,0.612
		c0.724,0.691,1.893,1.047,2.967,0.93C290.305,291.953,290.881,291.559,290.826,291.052z"/>
	<path d="M291.412,301.764l-5.377-0.378l-0.149-1.779l4.499,0.316c0.197,0.014,0.453,0.007,0.587-0.004
		c0.314-0.026,0.456-0.128,0.438-0.338c-0.03-0.359-0.352-0.784-0.931-1.232c-0.37-0.285-0.846-0.577-1.158-0.701
		c-0.172-0.076-0.388-0.133-0.649-0.202c-0.43-0.1-0.567-0.118-1.234-0.167l-1.757-0.124l-0.149-1.78l6.952,0.487l0.346,1.793
		l-1.977-0.226c1.468,0.811,2.191,1.714,2.285,2.835c0.08,0.957-0.319,1.412-1.335,1.497
		C291.668,301.773,291.532,301.769,291.412,301.764z"/>
	<path d="M285.516,308.81l0.186-1.685l2.022,0.541c-0.251-0.179-0.432-0.319-0.542-0.422c-0.303-0.26-0.57-0.576-0.815-0.951
		c-0.424-0.666-0.668-1.462-0.611-1.984c0.099-0.895,0.947-1.329,2.244-1.186c2.892,0.32,5.144,2.334,4.914,4.421
		c-0.048,0.432-0.154,0.708-0.475,1.291l3.863,1.091l-0.006,1.826L285.516,308.81z M291.579,307.609
		c0.054-0.492-0.34-1.154-0.981-1.633c-0.615-0.445-1.711-0.898-2.442-0.979c-0.447-0.05-0.732,0.07-0.76,0.323
		s0.217,0.764,0.601,1.258c0.621,0.793,1.542,1.468,2.26,1.668l0.85,0.23C291.391,308.222,291.543,307.937,291.579,307.609z"/>
	<path d="M289.28,315.973c0.513-0.585,0.674-0.87,0.788-1.336c0.138-0.568,0.027-0.935-0.294-1.013
		c-0.102-0.025-0.211-0.021-0.312,0.017c-0.25,0.078-0.359,0.145-1.191,0.775c-1.09,0.8-1.616,0.997-2.33,0.823
		c-1.239-0.301-1.813-1.428-1.47-2.842c0.067-0.277,0.203-0.707,0.353-1.072c0.222-0.533,0.318-0.741,0.617-1.27l1.297,0.824
		c-0.439,0.665-0.647,1.078-0.75,1.5c-0.131,0.539,0.024,0.917,0.374,1.001c0.262,0.063,0.498-0.018,0.907-0.304
		c0.521-0.367,0.836-0.584,0.912-0.643c0.257-0.169,0.507-0.309,0.735-0.423c0.381-0.17,0.763-0.216,1.17-0.117
		c1.253,0.304,1.755,1.414,1.362,3.031c-0.173,0.714-0.453,1.294-0.875,1.886L289.28,315.973z"/>
	<path d="M287.431,329.765l1.136-2.743l-7.163-4.378l0.723-1.746l7.157,4.392l1.136-2.743l1.391,0.835l-2.995,7.232L287.431,329.765
		z"/>
	<path d="M282.648,331.068c0.122-0.072,0.163-0.118,0.211-0.211c0.117-0.227,0.114-0.515-0.034-0.947
		c-0.161-0.505-0.416-0.958-0.786-1.386c-0.343-0.414-0.667-0.701-1.451-1.275l-1.029-0.752l0.821-1.585l5.625,4.111l-0.551,1.488
		l-1.721-1.211c0.151,0.23,0.263,0.406,0.341,0.515c0.236,0.392,0.445,0.805,0.594,1.203c0.175,0.445,0.17,0.78-0.023,1.153
		c-0.104,0.2-0.219,0.292-0.503,0.449L282.648,331.068z"/>
	<path d="M275.463,335.163l0.61-1.484l1.711,1.045c-0.54-0.855-0.715-1.219-0.886-1.906c-0.169-0.653-0.155-1.28,0.028-1.724
		c0.308-0.749,1.371-0.928,2.564-0.437c1.79,0.736,3.134,2.198,3.437,3.749c0.141,0.723,0.048,1.301-0.322,2.203
		c-0.246,0.597-0.441,0.954-1.18,2.158L275.463,335.163z M281.479,336.032c0.468-1.138-0.591-2.741-2.256-3.426
		c-0.583-0.24-0.992-0.23-1.106,0.047c-0.103,0.25,0.075,0.842,0.431,1.475c0.485,0.832,1.113,1.512,1.789,1.92l0.845,0.51
		C281.345,336.318,281.399,336.226,281.479,336.032z"/>
	<path d="M274.102,338.973l0.641-1.665l6.04,3.465l-0.47,1.763L274.102,338.973z M282.298,343.639
		c-0.494-0.303-0.699-0.896-0.505-1.399c0.151-0.392,0.723-0.542,1.268-0.332c0.056,0.021,0.106,0.057,0.157,0.093
		c0.489,0.316,0.699,0.896,0.505,1.399c-0.151,0.392-0.731,0.522-1.291,0.307C282.391,343.69,282.349,343.674,282.298,343.639z"/>
	<path d="M272.725,344.448l0.087-1.783l10.75,2.238l0.106,1.823L272.725,344.448z"/>
</g>
<g>
	<g>
		<polyline fill="none" stroke="#000000" stroke-width="2" points="208.945,338.391 242,345 261.36,369.679 		"/>
		<g>
			<path d="M260.864,369.046c0.354-2.934,2.991-6.269,5.197-8.103c-1.261,4.63-1.604,9.632-0.305,14.339
				c-4.199-2.432-9.197-3.035-13.999-3.118C254.324,370.463,257.719,368.753,260.864,369.046z"/>
		</g>
	</g>
</g>
<path d="M908.395,723.467"/>
<path fill="none" stroke="#757679" stroke-width="2" stroke-miterlimit="10" stroke-dasharray="5,3" d="M264,382c0,0-40-7-50-3
	s-30,19-30,19s-5-1-7,5s-2,7-3,11s-1,8,2,12s3,5,4,9s-1,8-1,13s1,24,1,24s-2,3-2,9s-1,13,1,17s9,5,5,12s-9,11-9,11l-19,20"/>
<line fill="none" stroke="#827D43" stroke-width="0.604" x1="323.293" y1="464.018" x2="323.999" y2="464.215"/>
<path fill="#B1B3B6" d="M349.714,389.687"/>
<path fill="#B1B3B6" d="M344.129,386.077"/>
<path fill="none" stroke="#000000" stroke-width="4" d="M365.964,359.37c0.776-6.34,2.668-17.507,4.514-19.569
	c0.733-0.817,2.809-3.537,4.648-3.066c3.157,0.808,5.904,0.419,6.343-1.312c0.862-3.391-4.901-8.847-4.175-11.508
	C380,314,380,311,380.5,303s-3-6-5.5-14s-6-13.5-2.5-18.5s6-6,2.5-8.5s-5-2.5-4-4.5s7.5-8,2-16.5s-8.5-6.5-12-15.5s-3.5-9.5-2-13
	s-3-3-4.5-12s-2.5-14.5-4.5-22"/>
<g>
	<polygon points="366.748,340.467 367.413,343.229 364.812,342.475 	"/>
	<path fill="none" stroke="#000000" stroke-width="0.604" d="M366.112,342.811"/>
	<path fill="none" stroke="#000000" stroke-width="0.604" d="M366.112,342.811c0,0-0.862,3.355-1.861,7.585"/>
</g>
<g>
	<polygon points="378.115,385.778 376.716,383.305 379.424,383.317 	"/>
	<path fill="none" stroke="#000000" stroke-width="0.604" d="M378.082,383.351"/>
	<path fill="none" stroke="#000000" stroke-width="0.604" d="M378.082,383.351c0,0-0.094-3.463-0.297-7.806"/>
</g>
<g>
	<g>
		<g>
			<g>
				<path fill="#006838" d="M368.935,409.743l0.697-0.184c0,0-0.172-0.641-0.474-1.763c-0.15-0.561-0.332-1.242-0.541-2.023
					c-0.177-0.785-0.377-1.669-0.595-2.635c-0.806-3.868-1.696-9.131-1.442-14.414c0.107-5.285,1.624-10.473,3.63-13.875
					c0.459-0.875,1.015-1.596,1.448-2.271c0.501-0.626,0.92-1.188,1.296-1.624c0.785-0.844,1.233-1.327,1.233-1.327l-0.253-0.257
					c0,0-0.459,0.486-1.263,1.336c-0.386,0.439-0.816,1.006-1.331,1.638c-0.446,0.681-1.017,1.411-1.492,2.295
					c-2.071,3.443-3.655,8.711-3.809,14.061c-0.3,5.351,0.553,10.664,1.333,14.576c0.212,0.979,0.407,1.875,0.579,2.671
					c0.203,0.783,0.379,1.466,0.524,2.028C368.768,409.101,368.935,409.743,368.935,409.743z"/>
			</g>
			<g>
				<path fill="#006838" d="M372.781,370.78l-3.938-1.511l0.047-0.14l6.076-1.747c1.895-0.896,3.79-1.792,5.685-2.687
					c-1.344,1.608-2.688,3.216-4.032,4.824l-3.221,5.439l-0.135,0.026L372.781,370.78z"/>
			</g>
		</g>
	</g>
</g>
<line fill="none" stroke="#000000" stroke-width="0.302" x1="334.257" y1="384.195" x2="342.281" y2="379.611"/>
<line fill="none" stroke="#000000" stroke-width="0.302" x1="342.596" y1="372.271" x2="347.476" y2="373.646"/>
<line fill="none" stroke="#000000" stroke-width="0.302" x1="350.727" y1="365.574" x2="355.165" y2="368.885"/>
<line fill="none" stroke="#000000" stroke-width="0.302" x1="383.17" y1="353.448" x2="386.052" y2="358.495"/>
<line fill="none" stroke="#000000" stroke-width="0.302" x1="585.289" y1="287.928" x2="593.422" y2="302.168"/>
<polyline fill="none" stroke="#000000" stroke-width="0.302" points="363.064,363.213 352.975,345.551 323.806,355.449 "/>
<g>
	<circle cx="349.114" cy="393.207" r="1.124"/>
	<path d="M349.115,393.208"/>
</g>
<g>
	<circle cx="411.338" cy="334.352" r="1.125"/>
	<path d="M411.338,334.353"/>
</g>
<g>
	<rect x="348.266" y="373.03" transform="matrix(0.4955 0.8686 -0.8686 0.4955 501.2443 -114.7276)" width="2.249" height="2.25"/>
	<path d="M349.392,374.155"/>
</g>
<g>
	<rect x="355.149" y="368.98" transform="matrix(0.496 0.8683 -0.8683 0.496 500.9204 -122.8306)" width="2.249" height="2.251"/>
	<path d="M356.273,370.104"/>
</g>
<g>
	<rect x="385.77" y="358.709" transform="matrix(0.4958 0.8684 -0.8684 0.4958 507.573 -154.5631)" width="2.248" height="2.251"/>
	<path d="M386.896,359.835"/>
</g>
<g>
	
		<rect x="391.236" y="354.219" transform="matrix(0.4956 0.8685 -0.8685 0.4956 506.5264 -161.5521)" width="2.248" height="2.251"/>
	<path d="M392.359,355.343"/>
</g>
<g>
	<rect x="343.347" y="377.24" transform="matrix(0.4958 0.8684 -0.8684 0.4958 502.2488 -108.3873)" width="2.25" height="2.248"/>
	<path d="M344.471,378.363"/>
</g>
<g>
	<rect x="387.792" y="364.127" transform="matrix(0.496 0.8683 -0.8683 0.496 513.1575 -153.621)" width="2.249" height="2.25"/>
	<path d="M388.916,365.252"/>
</g>
<g>
	<rect x="362.612" y="363.483" transform="matrix(0.4961 0.8683 -0.8683 0.4961 500.3756 -132.2303)" width="2.998" height="3"/>
	<path d="M364.112,364.984"/>
</g>
<g>
	
		<rect x="379.625" y="362.335" transform="matrix(0.4962 0.8682 -0.8682 0.4962 508.4286 -147.7275)" width="3.749" height="3.749"/>
	<path d="M381.5,364.209"/>
</g>
<g>
	<path d="M394.806,327.709l0.546-0.016l1.639,3.586l-0.567,0.017l-0.396-0.905l-1.778,0.052l-0.343,0.927l-0.546,0.016
		L394.806,327.709z M395.074,328.19l-0.67,1.82l1.446-0.042L395.074,328.19z"/>
	<path d="M397.39,328.613l0.458-0.013l0.012,0.385l0.01-0.001c0.178-0.312,0.439-0.46,0.83-0.471
		c0.307-0.01,0.618,0.138,0.769,0.492c0.171-0.385,0.568-0.531,0.807-0.538c0.676-0.02,0.933,0.41,0.949,0.988l0.049,1.7
		l-0.489,0.014l-0.046-1.582c-0.009-0.326-0.099-0.735-0.494-0.724c-0.5,0.015-0.683,0.509-0.669,1.003l0.039,1.337l-0.489,0.014
		l-0.046-1.582c-0.009-0.326-0.099-0.734-0.494-0.724c-0.5,0.015-0.683,0.509-0.669,1.003l0.039,1.337l-0.489,0.014L397.39,328.613z
		"/>
	<path d="M402.022,328.479l0.468-0.014l0.011,0.374h0.01c0.124-0.201,0.419-0.449,0.887-0.462c0.77-0.022,1.163,0.596,1.183,1.308
		c0.021,0.729-0.297,1.446-1.098,1.469c-0.468,0.014-0.739-0.161-0.896-0.4h-0.011l0.042,1.456l-0.489,0.014L402.022,328.479z
		 M403.307,328.776c-0.531,0.015-0.771,0.526-0.757,1.021c0.013,0.442,0.257,0.981,0.809,0.966c0.525-0.016,0.727-0.609,0.704-1.025
		C404.06,329.259,403.837,328.761,403.307,328.776z"/>
	<path d="M405.167,327.139l0.489-0.014l0.047,1.629l0.011-0.001c0.169-0.286,0.471-0.456,0.84-0.467
		c0.687-0.02,1.006,0.398,1.026,1.11l0.046,1.576l-0.489,0.014l-0.04-1.374c-0.018-0.618-0.162-0.916-0.589-0.929
		c-0.557,0.016-0.793,0.471-0.775,1.115l0.035,1.228l-0.488,0.014L405.167,327.139z"/>
	<path d="M408.948,327.686l-0.552,0.016l-0.016-0.552l0.551-0.016L408.948,327.686z M408.445,328.294l0.489-0.014l0.077,2.652
		l-0.489,0.014L408.445,328.294z"/>
	<path d="M411.25,328.609l-0.702,0.02l0.042,1.45c0.009,0.307,0.201,0.469,0.424,0.462c0.151-0.004,0.259-0.054,0.33-0.104
		l0.012,0.416c-0.108,0.035-0.258,0.081-0.415,0.086c-0.504,0.015-0.823-0.216-0.838-0.747l-0.044-1.549l-0.599,0.018l-0.011-0.396
		l0.598-0.018l-0.018-0.614l0.484-0.171l0.022,0.771l0.702-0.02L411.25,328.609z"/>
	<path d="M411.818,326.947l0.489-0.015l0.047,1.629h0.011c0.169-0.286,0.471-0.457,0.84-0.467c0.687-0.021,1.006,0.397,1.027,1.109
		l0.045,1.576l-0.489,0.015l-0.04-1.374c-0.018-0.618-0.162-0.916-0.589-0.93c-0.557,0.017-0.793,0.471-0.775,1.115l0.036,1.228
		l-0.489,0.015L411.818,326.947z"/>
	<path d="M417.141,330.588c-0.185,0.073-0.396,0.184-0.833,0.196c-0.941,0.027-1.39-0.532-1.415-1.396
		c-0.023-0.784,0.456-1.355,1.205-1.377c0.884-0.025,1.188,0.61,1.213,1.463l-1.893,0.055c0.015,0.525,0.437,0.873,0.899,0.86
		c0.322-0.01,0.692-0.188,0.809-0.29L417.141,330.588z M416.781,329.125c-0.012-0.404-0.26-0.73-0.682-0.719
		c-0.479,0.014-0.665,0.415-0.691,0.758L416.781,329.125z"/>
	<path d="M418.058,328.203c0.24-0.152,0.529-0.265,0.867-0.274c0.759-0.021,1.077,0.344,1.098,1.066l0.032,1.098
		c0.009,0.302,0.023,0.442,0.036,0.52l-0.458,0.014l-0.01-0.344h-0.01c-0.109,0.165-0.363,0.417-0.81,0.43
		c-0.572,0.017-0.979-0.222-0.996-0.799c-0.02-0.666,0.703-0.895,1.207-0.909c0.192-0.006,0.328-0.01,0.521-0.006
		c-0.013-0.457-0.186-0.686-0.675-0.671c-0.276,0.008-0.569,0.12-0.762,0.292L418.058,328.203z M419.544,329.362
		c-0.104,0.003-0.208-0.004-0.312,0c-0.266,0.007-0.919,0.067-0.905,0.536c0.008,0.28,0.282,0.424,0.506,0.417
		c0.484-0.014,0.73-0.323,0.719-0.719L419.544,329.362z"/>
	<path d="M422.243,328.292l-0.703,0.02l0.042,1.45c0.009,0.307,0.201,0.469,0.425,0.462c0.151-0.004,0.259-0.054,0.33-0.104
		l0.012,0.416c-0.108,0.035-0.258,0.081-0.415,0.086c-0.504,0.015-0.823-0.216-0.838-0.747l-0.044-1.549l-0.599,0.018l-0.011-0.396
		l0.598-0.018l-0.018-0.614l0.484-0.171l0.022,0.771l0.703-0.02L422.243,328.292z"/>
	<path d="M424.953,330.362c-0.186,0.073-0.396,0.184-0.832,0.196c-0.942,0.027-1.39-0.532-1.415-1.396
		c-0.022-0.784,0.456-1.355,1.205-1.377c0.884-0.025,1.189,0.61,1.213,1.463l-1.893,0.055c0.015,0.525,0.436,0.873,0.899,0.859
		c0.322-0.009,0.692-0.187,0.809-0.289L424.953,330.362z M424.594,328.899c-0.012-0.404-0.261-0.73-0.682-0.719
		c-0.478,0.014-0.665,0.415-0.691,0.758L424.594,328.899z"/>
	<path d="M425.74,327.795l0.458-0.014l0.012,0.411h0.01c0.122-0.28,0.397-0.485,0.679-0.493c0.145-0.005,0.219,0.009,0.323,0.026
		l0.013,0.438c-0.09-0.034-0.189-0.041-0.272-0.039c-0.437,0.013-0.711,0.437-0.692,1.102l0.035,1.207l-0.489,0.015L425.74,327.795z
		"/>
</g>
<g>
	<path d="M275.712,357.713l1.633-0.047l1.321,3.821h0.015l1.099-3.892l1.633-0.047l0.147,5.088l-0.978,0.027l-0.121-4.199
		l-0.015,0.001l-1.249,4.238l-0.978,0.028l-1.491-4.159l-0.015,0.015l0.121,4.185l-0.977,0.028L275.712,357.713z"/>
	<path d="M282.715,359.042c0.374-0.186,0.881-0.31,1.297-0.321c1.145-0.033,1.632,0.427,1.664,1.535l0.014,0.481
		c0.011,0.379,0.026,0.663,0.042,0.94c0.016,0.283,0.038,0.545,0.068,0.836l-0.86,0.025c-0.042-0.196-0.05-0.443-0.06-0.56h-0.015
		c-0.214,0.422-0.696,0.67-1.141,0.683c-0.664,0.019-1.324-0.364-1.345-1.078c-0.016-0.562,0.245-0.896,0.611-1.09
		s0.847-0.244,1.255-0.256l0.54-0.016c-0.018-0.604-0.294-0.801-0.87-0.784c-0.416,0.013-0.827,0.185-1.147,0.442L282.715,359.042z
		 M283.944,361.941c0.299-0.009,0.528-0.147,0.675-0.356c0.154-0.215,0.19-0.487,0.182-0.779l-0.423,0.013
		c-0.438,0.013-1.085,0.104-1.068,0.681C283.32,361.82,283.594,361.951,283.944,361.941z"/>
	<path d="M286.578,358.734l0.911-0.026l0.016,0.524h0.015c0.293-0.468,0.733-0.635,1.098-0.645c0.525-0.016,0.902,0.171,1.127,0.632
		c0.213-0.459,0.695-0.685,1.155-0.698c0.926-0.026,1.207,0.601,1.231,1.438l0.068,2.369l-0.977,0.028l-0.065-2.238
		c-0.01-0.35-0.024-0.845-0.585-0.829c-0.649,0.02-0.707,0.793-0.693,1.282l0.053,1.822l-0.977,0.028l-0.064-2.238
		c-0.01-0.35-0.024-0.845-0.586-0.828c-0.649,0.019-0.707,0.792-0.693,1.281l0.053,1.822l-0.977,0.028L286.578,358.734z"/>
	<path d="M293.056,358.547l0.911-0.026l0.015,0.524h0.015c0.293-0.468,0.733-0.634,1.098-0.645c0.525-0.015,0.902,0.172,1.127,0.632
		c0.213-0.458,0.695-0.685,1.155-0.697c0.926-0.027,1.207,0.6,1.23,1.438l0.068,2.369l-0.977,0.028l-0.064-2.238
		c-0.01-0.35-0.024-0.845-0.586-0.828c-0.649,0.019-0.707,0.792-0.693,1.281l0.053,1.822l-0.977,0.028l-0.064-2.238
		c-0.01-0.35-0.024-0.845-0.586-0.828c-0.648,0.019-0.707,0.793-0.692,1.282l0.053,1.822l-0.977,0.027L293.056,358.547z"/>
	<path d="M301.266,358.223c1.116-0.032,1.99,0.693,2.026,1.933c0.031,1.079-0.666,1.961-1.912,1.997
		c-1.239,0.035-1.986-0.804-2.017-1.883C299.327,359.03,300.158,358.254,301.266,358.223z M301.358,361.395
		c0.751-0.022,0.928-0.699,0.911-1.327c-0.017-0.576-0.339-1.104-0.98-1.086c-0.634,0.018-0.924,0.579-0.908,1.141
		C300.397,360.742,300.614,361.416,301.358,361.395z"/>
	<path d="M304.342,358.937l-0.722,0.021l-0.021-0.715l0.722-0.021l-0.022-0.752l0.968-0.342l0.03,1.065l0.868-0.024l0.021,0.715
		l-0.868,0.024l0.051,1.749c0.009,0.321,0.105,0.618,0.478,0.607c0.175-0.005,0.341-0.046,0.441-0.115l0.052,0.771
		c-0.203,0.064-0.428,0.1-0.72,0.108c-0.766,0.022-1.202-0.439-1.224-1.184L304.342,358.937z"/>
	<path d="M306.785,356.436l0.977-0.028l0.064,2.224h0.015c0.237-0.372,0.654-0.617,1.164-0.632c0.89-0.026,1.294,0.59,1.318,1.436
		l0.068,2.369l-0.977,0.028l-0.058-2.005c-0.013-0.459-0.039-1.078-0.666-1.06c-0.707,0.02-0.838,0.789-0.824,1.271l0.053,1.837
		l-0.977,0.028L306.785,356.436z"/>
	<path d="M313.361,356.626l1.021-0.029l0.06,2.056l2.041-0.06l-0.059-2.056l1.021-0.029l0.147,5.088l-1.021,0.029l-0.064-2.23
		l-2.041,0.06l0.064,2.23l-1.021,0.029L313.361,356.626z"/>
	<path d="M320.292,357.673c1.115-0.032,1.99,0.694,2.026,1.934c0.031,1.079-0.666,1.96-1.913,1.996
		c-1.24,0.036-1.986-0.804-2.017-1.883C318.352,358.48,319.183,357.705,320.292,357.673z M320.383,360.845
		c0.751-0.021,0.929-0.698,0.91-1.326c-0.017-0.576-0.338-1.105-0.979-1.087c-0.635,0.019-0.925,0.58-0.909,1.142
		C319.423,360.193,319.64,360.866,320.383,360.845z"/>
	<path d="M323.366,358.388l-0.722,0.021l-0.021-0.715l0.722-0.021l-0.021-0.752l0.968-0.342l0.031,1.065l0.867-0.025l0.021,0.715
		l-0.867,0.025l0.05,1.749c0.009,0.321,0.106,0.617,0.477,0.606c0.175-0.005,0.342-0.046,0.442-0.115l0.051,0.771
		c-0.202,0.064-0.428,0.101-0.719,0.108c-0.766,0.022-1.202-0.438-1.224-1.183L323.366,358.388z"/>
	<path d="M282.728,365.737c-0.325-0.13-0.685-0.199-1.042-0.189c-0.35,0.011-0.797,0.177-0.781,0.73
		c0.025,0.882,2.246,0.446,2.295,2.152c0.032,1.114-0.838,1.563-1.866,1.594c-0.554,0.016-0.804-0.051-1.311-0.16l0.068-0.921
		c0.355,0.18,0.76,0.292,1.161,0.28c0.386-0.011,0.898-0.223,0.885-0.682c-0.028-0.97-2.247-0.505-2.296-2.188
		c-0.032-1.138,0.838-1.58,1.734-1.605c0.438-0.013,0.848,0.034,1.223,0.147L282.728,365.737z"/>
	<path d="M283.969,366.103l0.933-0.026l0.015,0.532l0.015-0.001c0.208-0.371,0.573-0.637,1.149-0.653
		c1.152-0.033,1.601,0.872,1.631,1.908c0.029,1.028-0.366,1.988-1.54,2.022c-0.415,0.012-0.761-0.081-1.116-0.487h-0.014
		l0.057,1.962l-0.978,0.028L283.969,366.103z M285.007,367.94c0.016,0.532,0.247,1.212,0.896,1.193
		c0.642-0.019,0.804-0.725,0.789-1.242c-0.015-0.504-0.21-1.189-0.845-1.172C285.22,366.738,284.992,367.415,285.007,367.94z"/>
	<path d="M288.442,365.974l0.868-0.025l0.025,0.852h0.015c0.033-0.35,0.417-0.952,1-0.969c0.095-0.003,0.197-0.006,0.3,0.021
		l0.028,0.983c-0.089-0.049-0.264-0.073-0.439-0.067c-0.795,0.022-0.766,1.015-0.75,1.554l0.04,1.378l-0.977,0.028L288.442,365.974z
		"/>
	<path d="M291.23,364.273l0.977-0.028l0.027,0.933l-0.977,0.028L291.23,364.273z M291.277,365.892l0.977-0.028l0.108,3.754
		l-0.977,0.028L291.277,365.892z"/>
	<path d="M293.281,365.834l0.926-0.026l0.015,0.51l0.015-0.001c0.293-0.438,0.705-0.618,1.215-0.633
		c0.889-0.026,1.294,0.59,1.318,1.436l0.068,2.369l-0.977,0.028l-0.058-2.005c-0.013-0.459-0.038-1.078-0.665-1.06
		c-0.707,0.021-0.838,0.789-0.824,1.271l0.053,1.837l-0.977,0.028L293.281,365.834z"/>
	<path d="M301.182,365.605l0.098,3.39c0.029,1.021-0.351,1.995-1.926,2.041c-0.386,0.011-0.833-0.034-1.305-0.218l0.056-0.834
		c0.304,0.152,0.797,0.306,1.104,0.297c1.079-0.031,1.106-0.843,1.088-1.491l-0.015,0.001c-0.173,0.325-0.603,0.615-1.149,0.631
		c-1.108,0.032-1.557-0.845-1.586-1.852c-0.026-0.904,0.411-1.959,1.533-1.992c0.496-0.014,0.887,0.143,1.169,0.564h0.014
		l-0.015-0.51L301.182,365.605z M300.258,367.471c-0.019-0.643-0.282-1.158-0.851-1.143c-0.664,0.02-0.857,0.637-0.84,1.213
		c0.015,0.511,0.302,1.13,0.864,1.114C300.043,368.638,300.275,368.098,300.258,367.471z"/>
	<path d="M304.438,366.299c-0.302-0.092-0.522-0.145-0.879-0.134c-0.262,0.007-0.573,0.111-0.564,0.432
		c0.018,0.598,1.705,0.169,1.744,1.525c0.025,0.874-0.745,1.247-1.539,1.271c-0.372,0.011-0.753-0.045-1.113-0.129l0.035-0.803
		c0.311,0.145,0.634,0.229,0.97,0.219c0.248-0.007,0.639-0.111,0.628-0.477c-0.021-0.736-1.706-0.185-1.745-1.541
		c-0.023-0.809,0.673-1.187,1.439-1.209c0.459-0.013,0.76,0.052,1.068,0.108L304.438,366.299z"/>
	<path d="M307.494,364.087l1.021-0.029l0.06,2.057l2.042-0.059l-0.059-2.057l1.021-0.029l0.147,5.089l-1.021,0.029l-0.064-2.23
		l-2.041,0.059l0.064,2.23l-1.021,0.029L307.494,364.087z"/>
	<path d="M314.424,365.136c1.115-0.032,1.99,0.693,2.026,1.933c0.031,1.079-0.666,1.961-1.913,1.997
		c-1.24,0.035-1.986-0.804-2.017-1.883C312.484,365.943,313.316,365.167,314.424,365.136z M314.516,368.308
		c0.751-0.022,0.929-0.698,0.911-1.326c-0.017-0.576-0.338-1.105-0.98-1.087c-0.635,0.018-0.925,0.579-0.908,1.141
		C313.556,367.655,313.772,368.329,314.516,368.308z"/>
	<path d="M317.5,365.85l-0.722,0.021l-0.021-0.715l0.722-0.021l-0.022-0.752l0.968-0.342l0.031,1.065l0.867-0.024l0.021,0.715
		l-0.867,0.024l0.05,1.749c0.009,0.321,0.106,0.618,0.477,0.607c0.175-0.005,0.342-0.046,0.442-0.115l0.051,0.771
		c-0.203,0.064-0.428,0.101-0.719,0.108c-0.766,0.022-1.202-0.44-1.224-1.184L317.5,365.85z"/>
	<path d="M323.106,368.518c-0.352,0.207-0.757,0.322-1.282,0.337c-1.239,0.036-1.982-0.658-2.018-1.891
		c-0.031-1.086,0.519-1.999,1.686-2.032c1.393-0.041,1.813,0.902,1.852,2.216l-2.596,0.074c0.062,0.604,0.494,0.935,1.1,0.917
		c0.474-0.014,0.877-0.2,1.235-0.415L323.106,368.518z M322.391,366.503c-0.043-0.474-0.273-0.874-0.82-0.858
		c-0.547,0.016-0.813,0.401-0.843,0.906L322.391,366.503z"/>
	<path d="M324.017,363.231l0.977-0.028l0.158,5.468l-0.977,0.028L324.017,363.231z"/>
</g>
<g>
	<path d="M373.521,347.789l0.8-0.457c0.687-0.393,1.428-0.553,1.859,0.202c0.421,0.736,0.035,1.31-0.643,1.697l-0.267,0.152
		l0.684,1.197l-0.632,0.361L373.521,347.789z M374.987,348.887l0.222-0.126c0.316-0.181,0.542-0.448,0.333-0.813
		c-0.209-0.366-0.558-0.334-0.883-0.149l-0.222,0.126L374.987,348.887z"/>
	<path d="M377.542,346.517c0.691-0.395,1.486-0.231,1.925,0.537c0.382,0.669,0.239,1.458-0.533,1.899
		c-0.769,0.439-1.521,0.161-1.902-0.508C376.593,347.677,376.856,346.909,377.542,346.517z M378.666,348.482
		c0.465-0.266,0.35-0.751,0.128-1.14c-0.204-0.357-0.585-0.583-0.982-0.356c-0.394,0.225-0.387,0.677-0.188,1.024
		C377.842,348.395,378.205,348.746,378.666,348.482z"/>
	<path d="M380.931,345.3c-0.222,0.042-0.378,0.083-0.6,0.21c-0.163,0.093-0.322,0.263-0.209,0.461
		c0.211,0.371,1.13-0.465,1.61,0.375c0.31,0.541-0.05,1.035-0.543,1.316c-0.23,0.131-0.488,0.225-0.743,0.292l-0.248-0.518
		c0.244-0.013,0.477-0.068,0.685-0.187c0.153-0.088,0.364-0.285,0.234-0.511c-0.26-0.456-1.135,0.457-1.615-0.383
		c-0.287-0.502,0.025-0.974,0.5-1.245c0.285-0.163,0.495-0.224,0.708-0.291L380.931,345.3z"/>
	<path d="M381.729,344.785l-0.447,0.255l-0.253-0.443l0.447-0.255l-0.266-0.465l0.494-0.54l0.377,0.659l0.537-0.307l0.253,0.443
		l-0.537,0.307l0.619,1.084c0.113,0.199,0.273,0.354,0.504,0.222c0.108-0.062,0.199-0.145,0.24-0.221l0.292,0.468
		c-0.105,0.109-0.235,0.207-0.416,0.31c-0.475,0.271-0.904,0.127-1.168-0.334L381.729,344.785z"/>
	<path d="M377.519,351.43c0.989-0.565,1.927-0.214,2.471,0.739s0.39,1.953-0.608,2.523c-1.012,0.578-1.93,0.208-2.482-0.758
		S376.516,352.003,377.519,351.43z M379.098,354.196c0.646-0.369,0.558-1.08,0.232-1.649c-0.317-0.556-0.9-0.978-1.528-0.619
		c-0.628,0.358-0.561,1.075-0.243,1.631C377.884,354.127,378.452,354.565,379.098,354.196z"/>
	<path d="M380.568,351.444l-0.447,0.255l-0.253-0.443l0.447-0.255l-0.186-0.325c-0.265-0.465-0.189-0.94,0.29-1.213
		c0.154-0.088,0.339-0.163,0.472-0.203l0.236,0.529c-0.072,0-0.178-0.006-0.309,0.069c-0.203,0.116-0.166,0.328-0.062,0.509
		l0.165,0.289l0.528-0.302l0.253,0.443l-0.528,0.302l1.076,1.884l-0.605,0.346L380.568,351.444z"/>
	<path d="M382.245,350.486l-0.447,0.255l-0.253-0.443l0.447-0.255l-0.186-0.325c-0.265-0.465-0.189-0.94,0.29-1.213
		c0.153-0.088,0.338-0.163,0.471-0.203l0.237,0.529c-0.072,0-0.178-0.006-0.309,0.069c-0.204,0.116-0.166,0.328-0.062,0.509
		l0.165,0.289l0.529-0.302l0.253,0.443l-0.529,0.302l1.076,1.884l-0.605,0.346L382.245,350.486z M382.969,348.155l0.605-0.346
		l0.33,0.578l-0.605,0.346L382.969,348.155z M383.542,349.158l0.605-0.346l1.329,2.327l-0.605,0.346L383.542,349.158z"/>
	<path d="M386.583,348.087c-0.137,0.012-0.275,0.043-0.461,0.149c-0.375,0.214-0.444,0.65-0.193,1.088
		c0.245,0.429,0.637,0.643,1.062,0.4c0.172-0.098,0.325-0.27,0.403-0.374l0.313,0.485c-0.146,0.154-0.312,0.281-0.561,0.423
		c-0.764,0.437-1.445,0.135-1.85-0.573c-0.384-0.674-0.291-1.434,0.437-1.85c0.244-0.14,0.436-0.213,0.631-0.258L386.583,348.087z"
		/>
	<path d="M389.914,348.431c-0.151,0.249-0.368,0.457-0.693,0.643c-0.768,0.438-1.468,0.25-1.904-0.513
		c-0.385-0.673-0.345-1.432,0.378-1.845c0.863-0.493,1.445-0.041,1.909,0.773l-1.608,0.919c0.241,0.359,0.625,0.422,1,0.208
		c0.294-0.167,0.485-0.42,0.639-0.676L389.914,348.431z M388.788,347.402c-0.186-0.283-0.466-0.459-0.805-0.266
		s-0.377,0.527-0.226,0.854L388.788,347.402z"/>
</g>
<g>
	<path fill="#FFFFFF" d="M350.519,394.803c-0.562,0.016-1.006,0.49-0.991,1.053l0.227,7.83c0.016,0.561,0.487,1.005,1.049,0.988
		l7.832-0.226c0.562-0.017,1.006-0.487,0.991-1.048l-0.227-7.83c-0.017-0.562-0.486-1.01-1.05-0.994L350.519,394.803z"/>
	<path d="M358.641,404.658c0.679-0.021,1.214-0.585,1.194-1.264l-0.227-7.83c-0.02-0.679-0.586-1.213-1.265-1.194l-7.831,0.226
		c-0.678,0.02-1.213,0.587-1.192,1.266l0.226,7.83c0.02,0.679,0.586,1.212,1.265,1.192L358.641,404.658z"/>
	<path fill="#FFFFFF" d="M353.209,399.532l2.515-0.073l-0.889-2.026l-0.855,0.024L353.209,399.532z M351.745,397.521l-0.021-0.759
		l5.507-0.16l0.022,0.761l-1.39,0.04l0.887,2.026l2.051-0.06l0.022,0.759l-1.742,0.051l1.038,2.359l-0.941,0.029l-1.039-2.361
		l-3.132,0.09l-0.896,2.417l-0.94,0.026l0.895-2.416l-1.729,0.05l-0.022-0.758l2.038-0.06l0.77-2.075L351.745,397.521z"/>
</g>
<g>
	<path fill="#FFFFFF" d="M368.02,439.096c-0.562,0.018-1.005,0.491-0.989,1.054l0.237,7.829c0.017,0.561,0.488,1.005,1.052,0.988
		l7.83-0.237c0.563-0.017,1.006-0.489,0.99-1.05l-0.237-7.828c-0.018-0.564-0.489-1.01-1.052-0.993L368.02,439.096z"/>
	<path d="M376.156,448.939c0.679-0.021,1.212-0.586,1.192-1.266l-0.237-7.828c-0.021-0.68-0.587-1.214-1.267-1.193l-7.829,0.237
		c-0.679,0.019-1.213,0.587-1.191,1.268l0.237,7.828c0.019,0.679,0.588,1.211,1.265,1.191L376.156,448.939z"/>
	<path fill="#FFFFFF" d="M370.717,443.82l2.514-0.076l-0.891-2.025l-0.856,0.025L370.717,443.82z M369.25,441.812l-0.022-0.758
		l5.508-0.167l0.022,0.759l-1.391,0.041l0.89,2.026l2.053-0.061l0.022,0.757l-1.744,0.053l1.043,2.359l-0.942,0.03l-1.042-2.36
		l-3.133,0.096l-0.891,2.417l-0.94,0.028l0.891-2.417l-1.729,0.052l-0.023-0.758l2.036-0.062l0.768-2.076L369.25,441.812z"/>
</g>
<g>
	<path fill="#FFFFFF" d="M302.002,386.949c-0.562,0.017-1.006,0.489-0.99,1.05l0.237,7.832c0.018,0.562,0.488,1.005,1.051,0.988
		l7.829-0.238c0.563-0.016,1.007-0.487,0.991-1.049l-0.237-7.832c-0.017-0.562-0.488-1.006-1.052-0.989L302.002,386.949z"/>
	<path d="M310.137,396.792c0.678-0.021,1.212-0.589,1.191-1.266l-0.237-7.831c-0.02-0.677-0.587-1.21-1.267-1.191l-7.829,0.237
		c-0.679,0.021-1.213,0.588-1.191,1.265l0.236,7.831c0.021,0.677,0.588,1.211,1.265,1.191L310.137,396.792z"/>
	<path fill="#FFFFFF" d="M309.417,392.578l0.038,1.237l0.651-0.02l-0.055-1.849l-7.297,0.22l-0.082-2.672
		c-0.005-0.18-0.153-0.321-0.333-0.316l0,0c-0.179,0.006-0.319,0.156-0.313,0.335l0.136,4.522l0.648-0.021l-0.038-1.236
		L309.417,392.578z"/>
	<circle fill="#FFFFFF" cx="303.691" cy="390.181" r="0.587"/>
	<path fill="#FFFFFF" d="M310.045,391.46l-0.026-0.806c-0.009-0.256-0.229-0.427-0.48-0.449l-4.622-0.32
		c-0.009-0.001-0.016-0.005-0.025-0.004c-0.159,0.004-0.285,0.138-0.28,0.297l0.026,0.869l-1.204,0.038
		c-0.162,0.004-0.287,0.138-0.281,0.297c0.005,0.159,0.136,0.283,0.299,0.279L310.045,391.46z"/>
</g>
<g>
	<path fill="#FFFFFF" d="M331.386,365.721c-0.564,0.017-1.007,0.49-0.992,1.054l0.239,7.828c0.017,0.563,0.488,1.007,1.052,0.99
		l7.829-0.238c0.562-0.016,1.008-0.487,0.99-1.051l-0.236-7.828c-0.017-0.563-0.489-1.008-1.053-0.992L331.386,365.721z"/>
	<path d="M339.52,375.564c0.68-0.02,1.214-0.587,1.193-1.266l-0.238-7.829c-0.02-0.679-0.589-1.214-1.267-1.193l-7.829,0.237
		c-0.679,0.021-1.213,0.589-1.192,1.268l0.236,7.829c0.021,0.679,0.588,1.212,1.268,1.193L339.52,375.564z"/>
	<path fill="#FFFFFF" d="M338.808,369.43c0,0-0.034,1.688-1.516,1.592C337.292,371.022,337.085,369.616,338.808,369.43z"/>
	<path fill="#FFFFFF" d="M337.699,371.663c0.187-0.196,0.447-0.321,0.74-0.33c0.593-0.018,1.09,0.448,1.106,1.042
		c0.002,0.022,0.002,0.04,0.002,0.063l-0.001,0c-0.012,0.23-0.077,0.522-0.241,0.885c0,0-0.285,0.584-0.519,0.855l-0.021,0.022
		c-0.115,0.12-0.275,0.2-0.455,0.205c-0.217,0.006-0.415-0.093-0.537-0.254h-0.002c-0.114,0.168-0.304,0.28-0.523,0.286
		c-0.179,0.006-0.343-0.063-0.466-0.177l-0.022-0.019c-0.248-0.256-0.568-0.824-0.568-0.824c-0.185-0.352-0.268-0.641-0.291-0.869
		l-0.004,0c-0.004-0.022-0.004-0.041-0.005-0.063c-0.019-0.594,0.449-1.088,1.044-1.106c0.292-0.008,0.56,0.1,0.761,0.284"/>
	
		<rect x="333.127" y="366.25" transform="matrix(0.0322 0.9995 -0.9995 0.0322 689.3561 21.8999)" fill="#FFFFFF" width="0.486" height="1.305"/>
	<path fill="#FFFFFF" d="M331.885,370.211c0.005,0.159,0.23,0.327,0.4,0.118l0.462-0.643c0.022-0.029,0.049-0.089,0.048-0.154
		l-0.047-1.505c-0.014-0.422-0.395-0.061-0.539,0.093l-0.32,0.434c-0.053,0.073-0.053,0.099-0.052,0.138L331.885,370.211z
		 M331.532,368.677c-0.003-0.092,0.023-0.176,0.067-0.248l0.563-0.756c0.164-0.211,0.342-0.192,0.342-0.192l1.509-0.046
		c0.939,0.064,0.967,0.954,0.967,0.954l0.174,5.777c0.005,0.152-0.115,0.28-0.267,0.285l-2.897,0.087
		c-0.153,0.004-0.28-0.116-0.286-0.268L331.532,368.677z"/>
</g>
<g>
	<path fill="#FFFFFF" d="M324.448,382.028c-0.564,0.018-1.008,0.49-0.99,1.053l0.236,7.828c0.018,0.564,0.49,1.008,1.053,0.992
		l7.828-0.237c0.565-0.018,1.008-0.49,0.991-1.052l-0.237-7.829c-0.017-0.564-0.488-1.008-1.053-0.991L324.448,382.028z"/>
	<path d="M331.005,390.605c-0.43,0.013-0.82-0.33-0.831-0.734l-0.091-3.009c-0.004-0.138-0.12-0.246-0.257-0.242l-0.598,0.019
		l0.117,3.995l-3.172,0.044l-0.206-6.841c-0.011-0.358,0.272-0.655,0.629-0.667l1.873-0.056c0.357-0.012,0.658,0.269,0.668,0.627
		c0,0,0.001,0.028,0.002,0.077c0.013,0.419,0.07,2.393,0.027,2.398c0.001,0,0.639-0.02,0.639-0.02
		c0.368-0.011,0.675,0.278,0.686,0.645l0.087,3.017c0.005,0.199,0.227,0.348,0.414,0.343c0.202-0.006,0.452-0.181,0.433-0.461
		l-0.372-1.712l-0.089-0.582l-0.001-1.703l-0.142,0.001c-0.317,0.01-0.582-0.239-0.592-0.553l-0.012-0.894
		c0,0-0.543-0.506-0.545-0.58c0,0,0.197-0.208,0.271-0.21l1.094,1.025c0.172,0.163,0.258,0.36,0.265,0.605l0.07,2.295
		c0,0,0.081,0.495,0.082,0.5c0,0,0.378,1.786,0.389,1.887C331.857,390.254,331.412,390.592,331.005,390.605z M332.27,381.582
		l-7.829,0.237c-0.68,0.022-1.213,0.59-1.193,1.268l0.238,7.829c0.021,0.679,0.588,1.215,1.267,1.193l7.829-0.237
		c0.679-0.02,1.212-0.587,1.192-1.267l-0.237-7.829C333.518,382.097,332.95,381.562,332.27,381.582z"/>
	<path fill="#FFFFFF" d="M331.455,387.934c-0.001-0.005-0.082-0.5-0.082-0.5l-0.07-2.295c-0.007-0.246-0.093-0.443-0.265-0.605
		l-1.094-1.025c-0.074,0.002-0.271,0.21-0.271,0.21c0.002,0.074,0.545,0.58,0.545,0.58l0.012,0.894
		c0.01,0.314,0.275,0.563,0.592,0.553l0.142-0.001l0.001,1.703l0.089,0.582l0.372,1.712c0.02,0.28-0.231,0.455-0.433,0.461
		c-0.187,0.005-0.409-0.144-0.414-0.343l-0.087-3.017c-0.011-0.367-0.318-0.656-0.686-0.645c0,0-0.638,0.02-0.639,0.02
		c0.042-0.005-0.014-1.979-0.027-2.398c-0.001-0.048-0.002-0.077-0.002-0.077c-0.01-0.358-0.311-0.639-0.668-0.627l-1.873,0.056
		c-0.357,0.011-0.641,0.308-0.629,0.667l0.206,6.841l3.172-0.044l-0.117-3.995l0.598-0.019c0.137-0.004,0.253,0.104,0.257,0.242
		l0.091,3.009c0.011,0.404,0.401,0.748,0.831,0.734c0.406-0.013,0.852-0.351,0.838-0.784
		C331.833,389.719,331.455,387.934,331.455,387.934z"/>
	<path d="M330.754,384.824c-0.038-0.007-0.196-0.038-0.196-0.038l0.011,0.409c0.005,0.111,0.095,0.23,0.333,0.274
		c0,0-0.007-0.305-0.011-0.407C330.886,384.959,330.833,384.842,330.754,384.824z"/>
	<path d="M328.482,383.584l-1.872,0.056c-0.101,0.003-0.176,0.083-0.172,0.183l0.047,1.578c0.004,0.099,0.084,0.174,0.185,0.171
		l1.872-0.057c0.1-0.003,0.177-0.083,0.173-0.183l-0.046-1.578C328.664,383.656,328.583,383.581,328.482,383.584z"/>
</g>
<g>
	<path fill="#FFFFFF" d="M342.129,356.254c-0.563,0.017-1.007,0.49-0.991,1.052l0.239,7.831c0.016,0.562,0.487,1.005,1.051,0.989
		l7.829-0.237c0.562-0.018,1.006-0.489,0.99-1.051l-0.238-7.83c-0.017-0.562-0.488-1.006-1.052-0.99L342.129,356.254z"/>
	<path d="M350.262,366.096c0.679-0.021,1.213-0.586,1.192-1.265l-0.238-7.83c-0.02-0.68-0.587-1.214-1.266-1.192l-7.828,0.236
		c-0.68,0.021-1.213,0.588-1.192,1.267l0.238,7.83c0.019,0.678,0.586,1.21,1.266,1.19L350.262,366.096z"/>
	<path fill="#FFFFFF" d="M345.699,359.56c0.009,0.273-0.23,0.568-0.55,0.578l0.138,4.582c0.021,0.651-0.868,0.678-0.888,0.028
		l-0.138-4.582c-0.312,0.009-0.591-0.223-0.602-0.585l-0.077-2.521c-0.005-0.219,0.311-0.238,0.318-0.002l0.056,1.865l0.265-0.008
		l0.306-0.009l-0.022,0l-0.058-1.878c-0.005-0.21,0.29-0.228,0.298-0.002l0.055,1.871l0.568-0.016l-0.057-1.878
		c-0.006-0.209,0.302-0.227,0.31-0.002L345.699,359.56z"/>
	<path fill="#FFFFFF" d="M348.419,357.502l0.216,7.114c0.019,0.637-0.87,0.654-0.889,0.027l-0.085-2.822l-0.474,0.014l-0.131-4.293
		C347.027,356.544,348.389,356.503,348.419,357.502z"/>
</g>
<g>
	<path fill="#FFFFFF" d="M411.09,337.6c-0.564,0.017-1.007,0.489-0.991,1.052l0.237,7.829c0.017,0.563,0.49,1.009,1.054,0.992
		l7.828-0.237c0.563-0.017,1.009-0.491,0.991-1.053l-0.236-7.829c-0.018-0.562-0.49-1.007-1.054-0.99L411.09,337.6z"/>
	<path d="M419.224,347.442c0.679-0.021,1.213-0.589,1.194-1.268l-0.238-7.829c-0.021-0.68-0.589-1.212-1.268-1.19l-7.829,0.236
		c-0.679,0.02-1.213,0.587-1.192,1.266l0.237,7.829c0.02,0.679,0.587,1.213,1.266,1.193L419.224,347.442z"/>
	<path fill="#FFFFFF" d="M413.449,345.206l1.71-3.533l1.923,3.423L413.449,345.206z M418.655,345.048l-3.588-6.388l-3.192,6.594
		l-0.719,0.021l0.015,0.468l8.159-0.248l-0.014-0.467L418.655,345.048z"/>
</g>
<g>
	<path fill="#D0432F" d="M403.412,364.113c1.184-0.036,2.115-1.024,2.079-2.207l-0.182-6.001c-0.036-1.184-1.024-2.114-2.209-2.078
		l-6,0.182c-1.184,0.037-2.114,1.024-2.079,2.208l0.18,6.001c0.037,1.183,1.025,2.114,2.209,2.077L403.412,364.113z"/>
	<path fill="#FFFFFF" d="M402.779,363.148c0.954-0.029,1.703-0.825,1.674-1.778l-0.146-4.835c-0.03-0.955-0.826-1.705-1.781-1.676
		l-4.833,0.147c-0.954,0.028-1.702,0.826-1.674,1.778l0.146,4.835c0.029,0.954,0.825,1.703,1.778,1.674L402.779,363.148z"/>
	<g>
		
			<rect x="396.783" y="358.168" transform="matrix(-0.0303 -0.9995 0.9995 -0.0303 53.4829 770.0138)" fill="#D0432F" width="6.924" height="1.794"/>
		
			<rect x="396.784" y="358.167" transform="matrix(-0.9995 0.0303 -0.0303 -0.9995 811.1713 705.8547)" fill="#D0432F" width="6.923" height="1.795"/>
	</g>
</g>
<g>
	<path fill="#005C43" d="M353.757,411.481l1.899-0.055l2.407,5.748l-1.699,0.049l-0.469-1.228l-2.182,0.062l-0.422,1.254
		l-1.574,0.045L353.757,411.481z M354.741,412.653h-0.017l-0.684,2.295l1.458-0.042L354.741,412.653z"/>
	<path fill="#005C43" d="M358.591,410.909l1.499-0.043l0.18,6.245l-1.499,0.043L358.591,410.909z"/>
	<path fill="#005C43" d="M361.165,410.835l1.507-0.043l0.071,2.465l0.017-0.001c0.37-0.494,0.873-0.684,1.472-0.701
		c1.199-0.034,1.89,1.088,1.92,2.137c0.037,1.282-0.624,2.368-1.914,2.405c-0.691,0.02-1.311-0.354-1.516-0.831h-0.017l0.022,0.774
		l-1.382,0.04L361.165,410.835z M363.665,413.722c-0.55,0.016-0.902,0.509-0.884,1.158c0.018,0.634,0.448,1.096,0.948,1.082
		c0.566-0.017,0.894-0.501,0.874-1.192C364.587,414.194,364.248,413.705,363.665,413.722z"/>
	<path fill="#005C43" d="M369.948,413.689c-0.168-0.045-0.335-0.04-0.51-0.035c-0.699,0.021-1.076,0.54-1.052,1.39l0.053,1.832
		l-1.499,0.043l-0.125-4.339l1.366-0.039l0.023,0.8l0.017-0.001c0.243-0.558,0.607-0.918,1.256-0.937
		c0.175-0.005,0.358,0.015,0.51,0.035L369.948,413.689z"/>
	<path fill="#005C43" d="M372.166,411.717l-1.499,0.044l-0.032-1.099l1.499-0.044L372.166,411.717z M370.688,412.469l1.499-0.044
		l0.125,4.339l-1.499,0.044L370.688,412.469z"/>
	<path fill="#005C43" d="M378.001,416.092c0.051,1.782-0.798,2.382-2.547,2.432c-0.716,0.021-1.312-0.112-1.665-0.228l0.041-1.184
		c0.465,0.211,0.852,0.334,1.476,0.316c0.866-0.025,1.321-0.447,1.296-1.297l-0.007-0.233l-0.017,0.001
		c-0.344,0.518-0.836,0.766-1.436,0.783c-1.191,0.034-1.958-0.843-1.995-2.126c-0.038-1.291,0.542-2.274,1.892-2.313
		c0.642-0.019,1.168,0.316,1.5,0.841l0.017-0.001l-0.022-0.783l1.357-0.039L378.001,416.092z M375.576,415.521
		c0.533-0.016,0.945-0.478,0.926-1.145c-0.014-0.482-0.312-1.016-0.987-0.996c-0.558,0.017-0.835,0.515-0.818,1.106
		C374.716,415.161,375.127,415.533,375.576,415.521z"/>
	<path fill="#005C43" d="M378.802,410.327l1.5-0.044l0.074,2.548h0.017c0.312-0.46,0.777-0.765,1.427-0.783
		c1.182-0.034,1.681,0.785,1.707,1.684l0.078,2.707l-1.499,0.043l-0.061-2.099c-0.023-0.816-0.314-1.082-0.722-1.07
		c-0.617,0.018-0.921,0.451-0.894,1.384l0.053,1.832l-1.5,0.044L378.802,410.327z"/>
	<path fill="#005C43" d="M384.028,412.084l0.883-0.025l-0.028-0.975l1.461-0.499l0.042,1.432l1.049-0.03l0.03,1.05l-1.049,0.03
		l0.046,1.599c0.015,0.525,0.147,0.788,0.622,0.774c0.149-0.005,0.307-0.042,0.456-0.072l0.078,0.973
		c-0.282,0.041-0.563,0.1-0.938,0.11c-1.341,0.038-1.683-0.543-1.713-1.575l-0.051-1.766l-0.857,0.024L384.028,412.084z"/>
	<path fill="#005C43" d="M351.807,419.872l1.649-0.048l1.422,4.526l0.017-0.001l1.167-4.601l1.591-0.046l-1.814,5.871l-1.916,0.055
		L351.807,419.872z"/>
	<path fill="#005C43" d="M359.898,420.405l-1.499,0.044l-0.031-1.1l1.499-0.044L359.898,420.405z M358.42,421.156l1.499-0.044
		l0.125,4.34l-1.499,0.044L358.42,421.156z"/>
	<path fill="#005C43" d="M361.034,424.224c0.354,0.14,0.875,0.275,1.416,0.26c0.309-0.009,0.606-0.068,0.598-0.368
		c-0.021-0.732-2.138-0.155-2.183-1.72c-0.029-1,0.942-1.436,1.808-1.461c0.516-0.015,1.042,0.027,1.531,0.205l-0.087,1.045
		c-0.322-0.183-0.799-0.269-1.174-0.258c-0.325,0.01-0.689,0.077-0.682,0.319c0.019,0.675,2.236,0.078,2.283,1.727
		c0.033,1.158-0.999,1.479-1.982,1.507c-0.675,0.02-1.135-0.033-1.58-0.162L361.034,424.224z"/>
	<path fill="#005C43" d="M366.844,420.206l-1.499,0.043l-0.032-1.1l1.499-0.043L366.844,420.206z M365.365,420.956l1.499-0.043
		l0.125,4.34l-1.499,0.043L365.365,420.956z"/>
	<path fill="#005C43" d="M367.588,420.892l0.883-0.025l-0.028-0.974l1.461-0.5l0.041,1.432l1.049-0.03l0.03,1.05l-1.049,0.03
		l0.046,1.599c0.015,0.525,0.147,0.788,0.623,0.774c0.15-0.004,0.307-0.043,0.457-0.072l0.078,0.974
		c-0.282,0.041-0.564,0.1-0.939,0.11c-1.34,0.038-1.683-0.543-1.712-1.576l-0.051-1.766l-0.858,0.024L367.588,420.892z"/>
	<path fill="#005C43" d="M371.523,422.955c-0.042-1.441,1.025-2.305,2.458-2.347c1.432-0.041,2.547,0.76,2.589,2.201
		c0.042,1.432-1.026,2.296-2.458,2.337C372.679,425.188,371.564,424.387,371.523,422.955z M375.021,422.854
		c-0.019-0.65-0.318-1.217-1.009-1.197c-0.691,0.021-0.958,0.603-0.939,1.253c0.019,0.641,0.318,1.207,1.01,1.187
		C374.772,424.077,375.039,423.495,375.021,422.854z"/>
	<path fill="#005C43" d="M380.364,421.725c-0.168-0.045-0.335-0.04-0.51-0.035c-0.699,0.021-1.076,0.539-1.052,1.388l0.053,1.833
		l-1.499,0.044l-0.125-4.34l1.366-0.04l0.022,0.8h0.017c0.243-0.558,0.607-0.917,1.257-0.936c0.175-0.005,0.358,0.014,0.51,0.034
		L380.364,421.725z"/>
	<path fill="#005C43" d="M357.516,433.726c-0.438,0.121-0.926,0.261-1.717,0.283c-1.549,0.045-3.362-0.688-3.425-2.886
		c-0.059-2.023,1.328-3.07,3.244-3.126c0.591-0.017,1.169,0.1,1.732,0.25l-0.088,1.261c-0.508-0.26-0.995-0.38-1.527-0.364
		c-1.1,0.031-1.793,0.852-1.762,1.934c0.033,1.142,0.861,1.81,1.993,1.777c0.508-0.015,1.021-0.162,1.44-0.342L357.516,433.726z"/>
	<path fill="#005C43" d="M359.409,432.071c0.101,0.598,0.565,0.818,1.299,0.797c0.408-0.012,0.871-0.117,1.314-0.372l0.031,1.058
		c-0.478,0.205-1.025,0.305-1.583,0.32c-1.432,0.041-2.548-0.769-2.589-2.201c-0.041-1.432,0.909-2.292,2.259-2.331
		c1.607-0.046,2.223,1.078,2.26,2.368l0.008,0.274L359.409,432.071z M361.034,431.174c-0.014-0.5-0.259-0.9-0.859-0.883
		c-0.541,0.016-0.788,0.43-0.807,0.931L361.034,431.174z"/>
	<path fill="#005C43" d="M363.115,429.355l1.365-0.039l0.023,0.8l0.017-0.001c0.281-0.633,0.873-0.925,1.556-0.944
		c1.183-0.034,1.681,0.785,1.707,1.684l0.078,2.707l-1.499,0.043l-0.061-2.099c-0.023-0.816-0.314-1.083-0.723-1.071
		c-0.616,0.019-0.92,0.452-0.893,1.385l0.053,1.832l-1.499,0.043L363.115,429.355z"/>
	<path fill="#005C43" d="M368.286,429.207l0.883-0.025l-0.028-0.975l1.461-0.5l0.042,1.432l1.049-0.03l0.03,1.05l-1.049,0.03
		l0.046,1.599c0.015,0.525,0.148,0.788,0.623,0.774c0.15-0.004,0.307-0.042,0.456-0.071l0.078,0.972
		c-0.282,0.042-0.564,0.1-0.938,0.11c-1.341,0.039-1.683-0.543-1.713-1.575l-0.051-1.766l-0.857,0.025L368.286,429.207z"/>
	<path fill="#005C43" d="M373.749,431.658c0.101,0.598,0.565,0.818,1.298,0.797c0.408-0.012,0.872-0.117,1.314-0.372l0.031,1.058
		c-0.478,0.205-1.025,0.305-1.583,0.32c-1.433,0.041-2.548-0.769-2.589-2.201c-0.042-1.432,0.909-2.292,2.258-2.331
		c1.607-0.047,2.224,1.078,2.261,2.368l0.008,0.274L373.749,431.658z M375.373,430.761c-0.014-0.5-0.259-0.9-0.858-0.883
		c-0.542,0.016-0.788,0.43-0.807,0.931L375.373,430.761z"/>
	<path fill="#005C43" d="M380.587,430.053c-0.168-0.045-0.335-0.04-0.51-0.035c-0.699,0.02-1.076,0.539-1.051,1.389l0.053,1.832
		l-1.5,0.043l-0.125-4.339l1.366-0.039l0.023,0.8l0.017-0.001c0.243-0.557,0.607-0.917,1.256-0.936
		c0.175-0.006,0.359,0.014,0.51,0.035L380.587,430.053z"/>
</g>
<path fill="none" stroke="#999999" stroke-width="2" d="M365.964,359.37c0.776-6.34,2.668-17.507,4.514-19.569
	c0.733-0.817,2.809-3.537,4.648-3.066c3.157,0.808,5.904,0.419,6.343-1.312c0.862-3.391-4.901-8.847-4.175-11.508
	C380,314,380,311,380.5,303s-3-6-5.5-14s-6-13.5-2.5-18.5s6-6,2.5-8.5s-5-2.5-4-4.5s7.5-8,2-16.5s-8.5-6.5-12-15.5s-3.5-9.5-2-13
	s-3-3-4.5-12s-2.5-14.5-4.5-22"/>
<g>
</g>
<g>
</g>
<g>
</g>
<g>
</g>
<g>
</g>
<g>
</g>
<g>
</g>
<g>
</g>
<g>
</g>
</svg>
